<svg width="61" height="60" viewBox="0 0 61 60" fill="none" xmlns="http://www.w3.org/2000/svg">
<circle cx="30.5" cy="30" r="30" fill="#00005B"/>
<path d="M24.6022 35.8971H15.3022L13.4022 41.9484C13.3522 42.1791 13.1522 42.333 12.9272 42.3073H8.22719C7.95219 42.3073 7.87719 42.1535 7.95219 41.8458L16.0022 18.1791C16.0772 17.9227 16.1522 17.692 16.2522 17.3843C16.3522 16.8458 16.4022 16.2817 16.4022 15.7176C16.3772 15.5894 16.4772 15.4612 16.6022 15.4355H16.6772H23.0772C23.2522 15.4355 23.3772 15.5125 23.4022 15.6407L32.5272 41.7945C32.6022 42.0766 32.5272 42.2048 32.2772 42.2048H27.0522C26.8772 42.2304 26.7022 42.1022 26.6522 41.9227L24.6022 35.7689V35.8971ZM16.7522 30.7945H23.1022C22.9522 30.2561 22.7522 29.615 22.5272 28.9484C22.3022 28.2561 22.0772 27.5125 21.8522 26.7432C21.6022 25.9484 21.3772 25.1791 21.1272 24.3843C20.8772 23.5894 20.6522 22.8458 20.4522 22.1022C20.2522 21.3843 20.0772 20.7176 19.9022 20.1022H19.8522C19.6272 21.2048 19.3522 22.3073 19.0022 23.4099C18.6272 24.6407 18.2522 25.9227 17.8522 27.2048C17.5272 28.5125 17.1272 29.7176 16.7522 30.7945V30.7945Z" fill="#9999FF"/>
<path d="M47.2518 33.5894H39.3268C39.4268 34.3843 39.6768 35.1791 40.1018 35.8714C40.5518 36.5637 41.1768 37.1022 41.9268 37.4099C42.9268 37.8458 44.0268 38.0766 45.1268 38.0509C46.0018 38.0253 46.8768 37.9484 47.7268 37.7689C48.5018 37.6663 49.2518 37.4612 49.9518 37.1791C50.0768 37.0766 50.1518 37.1278 50.1518 37.3843V41.3073C50.1518 41.4099 50.1268 41.5125 50.1018 41.615C50.0518 41.6919 50.0018 41.7432 49.9268 41.7945C49.1268 42.1535 48.3018 42.4099 47.4268 42.5637C46.2518 42.7945 45.0768 42.8971 43.8768 42.8714C41.9768 42.8714 40.3768 42.5637 39.0768 41.974C37.8518 41.4355 36.7768 40.5894 35.9268 39.5381C35.1268 38.5381 34.5518 37.4099 34.2018 36.1791C33.8518 34.974 33.6768 33.7176 33.6768 32.4355C33.6768 31.0509 33.8768 29.6919 34.3018 28.3586C34.7018 27.0766 35.3268 25.8971 36.1768 24.8458C37.0018 23.8202 38.0268 22.9996 39.2018 22.4099C40.3768 21.8202 41.7768 21.615 43.3768 21.615C44.7018 21.5894 46.0268 21.8458 47.2518 22.4099C48.2768 22.8714 49.1768 23.5637 49.8768 24.4612C50.5268 25.333 51.0518 26.3073 51.3768 27.3843C51.7018 28.4099 51.8518 29.4612 51.8518 30.5125C51.8518 31.1278 51.8268 31.6663 51.8018 32.1535C51.7518 32.6407 51.7268 32.9996 51.7018 33.2304C51.6768 33.4099 51.5268 33.5637 51.3518 33.5637C51.2018 33.5637 50.9268 33.5894 50.5268 33.615C50.1268 33.6663 49.6518 33.6919 49.0768 33.6919C48.5018 33.6919 47.9018 33.5894 47.2518 33.5894V33.5894ZM39.3268 29.8458H44.6018C45.2518 29.8458 45.7268 29.8458 46.0268 29.8202C46.2268 29.7945 46.4268 29.7432 46.6018 29.615V29.3586C46.6018 29.0253 46.5518 28.7176 46.4518 28.4099C46.0018 26.974 44.6768 25.9996 43.2018 26.0509C41.8268 25.974 40.5268 26.7176 39.8768 27.9996C39.5768 28.5894 39.4018 29.2048 39.3268 29.8458Z" fill="#9999FF"/>
</svg>
