<svg width="61" height="60" viewBox="0 0 61 60" fill="none" xmlns="http://www.w3.org/2000/svg">
<g clip-path="url(#clip0_41_388)">
<path d="M11.4893 0H50.2393C56.1143 0 60.8643 4.8718 60.8643 10.8974V49.1026C60.8643 55.1282 56.1143 60 50.2393 60H11.4893C5.61426 60 0.864258 55.1282 0.864258 49.1026V10.8974C0.864258 4.8718 5.61426 0 11.4893 0Z" fill="#330000"/>
<path d="M29.8629 35.8969H20.5629L18.6629 41.9225C18.6129 42.1533 18.4129 42.3071 18.1879 42.2815H13.4879C13.2129 42.2815 13.1379 42.1277 13.2129 41.82L21.2629 18.0507C21.3379 17.7943 21.4129 17.5123 21.5129 17.2046C21.6129 16.6661 21.6629 16.102 21.6629 15.5379C21.6379 15.4097 21.7379 15.2815 21.8629 15.2559H21.9379H28.3379C28.5379 15.2559 28.6379 15.3328 28.6629 15.461L37.7879 41.8712C37.8629 42.1533 37.7879 42.2815 37.5379 42.2815H32.3129C32.1379 42.3071 31.9629 42.1789 31.9129 41.9994L29.8629 35.8969V35.8969ZM22.0129 30.6918H28.3629C28.2129 30.1533 28.0129 29.5123 27.7879 28.8456C27.5629 28.1533 27.3379 27.4097 27.1129 26.6405C26.8629 25.8456 26.6379 25.0764 26.3879 24.2815C26.1379 23.4866 25.9129 22.743 25.7129 21.9994C25.5129 21.2815 25.3379 20.6148 25.1629 19.9994H25.1129C24.8879 21.102 24.6129 22.2046 24.2629 23.3071C23.8879 24.5379 23.5129 25.82 23.1129 27.102C22.7629 28.4097 22.3879 29.6148 22.0129 30.6918V30.6918Z" fill="#FF9A00"/>
<path d="M43.3616 19.7435C42.5366 19.7692 41.7366 19.4358 41.1366 18.8461C40.5616 18.2051 40.2616 17.3589 40.2866 16.4871C40.2616 15.6153 40.5866 14.7948 41.1866 14.2051C41.7866 13.6153 42.5866 13.3076 43.4116 13.3076C44.3866 13.3076 45.1366 13.6153 45.6866 14.2051C46.2366 14.8204 46.5366 15.641 46.5116 16.4871C46.5366 17.3589 46.2366 18.2051 45.6366 18.8461C45.0616 19.4615 44.2116 19.7948 43.3616 19.7435ZM40.5616 41.9999V22.2563C40.5616 21.9999 40.6616 21.8974 40.8866 21.8974H45.8366C46.0616 21.8974 46.1616 22.0256 46.1616 22.2563V41.9999C46.1616 42.282 46.0616 42.4102 45.8366 42.4102H40.9366C40.6866 42.4102 40.5616 42.2563 40.5616 41.9999V41.9999Z" fill="#FF9A00"/>
</g>
<defs>
<clipPath id="clip0_41_388">
<rect x="0.864258" width="60" height="60" rx="30" fill="white"/>
</clipPath>
</defs>
</svg>
