<svg width="85" height="84" viewBox="0 0 85 84" fill="none" xmlns="http://www.w3.org/2000/svg">
<circle cx="42.5132" cy="42.0024" r="41.9976" fill="white"/>
<g clip-path="url(#clip0_42_478)">
<path d="M34.5625 66C38.9785 66 42.5625 62.416 42.5625 58V50H34.5625C30.1465 50 26.5625 53.584 26.5625 58C26.5625 62.416 30.1465 66 34.5625 66Z" fill="#0ACF83"/>
<path d="M26.5625 42.001C26.5625 37.585 30.1465 34.001 34.5625 34.001H42.5625V50.001H34.5625C30.1465 50.001 26.5625 46.417 26.5625 42.001Z" fill="#A259FF"/>
<path d="M26.5625 26.001C26.5625 21.585 30.1465 18.001 34.5625 18.001H42.5625V34.001H34.5625C30.1465 34.001 26.5625 30.417 26.5625 26.001Z" fill="#F24E1E"/>
<path d="M42.543 18H50.543C54.959 18 58.543 21.584 58.543 26C58.543 30.416 54.959 34 50.543 34H42.543V18Z" fill="#FF7262"/>
<path d="M58.543 42C58.543 46.416 54.959 50 50.543 50C46.127 50 42.543 46.416 42.543 42C42.543 37.584 46.127 34 50.543 34C54.959 34 58.543 37.584 58.543 42Z" fill="#1ABCFE"/>
</g>
<defs>
<clipPath id="clip0_42_478">
<rect width="48" height="48" fill="white" transform="translate(18.5312 18)"/>
</clipPath>
</defs>
</svg>
