<svg width="524" height="618" viewBox="0 0 524 618" fill="none" xmlns="http://www.w3.org/2000/svg">
<g filter="url(#filter0_bd_5_503)">
<g clip-path="url(#clip0_5_503)">
<g opacity="0.1" filter="url(#filter1_f_5_503)">
<ellipse cx="262" cy="363.5" rx="150" ry="163.5" fill="url(#paint0_linear_5_503)"/>
</g>
<g filter="url(#filter2_bd_5_503)">
<rect x="83" y="286" width="358" height="220" rx="8" fill="url(#paint1_linear_5_503)" fill-opacity="0.5" shape-rendering="crispEdges"/>
<rect x="83.5" y="286.5" width="357" height="219" rx="7.5" stroke="url(#paint2_linear_5_503)" stroke-opacity="0.12" shape-rendering="crispEdges"/>
<g filter="url(#filter3_b_5_503)">
<mask id="path-5-inside-1_5_503" fill="white">
<path d="M83 286H441V314H83V286Z"/>
</mask>
<path d="M441 313H83V315H441V313Z" fill="black" fill-opacity="0.12" mask="url(#path-5-inside-1_5_503)"/>
</g>
<circle cx="97" cy="300" r="2" fill="#9FC7FE"/>
<circle cx="105" cy="300" r="2" fill="#9FC7FE"/>
<circle cx="113" cy="300" r="2" fill="#9FC7FE"/>
</g>
<g filter="url(#filter4_b_5_503)">
<rect x="107" y="338" width="310" height="200" rx="10" fill="white"/>
<rect x="107.5" y="338.5" width="309" height="199" rx="9.5" stroke="#EFEFEF"/>
<path d="M161.72 417.52C153.96 417.52 148.6 411.4 148.6 402.72C148.6 394.08 153.92 387.88 161.76 387.88C168.44 387.88 172.8 392.16 173.52 397.52H170.48C169.92 394.32 167.56 390.44 161.72 390.44C154.8 390.44 151.64 396.32 151.64 402.72C151.64 409.12 154.84 414.96 161.72 414.96C167.76 414.96 170.28 410.8 170.6 406.84H173.64C172.96 413.08 168.52 417.52 161.72 417.52ZM185.171 417.56C179.051 417.56 175.371 413.16 175.371 406.84C175.371 400.48 179.051 396.08 185.171 396.08C191.291 396.08 194.971 400.48 194.971 406.84C194.971 413.16 191.291 417.56 185.171 417.56ZM185.171 415.28C189.931 415.28 192.251 411.52 192.251 406.84C192.251 402.12 189.931 398.36 185.171 398.36C180.411 398.36 178.091 402.12 178.091 406.84C178.091 411.52 180.411 415.28 185.171 415.28ZM207.399 396.08C212.399 396.08 216.399 400.08 216.399 406.8C216.399 413.48 212.399 417.48 207.399 417.48C203.839 417.48 201.719 415.72 200.519 413.56H200.439V424.08H197.839V396.6H200.439V399.88H200.519C201.719 397.92 203.839 396.08 207.399 396.08ZM207.119 415.2C211.359 415.2 213.679 411.36 213.679 406.8C213.679 402.2 211.359 398.36 207.119 398.36C203.199 398.36 200.439 401.64 200.439 406.8C200.439 411.92 203.199 415.2 207.119 415.2ZM220.636 424.16C219.996 424.16 219.516 424.12 218.676 424V421.76C219.276 421.84 219.596 421.88 220.236 421.88C222.156 421.88 223.716 420.64 224.836 416.88L216.596 396.6H219.476L226.116 413.6H226.196L232.516 396.6H235.316L227.156 417.6C225.156 422.68 223.356 424.16 220.636 424.16Z" fill="url(#paint3_linear_5_503)"/>
<path d="M244.595 392.2C244.555 389.68 243.755 389.04 242.275 388.92L242.435 388.36H250.675L250.515 388.92C248.835 389.04 247.515 389.6 247.515 392.2L247.315 411.68L256.435 395.96L256.475 392.84C256.475 389.6 255.475 389.04 253.915 388.92L254.075 388.36H262.555L262.395 388.92C260.915 389.08 259.355 389.68 259.355 392.84L259.075 411.84L270.515 392.2C272.035 389.6 271.075 389.04 269.475 388.92L269.635 388.36H276.355L276.195 388.92C274.715 389.04 273.315 389.56 271.755 392.2L257.275 417H256.275L256.435 397.96L245.435 417H244.475L244.595 392.2ZM271.764 401.28C272.604 398.56 272.284 397.84 270.724 397.8L270.884 397.24H275.844L273.124 406.16C276.724 398.2 280.084 396.52 282.564 397.2L281.364 400.12L281.084 400.08C278.724 399.2 274.764 401.76 270.844 413.6L269.804 417H266.924L271.764 401.28ZM281.875 417.52C280.075 417.52 279.235 415.72 280.235 412.44L283.715 401.08C284.475 398.4 283.555 397.88 281.995 397.8L282.155 397.24H287.755L283.315 411.76C282.355 414.72 282.555 415.92 283.355 415.92C284.235 415.92 285.795 414.44 287.315 411.88L287.635 412.08C286.355 414.88 283.995 417.52 281.875 417.52ZM285.315 392C285.315 390.76 286.275 389.72 287.435 389.72C288.515 389.72 289.435 390.68 289.395 391.88C289.395 393.12 288.435 394.12 287.315 394.12C286.195 394.12 285.315 393.2 285.315 392ZM290.242 417.52C288.402 417.52 287.202 415.76 288.242 412.28L292.482 398.28H289.922L290.042 397.84C292.202 397.36 294.682 395.48 296.762 392.12H297.202L295.642 397.24H300.402L300.082 398.28H295.322L291.242 411.84C290.322 414.8 290.762 415.92 291.682 415.92C292.802 415.92 294.482 414.36 295.882 411.88L296.242 412.08C294.882 414.88 292.482 417.52 290.242 417.52ZM299.924 417.52C298.124 417.52 297.284 415.72 298.284 412.44L301.764 401.08C302.524 398.4 301.604 397.88 300.044 397.8L300.204 397.24H305.804L301.364 411.76C300.404 414.72 300.604 415.92 301.404 415.92C302.284 415.92 303.844 414.44 305.364 411.88L305.684 412.08C304.404 414.88 302.044 417.52 299.924 417.52ZM303.364 392C303.364 390.76 304.324 389.72 305.484 389.72C306.564 389.72 307.484 390.68 307.444 391.88C307.444 393.12 306.484 394.12 305.364 394.12C304.244 394.12 303.364 393.2 303.364 392ZM318.212 417.52C316.452 417.52 315.452 415.84 316.532 412.44L319.852 402.32C320.732 399.64 320.052 398.72 319.092 398.72C317.372 398.72 313.092 401.92 308.932 413.68L307.932 417H305.052L309.892 401.28C310.692 398.56 310.412 397.84 308.852 397.8L309.012 397.24H313.972L311.092 406.72C315.012 398.48 318.612 396.96 320.372 396.96C322.492 396.96 323.892 398.8 322.852 401.96L319.612 411.76C318.652 414.68 318.852 415.92 319.692 415.92C320.572 415.92 322.132 414.44 323.612 411.88L323.972 412.08C322.652 414.88 320.292 417.52 318.212 417.52ZM327.824 425.68C323.744 425.4 320.624 423 321.464 420.04C322.064 417.84 324.624 416.84 327.024 417.24V417.6C325.264 418.24 324.424 419.24 324.104 420.24C323.304 422.6 325.184 424.52 328.464 424.72C331.224 424.88 333.744 423.6 334.504 421.36C335.144 419.52 334.344 417.96 331.464 416.96L327.104 415.52C323.984 414.48 323.424 412.92 323.864 411.6C324.264 410.36 325.384 409.64 326.784 409.2C325.704 407.92 325.344 405.96 326.024 403.6C327.184 399.52 330.704 396.8 334.224 396.88C336.024 396.92 337.504 397.68 338.424 398.96C339.424 397.52 341.144 396.48 342.904 397.08L341.984 399.44C340.984 398.92 339.864 398.8 338.744 399.56C339.344 400.76 339.504 402.32 338.984 404.08C337.784 408.32 333.824 410.92 330.544 410.88C329.224 410.88 328.064 410.44 327.224 409.68C326.584 410 326.184 410.4 326.024 410.84C325.744 411.6 326.304 412.32 328.384 413.04L333.144 414.64C335.984 415.56 337.544 417.72 336.544 420.76C335.264 424.8 331.104 425.88 327.824 425.68ZM328.904 403.76C327.984 407.08 328.384 409.88 330.784 409.96C333.104 410 335.184 407.24 336.104 403.96C337.064 400.56 336.424 397.84 334.144 397.8C331.784 397.76 329.864 400.48 328.904 403.76Z" fill="url(#paint4_linear_5_503)"/>
<rect opacity="0.5" x="147" y="437" width="40" height="6" rx="3" fill="url(#paint5_linear_5_503)"/>
<rect x="147" y="449" width="105" height="6" rx="3" fill="black" fill-opacity="0.06"/>
<rect x="147" y="462" width="105" height="6" rx="3" fill="black" fill-opacity="0.06"/>
<rect x="147" y="475" width="75" height="6" rx="3" fill="black" fill-opacity="0.06"/>
</g>
<path d="M216.461 338.374L194.492 338.374L122.461 338.374" stroke="url(#paint6_linear_5_503)" stroke-linejoin="round"/>
<g filter="url(#filter5_d_5_503)">
<circle cx="1.5" cy="1.5" r="1.5" transform="matrix(1 0 0 -1 214.641 339.874)" fill="#047AFF"/>
</g>
</g>
</g>
<defs>
<filter id="filter0_bd_5_503" x="-80" y="-80" width="684" height="772" filterUnits="userSpaceOnUse" color-interpolation-filters="sRGB">
<feFlood flood-opacity="0" result="BackgroundImageFix"/>
<feGaussianBlur in="BackgroundImageFix" stdDeviation="15"/>
<feComposite in2="SourceAlpha" operator="in" result="effect1_backgroundBlur_5_503"/>
<feColorMatrix in="SourceAlpha" type="matrix" values="0 0 0 0 0 0 0 0 0 0 0 0 0 0 0 0 0 0 127 0" result="hardAlpha"/>
<feOffset/>
<feGaussianBlur stdDeviation="40"/>
<feComposite in2="hardAlpha" operator="out"/>
<feColorMatrix type="matrix" values="0 0 0 0 0 0 0 0 0 0 0 0 0 0 0 0 0 0 0.04 0"/>
<feBlend mode="normal" in2="effect1_backgroundBlur_5_503" result="effect2_dropShadow_5_503"/>
<feBlend mode="normal" in="SourceGraphic" in2="effect2_dropShadow_5_503" result="shape"/>
</filter>
<filter id="filter1_f_5_503" x="-38" y="50" width="600" height="627" filterUnits="userSpaceOnUse" color-interpolation-filters="sRGB">
<feFlood flood-opacity="0" result="BackgroundImageFix"/>
<feBlend mode="normal" in="SourceGraphic" in2="BackgroundImageFix" result="shape"/>
<feGaussianBlur stdDeviation="75" result="effect1_foregroundBlur_5_503"/>
</filter>
<filter id="filter2_bd_5_503" x="-17" y="186" width="558" height="420" filterUnits="userSpaceOnUse" color-interpolation-filters="sRGB">
<feFlood flood-opacity="0" result="BackgroundImageFix"/>
<feGaussianBlur in="BackgroundImageFix" stdDeviation="50"/>
<feComposite in2="SourceAlpha" operator="in" result="effect1_backgroundBlur_5_503"/>
<feColorMatrix in="SourceAlpha" type="matrix" values="0 0 0 0 0 0 0 0 0 0 0 0 0 0 0 0 0 0 127 0" result="hardAlpha"/>
<feOffset dy="-32"/>
<feGaussianBlur stdDeviation="16"/>
<feComposite in2="hardAlpha" operator="out"/>
<feColorMatrix type="matrix" values="0 0 0 0 0.00757305 0 0 0 0 0.143701 0 0 0 0 0.24196 0 0 0 0.04 0"/>
<feBlend mode="normal" in2="effect1_backgroundBlur_5_503" result="effect2_dropShadow_5_503"/>
<feBlend mode="normal" in="SourceGraphic" in2="effect2_dropShadow_5_503" result="shape"/>
</filter>
<filter id="filter3_b_5_503" x="-17" y="186" width="558" height="228" filterUnits="userSpaceOnUse" color-interpolation-filters="sRGB">
<feFlood flood-opacity="0" result="BackgroundImageFix"/>
<feGaussianBlur in="BackgroundImageFix" stdDeviation="50"/>
<feComposite in2="SourceAlpha" operator="in" result="effect1_backgroundBlur_5_503"/>
<feBlend mode="normal" in="SourceGraphic" in2="effect1_backgroundBlur_5_503" result="shape"/>
</filter>
<filter id="filter4_b_5_503" x="-43" y="188" width="610" height="500" filterUnits="userSpaceOnUse" color-interpolation-filters="sRGB">
<feFlood flood-opacity="0" result="BackgroundImageFix"/>
<feGaussianBlur in="BackgroundImageFix" stdDeviation="75"/>
<feComposite in2="SourceAlpha" operator="in" result="effect1_backgroundBlur_5_503"/>
<feBlend mode="normal" in="SourceGraphic" in2="effect1_backgroundBlur_5_503" result="shape"/>
</filter>
<filter id="filter5_d_5_503" x="208.641" y="330.874" width="15" height="15" filterUnits="userSpaceOnUse" color-interpolation-filters="sRGB">
<feFlood flood-opacity="0" result="BackgroundImageFix"/>
<feColorMatrix in="SourceAlpha" type="matrix" values="0 0 0 0 0 0 0 0 0 0 0 0 0 0 0 0 0 0 127 0" result="hardAlpha"/>
<feOffset/>
<feGaussianBlur stdDeviation="3"/>
<feComposite in2="hardAlpha" operator="out"/>
<feColorMatrix type="matrix" values="0 0 0 0 0.0156863 0 0 0 0 0.478431 0 0 0 0 1 0 0 0 1 0"/>
<feBlend mode="normal" in2="BackgroundImageFix" result="effect1_dropShadow_5_503"/>
<feBlend mode="normal" in="SourceGraphic" in2="effect1_dropShadow_5_503" result="shape"/>
</filter>
<linearGradient id="paint0_linear_5_503" x1="435.105" y1="498.486" x2="72.9424" y2="485.055" gradientUnits="userSpaceOnUse">
<stop offset="0.0760103" stop-color="#179CFC"/>
<stop offset="0.228707" stop-color="#A517FC"/>
<stop offset="0.293931" stop-color="#179CFC"/>
<stop offset="0.483821" stop-color="#179CFC"/>
<stop offset="0.719833" stop-color="#A517FC"/>
<stop offset="0.891086" stop-color="#179CFC"/>
</linearGradient>
<linearGradient id="paint1_linear_5_503" x1="262" y1="286" x2="262" y2="506" gradientUnits="userSpaceOnUse">
<stop stop-color="white"/>
<stop offset="0.535553" stop-color="white"/>
<stop offset="1" stop-color="white" stop-opacity="0"/>
</linearGradient>
<linearGradient id="paint2_linear_5_503" x1="262" y1="286" x2="262" y2="492.5" gradientUnits="userSpaceOnUse">
<stop/>
<stop offset="1" stop-opacity="0"/>
</linearGradient>
<linearGradient id="paint3_linear_5_503" x1="147.82" y1="387.918" x2="252.335" y2="393.939" gradientUnits="userSpaceOnUse">
<stop stop-color="#047AFF"/>
<stop offset="1" stop-color="#7917DF"/>
</linearGradient>
<linearGradient id="paint4_linear_5_503" x1="236.958" y1="387.918" x2="358.941" y2="396.129" gradientUnits="userSpaceOnUse">
<stop stop-color="#047AFF"/>
<stop offset="1" stop-color="#7917DF"/>
</linearGradient>
<linearGradient id="paint5_linear_5_503" x1="147" y1="440" x2="187" y2="440" gradientUnits="userSpaceOnUse">
<stop stop-color="#047AFF"/>
<stop offset="1" stop-color="#6529E5"/>
</linearGradient>
<linearGradient id="paint6_linear_5_503" x1="218.152" y1="338.374" x2="122.461" y2="338.374" gradientUnits="userSpaceOnUse">
<stop stop-color="#0F72FD"/>
<stop offset="1" stop-color="#0F72FD" stop-opacity="0"/>
</linearGradient>
<clipPath id="clip0_5_503">
<rect width="524" height="612" rx="24" fill="white"/>
</clipPath>
</defs>
</svg>
