<svg width="524" height="401" viewBox="0 0 524 401" fill="none" xmlns="http://www.w3.org/2000/svg">
<g clip-path="url(#clip0_45_915)">
<g opacity="0.1" filter="url(#filter0_f_45_915)">
<ellipse cx="262" cy="102.143" rx="222" ry="135" fill="url(#paint0_linear_45_915)"/>
</g>
<g filter="url(#filter1_bd_45_915)">
<rect x="83" y="40.1426" width="358" height="220" rx="8" fill="url(#paint1_linear_45_915)" fill-opacity="0.5" shape-rendering="crispEdges"/>
<rect x="83.5" y="40.6426" width="357" height="219" rx="7.5" stroke="url(#paint2_linear_45_915)" stroke-opacity="0.06" shape-rendering="crispEdges"/>
<g filter="url(#filter2_b_45_915)">
<mask id="path-5-inside-1_45_915" fill="white">
<path d="M83 40.1426H441V60.1426H83V40.1426Z"/>
</mask>
<path d="M441 59.1426H83V61.1426H441V59.1426Z" fill="black" fill-opacity="0.06" mask="url(#path-5-inside-1_45_915)"/>
</g>
<g filter="url(#filter3_b_45_915)">
<mask id="path-7-inside-2_45_915" fill="white">
<path d="M83 59.1426H441V79.1426H83V59.1426Z"/>
</mask>
<path d="M441 78.1426H83V80.1426H441V78.1426Z" fill="black" fill-opacity="0.06" mask="url(#path-7-inside-2_45_915)"/>
</g>
<circle cx="97" cy="69.1426" r="4" fill="black" fill-opacity="0.06"/>
<circle cx="115" cy="69.1426" r="4" fill="black" fill-opacity="0.06"/>
<circle cx="133" cy="69.1426" r="4" fill="black" fill-opacity="0.06"/>
<circle cx="151" cy="69.1426" r="4" fill="black" fill-opacity="0.06"/>
<g filter="url(#filter4_b_45_915)">
<mask id="path-13-inside-3_45_915" fill="white">
<path d="M83 79.1426H153V260.143H83V79.1426Z"/>
</mask>
<path d="M152 79.1426V260.143H154V79.1426H152Z" fill="url(#paint3_linear_45_915)" fill-opacity="0.06" mask="url(#path-13-inside-3_45_915)"/>
</g>
<g filter="url(#filter5_b_45_915)">
<mask id="path-15-inside-4_45_915" fill="white">
<path d="M371 79.1426H441V260.143H371V79.1426Z"/>
</mask>
<path d="M372 260.143V79.1426H370V260.143H372Z" fill="url(#paint4_linear_45_915)" fill-opacity="0.06" mask="url(#path-15-inside-4_45_915)"/>
</g>
<mask id="mask0_45_915" style="mask-type:alpha" maskUnits="userSpaceOnUse" x="371" y="77" width="70" height="149">
<rect x="371.176" y="77.8877" width="69.8242" height="147.979" fill="url(#paint5_linear_45_915)"/>
</mask>
<g mask="url(#mask0_45_915)">
<rect x="381" y="89.1426" width="50" height="24" rx="4" fill="black" fill-opacity="0.06"/>
<rect x="381" y="121.143" width="50" height="24" rx="4" fill="black" fill-opacity="0.06"/>
<rect x="381" y="153.143" width="50" height="24" rx="4" fill="black" fill-opacity="0.06"/>
<rect x="381" y="185.143" width="50" height="24" rx="4" fill="black" fill-opacity="0.06"/>
</g>
<circle cx="97" cy="50.1426" r="2" fill="#9FC7FE"/>
<circle cx="105" cy="50.1426" r="2" fill="#9FC7FE"/>
<circle cx="113" cy="50.1426" r="2" fill="#9FC7FE"/>
<mask id="mask1_45_915" style="mask-type:alpha" maskUnits="userSpaceOnUse" x="83" y="78" width="70" height="149">
<rect x="83.1758" y="78.8877" width="69.8242" height="147.979" fill="url(#paint6_linear_45_915)"/>
</mask>
<g mask="url(#mask1_45_915)">
<rect x="93" y="89.1426" width="50" height="4" rx="2" fill="black" fill-opacity="0.06"/>
<rect x="93" y="101.143" width="50" height="4" rx="2" fill="black" fill-opacity="0.06"/>
<rect x="93" y="113.143" width="50" height="4" rx="2" fill="black" fill-opacity="0.06"/>
<rect x="93" y="125.143" width="50" height="4" rx="2" fill="black" fill-opacity="0.06"/>
<rect x="93" y="137.143" width="50" height="4" rx="2" fill="black" fill-opacity="0.06"/>
<rect x="93" y="149.143" width="50" height="4" rx="2" fill="black" fill-opacity="0.06"/>
<rect x="93" y="161.143" width="50" height="4" rx="2" fill="black" fill-opacity="0.06"/>
<rect x="93" y="173.143" width="50" height="4" rx="2" fill="black" fill-opacity="0.06"/>
<rect x="93" y="185.143" width="50" height="4" rx="2" fill="black" fill-opacity="0.06"/>
<rect x="93" y="197.143" width="50" height="4" rx="2" fill="black" fill-opacity="0.06"/>
</g>
<g filter="url(#filter6_bd_45_915)">
<circle cx="261.53" cy="170.111" r="75.9637" fill="white" fill-opacity="0.2" shape-rendering="crispEdges"/>
</g>
<g filter="url(#filter7_bd_45_915)">
<circle cx="261.532" cy="170.111" r="59.0829" fill="white" fill-opacity="0.4" shape-rendering="crispEdges"/>
</g>
<g filter="url(#filter8_d_45_915)">
<rect x="222.141" y="130.723" width="78.7772" height="78.7772" rx="39.3886" fill="white" shape-rendering="crispEdges"/>
<g clip-path="url(#clip1_45_915)">
<rect x="239.02" y="147.604" width="45.0155" height="45.0155" rx="10.4297" fill="url(#paint7_linear_45_915)"/>
<g clip-path="url(#clip2_45_915)">
<g filter="url(#filter9_b_45_915)">
<rect x="236.844" y="145.431" width="48.8892" height="48.8892" rx="10.4297" fill="white" fill-opacity="0.32"/>
<rect x="237.267" y="145.854" width="48.0418" height="48.0418" rx="10.006" stroke="white" stroke-opacity="0.2" stroke-width="0.847413"/>
</g>
<g opacity="0.8">
<circle opacity="0.5" cx="261.523" cy="170.111" r="10.0307" stroke="white" stroke-width="0.195557"/>
<circle opacity="0.5" cx="261.52" cy="170.111" r="13.9696" stroke="white" stroke-width="0.195557"/>
<path d="M247.453 147.604V192.619" stroke="url(#paint8_linear_45_915)" stroke-width="0.195557" stroke-dasharray="0.65 0.65"/>
<path d="M275.59 147.604V192.619" stroke="url(#paint9_linear_45_915)" stroke-width="0.195557" stroke-dasharray="0.65 0.65"/>
<path d="M261.523 147.604V192.619" stroke="url(#paint10_linear_45_915)" stroke-width="0.195557" stroke-dasharray="0.65 0.65"/>
<path d="M239.016 184.179H284.031" stroke="url(#paint11_linear_45_915)" stroke-width="0.195557" stroke-dasharray="0.65 0.65"/>
<path d="M239.016 180.24H284.031" stroke="url(#paint12_linear_45_915)" stroke-width="0.195557" stroke-dasharray="0.65 0.65"/>
<path d="M239.016 159.982H284.031" stroke="url(#paint13_linear_45_915)" stroke-width="0.195557" stroke-dasharray="0.65 0.65"/>
<path d="M239.016 170.111H284.031" stroke="url(#paint14_linear_45_915)" stroke-width="0.195557" stroke-dasharray="0.65 0.65"/>
<path d="M239.016 156.044H284.031" stroke="url(#paint15_linear_45_915)" stroke-width="0.195557" stroke-dasharray="0.65 0.65"/>
<path d="M239.016 147.604L284.031 192.619" stroke="url(#paint16_linear_45_915)" stroke-width="0.195557" stroke-dasharray="0.65 0.65"/>
<path d="M284.031 147.604L239.016 192.619" stroke="url(#paint17_linear_45_915)" stroke-width="0.195557" stroke-dasharray="0.65 0.65"/>
</g>
</g>
<g clip-path="url(#clip3_45_915)">
<path d="M264.374 178.788L266.552 176.849C267.774 175.766 267.824 175.01 266.855 173.789L263.014 168.916C262.208 167.896 260.886 167.896 260.08 168.916L256.24 173.789C255.271 175.01 255.271 175.804 256.542 176.849L258.721 178.788" stroke="white" stroke-width="2.28" stroke-linecap="round" stroke-linejoin="round"/>
<path d="M261.539 168.652V173.353" stroke="white" stroke-width="2.28" stroke-linecap="round" stroke-linejoin="round"/>
<path d="M262.186 160.946H260.927C260.235 160.946 259.668 160.38 259.668 159.687V158.428C259.668 157.736 260.235 157.169 260.927 157.169H262.186C262.879 157.169 263.445 157.736 263.445 158.428V159.687C263.445 160.38 262.879 160.946 262.186 160.946Z" stroke="white" stroke-width="2.28" stroke-linecap="round" stroke-linejoin="round"/>
<path d="M250.536 172.492H251.796C252.488 172.492 253.055 171.926 253.055 171.233V169.974C253.055 169.281 252.488 168.715 251.796 168.715H250.536C249.844 168.715 249.277 169.281 249.277 169.974V171.233C249.277 171.926 249.844 172.492 250.536 172.492Z" stroke="white" stroke-width="2.28" stroke-linecap="round" stroke-linejoin="round"/>
<path d="M272.518 172.492H271.259C270.567 172.492 270 171.926 270 171.233V169.974C270 169.281 270.567 168.715 271.259 168.715H272.518C273.211 168.715 273.777 169.281 273.777 169.974V171.233C273.777 171.926 273.211 172.492 272.518 172.492Z" stroke="white" stroke-width="2.28" stroke-linecap="round" stroke-linejoin="round"/>
<path d="M259.665 159.134C254.868 159.7 251.141 163.767 251.141 168.716" stroke="white" stroke-width="2.28" stroke-linecap="round" stroke-linejoin="round"/>
<path d="M271.915 168.716C271.915 163.78 268.214 159.726 263.441 159.134" stroke="white" stroke-width="2.28" stroke-linecap="round" stroke-linejoin="round"/>
<path d="M259.946 183.053H263.109C264.313 183.053 265.092 182.246 264.866 181.262L264.351 179.114H258.703L258.189 181.262C257.963 182.187 258.816 183.053 259.946 183.053Z" stroke="white" stroke-width="2.28" stroke-linecap="round" stroke-linejoin="round"/>
</g>
</g>
</g>
</g>
<path d="M243 40.6279L221.031 40.6279L149 40.6279" stroke="url(#paint18_linear_45_915)" stroke-linejoin="round"/>
<g filter="url(#filter10_d_45_915)">
<circle cx="1.5" cy="1.5" r="1.5" transform="matrix(1 0 0 -1 241.18 42.1279)" fill="#047AFF"/>
</g>
</g>
<defs>
<filter id="filter0_f_45_915" x="-110" y="-182.857" width="744" height="570" filterUnits="userSpaceOnUse" color-interpolation-filters="sRGB">
<feFlood flood-opacity="0" result="BackgroundImageFix"/>
<feBlend mode="normal" in="SourceGraphic" in2="BackgroundImageFix" result="shape"/>
<feGaussianBlur stdDeviation="75" result="effect1_foregroundBlur_45_915"/>
</filter>
<filter id="filter1_bd_45_915" x="-17" y="-59.8574" width="558" height="420" filterUnits="userSpaceOnUse" color-interpolation-filters="sRGB">
<feFlood flood-opacity="0" result="BackgroundImageFix"/>
<feGaussianBlur in="BackgroundImageFix" stdDeviation="50"/>
<feComposite in2="SourceAlpha" operator="in" result="effect1_backgroundBlur_45_915"/>
<feColorMatrix in="SourceAlpha" type="matrix" values="0 0 0 0 0 0 0 0 0 0 0 0 0 0 0 0 0 0 127 0" result="hardAlpha"/>
<feOffset dy="-32"/>
<feGaussianBlur stdDeviation="16"/>
<feComposite in2="hardAlpha" operator="out"/>
<feColorMatrix type="matrix" values="0 0 0 0 0.00757305 0 0 0 0 0.143701 0 0 0 0 0.24196 0 0 0 0.04 0"/>
<feBlend mode="normal" in2="effect1_backgroundBlur_45_915" result="effect2_dropShadow_45_915"/>
<feBlend mode="normal" in="SourceGraphic" in2="effect2_dropShadow_45_915" result="shape"/>
</filter>
<filter id="filter2_b_45_915" x="-17" y="-59.8574" width="558" height="220" filterUnits="userSpaceOnUse" color-interpolation-filters="sRGB">
<feFlood flood-opacity="0" result="BackgroundImageFix"/>
<feGaussianBlur in="BackgroundImageFix" stdDeviation="50"/>
<feComposite in2="SourceAlpha" operator="in" result="effect1_backgroundBlur_45_915"/>
<feBlend mode="normal" in="SourceGraphic" in2="effect1_backgroundBlur_45_915" result="shape"/>
</filter>
<filter id="filter3_b_45_915" x="-17" y="-40.8574" width="558" height="220" filterUnits="userSpaceOnUse" color-interpolation-filters="sRGB">
<feFlood flood-opacity="0" result="BackgroundImageFix"/>
<feGaussianBlur in="BackgroundImageFix" stdDeviation="50"/>
<feComposite in2="SourceAlpha" operator="in" result="effect1_backgroundBlur_45_915"/>
<feBlend mode="normal" in="SourceGraphic" in2="effect1_backgroundBlur_45_915" result="shape"/>
</filter>
<filter id="filter4_b_45_915" x="-17" y="-20.8574" width="270" height="381" filterUnits="userSpaceOnUse" color-interpolation-filters="sRGB">
<feFlood flood-opacity="0" result="BackgroundImageFix"/>
<feGaussianBlur in="BackgroundImageFix" stdDeviation="50"/>
<feComposite in2="SourceAlpha" operator="in" result="effect1_backgroundBlur_45_915"/>
<feBlend mode="normal" in="SourceGraphic" in2="effect1_backgroundBlur_45_915" result="shape"/>
</filter>
<filter id="filter5_b_45_915" x="271" y="-20.8574" width="270" height="381" filterUnits="userSpaceOnUse" color-interpolation-filters="sRGB">
<feFlood flood-opacity="0" result="BackgroundImageFix"/>
<feGaussianBlur in="BackgroundImageFix" stdDeviation="50"/>
<feComposite in2="SourceAlpha" operator="in" result="effect1_backgroundBlur_45_915"/>
<feBlend mode="normal" in="SourceGraphic" in2="effect1_backgroundBlur_45_915" result="shape"/>
</filter>
<filter id="filter6_bd_45_915" x="137.566" y="70.1474" width="247.928" height="247.928" filterUnits="userSpaceOnUse" color-interpolation-filters="sRGB">
<feFlood flood-opacity="0" result="BackgroundImageFix"/>
<feGaussianBlur in="BackgroundImageFix" stdDeviation="4"/>
<feComposite in2="SourceAlpha" operator="in" result="effect1_backgroundBlur_45_915"/>
<feColorMatrix in="SourceAlpha" type="matrix" values="0 0 0 0 0 0 0 0 0 0 0 0 0 0 0 0 0 0 127 0" result="hardAlpha"/>
<feOffset dy="24"/>
<feGaussianBlur stdDeviation="24"/>
<feComposite in2="hardAlpha" operator="out"/>
<feColorMatrix type="matrix" values="0 0 0 0 0.00757305 0 0 0 0 0.143701 0 0 0 0 0.24196 0 0 0 0.08 0"/>
<feBlend mode="normal" in2="effect1_backgroundBlur_45_915" result="effect2_dropShadow_45_915"/>
<feBlend mode="normal" in="SourceGraphic" in2="effect2_dropShadow_45_915" result="shape"/>
</filter>
<filter id="filter7_bd_45_915" x="154.449" y="87.0283" width="214.166" height="214.166" filterUnits="userSpaceOnUse" color-interpolation-filters="sRGB">
<feFlood flood-opacity="0" result="BackgroundImageFix"/>
<feGaussianBlur in="BackgroundImageFix" stdDeviation="4"/>
<feComposite in2="SourceAlpha" operator="in" result="effect1_backgroundBlur_45_915"/>
<feColorMatrix in="SourceAlpha" type="matrix" values="0 0 0 0 0 0 0 0 0 0 0 0 0 0 0 0 0 0 127 0" result="hardAlpha"/>
<feOffset dy="24"/>
<feGaussianBlur stdDeviation="24"/>
<feComposite in2="hardAlpha" operator="out"/>
<feColorMatrix type="matrix" values="0 0 0 0 0.00757305 0 0 0 0 0.143701 0 0 0 0 0.24196 0 0 0 0.08 0"/>
<feBlend mode="normal" in2="effect1_backgroundBlur_45_915" result="effect2_dropShadow_45_915"/>
<feBlend mode="normal" in="SourceGraphic" in2="effect2_dropShadow_45_915" result="shape"/>
</filter>
<filter id="filter8_d_45_915" x="177.125" y="108.215" width="168.808" height="168.808" filterUnits="userSpaceOnUse" color-interpolation-filters="sRGB">
<feFlood flood-opacity="0" result="BackgroundImageFix"/>
<feColorMatrix in="SourceAlpha" type="matrix" values="0 0 0 0 0 0 0 0 0 0 0 0 0 0 0 0 0 0 127 0" result="hardAlpha"/>
<feOffset dy="22.5078"/>
<feGaussianBlur stdDeviation="22.5078"/>
<feComposite in2="hardAlpha" operator="out"/>
<feColorMatrix type="matrix" values="0 0 0 0 0.00757305 0 0 0 0 0.143701 0 0 0 0 0.24196 0 0 0 0.08 0"/>
<feBlend mode="normal" in2="BackgroundImageFix" result="effect1_dropShadow_45_915"/>
<feBlend mode="normal" in="SourceGraphic" in2="effect1_dropShadow_45_915" result="shape"/>
</filter>
<filter id="filter9_b_45_915" x="226.414" y="135.001" width="69.7486" height="69.7491" filterUnits="userSpaceOnUse" color-interpolation-filters="sRGB">
<feFlood flood-opacity="0" result="BackgroundImageFix"/>
<feGaussianBlur in="BackgroundImageFix" stdDeviation="5.21485"/>
<feComposite in2="SourceAlpha" operator="in" result="effect1_backgroundBlur_45_915"/>
<feBlend mode="normal" in="SourceGraphic" in2="effect1_backgroundBlur_45_915" result="shape"/>
</filter>
<filter id="filter10_d_45_915" x="235.18" y="33.1279" width="15" height="15" filterUnits="userSpaceOnUse" color-interpolation-filters="sRGB">
<feFlood flood-opacity="0" result="BackgroundImageFix"/>
<feColorMatrix in="SourceAlpha" type="matrix" values="0 0 0 0 0 0 0 0 0 0 0 0 0 0 0 0 0 0 127 0" result="hardAlpha"/>
<feOffset/>
<feGaussianBlur stdDeviation="3"/>
<feComposite in2="hardAlpha" operator="out"/>
<feColorMatrix type="matrix" values="0 0 0 0 0.0156863 0 0 0 0 0.478431 0 0 0 0 1 0 0 0 1 0"/>
<feBlend mode="normal" in2="BackgroundImageFix" result="effect1_dropShadow_45_915"/>
<feBlend mode="normal" in="SourceGraphic" in2="effect1_dropShadow_45_915" result="shape"/>
</filter>
<linearGradient id="paint0_linear_45_915" x1="518.195" y1="213.599" x2="-16.1812" y2="178.077" gradientUnits="userSpaceOnUse">
<stop offset="0.0760103" stop-color="#179CFC"/>
<stop offset="0.228707" stop-color="#A517FC"/>
<stop offset="0.293931" stop-color="#179CFC"/>
<stop offset="0.483821" stop-color="#179CFC"/>
<stop offset="0.719833" stop-color="#A517FC"/>
<stop offset="0.891086" stop-color="#179CFC"/>
</linearGradient>
<linearGradient id="paint1_linear_45_915" x1="262" y1="40.1426" x2="262" y2="260.143" gradientUnits="userSpaceOnUse">
<stop stop-color="white"/>
<stop offset="0.535553" stop-color="white"/>
<stop offset="1" stop-color="#FAFCFF"/>
</linearGradient>
<linearGradient id="paint2_linear_45_915" x1="262" y1="40.1426" x2="262" y2="246.643" gradientUnits="userSpaceOnUse">
<stop/>
<stop offset="1" stop-opacity="0"/>
</linearGradient>
<linearGradient id="paint3_linear_45_915" x1="118" y1="79.1426" x2="118" y2="260.143" gradientUnits="userSpaceOnUse">
<stop/>
<stop offset="1" stop-opacity="0"/>
</linearGradient>
<linearGradient id="paint4_linear_45_915" x1="406" y1="79.1426" x2="406" y2="260.143" gradientUnits="userSpaceOnUse">
<stop/>
<stop offset="1" stop-opacity="0"/>
</linearGradient>
<linearGradient id="paint5_linear_45_915" x1="406.088" y1="77.8877" x2="406.088" y2="225.867" gradientUnits="userSpaceOnUse">
<stop stop-color="#D9D9D9"/>
<stop offset="1" stop-color="#D9D9D9" stop-opacity="0"/>
</linearGradient>
<linearGradient id="paint6_linear_45_915" x1="118.088" y1="78.8877" x2="118.088" y2="226.867" gradientUnits="userSpaceOnUse">
<stop stop-color="#D9D9D9"/>
<stop offset="1" stop-color="#D9D9D9" stop-opacity="0"/>
</linearGradient>
<linearGradient id="paint7_linear_45_915" x1="239.434" y1="147.477" x2="292.454" y2="148.472" gradientUnits="userSpaceOnUse">
<stop stop-color="#047AFF"/>
<stop offset="1" stop-color="#7917DF"/>
</linearGradient>
<linearGradient id="paint8_linear_45_915" x1="247.953" y1="147.604" x2="247.953" y2="192.619" gradientUnits="userSpaceOnUse">
<stop stop-color="white" stop-opacity="0"/>
<stop offset="0.26" stop-color="white"/>
<stop offset="0.471357" stop-color="white"/>
<stop offset="0.71" stop-color="white"/>
<stop offset="1" stop-color="white" stop-opacity="0"/>
</linearGradient>
<linearGradient id="paint9_linear_45_915" x1="276.09" y1="147.604" x2="276.09" y2="192.619" gradientUnits="userSpaceOnUse">
<stop stop-color="white" stop-opacity="0"/>
<stop offset="0.26" stop-color="white"/>
<stop offset="0.471357" stop-color="white"/>
<stop offset="0.71" stop-color="white"/>
<stop offset="1" stop-color="white" stop-opacity="0"/>
</linearGradient>
<linearGradient id="paint10_linear_45_915" x1="262.023" y1="147.604" x2="262.023" y2="192.619" gradientUnits="userSpaceOnUse">
<stop stop-color="white" stop-opacity="0"/>
<stop offset="0.26" stop-color="white"/>
<stop offset="0.471357" stop-color="white"/>
<stop offset="0.71" stop-color="white"/>
<stop offset="1" stop-color="white" stop-opacity="0"/>
</linearGradient>
<linearGradient id="paint11_linear_45_915" x1="239.016" y1="183.679" x2="284.031" y2="183.679" gradientUnits="userSpaceOnUse">
<stop stop-color="white" stop-opacity="0"/>
<stop offset="0.26" stop-color="white"/>
<stop offset="0.471357" stop-color="white"/>
<stop offset="0.71" stop-color="white"/>
<stop offset="1" stop-color="white" stop-opacity="0"/>
</linearGradient>
<linearGradient id="paint12_linear_45_915" x1="239.016" y1="179.74" x2="284.031" y2="179.74" gradientUnits="userSpaceOnUse">
<stop stop-color="white" stop-opacity="0"/>
<stop offset="0.26" stop-color="white"/>
<stop offset="0.471357" stop-color="white"/>
<stop offset="0.71" stop-color="white"/>
<stop offset="1" stop-color="white" stop-opacity="0"/>
</linearGradient>
<linearGradient id="paint13_linear_45_915" x1="239.016" y1="159.482" x2="284.031" y2="159.482" gradientUnits="userSpaceOnUse">
<stop stop-color="white" stop-opacity="0"/>
<stop offset="0.26" stop-color="white"/>
<stop offset="0.471357" stop-color="white"/>
<stop offset="0.71" stop-color="white"/>
<stop offset="1" stop-color="white" stop-opacity="0"/>
</linearGradient>
<linearGradient id="paint14_linear_45_915" x1="239.016" y1="169.611" x2="284.031" y2="169.611" gradientUnits="userSpaceOnUse">
<stop stop-color="white" stop-opacity="0"/>
<stop offset="0.26" stop-color="white"/>
<stop offset="0.471357" stop-color="white"/>
<stop offset="0.71" stop-color="white"/>
<stop offset="1" stop-color="white" stop-opacity="0"/>
</linearGradient>
<linearGradient id="paint15_linear_45_915" x1="239.016" y1="155.544" x2="284.031" y2="155.544" gradientUnits="userSpaceOnUse">
<stop stop-color="white" stop-opacity="0"/>
<stop offset="0.26" stop-color="white"/>
<stop offset="0.471357" stop-color="white"/>
<stop offset="0.71" stop-color="white"/>
<stop offset="1" stop-color="white" stop-opacity="0"/>
</linearGradient>
<linearGradient id="paint16_linear_45_915" x1="239.369" y1="147.25" x2="284.385" y2="192.266" gradientUnits="userSpaceOnUse">
<stop stop-color="white" stop-opacity="0"/>
<stop offset="0.354789" stop-color="white"/>
<stop offset="0.471357" stop-color="white"/>
<stop offset="0.588196" stop-color="white"/>
<stop offset="1" stop-color="white" stop-opacity="0"/>
</linearGradient>
<linearGradient id="paint17_linear_45_915" x1="283.678" y1="147.25" x2="238.662" y2="192.266" gradientUnits="userSpaceOnUse">
<stop stop-color="white" stop-opacity="0"/>
<stop offset="0.354789" stop-color="white"/>
<stop offset="0.471357" stop-color="white"/>
<stop offset="0.588196" stop-color="white"/>
<stop offset="1" stop-color="white" stop-opacity="0"/>
</linearGradient>
<linearGradient id="paint18_linear_45_915" x1="244.691" y1="40.6279" x2="149" y2="40.6279" gradientUnits="userSpaceOnUse">
<stop stop-color="#0F72FD"/>
<stop offset="1" stop-color="#0F72FD" stop-opacity="0"/>
</linearGradient>
<clipPath id="clip0_45_915">
<rect y="0.142578" width="524" height="400" rx="24" fill="white"/>
</clipPath>
<clipPath id="clip1_45_915">
<rect x="239.02" y="147.604" width="45.0155" height="45.0155" rx="22.5078" fill="white"/>
</clipPath>
<clipPath id="clip2_45_915">
<rect x="239.02" y="147.604" width="45.0155" height="45.0155" rx="9.77785" fill="white"/>
</clipPath>
<clipPath id="clip3_45_915">
<rect width="28.1347" height="28.1347" fill="white" transform="translate(247.461 156.044)"/>
</clipPath>
</defs>
</svg>
