<svg width="524" height="294" viewBox="0 0 524 294" fill="none" xmlns="http://www.w3.org/2000/svg">
<g clip-path="url(#clip0_44_656)">
<mask id="mask0_44_656" style="mask-type:alpha" maskUnits="userSpaceOnUse" x="-140" y="-404" width="804" height="804">
<rect width="803.035" height="803.035" transform="translate(-139.383 -403.035)" fill="url(#paint0_radial_44_656)"/>
</mask>
<g mask="url(#mask0_44_656)">
<circle cx="262.136" cy="-1.51721" r="133.089" stroke="black" stroke-opacity="0.1" stroke-width="1.5"/>
<circle cx="262.137" cy="-1.51765" r="186.625" stroke="black" stroke-opacity="0.1" stroke-width="1.5"/>
<circle cx="262.133" cy="-1.51712" r="240.161" stroke="black" stroke-opacity="0.1" stroke-width="1.5"/>
<circle cx="262.134" cy="-1.51758" r="293.696" stroke="black" stroke-opacity="0.1" stroke-width="1.5"/>
</g>
<g opacity="0.1" filter="url(#filter0_f_44_656)">
<ellipse cx="262.137" cy="124.105" rx="100" ry="156.935" fill="url(#paint1_linear_44_656)"/>
</g>
<g filter="url(#filter1_d_44_656)">
<rect x="195.637" y="28" width="133" height="56" rx="28" fill="white" shape-rendering="crispEdges"/>
<rect x="195.637" y="28" width="133" height="56" rx="28" fill="url(#paint2_linear_44_656)" shape-rendering="crispEdges"/>
<g filter="url(#filter2_b_44_656)">
<rect x="195.637" y="28" width="133" height="56" rx="28" fill="white" fill-opacity="0.32"/>
<rect x="196.089" y="28.4518" width="132.096" height="55.0964" rx="27.5482" stroke="white" stroke-opacity="0.2" stroke-width="0.903596"/>
</g>
<path d="M229.849 63.58C230.829 63.468 231.977 63.048 232.565 61.144L237.577 44.736H236.121C233.265 44.736 231.893 46.584 230.829 48.992L230.437 48.964L231.949 44.708L232.229 43.924H246.061L244.801 48.964L244.353 48.992C244.773 46.668 244.493 44.736 241.609 44.736H240.153L235.141 61.144C234.525 63.104 235.281 63.496 236.345 63.58L236.205 64H229.737L229.849 63.58ZM243.303 64.336C240.251 64.28 238.795 60.864 240.195 56.44C241.539 52.184 244.563 49.86 247.307 49.916C249.547 49.972 250.695 51.596 250.135 53.444C249.435 55.768 246.523 57.532 242.323 57.644C241.791 60.696 242.631 62.852 244.507 62.88C245.851 62.908 247.391 61.844 248.595 59.968L248.875 60.108C247.447 62.796 245.347 64.364 243.303 64.336ZM242.435 57.14C245.711 56.972 247.363 54.928 247.951 53.164C248.371 51.96 248.315 50.644 247.139 50.616C245.655 50.532 243.807 52.576 242.827 55.656C242.659 56.16 242.519 56.664 242.435 57.14ZM252.904 64.392C251.336 64.42 249.796 63.804 248.704 62.908L249.796 59.548H250.076C250.104 60.78 250.356 61.788 250.888 62.516C251.476 63.328 252.176 63.72 253.1 63.692C254.22 63.664 255.032 62.936 255.256 61.872C255.536 60.332 254.22 58.876 252.904 57.252C251.644 55.824 251.056 54.928 251.28 53.472C251.532 51.344 253.296 49.916 255.676 49.888C257.16 49.86 258.28 50.364 259.232 50.924L258.168 54.284H257.888C257.916 53.388 257.776 52.436 257.468 51.82C257.048 50.952 256.236 50.504 255.424 50.532C254.36 50.588 253.436 51.372 253.324 52.464C253.184 53.696 254.164 54.816 255.592 56.44C256.964 58.008 257.468 59.156 257.216 60.668C256.936 62.6 255.48 64.336 252.904 64.392ZM260.242 64.364C258.842 64.364 257.974 63.048 258.758 60.5L261.67 50.868H259.906L259.99 50.532C261.614 50.14 263.518 48.74 265.086 46.416H265.45L264.33 50.084H267.55L267.298 50.868H264.106L261.25 60.276C260.634 62.292 260.914 63.048 261.53 63.048C262.258 63.048 263.406 62.012 264.414 60.248L264.638 60.416C263.63 62.488 261.922 64.364 260.242 64.364ZM267.319 64.364C265.947 64.364 265.275 63.048 266.031 60.584L268.439 52.772C268.971 50.952 268.299 50.588 267.319 50.504L267.431 50.084H271.715L268.579 60.22C267.935 62.236 268.075 63.048 268.635 63.048C269.195 63.048 270.231 62.124 271.295 60.248L271.519 60.416C270.595 62.488 268.915 64.364 267.319 64.364ZM269.587 46.444C269.587 45.492 270.315 44.68 271.239 44.68C272.107 44.68 272.807 45.436 272.807 46.36C272.779 47.312 272.051 48.096 271.155 48.096C270.287 48.096 269.587 47.396 269.587 46.444ZM280.452 64.364C279.08 64.364 278.324 63.104 279.164 60.584L281.404 53.78C282.02 51.904 281.572 51.316 280.956 51.316C279.836 51.316 276.924 53.668 274.208 61.536L273.452 64H270.988L274.404 52.94C274.992 51.064 274.712 50.56 273.676 50.504L273.816 50.084H277.708L275.776 56.412C278.38 51.036 280.788 49.916 282.132 49.916C283.7 49.916 284.68 51.26 283.924 53.5L281.712 60.22C281.068 62.236 281.208 63.048 281.74 63.048C282.328 63.048 283.364 62.124 284.428 60.248L284.68 60.416C283.728 62.488 282.02 64.364 280.452 64.364ZM287.592 70.104C284.708 69.936 282.328 68.312 282.916 66.184C283.364 64.616 285.212 64.028 286.92 64.42L286.948 64.672C285.8 65.092 285.24 65.764 285.044 66.408C284.512 68.032 285.828 69.264 288.012 69.376C289.86 69.488 291.568 68.648 292.1 67.164C292.52 65.904 291.96 64.84 290.056 64.196L286.892 63.244C284.54 62.544 284.204 61.34 284.512 60.388C284.82 59.464 285.66 58.932 286.668 58.624C285.856 57.728 285.548 56.328 286.052 54.592C286.892 51.68 289.468 49.832 291.96 49.86C293.304 49.888 294.396 50.448 295.04 51.4C295.74 50.336 296.944 49.552 298.204 49.972L297.532 51.792C296.86 51.428 296.076 51.316 295.292 51.848C295.684 52.688 295.768 53.78 295.432 54.984C294.564 58.008 291.652 59.772 289.356 59.744C288.432 59.744 287.648 59.464 287.032 58.96C286.64 59.184 286.416 59.436 286.304 59.716C286.108 60.248 286.5 60.696 287.9 61.172L291.26 62.236C293.5 62.88 294.48 64.56 293.78 66.632C292.884 69.348 290.028 70.216 287.592 70.104ZM288.488 54.732C287.844 57 287.956 59.016 289.524 59.044C291.036 59.072 292.38 57.112 293.024 54.872C293.668 52.576 293.444 50.56 291.904 50.532C290.392 50.504 289.104 52.492 288.488 54.732Z" fill="white"/>
</g>
<g filter="url(#filter3_d_44_656)">
<g clip-path="url(#clip1_44_656)">
<rect x="92" y="92" width="48" height="48" rx="11.1212" fill="url(#paint3_linear_44_656)"/>
<g clip-path="url(#clip2_44_656)">
<g filter="url(#filter4_b_44_656)">
<rect x="89.6797" y="89.6826" width="52.1305" height="52.1305" rx="11.1212" fill="white" fill-opacity="0.32"/>
<rect x="90.1315" y="90.1344" width="51.2269" height="51.2269" rx="10.6694" stroke="white" stroke-opacity="0.2" stroke-width="0.903596"/>
</g>
<g opacity="0.8">
<circle opacity="0.5" cx="115.991" cy="116" r="10.6957" stroke="white" stroke-width="0.208522"/>
<circle opacity="0.5" cx="115.992" cy="116" r="14.8957" stroke="white" stroke-width="0.208522"/>
<path d="M100.992 92V140" stroke="url(#paint4_linear_44_656)" stroke-width="0.208522" stroke-dasharray="0.7 0.7"/>
<path d="M130.992 92V140" stroke="url(#paint5_linear_44_656)" stroke-width="0.208522" stroke-dasharray="0.7 0.7"/>
<path d="M115.992 92V140" stroke="url(#paint6_linear_44_656)" stroke-width="0.208522" stroke-dasharray="0.7 0.7"/>
<path d="M91.9922 131H139.992" stroke="url(#paint7_linear_44_656)" stroke-width="0.208522" stroke-dasharray="0.7 0.7"/>
<path d="M91.9922 126.8H139.992" stroke="url(#paint8_linear_44_656)" stroke-width="0.208522" stroke-dasharray="0.7 0.7"/>
<path d="M91.9922 105.2H139.992" stroke="url(#paint9_linear_44_656)" stroke-width="0.208522" stroke-dasharray="0.7 0.7"/>
<path d="M91.9922 116H139.992" stroke="url(#paint10_linear_44_656)" stroke-width="0.208522" stroke-dasharray="0.7 0.7"/>
<path d="M91.9922 101H139.992" stroke="url(#paint11_linear_44_656)" stroke-width="0.208522" stroke-dasharray="0.7 0.7"/>
<path d="M91.9922 92L139.992 140" stroke="url(#paint12_linear_44_656)" stroke-width="0.208522" stroke-dasharray="0.7 0.7"/>
<path d="M139.992 92L91.9922 140" stroke="url(#paint13_linear_44_656)" stroke-width="0.208522" stroke-dasharray="0.7 0.7"/>
</g>
</g>
<path d="M125.333 126.5C125.333 124.872 125.333 124.058 125.132 123.395C124.68 121.904 123.513 120.737 122.021 120.284C121.359 120.083 120.545 120.083 118.917 120.083H113.083C111.455 120.083 110.641 120.083 109.979 120.284C108.487 120.737 107.32 121.904 106.867 123.395C106.667 124.058 106.667 124.872 106.667 126.5M121.25 110.75C121.25 113.649 118.899 116 116 116C113.1 116 110.75 113.649 110.75 110.75C110.75 107.851 113.1 105.5 116 105.5C118.899 105.5 121.25 107.851 121.25 110.75Z" stroke="white" stroke-width="2.33333" stroke-linecap="round" stroke-linejoin="round"/>
</g>
<rect x="90" y="90" width="52" height="52" rx="26" stroke="#98A2B3" stroke-opacity="0.14" stroke-width="4" shape-rendering="crispEdges"/>
</g>
<rect x="127.25" y="127.25" width="13.5" height="13.5" rx="6.75" fill="#17B26A"/>
<rect x="127.25" y="127.25" width="13.5" height="13.5" rx="6.75" stroke="white" stroke-width="1.5"/>
<path d="M136.527 132.013L133.052 135.488L131.473 133.908" stroke="white" stroke-width="2" stroke-linecap="round" stroke-linejoin="round"/>
<g filter="url(#filter5_d_44_656)">
<g clip-path="url(#clip3_44_656)">
<rect x="384" y="92" width="48" height="48" rx="11.1212" fill="url(#paint14_linear_44_656)"/>
<g clip-path="url(#clip4_44_656)">
<g filter="url(#filter6_b_44_656)">
<rect x="381.68" y="89.6826" width="52.1305" height="52.1305" rx="11.1212" fill="white" fill-opacity="0.32"/>
<rect x="382.131" y="90.1344" width="51.2269" height="51.2269" rx="10.6694" stroke="white" stroke-opacity="0.2" stroke-width="0.903596"/>
</g>
<g opacity="0.8">
<circle opacity="0.5" cx="407.991" cy="116" r="10.6957" stroke="white" stroke-width="0.208522"/>
<circle opacity="0.5" cx="407.992" cy="116" r="14.8957" stroke="white" stroke-width="0.208522"/>
<path d="M392.992 92V140" stroke="url(#paint15_linear_44_656)" stroke-width="0.208522" stroke-dasharray="0.7 0.7"/>
<path d="M422.992 92V140" stroke="url(#paint16_linear_44_656)" stroke-width="0.208522" stroke-dasharray="0.7 0.7"/>
<path d="M407.992 92V140" stroke="url(#paint17_linear_44_656)" stroke-width="0.208522" stroke-dasharray="0.7 0.7"/>
<path d="M383.992 131H431.992" stroke="url(#paint18_linear_44_656)" stroke-width="0.208522" stroke-dasharray="0.7 0.7"/>
<path d="M383.992 126.8H431.992" stroke="url(#paint19_linear_44_656)" stroke-width="0.208522" stroke-dasharray="0.7 0.7"/>
<path d="M383.992 105.2H431.992" stroke="url(#paint20_linear_44_656)" stroke-width="0.208522" stroke-dasharray="0.7 0.7"/>
<path d="M383.992 116H431.992" stroke="url(#paint21_linear_44_656)" stroke-width="0.208522" stroke-dasharray="0.7 0.7"/>
<path d="M383.992 101H431.992" stroke="url(#paint22_linear_44_656)" stroke-width="0.208522" stroke-dasharray="0.7 0.7"/>
<path d="M383.992 92L431.992 140" stroke="url(#paint23_linear_44_656)" stroke-width="0.208522" stroke-dasharray="0.7 0.7"/>
<path d="M431.992 92L383.992 140" stroke="url(#paint24_linear_44_656)" stroke-width="0.208522" stroke-dasharray="0.7 0.7"/>
</g>
</g>
<path d="M417.333 126.5C417.333 124.872 417.333 124.058 417.132 123.395C416.68 121.904 415.513 120.737 414.021 120.284C413.359 120.083 412.545 120.083 410.917 120.083H405.083C403.455 120.083 402.641 120.083 401.979 120.284C400.487 120.737 399.32 121.904 398.867 123.395C398.667 124.058 398.667 124.872 398.667 126.5M413.25 110.75C413.25 113.649 410.899 116 408 116C405.1 116 402.75 113.649 402.75 110.75C402.75 107.851 405.1 105.5 408 105.5C410.899 105.5 413.25 107.851 413.25 110.75Z" stroke="white" stroke-width="2.33333" stroke-linecap="round" stroke-linejoin="round"/>
</g>
<rect x="382" y="90" width="52" height="52" rx="26" stroke="#98A2B3" stroke-opacity="0.14" stroke-width="4" shape-rendering="crispEdges"/>
</g>
<rect x="419.25" y="127.25" width="13.5" height="13.5" rx="6.75" fill="#17B26A"/>
<rect x="419.25" y="127.25" width="13.5" height="13.5" rx="6.75" stroke="white" stroke-width="1.5"/>
<path d="M428.527 132.013L425.052 135.488L423.473 133.908" stroke="white" stroke-width="2" stroke-linecap="round" stroke-linejoin="round"/>
<g filter="url(#filter7_d_44_656)">
<g clip-path="url(#clip5_44_656)">
<rect x="349" y="185" width="48" height="48" rx="11.1212" fill="url(#paint25_linear_44_656)"/>
<g clip-path="url(#clip6_44_656)">
<g filter="url(#filter8_b_44_656)">
<rect x="346.68" y="182.683" width="52.1305" height="52.1305" rx="11.1212" fill="white" fill-opacity="0.32"/>
<rect x="347.131" y="183.134" width="51.2269" height="51.2269" rx="10.6694" stroke="white" stroke-opacity="0.2" stroke-width="0.903596"/>
</g>
<g opacity="0.8">
<circle opacity="0.5" cx="372.991" cy="209" r="10.6957" stroke="white" stroke-width="0.208522"/>
<circle opacity="0.5" cx="372.992" cy="209" r="14.8957" stroke="white" stroke-width="0.208522"/>
<path d="M357.992 185V233" stroke="url(#paint26_linear_44_656)" stroke-width="0.208522" stroke-dasharray="0.7 0.7"/>
<path d="M387.992 185V233" stroke="url(#paint27_linear_44_656)" stroke-width="0.208522" stroke-dasharray="0.7 0.7"/>
<path d="M372.992 185V233" stroke="url(#paint28_linear_44_656)" stroke-width="0.208522" stroke-dasharray="0.7 0.7"/>
<path d="M348.992 224H396.992" stroke="url(#paint29_linear_44_656)" stroke-width="0.208522" stroke-dasharray="0.7 0.7"/>
<path d="M348.992 219.8H396.992" stroke="url(#paint30_linear_44_656)" stroke-width="0.208522" stroke-dasharray="0.7 0.7"/>
<path d="M348.992 198.2H396.992" stroke="url(#paint31_linear_44_656)" stroke-width="0.208522" stroke-dasharray="0.7 0.7"/>
<path d="M348.992 209H396.992" stroke="url(#paint32_linear_44_656)" stroke-width="0.208522" stroke-dasharray="0.7 0.7"/>
<path d="M348.992 194H396.992" stroke="url(#paint33_linear_44_656)" stroke-width="0.208522" stroke-dasharray="0.7 0.7"/>
<path d="M348.992 185L396.992 233" stroke="url(#paint34_linear_44_656)" stroke-width="0.208522" stroke-dasharray="0.7 0.7"/>
<path d="M396.992 185L348.992 233" stroke="url(#paint35_linear_44_656)" stroke-width="0.208522" stroke-dasharray="0.7 0.7"/>
</g>
</g>
<path d="M382.333 219.5C382.333 217.872 382.333 217.058 382.132 216.395C381.68 214.904 380.513 213.737 379.021 213.284C378.359 213.083 377.545 213.083 375.917 213.083H370.083C368.455 213.083 367.641 213.083 366.979 213.284C365.487 213.737 364.32 214.904 363.867 216.395C363.667 217.058 363.667 217.872 363.667 219.5M378.25 203.75C378.25 206.649 375.899 209 373 209C370.1 209 367.75 206.649 367.75 203.75C367.75 200.851 370.1 198.5 373 198.5C375.899 198.5 378.25 200.851 378.25 203.75Z" stroke="white" stroke-width="2.33333" stroke-linecap="round" stroke-linejoin="round"/>
</g>
<rect x="347" y="183" width="52" height="52" rx="26" stroke="#98A2B3" stroke-opacity="0.14" stroke-width="4" shape-rendering="crispEdges"/>
</g>
<rect x="384.25" y="220.25" width="13.5" height="13.5" rx="6.75" fill="#B21717"/>
<rect x="384.25" y="220.25" width="13.5" height="13.5" rx="6.75" stroke="white" stroke-width="1.5"/>
<path d="M393.142 224.858L388.859 229.141M388.859 224.858L393.142 229.141" stroke="white" stroke-width="2" stroke-linecap="round" stroke-linejoin="round"/>
<g filter="url(#filter9_d_44_656)">
<g clip-path="url(#clip7_44_656)">
<rect x="127" y="185" width="48" height="48" rx="11.1212" fill="url(#paint36_linear_44_656)"/>
<g clip-path="url(#clip8_44_656)">
<g filter="url(#filter10_b_44_656)">
<rect x="124.68" y="182.683" width="52.1305" height="52.1305" rx="11.1212" fill="white" fill-opacity="0.32"/>
<rect x="125.131" y="183.134" width="51.2269" height="51.2269" rx="10.6694" stroke="white" stroke-opacity="0.2" stroke-width="0.903596"/>
</g>
<g opacity="0.8">
<circle opacity="0.5" cx="150.991" cy="209" r="10.6957" stroke="white" stroke-width="0.208522"/>
<circle opacity="0.5" cx="150.992" cy="209" r="14.8957" stroke="white" stroke-width="0.208522"/>
<path d="M135.992 185V233" stroke="url(#paint37_linear_44_656)" stroke-width="0.208522" stroke-dasharray="0.7 0.7"/>
<path d="M165.992 185V233" stroke="url(#paint38_linear_44_656)" stroke-width="0.208522" stroke-dasharray="0.7 0.7"/>
<path d="M150.992 185V233" stroke="url(#paint39_linear_44_656)" stroke-width="0.208522" stroke-dasharray="0.7 0.7"/>
<path d="M126.992 224H174.992" stroke="url(#paint40_linear_44_656)" stroke-width="0.208522" stroke-dasharray="0.7 0.7"/>
<path d="M126.992 219.8H174.992" stroke="url(#paint41_linear_44_656)" stroke-width="0.208522" stroke-dasharray="0.7 0.7"/>
<path d="M126.992 198.2H174.992" stroke="url(#paint42_linear_44_656)" stroke-width="0.208522" stroke-dasharray="0.7 0.7"/>
<path d="M126.992 209H174.992" stroke="url(#paint43_linear_44_656)" stroke-width="0.208522" stroke-dasharray="0.7 0.7"/>
<path d="M126.992 194H174.992" stroke="url(#paint44_linear_44_656)" stroke-width="0.208522" stroke-dasharray="0.7 0.7"/>
<path d="M126.992 185L174.992 233" stroke="url(#paint45_linear_44_656)" stroke-width="0.208522" stroke-dasharray="0.7 0.7"/>
<path d="M174.992 185L126.992 233" stroke="url(#paint46_linear_44_656)" stroke-width="0.208522" stroke-dasharray="0.7 0.7"/>
</g>
</g>
<path d="M160.333 219.5C160.333 217.872 160.333 217.058 160.132 216.395C159.68 214.904 158.513 213.737 157.021 213.284C156.359 213.083 155.545 213.083 153.917 213.083H148.083C146.455 213.083 145.641 213.083 144.979 213.284C143.487 213.737 142.32 214.904 141.867 216.395C141.667 217.058 141.667 217.872 141.667 219.5M156.25 203.75C156.25 206.649 153.899 209 151 209C148.1 209 145.75 206.649 145.75 203.75C145.75 200.851 148.1 198.5 151 198.5C153.899 198.5 156.25 200.851 156.25 203.75Z" stroke="white" stroke-width="2.33333" stroke-linecap="round" stroke-linejoin="round"/>
</g>
<rect x="125" y="183" width="52" height="52" rx="26" stroke="#98A2B3" stroke-opacity="0.14" stroke-width="4" shape-rendering="crispEdges"/>
</g>
<rect x="162.25" y="220.25" width="13.5" height="13.5" rx="6.75" fill="#B21717"/>
<rect x="162.25" y="220.25" width="13.5" height="13.5" rx="6.75" stroke="white" stroke-width="1.5"/>
<path d="M171.142 224.858L166.859 229.141M166.859 224.858L171.142 229.141" stroke="white" stroke-width="2" stroke-linecap="round" stroke-linejoin="round"/>
<g filter="url(#filter11_d_44_656)">
<g clip-path="url(#clip9_44_656)">
<rect x="238" y="160" width="48" height="48" rx="11.1212" fill="url(#paint47_linear_44_656)"/>
<g clip-path="url(#clip10_44_656)">
<g filter="url(#filter12_b_44_656)">
<rect x="235.68" y="157.683" width="52.1305" height="52.1305" rx="11.1212" fill="white" fill-opacity="0.32"/>
<rect x="236.131" y="158.134" width="51.2269" height="51.2269" rx="10.6694" stroke="white" stroke-opacity="0.2" stroke-width="0.903596"/>
</g>
<g opacity="0.8">
<circle opacity="0.5" cx="261.991" cy="184" r="10.6957" stroke="white" stroke-width="0.208522"/>
<circle opacity="0.5" cx="261.992" cy="184" r="14.8957" stroke="white" stroke-width="0.208522"/>
<path d="M246.992 160V208" stroke="url(#paint48_linear_44_656)" stroke-width="0.208522" stroke-dasharray="0.7 0.7"/>
<path d="M276.992 160V208" stroke="url(#paint49_linear_44_656)" stroke-width="0.208522" stroke-dasharray="0.7 0.7"/>
<path d="M261.992 160V208" stroke="url(#paint50_linear_44_656)" stroke-width="0.208522" stroke-dasharray="0.7 0.7"/>
<path d="M237.992 199H285.992" stroke="url(#paint51_linear_44_656)" stroke-width="0.208522" stroke-dasharray="0.7 0.7"/>
<path d="M237.992 194.8H285.992" stroke="url(#paint52_linear_44_656)" stroke-width="0.208522" stroke-dasharray="0.7 0.7"/>
<path d="M237.992 173.2H285.992" stroke="url(#paint53_linear_44_656)" stroke-width="0.208522" stroke-dasharray="0.7 0.7"/>
<path d="M237.992 184H285.992" stroke="url(#paint54_linear_44_656)" stroke-width="0.208522" stroke-dasharray="0.7 0.7"/>
<path d="M237.992 169H285.992" stroke="url(#paint55_linear_44_656)" stroke-width="0.208522" stroke-dasharray="0.7 0.7"/>
<path d="M237.992 160L285.992 208" stroke="url(#paint56_linear_44_656)" stroke-width="0.208522" stroke-dasharray="0.7 0.7"/>
<path d="M285.992 160L237.992 208" stroke="url(#paint57_linear_44_656)" stroke-width="0.208522" stroke-dasharray="0.7 0.7"/>
</g>
</g>
<path d="M271.333 194.5C271.333 192.872 271.333 192.058 271.132 191.395C270.68 189.904 269.513 188.737 268.021 188.284C267.359 188.083 266.545 188.083 264.917 188.083H259.083C257.455 188.083 256.641 188.083 255.979 188.284C254.487 188.737 253.32 189.904 252.867 191.395C252.667 192.058 252.667 192.872 252.667 194.5M267.25 178.75C267.25 181.649 264.899 184 262 184C259.1 184 256.75 181.649 256.75 178.75C256.75 175.851 259.1 173.5 262 173.5C264.899 173.5 267.25 175.851 267.25 178.75Z" stroke="white" stroke-width="2.33333" stroke-linecap="round" stroke-linejoin="round"/>
</g>
<rect x="236" y="158" width="52" height="52" rx="26" stroke="#98A2B3" stroke-opacity="0.14" stroke-width="4" shape-rendering="crispEdges"/>
</g>
<rect x="273.25" y="195.25" width="13.5" height="13.5" rx="6.75" fill="#17B26A"/>
<rect x="273.25" y="195.25" width="13.5" height="13.5" rx="6.75" stroke="white" stroke-width="1.5"/>
<path d="M282.527 200.013L279.052 203.488L277.473 201.908" stroke="white" stroke-width="2" stroke-linecap="round" stroke-linejoin="round"/>
</g>
<defs>
<filter id="filter0_f_44_656" x="12.1367" y="-182.83" width="500" height="613.87" filterUnits="userSpaceOnUse" color-interpolation-filters="sRGB">
<feFlood flood-opacity="0" result="BackgroundImageFix"/>
<feBlend mode="normal" in="SourceGraphic" in2="BackgroundImageFix" result="shape"/>
<feGaussianBlur stdDeviation="75" result="effect1_foregroundBlur_44_656"/>
</filter>
<filter id="filter1_d_44_656" x="147.637" y="3.99998" width="229" height="152" filterUnits="userSpaceOnUse" color-interpolation-filters="sRGB">
<feFlood flood-opacity="0" result="BackgroundImageFix"/>
<feColorMatrix in="SourceAlpha" type="matrix" values="0 0 0 0 0 0 0 0 0 0 0 0 0 0 0 0 0 0 127 0" result="hardAlpha"/>
<feOffset dy="24"/>
<feGaussianBlur stdDeviation="24"/>
<feComposite in2="hardAlpha" operator="out"/>
<feColorMatrix type="matrix" values="0 0 0 0 0.00757305 0 0 0 0 0.143701 0 0 0 0 0.24196 0 0 0 0.08 0"/>
<feBlend mode="normal" in2="BackgroundImageFix" result="effect1_dropShadow_44_656"/>
<feBlend mode="normal" in="SourceGraphic" in2="effect1_dropShadow_44_656" result="shape"/>
</filter>
<filter id="filter2_b_44_656" x="184.516" y="16.8788" width="155.242" height="78.2424" filterUnits="userSpaceOnUse" color-interpolation-filters="sRGB">
<feFlood flood-opacity="0" result="BackgroundImageFix"/>
<feGaussianBlur in="BackgroundImageFix" stdDeviation="5.56059"/>
<feComposite in2="SourceAlpha" operator="in" result="effect1_backgroundBlur_44_656"/>
<feBlend mode="normal" in="SourceGraphic" in2="effect1_backgroundBlur_44_656" result="shape"/>
</filter>
<filter id="filter3_d_44_656" x="56" y="72" width="120" height="120" filterUnits="userSpaceOnUse" color-interpolation-filters="sRGB">
<feFlood flood-opacity="0" result="BackgroundImageFix"/>
<feColorMatrix in="SourceAlpha" type="matrix" values="0 0 0 0 0 0 0 0 0 0 0 0 0 0 0 0 0 0 127 0" result="hardAlpha"/>
<feOffset dy="16"/>
<feGaussianBlur stdDeviation="16"/>
<feComposite in2="hardAlpha" operator="out"/>
<feColorMatrix type="matrix" values="0 0 0 0 0.00757305 0 0 0 0 0.143701 0 0 0 0 0.24196 0 0 0 0.08 0"/>
<feBlend mode="normal" in2="BackgroundImageFix" result="effect1_dropShadow_44_656"/>
<feBlend mode="normal" in="SourceGraphic" in2="effect1_dropShadow_44_656" result="shape"/>
</filter>
<filter id="filter4_b_44_656" x="78.5585" y="78.5614" width="74.3727" height="74.3732" filterUnits="userSpaceOnUse" color-interpolation-filters="sRGB">
<feFlood flood-opacity="0" result="BackgroundImageFix"/>
<feGaussianBlur in="BackgroundImageFix" stdDeviation="5.56059"/>
<feComposite in2="SourceAlpha" operator="in" result="effect1_backgroundBlur_44_656"/>
<feBlend mode="normal" in="SourceGraphic" in2="effect1_backgroundBlur_44_656" result="shape"/>
</filter>
<filter id="filter5_d_44_656" x="348" y="72" width="120" height="120" filterUnits="userSpaceOnUse" color-interpolation-filters="sRGB">
<feFlood flood-opacity="0" result="BackgroundImageFix"/>
<feColorMatrix in="SourceAlpha" type="matrix" values="0 0 0 0 0 0 0 0 0 0 0 0 0 0 0 0 0 0 127 0" result="hardAlpha"/>
<feOffset dy="16"/>
<feGaussianBlur stdDeviation="16"/>
<feComposite in2="hardAlpha" operator="out"/>
<feColorMatrix type="matrix" values="0 0 0 0 0.00757305 0 0 0 0 0.143701 0 0 0 0 0.24196 0 0 0 0.08 0"/>
<feBlend mode="normal" in2="BackgroundImageFix" result="effect1_dropShadow_44_656"/>
<feBlend mode="normal" in="SourceGraphic" in2="effect1_dropShadow_44_656" result="shape"/>
</filter>
<filter id="filter6_b_44_656" x="370.559" y="78.5614" width="74.3727" height="74.3732" filterUnits="userSpaceOnUse" color-interpolation-filters="sRGB">
<feFlood flood-opacity="0" result="BackgroundImageFix"/>
<feGaussianBlur in="BackgroundImageFix" stdDeviation="5.56059"/>
<feComposite in2="SourceAlpha" operator="in" result="effect1_backgroundBlur_44_656"/>
<feBlend mode="normal" in="SourceGraphic" in2="effect1_backgroundBlur_44_656" result="shape"/>
</filter>
<filter id="filter7_d_44_656" x="313" y="165" width="120" height="120" filterUnits="userSpaceOnUse" color-interpolation-filters="sRGB">
<feFlood flood-opacity="0" result="BackgroundImageFix"/>
<feColorMatrix in="SourceAlpha" type="matrix" values="0 0 0 0 0 0 0 0 0 0 0 0 0 0 0 0 0 0 127 0" result="hardAlpha"/>
<feOffset dy="16"/>
<feGaussianBlur stdDeviation="16"/>
<feComposite in2="hardAlpha" operator="out"/>
<feColorMatrix type="matrix" values="0 0 0 0 0.00757305 0 0 0 0 0.143701 0 0 0 0 0.24196 0 0 0 0.08 0"/>
<feBlend mode="normal" in2="BackgroundImageFix" result="effect1_dropShadow_44_656"/>
<feBlend mode="normal" in="SourceGraphic" in2="effect1_dropShadow_44_656" result="shape"/>
</filter>
<filter id="filter8_b_44_656" x="335.559" y="171.561" width="74.3727" height="74.3732" filterUnits="userSpaceOnUse" color-interpolation-filters="sRGB">
<feFlood flood-opacity="0" result="BackgroundImageFix"/>
<feGaussianBlur in="BackgroundImageFix" stdDeviation="5.56059"/>
<feComposite in2="SourceAlpha" operator="in" result="effect1_backgroundBlur_44_656"/>
<feBlend mode="normal" in="SourceGraphic" in2="effect1_backgroundBlur_44_656" result="shape"/>
</filter>
<filter id="filter9_d_44_656" x="91" y="165" width="120" height="120" filterUnits="userSpaceOnUse" color-interpolation-filters="sRGB">
<feFlood flood-opacity="0" result="BackgroundImageFix"/>
<feColorMatrix in="SourceAlpha" type="matrix" values="0 0 0 0 0 0 0 0 0 0 0 0 0 0 0 0 0 0 127 0" result="hardAlpha"/>
<feOffset dy="16"/>
<feGaussianBlur stdDeviation="16"/>
<feComposite in2="hardAlpha" operator="out"/>
<feColorMatrix type="matrix" values="0 0 0 0 0.00757305 0 0 0 0 0.143701 0 0 0 0 0.24196 0 0 0 0.08 0"/>
<feBlend mode="normal" in2="BackgroundImageFix" result="effect1_dropShadow_44_656"/>
<feBlend mode="normal" in="SourceGraphic" in2="effect1_dropShadow_44_656" result="shape"/>
</filter>
<filter id="filter10_b_44_656" x="113.559" y="171.561" width="74.3727" height="74.3732" filterUnits="userSpaceOnUse" color-interpolation-filters="sRGB">
<feFlood flood-opacity="0" result="BackgroundImageFix"/>
<feGaussianBlur in="BackgroundImageFix" stdDeviation="5.56059"/>
<feComposite in2="SourceAlpha" operator="in" result="effect1_backgroundBlur_44_656"/>
<feBlend mode="normal" in="SourceGraphic" in2="effect1_backgroundBlur_44_656" result="shape"/>
</filter>
<filter id="filter11_d_44_656" x="202" y="140" width="120" height="120" filterUnits="userSpaceOnUse" color-interpolation-filters="sRGB">
<feFlood flood-opacity="0" result="BackgroundImageFix"/>
<feColorMatrix in="SourceAlpha" type="matrix" values="0 0 0 0 0 0 0 0 0 0 0 0 0 0 0 0 0 0 127 0" result="hardAlpha"/>
<feOffset dy="16"/>
<feGaussianBlur stdDeviation="16"/>
<feComposite in2="hardAlpha" operator="out"/>
<feColorMatrix type="matrix" values="0 0 0 0 0.00757305 0 0 0 0 0.143701 0 0 0 0 0.24196 0 0 0 0.08 0"/>
<feBlend mode="normal" in2="BackgroundImageFix" result="effect1_dropShadow_44_656"/>
<feBlend mode="normal" in="SourceGraphic" in2="effect1_dropShadow_44_656" result="shape"/>
</filter>
<filter id="filter12_b_44_656" x="224.559" y="146.561" width="74.3727" height="74.3732" filterUnits="userSpaceOnUse" color-interpolation-filters="sRGB">
<feFlood flood-opacity="0" result="BackgroundImageFix"/>
<feGaussianBlur in="BackgroundImageFix" stdDeviation="5.56059"/>
<feComposite in2="SourceAlpha" operator="in" result="effect1_backgroundBlur_44_656"/>
<feBlend mode="normal" in="SourceGraphic" in2="effect1_backgroundBlur_44_656" result="shape"/>
</filter>
<radialGradient id="paint0_radial_44_656" cx="0" cy="0" r="1" gradientUnits="userSpaceOnUse" gradientTransform="translate(401.518 401.518) rotate(90) scale(401.518 401.518)">
<stop/>
<stop offset="1" stop-opacity="0"/>
</radialGradient>
<linearGradient id="paint1_linear_44_656" x1="377.54" y1="253.671" x2="135.927" y2="247.448" gradientUnits="userSpaceOnUse">
<stop offset="0.0760103" stop-color="#179CFC"/>
<stop offset="0.228707" stop-color="#A517FC"/>
<stop offset="0.293931" stop-color="#179CFC"/>
<stop offset="0.483821" stop-color="#179CFC"/>
<stop offset="0.719833" stop-color="#A517FC"/>
<stop offset="0.891086" stop-color="#179CFC"/>
</linearGradient>
<linearGradient id="paint2_linear_44_656" x1="196.862" y1="27.8423" x2="353.255" y2="34.8142" gradientUnits="userSpaceOnUse">
<stop stop-color="#047AFF"/>
<stop offset="1" stop-color="#7917DF"/>
</linearGradient>
<linearGradient id="paint3_linear_44_656" x1="92.4421" y1="91.8648" x2="148.977" y2="92.926" gradientUnits="userSpaceOnUse">
<stop stop-color="#047AFF"/>
<stop offset="1" stop-color="#7917DF"/>
</linearGradient>
<linearGradient id="paint4_linear_44_656" x1="101.492" y1="92" x2="101.492" y2="140" gradientUnits="userSpaceOnUse">
<stop stop-color="white" stop-opacity="0"/>
<stop offset="0.26" stop-color="white"/>
<stop offset="0.471357" stop-color="white"/>
<stop offset="0.71" stop-color="white"/>
<stop offset="1" stop-color="white" stop-opacity="0"/>
</linearGradient>
<linearGradient id="paint5_linear_44_656" x1="131.492" y1="92" x2="131.492" y2="140" gradientUnits="userSpaceOnUse">
<stop stop-color="white" stop-opacity="0"/>
<stop offset="0.26" stop-color="white"/>
<stop offset="0.471357" stop-color="white"/>
<stop offset="0.71" stop-color="white"/>
<stop offset="1" stop-color="white" stop-opacity="0"/>
</linearGradient>
<linearGradient id="paint6_linear_44_656" x1="116.492" y1="92" x2="116.492" y2="140" gradientUnits="userSpaceOnUse">
<stop stop-color="white" stop-opacity="0"/>
<stop offset="0.26" stop-color="white"/>
<stop offset="0.471357" stop-color="white"/>
<stop offset="0.71" stop-color="white"/>
<stop offset="1" stop-color="white" stop-opacity="0"/>
</linearGradient>
<linearGradient id="paint7_linear_44_656" x1="91.9922" y1="130.5" x2="139.992" y2="130.5" gradientUnits="userSpaceOnUse">
<stop stop-color="white" stop-opacity="0"/>
<stop offset="0.26" stop-color="white"/>
<stop offset="0.471357" stop-color="white"/>
<stop offset="0.71" stop-color="white"/>
<stop offset="1" stop-color="white" stop-opacity="0"/>
</linearGradient>
<linearGradient id="paint8_linear_44_656" x1="91.9922" y1="126.3" x2="139.992" y2="126.3" gradientUnits="userSpaceOnUse">
<stop stop-color="white" stop-opacity="0"/>
<stop offset="0.26" stop-color="white"/>
<stop offset="0.471357" stop-color="white"/>
<stop offset="0.71" stop-color="white"/>
<stop offset="1" stop-color="white" stop-opacity="0"/>
</linearGradient>
<linearGradient id="paint9_linear_44_656" x1="91.9922" y1="104.7" x2="139.992" y2="104.7" gradientUnits="userSpaceOnUse">
<stop stop-color="white" stop-opacity="0"/>
<stop offset="0.26" stop-color="white"/>
<stop offset="0.471357" stop-color="white"/>
<stop offset="0.71" stop-color="white"/>
<stop offset="1" stop-color="white" stop-opacity="0"/>
</linearGradient>
<linearGradient id="paint10_linear_44_656" x1="91.9922" y1="115.5" x2="139.992" y2="115.5" gradientUnits="userSpaceOnUse">
<stop stop-color="white" stop-opacity="0"/>
<stop offset="0.26" stop-color="white"/>
<stop offset="0.471357" stop-color="white"/>
<stop offset="0.71" stop-color="white"/>
<stop offset="1" stop-color="white" stop-opacity="0"/>
</linearGradient>
<linearGradient id="paint11_linear_44_656" x1="91.9922" y1="100.5" x2="139.992" y2="100.5" gradientUnits="userSpaceOnUse">
<stop stop-color="white" stop-opacity="0"/>
<stop offset="0.26" stop-color="white"/>
<stop offset="0.471357" stop-color="white"/>
<stop offset="0.71" stop-color="white"/>
<stop offset="1" stop-color="white" stop-opacity="0"/>
</linearGradient>
<linearGradient id="paint12_linear_44_656" x1="92.3457" y1="91.6464" x2="140.346" y2="139.646" gradientUnits="userSpaceOnUse">
<stop stop-color="white" stop-opacity="0"/>
<stop offset="0.354789" stop-color="white"/>
<stop offset="0.471357" stop-color="white"/>
<stop offset="0.588196" stop-color="white"/>
<stop offset="1" stop-color="white" stop-opacity="0"/>
</linearGradient>
<linearGradient id="paint13_linear_44_656" x1="139.639" y1="91.6464" x2="91.6386" y2="139.646" gradientUnits="userSpaceOnUse">
<stop stop-color="white" stop-opacity="0"/>
<stop offset="0.354789" stop-color="white"/>
<stop offset="0.471357" stop-color="white"/>
<stop offset="0.588196" stop-color="white"/>
<stop offset="1" stop-color="white" stop-opacity="0"/>
</linearGradient>
<linearGradient id="paint14_linear_44_656" x1="384.442" y1="91.8648" x2="440.977" y2="92.926" gradientUnits="userSpaceOnUse">
<stop stop-color="#047AFF"/>
<stop offset="1" stop-color="#7917DF"/>
</linearGradient>
<linearGradient id="paint15_linear_44_656" x1="393.492" y1="92" x2="393.492" y2="140" gradientUnits="userSpaceOnUse">
<stop stop-color="white" stop-opacity="0"/>
<stop offset="0.26" stop-color="white"/>
<stop offset="0.471357" stop-color="white"/>
<stop offset="0.71" stop-color="white"/>
<stop offset="1" stop-color="white" stop-opacity="0"/>
</linearGradient>
<linearGradient id="paint16_linear_44_656" x1="423.492" y1="92" x2="423.492" y2="140" gradientUnits="userSpaceOnUse">
<stop stop-color="white" stop-opacity="0"/>
<stop offset="0.26" stop-color="white"/>
<stop offset="0.471357" stop-color="white"/>
<stop offset="0.71" stop-color="white"/>
<stop offset="1" stop-color="white" stop-opacity="0"/>
</linearGradient>
<linearGradient id="paint17_linear_44_656" x1="408.492" y1="92" x2="408.492" y2="140" gradientUnits="userSpaceOnUse">
<stop stop-color="white" stop-opacity="0"/>
<stop offset="0.26" stop-color="white"/>
<stop offset="0.471357" stop-color="white"/>
<stop offset="0.71" stop-color="white"/>
<stop offset="1" stop-color="white" stop-opacity="0"/>
</linearGradient>
<linearGradient id="paint18_linear_44_656" x1="383.992" y1="130.5" x2="431.992" y2="130.5" gradientUnits="userSpaceOnUse">
<stop stop-color="white" stop-opacity="0"/>
<stop offset="0.26" stop-color="white"/>
<stop offset="0.471357" stop-color="white"/>
<stop offset="0.71" stop-color="white"/>
<stop offset="1" stop-color="white" stop-opacity="0"/>
</linearGradient>
<linearGradient id="paint19_linear_44_656" x1="383.992" y1="126.3" x2="431.992" y2="126.3" gradientUnits="userSpaceOnUse">
<stop stop-color="white" stop-opacity="0"/>
<stop offset="0.26" stop-color="white"/>
<stop offset="0.471357" stop-color="white"/>
<stop offset="0.71" stop-color="white"/>
<stop offset="1" stop-color="white" stop-opacity="0"/>
</linearGradient>
<linearGradient id="paint20_linear_44_656" x1="383.992" y1="104.7" x2="431.992" y2="104.7" gradientUnits="userSpaceOnUse">
<stop stop-color="white" stop-opacity="0"/>
<stop offset="0.26" stop-color="white"/>
<stop offset="0.471357" stop-color="white"/>
<stop offset="0.71" stop-color="white"/>
<stop offset="1" stop-color="white" stop-opacity="0"/>
</linearGradient>
<linearGradient id="paint21_linear_44_656" x1="383.992" y1="115.5" x2="431.992" y2="115.5" gradientUnits="userSpaceOnUse">
<stop stop-color="white" stop-opacity="0"/>
<stop offset="0.26" stop-color="white"/>
<stop offset="0.471357" stop-color="white"/>
<stop offset="0.71" stop-color="white"/>
<stop offset="1" stop-color="white" stop-opacity="0"/>
</linearGradient>
<linearGradient id="paint22_linear_44_656" x1="383.992" y1="100.5" x2="431.992" y2="100.5" gradientUnits="userSpaceOnUse">
<stop stop-color="white" stop-opacity="0"/>
<stop offset="0.26" stop-color="white"/>
<stop offset="0.471357" stop-color="white"/>
<stop offset="0.71" stop-color="white"/>
<stop offset="1" stop-color="white" stop-opacity="0"/>
</linearGradient>
<linearGradient id="paint23_linear_44_656" x1="384.346" y1="91.6464" x2="432.346" y2="139.646" gradientUnits="userSpaceOnUse">
<stop stop-color="white" stop-opacity="0"/>
<stop offset="0.354789" stop-color="white"/>
<stop offset="0.471357" stop-color="white"/>
<stop offset="0.588196" stop-color="white"/>
<stop offset="1" stop-color="white" stop-opacity="0"/>
</linearGradient>
<linearGradient id="paint24_linear_44_656" x1="431.639" y1="91.6464" x2="383.639" y2="139.646" gradientUnits="userSpaceOnUse">
<stop stop-color="white" stop-opacity="0"/>
<stop offset="0.354789" stop-color="white"/>
<stop offset="0.471357" stop-color="white"/>
<stop offset="0.588196" stop-color="white"/>
<stop offset="1" stop-color="white" stop-opacity="0"/>
</linearGradient>
<linearGradient id="paint25_linear_44_656" x1="349.442" y1="184.865" x2="405.977" y2="185.926" gradientUnits="userSpaceOnUse">
<stop stop-color="#047AFF"/>
<stop offset="1" stop-color="#7917DF"/>
</linearGradient>
<linearGradient id="paint26_linear_44_656" x1="358.492" y1="185" x2="358.492" y2="233" gradientUnits="userSpaceOnUse">
<stop stop-color="white" stop-opacity="0"/>
<stop offset="0.26" stop-color="white"/>
<stop offset="0.471357" stop-color="white"/>
<stop offset="0.71" stop-color="white"/>
<stop offset="1" stop-color="white" stop-opacity="0"/>
</linearGradient>
<linearGradient id="paint27_linear_44_656" x1="388.492" y1="185" x2="388.492" y2="233" gradientUnits="userSpaceOnUse">
<stop stop-color="white" stop-opacity="0"/>
<stop offset="0.26" stop-color="white"/>
<stop offset="0.471357" stop-color="white"/>
<stop offset="0.71" stop-color="white"/>
<stop offset="1" stop-color="white" stop-opacity="0"/>
</linearGradient>
<linearGradient id="paint28_linear_44_656" x1="373.492" y1="185" x2="373.492" y2="233" gradientUnits="userSpaceOnUse">
<stop stop-color="white" stop-opacity="0"/>
<stop offset="0.26" stop-color="white"/>
<stop offset="0.471357" stop-color="white"/>
<stop offset="0.71" stop-color="white"/>
<stop offset="1" stop-color="white" stop-opacity="0"/>
</linearGradient>
<linearGradient id="paint29_linear_44_656" x1="348.992" y1="223.5" x2="396.992" y2="223.5" gradientUnits="userSpaceOnUse">
<stop stop-color="white" stop-opacity="0"/>
<stop offset="0.26" stop-color="white"/>
<stop offset="0.471357" stop-color="white"/>
<stop offset="0.71" stop-color="white"/>
<stop offset="1" stop-color="white" stop-opacity="0"/>
</linearGradient>
<linearGradient id="paint30_linear_44_656" x1="348.992" y1="219.3" x2="396.992" y2="219.3" gradientUnits="userSpaceOnUse">
<stop stop-color="white" stop-opacity="0"/>
<stop offset="0.26" stop-color="white"/>
<stop offset="0.471357" stop-color="white"/>
<stop offset="0.71" stop-color="white"/>
<stop offset="1" stop-color="white" stop-opacity="0"/>
</linearGradient>
<linearGradient id="paint31_linear_44_656" x1="348.992" y1="197.7" x2="396.992" y2="197.7" gradientUnits="userSpaceOnUse">
<stop stop-color="white" stop-opacity="0"/>
<stop offset="0.26" stop-color="white"/>
<stop offset="0.471357" stop-color="white"/>
<stop offset="0.71" stop-color="white"/>
<stop offset="1" stop-color="white" stop-opacity="0"/>
</linearGradient>
<linearGradient id="paint32_linear_44_656" x1="348.992" y1="208.5" x2="396.992" y2="208.5" gradientUnits="userSpaceOnUse">
<stop stop-color="white" stop-opacity="0"/>
<stop offset="0.26" stop-color="white"/>
<stop offset="0.471357" stop-color="white"/>
<stop offset="0.71" stop-color="white"/>
<stop offset="1" stop-color="white" stop-opacity="0"/>
</linearGradient>
<linearGradient id="paint33_linear_44_656" x1="348.992" y1="193.5" x2="396.992" y2="193.5" gradientUnits="userSpaceOnUse">
<stop stop-color="white" stop-opacity="0"/>
<stop offset="0.26" stop-color="white"/>
<stop offset="0.471357" stop-color="white"/>
<stop offset="0.71" stop-color="white"/>
<stop offset="1" stop-color="white" stop-opacity="0"/>
</linearGradient>
<linearGradient id="paint34_linear_44_656" x1="349.346" y1="184.646" x2="397.346" y2="232.646" gradientUnits="userSpaceOnUse">
<stop stop-color="white" stop-opacity="0"/>
<stop offset="0.354789" stop-color="white"/>
<stop offset="0.471357" stop-color="white"/>
<stop offset="0.588196" stop-color="white"/>
<stop offset="1" stop-color="white" stop-opacity="0"/>
</linearGradient>
<linearGradient id="paint35_linear_44_656" x1="396.639" y1="184.646" x2="348.639" y2="232.646" gradientUnits="userSpaceOnUse">
<stop stop-color="white" stop-opacity="0"/>
<stop offset="0.354789" stop-color="white"/>
<stop offset="0.471357" stop-color="white"/>
<stop offset="0.588196" stop-color="white"/>
<stop offset="1" stop-color="white" stop-opacity="0"/>
</linearGradient>
<linearGradient id="paint36_linear_44_656" x1="127.442" y1="184.865" x2="183.977" y2="185.926" gradientUnits="userSpaceOnUse">
<stop stop-color="#047AFF"/>
<stop offset="1" stop-color="#7917DF"/>
</linearGradient>
<linearGradient id="paint37_linear_44_656" x1="136.492" y1="185" x2="136.492" y2="233" gradientUnits="userSpaceOnUse">
<stop stop-color="white" stop-opacity="0"/>
<stop offset="0.26" stop-color="white"/>
<stop offset="0.471357" stop-color="white"/>
<stop offset="0.71" stop-color="white"/>
<stop offset="1" stop-color="white" stop-opacity="0"/>
</linearGradient>
<linearGradient id="paint38_linear_44_656" x1="166.492" y1="185" x2="166.492" y2="233" gradientUnits="userSpaceOnUse">
<stop stop-color="white" stop-opacity="0"/>
<stop offset="0.26" stop-color="white"/>
<stop offset="0.471357" stop-color="white"/>
<stop offset="0.71" stop-color="white"/>
<stop offset="1" stop-color="white" stop-opacity="0"/>
</linearGradient>
<linearGradient id="paint39_linear_44_656" x1="151.492" y1="185" x2="151.492" y2="233" gradientUnits="userSpaceOnUse">
<stop stop-color="white" stop-opacity="0"/>
<stop offset="0.26" stop-color="white"/>
<stop offset="0.471357" stop-color="white"/>
<stop offset="0.71" stop-color="white"/>
<stop offset="1" stop-color="white" stop-opacity="0"/>
</linearGradient>
<linearGradient id="paint40_linear_44_656" x1="126.992" y1="223.5" x2="174.992" y2="223.5" gradientUnits="userSpaceOnUse">
<stop stop-color="white" stop-opacity="0"/>
<stop offset="0.26" stop-color="white"/>
<stop offset="0.471357" stop-color="white"/>
<stop offset="0.71" stop-color="white"/>
<stop offset="1" stop-color="white" stop-opacity="0"/>
</linearGradient>
<linearGradient id="paint41_linear_44_656" x1="126.992" y1="219.3" x2="174.992" y2="219.3" gradientUnits="userSpaceOnUse">
<stop stop-color="white" stop-opacity="0"/>
<stop offset="0.26" stop-color="white"/>
<stop offset="0.471357" stop-color="white"/>
<stop offset="0.71" stop-color="white"/>
<stop offset="1" stop-color="white" stop-opacity="0"/>
</linearGradient>
<linearGradient id="paint42_linear_44_656" x1="126.992" y1="197.7" x2="174.992" y2="197.7" gradientUnits="userSpaceOnUse">
<stop stop-color="white" stop-opacity="0"/>
<stop offset="0.26" stop-color="white"/>
<stop offset="0.471357" stop-color="white"/>
<stop offset="0.71" stop-color="white"/>
<stop offset="1" stop-color="white" stop-opacity="0"/>
</linearGradient>
<linearGradient id="paint43_linear_44_656" x1="126.992" y1="208.5" x2="174.992" y2="208.5" gradientUnits="userSpaceOnUse">
<stop stop-color="white" stop-opacity="0"/>
<stop offset="0.26" stop-color="white"/>
<stop offset="0.471357" stop-color="white"/>
<stop offset="0.71" stop-color="white"/>
<stop offset="1" stop-color="white" stop-opacity="0"/>
</linearGradient>
<linearGradient id="paint44_linear_44_656" x1="126.992" y1="193.5" x2="174.992" y2="193.5" gradientUnits="userSpaceOnUse">
<stop stop-color="white" stop-opacity="0"/>
<stop offset="0.26" stop-color="white"/>
<stop offset="0.471357" stop-color="white"/>
<stop offset="0.71" stop-color="white"/>
<stop offset="1" stop-color="white" stop-opacity="0"/>
</linearGradient>
<linearGradient id="paint45_linear_44_656" x1="127.346" y1="184.646" x2="175.346" y2="232.646" gradientUnits="userSpaceOnUse">
<stop stop-color="white" stop-opacity="0"/>
<stop offset="0.354789" stop-color="white"/>
<stop offset="0.471357" stop-color="white"/>
<stop offset="0.588196" stop-color="white"/>
<stop offset="1" stop-color="white" stop-opacity="0"/>
</linearGradient>
<linearGradient id="paint46_linear_44_656" x1="174.639" y1="184.646" x2="126.639" y2="232.646" gradientUnits="userSpaceOnUse">
<stop stop-color="white" stop-opacity="0"/>
<stop offset="0.354789" stop-color="white"/>
<stop offset="0.471357" stop-color="white"/>
<stop offset="0.588196" stop-color="white"/>
<stop offset="1" stop-color="white" stop-opacity="0"/>
</linearGradient>
<linearGradient id="paint47_linear_44_656" x1="238.442" y1="159.865" x2="294.977" y2="160.926" gradientUnits="userSpaceOnUse">
<stop stop-color="#047AFF"/>
<stop offset="1" stop-color="#7917DF"/>
</linearGradient>
<linearGradient id="paint48_linear_44_656" x1="247.492" y1="160" x2="247.492" y2="208" gradientUnits="userSpaceOnUse">
<stop stop-color="white" stop-opacity="0"/>
<stop offset="0.26" stop-color="white"/>
<stop offset="0.471357" stop-color="white"/>
<stop offset="0.71" stop-color="white"/>
<stop offset="1" stop-color="white" stop-opacity="0"/>
</linearGradient>
<linearGradient id="paint49_linear_44_656" x1="277.492" y1="160" x2="277.492" y2="208" gradientUnits="userSpaceOnUse">
<stop stop-color="white" stop-opacity="0"/>
<stop offset="0.26" stop-color="white"/>
<stop offset="0.471357" stop-color="white"/>
<stop offset="0.71" stop-color="white"/>
<stop offset="1" stop-color="white" stop-opacity="0"/>
</linearGradient>
<linearGradient id="paint50_linear_44_656" x1="262.492" y1="160" x2="262.492" y2="208" gradientUnits="userSpaceOnUse">
<stop stop-color="white" stop-opacity="0"/>
<stop offset="0.26" stop-color="white"/>
<stop offset="0.471357" stop-color="white"/>
<stop offset="0.71" stop-color="white"/>
<stop offset="1" stop-color="white" stop-opacity="0"/>
</linearGradient>
<linearGradient id="paint51_linear_44_656" x1="237.992" y1="198.5" x2="285.992" y2="198.5" gradientUnits="userSpaceOnUse">
<stop stop-color="white" stop-opacity="0"/>
<stop offset="0.26" stop-color="white"/>
<stop offset="0.471357" stop-color="white"/>
<stop offset="0.71" stop-color="white"/>
<stop offset="1" stop-color="white" stop-opacity="0"/>
</linearGradient>
<linearGradient id="paint52_linear_44_656" x1="237.992" y1="194.3" x2="285.992" y2="194.3" gradientUnits="userSpaceOnUse">
<stop stop-color="white" stop-opacity="0"/>
<stop offset="0.26" stop-color="white"/>
<stop offset="0.471357" stop-color="white"/>
<stop offset="0.71" stop-color="white"/>
<stop offset="1" stop-color="white" stop-opacity="0"/>
</linearGradient>
<linearGradient id="paint53_linear_44_656" x1="237.992" y1="172.7" x2="285.992" y2="172.7" gradientUnits="userSpaceOnUse">
<stop stop-color="white" stop-opacity="0"/>
<stop offset="0.26" stop-color="white"/>
<stop offset="0.471357" stop-color="white"/>
<stop offset="0.71" stop-color="white"/>
<stop offset="1" stop-color="white" stop-opacity="0"/>
</linearGradient>
<linearGradient id="paint54_linear_44_656" x1="237.992" y1="183.5" x2="285.992" y2="183.5" gradientUnits="userSpaceOnUse">
<stop stop-color="white" stop-opacity="0"/>
<stop offset="0.26" stop-color="white"/>
<stop offset="0.471357" stop-color="white"/>
<stop offset="0.71" stop-color="white"/>
<stop offset="1" stop-color="white" stop-opacity="0"/>
</linearGradient>
<linearGradient id="paint55_linear_44_656" x1="237.992" y1="168.5" x2="285.992" y2="168.5" gradientUnits="userSpaceOnUse">
<stop stop-color="white" stop-opacity="0"/>
<stop offset="0.26" stop-color="white"/>
<stop offset="0.471357" stop-color="white"/>
<stop offset="0.71" stop-color="white"/>
<stop offset="1" stop-color="white" stop-opacity="0"/>
</linearGradient>
<linearGradient id="paint56_linear_44_656" x1="238.346" y1="159.646" x2="286.346" y2="207.646" gradientUnits="userSpaceOnUse">
<stop stop-color="white" stop-opacity="0"/>
<stop offset="0.354789" stop-color="white"/>
<stop offset="0.471357" stop-color="white"/>
<stop offset="0.588196" stop-color="white"/>
<stop offset="1" stop-color="white" stop-opacity="0"/>
</linearGradient>
<linearGradient id="paint57_linear_44_656" x1="285.639" y1="159.646" x2="237.639" y2="207.646" gradientUnits="userSpaceOnUse">
<stop stop-color="white" stop-opacity="0"/>
<stop offset="0.354789" stop-color="white"/>
<stop offset="0.471357" stop-color="white"/>
<stop offset="0.588196" stop-color="white"/>
<stop offset="1" stop-color="white" stop-opacity="0"/>
</linearGradient>
<clipPath id="clip0_44_656">
<rect width="524" height="294" rx="24" fill="white"/>
</clipPath>
<clipPath id="clip1_44_656">
<rect x="92" y="92" width="48" height="48" rx="24" fill="white"/>
</clipPath>
<clipPath id="clip2_44_656">
<rect x="92" y="92" width="48" height="48" rx="10.4261" fill="white"/>
</clipPath>
<clipPath id="clip3_44_656">
<rect x="384" y="92" width="48" height="48" rx="24" fill="white"/>
</clipPath>
<clipPath id="clip4_44_656">
<rect x="384" y="92" width="48" height="48" rx="10.4261" fill="white"/>
</clipPath>
<clipPath id="clip5_44_656">
<rect x="349" y="185" width="48" height="48" rx="24" fill="white"/>
</clipPath>
<clipPath id="clip6_44_656">
<rect x="349" y="185" width="48" height="48" rx="10.4261" fill="white"/>
</clipPath>
<clipPath id="clip7_44_656">
<rect x="127" y="185" width="48" height="48" rx="24" fill="white"/>
</clipPath>
<clipPath id="clip8_44_656">
<rect x="127" y="185" width="48" height="48" rx="10.4261" fill="white"/>
</clipPath>
<clipPath id="clip9_44_656">
<rect x="238" y="160" width="48" height="48" rx="24" fill="white"/>
</clipPath>
<clipPath id="clip10_44_656">
<rect x="238" y="160" width="48" height="48" rx="10.4261" fill="white"/>
</clipPath>
</defs>
</svg>
