<svg width="524" height="400" viewBox="0 0 524 400" fill="none" xmlns="http://www.w3.org/2000/svg">
<g clip-path="url(#clip0_5_369)">
<mask id="mask0_5_369" style="mask-type:alpha" maskUnits="userSpaceOnUse" x="-140" y="-404" width="804" height="804">
<rect width="803.035" height="803.035" transform="translate(-139.52 -403.035)" fill="url(#paint0_radial_5_369)"/>
</mask>
<g mask="url(#mask0_5_369)">
<circle cx="261.999" cy="-1.5177" r="133.089" stroke="black" stroke-opacity="0.1" stroke-width="1.5"/>
<circle cx="262" cy="-1.51772" r="186.625" stroke="black" stroke-opacity="0.1" stroke-width="1.5"/>
<circle cx="261.997" cy="-1.51773" r="240.161" stroke="black" stroke-opacity="0.1" stroke-width="1.5"/>
<circle cx="261.997" cy="-1.5177" r="293.696" stroke="black" stroke-opacity="0.1" stroke-width="1.5"/>
</g>
<g opacity="0.1" filter="url(#filter0_f_5_369)">
<ellipse cx="262" cy="124.105" rx="100" ry="156.935" fill="url(#paint1_linear_5_369)"/>
</g>
<g filter="url(#filter1_d_5_369)">
<rect x="195.5" y="28" width="133" height="56" rx="28" fill="white" shape-rendering="crispEdges"/>
<rect x="195.5" y="28" width="133" height="56" rx="28" fill="url(#paint2_linear_5_369)" shape-rendering="crispEdges"/>
<g filter="url(#filter2_b_5_369)">
<rect x="195.5" y="28" width="133" height="56" rx="28" fill="white" fill-opacity="0.32"/>
<rect x="195.952" y="28.4518" width="132.096" height="55.0964" rx="27.5482" stroke="white" stroke-opacity="0.2" stroke-width="0.903596"/>
</g>
<path d="M229.712 63.58C230.692 63.468 231.84 63.048 232.428 61.144L237.44 44.736H235.984C233.128 44.736 231.756 46.584 230.692 48.992L230.3 48.964L231.812 44.708L232.092 43.924H245.924L244.664 48.964L244.216 48.992C244.636 46.668 244.356 44.736 241.472 44.736H240.016L235.004 61.144C234.388 63.104 235.144 63.496 236.208 63.58L236.068 64H229.6L229.712 63.58ZM243.167 64.336C240.115 64.28 238.659 60.864 240.059 56.44C241.403 52.184 244.427 49.86 247.171 49.916C249.411 49.972 250.559 51.596 249.999 53.444C249.299 55.768 246.387 57.532 242.187 57.644C241.655 60.696 242.495 62.852 244.371 62.88C245.715 62.908 247.255 61.844 248.459 59.968L248.739 60.108C247.311 62.796 245.211 64.364 243.167 64.336ZM242.299 57.14C245.575 56.972 247.227 54.928 247.815 53.164C248.235 51.96 248.179 50.644 247.003 50.616C245.519 50.532 243.671 52.576 242.691 55.656C242.523 56.16 242.383 56.664 242.299 57.14ZM252.767 64.392C251.199 64.42 249.659 63.804 248.567 62.908L249.659 59.548H249.939C249.967 60.78 250.219 61.788 250.751 62.516C251.339 63.328 252.039 63.72 252.963 63.692C254.083 63.664 254.895 62.936 255.119 61.872C255.399 60.332 254.083 58.876 252.767 57.252C251.507 55.824 250.919 54.928 251.143 53.472C251.395 51.344 253.159 49.916 255.539 49.888C257.023 49.86 258.143 50.364 259.095 50.924L258.031 54.284H257.751C257.779 53.388 257.639 52.436 257.331 51.82C256.911 50.952 256.099 50.504 255.287 50.532C254.223 50.588 253.299 51.372 253.187 52.464C253.047 53.696 254.027 54.816 255.455 56.44C256.827 58.008 257.331 59.156 257.079 60.668C256.799 62.6 255.343 64.336 252.767 64.392ZM260.105 64.364C258.705 64.364 257.837 63.048 258.621 60.5L261.533 50.868H259.769L259.853 50.532C261.477 50.14 263.381 48.74 264.949 46.416H265.313L264.193 50.084H267.413L267.161 50.868H263.969L261.113 60.276C260.497 62.292 260.777 63.048 261.393 63.048C262.121 63.048 263.269 62.012 264.277 60.248L264.501 60.416C263.493 62.488 261.785 64.364 260.105 64.364ZM267.182 64.364C265.81 64.364 265.138 63.048 265.894 60.584L268.302 52.772C268.834 50.952 268.162 50.588 267.182 50.504L267.294 50.084H271.578L268.442 60.22C267.798 62.236 267.938 63.048 268.498 63.048C269.058 63.048 270.094 62.124 271.158 60.248L271.382 60.416C270.458 62.488 268.778 64.364 267.182 64.364ZM269.45 46.444C269.45 45.492 270.178 44.68 271.102 44.68C271.97 44.68 272.67 45.436 272.67 46.36C272.642 47.312 271.914 48.096 271.018 48.096C270.15 48.096 269.45 47.396 269.45 46.444ZM280.315 64.364C278.943 64.364 278.187 63.104 279.027 60.584L281.267 53.78C281.883 51.904 281.435 51.316 280.819 51.316C279.699 51.316 276.787 53.668 274.071 61.536L273.315 64H270.851L274.267 52.94C274.855 51.064 274.575 50.56 273.539 50.504L273.679 50.084H277.571L275.639 56.412C278.243 51.036 280.651 49.916 281.995 49.916C283.563 49.916 284.543 51.26 283.787 53.5L281.575 60.22C280.931 62.236 281.071 63.048 281.603 63.048C282.191 63.048 283.227 62.124 284.291 60.248L284.543 60.416C283.591 62.488 281.883 64.364 280.315 64.364ZM287.456 70.104C284.572 69.936 282.192 68.312 282.78 66.184C283.228 64.616 285.076 64.028 286.784 64.42L286.812 64.672C285.664 65.092 285.104 65.764 284.908 66.408C284.376 68.032 285.692 69.264 287.876 69.376C289.724 69.488 291.432 68.648 291.964 67.164C292.384 65.904 291.824 64.84 289.92 64.196L286.756 63.244C284.404 62.544 284.068 61.34 284.376 60.388C284.684 59.464 285.524 58.932 286.532 58.624C285.72 57.728 285.412 56.328 285.916 54.592C286.756 51.68 289.332 49.832 291.824 49.86C293.168 49.888 294.26 50.448 294.904 51.4C295.604 50.336 296.808 49.552 298.068 49.972L297.396 51.792C296.724 51.428 295.94 51.316 295.156 51.848C295.548 52.688 295.632 53.78 295.296 54.984C294.428 58.008 291.516 59.772 289.22 59.744C288.296 59.744 287.512 59.464 286.896 58.96C286.504 59.184 286.28 59.436 286.168 59.716C285.972 60.248 286.364 60.696 287.764 61.172L291.124 62.236C293.364 62.88 294.344 64.56 293.644 66.632C292.748 69.348 289.892 70.216 287.456 70.104ZM288.352 54.732C287.708 57 287.82 59.016 289.388 59.044C290.9 59.072 292.244 57.112 292.888 54.872C293.532 52.576 293.308 50.56 291.768 50.532C290.256 50.504 288.968 52.492 288.352 54.732Z" fill="white"/>
</g>
<g filter="url(#filter3_d_5_369)">
<g clip-path="url(#clip1_5_369)">
<rect x="91.8633" y="92" width="48" height="48" rx="11.1212" fill="url(#paint3_linear_5_369)"/>
<g clip-path="url(#clip2_5_369)">
<g filter="url(#filter4_b_5_369)">
<rect x="89.543" y="89.6831" width="52.1305" height="52.1305" rx="11.1212" fill="white" fill-opacity="0.32"/>
<rect x="89.9948" y="90.1349" width="51.2269" height="51.2269" rx="10.6694" stroke="white" stroke-opacity="0.2" stroke-width="0.903596"/>
</g>
<g opacity="0.8">
<circle opacity="0.5" cx="115.855" cy="116" r="10.6957" stroke="white" stroke-width="0.208522"/>
<circle opacity="0.5" cx="115.855" cy="116" r="14.8957" stroke="white" stroke-width="0.208522"/>
<path d="M100.855 92V140" stroke="url(#paint4_linear_5_369)" stroke-width="0.208522" stroke-dasharray="0.7 0.7"/>
<path d="M130.855 92V140" stroke="url(#paint5_linear_5_369)" stroke-width="0.208522" stroke-dasharray="0.7 0.7"/>
<path d="M115.855 92V140" stroke="url(#paint6_linear_5_369)" stroke-width="0.208522" stroke-dasharray="0.7 0.7"/>
<path d="M91.8555 131H139.855" stroke="url(#paint7_linear_5_369)" stroke-width="0.208522" stroke-dasharray="0.7 0.7"/>
<path d="M91.8555 126.8H139.855" stroke="url(#paint8_linear_5_369)" stroke-width="0.208522" stroke-dasharray="0.7 0.7"/>
<path d="M91.8555 105.2H139.855" stroke="url(#paint9_linear_5_369)" stroke-width="0.208522" stroke-dasharray="0.7 0.7"/>
<path d="M91.8555 116H139.855" stroke="url(#paint10_linear_5_369)" stroke-width="0.208522" stroke-dasharray="0.7 0.7"/>
<path d="M91.8555 101H139.855" stroke="url(#paint11_linear_5_369)" stroke-width="0.208522" stroke-dasharray="0.7 0.7"/>
<path d="M91.8555 92L139.855 140" stroke="url(#paint12_linear_5_369)" stroke-width="0.208522" stroke-dasharray="0.7 0.7"/>
<path d="M139.855 92L91.8555 140" stroke="url(#paint13_linear_5_369)" stroke-width="0.208522" stroke-dasharray="0.7 0.7"/>
</g>
</g>
<path d="M125.197 126.5C125.197 124.872 125.197 124.058 124.996 123.395C124.543 121.904 123.376 120.737 121.885 120.284C121.222 120.083 120.408 120.083 118.78 120.083H112.947C111.318 120.083 110.504 120.083 109.842 120.284C108.35 120.737 107.183 121.904 106.731 123.395C106.53 124.058 106.53 124.872 106.53 126.5M121.113 110.75C121.113 113.649 118.763 116 115.863 116C112.964 116 110.613 113.649 110.613 110.75C110.613 107.851 112.964 105.5 115.863 105.5C118.763 105.5 121.113 107.851 121.113 110.75Z" stroke="white" stroke-width="2.33333" stroke-linecap="round" stroke-linejoin="round"/>
</g>
<rect x="89.8633" y="90" width="52" height="52" rx="26" stroke="#98A2B3" stroke-opacity="0.14" stroke-width="4" shape-rendering="crispEdges"/>
</g>
<rect x="127.113" y="127.25" width="13.5" height="13.5" rx="6.75" fill="#17B26A"/>
<rect x="127.113" y="127.25" width="13.5" height="13.5" rx="6.75" stroke="white" stroke-width="1.5"/>
<path d="M136.391 132.013L132.916 135.488L131.336 133.908" stroke="white" stroke-width="2" stroke-linecap="round" stroke-linejoin="round"/>
<g filter="url(#filter5_d_5_369)">
<g clip-path="url(#clip3_5_369)">
<rect x="383.863" y="92" width="48" height="48" rx="11.1212" fill="url(#paint14_linear_5_369)"/>
<g clip-path="url(#clip4_5_369)">
<g filter="url(#filter6_b_5_369)">
<rect x="381.543" y="89.6831" width="52.1305" height="52.1305" rx="11.1212" fill="white" fill-opacity="0.32"/>
<rect x="381.995" y="90.1349" width="51.2269" height="51.2269" rx="10.6694" stroke="white" stroke-opacity="0.2" stroke-width="0.903596"/>
</g>
<g opacity="0.8">
<circle opacity="0.5" cx="407.855" cy="116" r="10.6957" stroke="white" stroke-width="0.208522"/>
<circle opacity="0.5" cx="407.855" cy="116" r="14.8957" stroke="white" stroke-width="0.208522"/>
<path d="M392.855 92V140" stroke="url(#paint15_linear_5_369)" stroke-width="0.208522" stroke-dasharray="0.7 0.7"/>
<path d="M422.855 92V140" stroke="url(#paint16_linear_5_369)" stroke-width="0.208522" stroke-dasharray="0.7 0.7"/>
<path d="M407.855 92V140" stroke="url(#paint17_linear_5_369)" stroke-width="0.208522" stroke-dasharray="0.7 0.7"/>
<path d="M383.855 131H431.855" stroke="url(#paint18_linear_5_369)" stroke-width="0.208522" stroke-dasharray="0.7 0.7"/>
<path d="M383.855 126.8H431.855" stroke="url(#paint19_linear_5_369)" stroke-width="0.208522" stroke-dasharray="0.7 0.7"/>
<path d="M383.855 105.2H431.855" stroke="url(#paint20_linear_5_369)" stroke-width="0.208522" stroke-dasharray="0.7 0.7"/>
<path d="M383.855 116H431.855" stroke="url(#paint21_linear_5_369)" stroke-width="0.208522" stroke-dasharray="0.7 0.7"/>
<path d="M383.855 101H431.855" stroke="url(#paint22_linear_5_369)" stroke-width="0.208522" stroke-dasharray="0.7 0.7"/>
<path d="M383.855 92L431.855 140" stroke="url(#paint23_linear_5_369)" stroke-width="0.208522" stroke-dasharray="0.7 0.7"/>
<path d="M431.855 92L383.855 140" stroke="url(#paint24_linear_5_369)" stroke-width="0.208522" stroke-dasharray="0.7 0.7"/>
</g>
</g>
<path d="M417.197 126.5C417.197 124.872 417.197 124.058 416.996 123.395C416.543 121.904 415.376 120.737 413.885 120.284C413.222 120.083 412.408 120.083 410.78 120.083H404.947C403.318 120.083 402.504 120.083 401.842 120.284C400.35 120.737 399.183 121.904 398.731 123.395C398.53 124.058 398.53 124.872 398.53 126.5M413.113 110.75C413.113 113.649 410.763 116 407.863 116C404.964 116 402.613 113.649 402.613 110.75C402.613 107.851 404.964 105.5 407.863 105.5C410.763 105.5 413.113 107.851 413.113 110.75Z" stroke="white" stroke-width="2.33333" stroke-linecap="round" stroke-linejoin="round"/>
</g>
<rect x="381.863" y="90" width="52" height="52" rx="26" stroke="#98A2B3" stroke-opacity="0.14" stroke-width="4" shape-rendering="crispEdges"/>
</g>
<rect x="419.113" y="127.25" width="13.5" height="13.5" rx="6.75" fill="#17B26A"/>
<rect x="419.113" y="127.25" width="13.5" height="13.5" rx="6.75" stroke="white" stroke-width="1.5"/>
<path d="M428.391 132.013L424.916 135.488L423.336 133.908" stroke="white" stroke-width="2" stroke-linecap="round" stroke-linejoin="round"/>
<g filter="url(#filter7_d_5_369)">
<g clip-path="url(#clip5_5_369)">
<rect x="348.863" y="185" width="48" height="48" rx="11.1212" fill="url(#paint25_linear_5_369)"/>
<g clip-path="url(#clip6_5_369)">
<g filter="url(#filter8_b_5_369)">
<rect x="346.543" y="182.683" width="52.1305" height="52.1305" rx="11.1212" fill="white" fill-opacity="0.32"/>
<rect x="346.995" y="183.135" width="51.2269" height="51.2269" rx="10.6694" stroke="white" stroke-opacity="0.2" stroke-width="0.903596"/>
</g>
<g opacity="0.8">
<circle opacity="0.5" cx="372.855" cy="209" r="10.6957" stroke="white" stroke-width="0.208522"/>
<circle opacity="0.5" cx="372.855" cy="209" r="14.8957" stroke="white" stroke-width="0.208522"/>
<path d="M357.855 185V233" stroke="url(#paint26_linear_5_369)" stroke-width="0.208522" stroke-dasharray="0.7 0.7"/>
<path d="M387.855 185V233" stroke="url(#paint27_linear_5_369)" stroke-width="0.208522" stroke-dasharray="0.7 0.7"/>
<path d="M372.855 185V233" stroke="url(#paint28_linear_5_369)" stroke-width="0.208522" stroke-dasharray="0.7 0.7"/>
<path d="M348.855 224H396.855" stroke="url(#paint29_linear_5_369)" stroke-width="0.208522" stroke-dasharray="0.7 0.7"/>
<path d="M348.855 219.8H396.855" stroke="url(#paint30_linear_5_369)" stroke-width="0.208522" stroke-dasharray="0.7 0.7"/>
<path d="M348.855 198.2H396.855" stroke="url(#paint31_linear_5_369)" stroke-width="0.208522" stroke-dasharray="0.7 0.7"/>
<path d="M348.855 209H396.855" stroke="url(#paint32_linear_5_369)" stroke-width="0.208522" stroke-dasharray="0.7 0.7"/>
<path d="M348.855 194H396.855" stroke="url(#paint33_linear_5_369)" stroke-width="0.208522" stroke-dasharray="0.7 0.7"/>
<path d="M348.855 185L396.855 233" stroke="url(#paint34_linear_5_369)" stroke-width="0.208522" stroke-dasharray="0.7 0.7"/>
<path d="M396.855 185L348.855 233" stroke="url(#paint35_linear_5_369)" stroke-width="0.208522" stroke-dasharray="0.7 0.7"/>
</g>
</g>
<path d="M382.197 219.5C382.197 217.872 382.197 217.058 381.996 216.395C381.543 214.904 380.376 213.737 378.885 213.284C378.222 213.083 377.408 213.083 375.78 213.083H369.947C368.318 213.083 367.504 213.083 366.842 213.284C365.35 213.737 364.183 214.904 363.731 216.395C363.53 217.058 363.53 217.872 363.53 219.5M378.113 203.75C378.113 206.649 375.763 209 372.863 209C369.964 209 367.613 206.649 367.613 203.75C367.613 200.851 369.964 198.5 372.863 198.5C375.763 198.5 378.113 200.851 378.113 203.75Z" stroke="white" stroke-width="2.33333" stroke-linecap="round" stroke-linejoin="round"/>
</g>
<rect x="346.863" y="183" width="52" height="52" rx="26" stroke="#98A2B3" stroke-opacity="0.14" stroke-width="4" shape-rendering="crispEdges"/>
</g>
<rect x="384.113" y="220.25" width="13.5" height="13.5" rx="6.75" fill="#B21717"/>
<rect x="384.113" y="220.25" width="13.5" height="13.5" rx="6.75" stroke="white" stroke-width="1.5"/>
<path d="M393.006 224.859L388.723 229.141M388.723 224.859L393.006 229.141" stroke="white" stroke-width="2" stroke-linecap="round" stroke-linejoin="round"/>
<g filter="url(#filter9_d_5_369)">
<g clip-path="url(#clip7_5_369)">
<rect x="126.863" y="185" width="48" height="48" rx="11.1212" fill="url(#paint36_linear_5_369)"/>
<g clip-path="url(#clip8_5_369)">
<g filter="url(#filter10_b_5_369)">
<rect x="124.543" y="182.683" width="52.1305" height="52.1305" rx="11.1212" fill="white" fill-opacity="0.32"/>
<rect x="124.995" y="183.135" width="51.2269" height="51.2269" rx="10.6694" stroke="white" stroke-opacity="0.2" stroke-width="0.903596"/>
</g>
<g opacity="0.8">
<circle opacity="0.5" cx="150.855" cy="209" r="10.6957" stroke="white" stroke-width="0.208522"/>
<circle opacity="0.5" cx="150.855" cy="209" r="14.8957" stroke="white" stroke-width="0.208522"/>
<path d="M135.855 185V233" stroke="url(#paint37_linear_5_369)" stroke-width="0.208522" stroke-dasharray="0.7 0.7"/>
<path d="M165.855 185V233" stroke="url(#paint38_linear_5_369)" stroke-width="0.208522" stroke-dasharray="0.7 0.7"/>
<path d="M150.855 185V233" stroke="url(#paint39_linear_5_369)" stroke-width="0.208522" stroke-dasharray="0.7 0.7"/>
<path d="M126.855 224H174.855" stroke="url(#paint40_linear_5_369)" stroke-width="0.208522" stroke-dasharray="0.7 0.7"/>
<path d="M126.855 219.8H174.855" stroke="url(#paint41_linear_5_369)" stroke-width="0.208522" stroke-dasharray="0.7 0.7"/>
<path d="M126.855 198.2H174.855" stroke="url(#paint42_linear_5_369)" stroke-width="0.208522" stroke-dasharray="0.7 0.7"/>
<path d="M126.855 209H174.855" stroke="url(#paint43_linear_5_369)" stroke-width="0.208522" stroke-dasharray="0.7 0.7"/>
<path d="M126.855 194H174.855" stroke="url(#paint44_linear_5_369)" stroke-width="0.208522" stroke-dasharray="0.7 0.7"/>
<path d="M126.855 185L174.855 233" stroke="url(#paint45_linear_5_369)" stroke-width="0.208522" stroke-dasharray="0.7 0.7"/>
<path d="M174.855 185L126.855 233" stroke="url(#paint46_linear_5_369)" stroke-width="0.208522" stroke-dasharray="0.7 0.7"/>
</g>
</g>
<path d="M160.197 219.5C160.197 217.872 160.197 217.058 159.996 216.395C159.543 214.904 158.376 213.737 156.885 213.284C156.222 213.083 155.408 213.083 153.78 213.083H147.947C146.318 213.083 145.504 213.083 144.842 213.284C143.35 213.737 142.183 214.904 141.731 216.395C141.53 217.058 141.53 217.872 141.53 219.5M156.113 203.75C156.113 206.649 153.763 209 150.863 209C147.964 209 145.613 206.649 145.613 203.75C145.613 200.851 147.964 198.5 150.863 198.5C153.763 198.5 156.113 200.851 156.113 203.75Z" stroke="white" stroke-width="2.33333" stroke-linecap="round" stroke-linejoin="round"/>
</g>
<rect x="124.863" y="183" width="52" height="52" rx="26" stroke="#98A2B3" stroke-opacity="0.14" stroke-width="4" shape-rendering="crispEdges"/>
</g>
<rect x="162.113" y="220.25" width="13.5" height="13.5" rx="6.75" fill="#B21717"/>
<rect x="162.113" y="220.25" width="13.5" height="13.5" rx="6.75" stroke="white" stroke-width="1.5"/>
<path d="M171.006 224.859L166.723 229.141M166.723 224.859L171.006 229.141" stroke="white" stroke-width="2" stroke-linecap="round" stroke-linejoin="round"/>
<g filter="url(#filter11_d_5_369)">
<g clip-path="url(#clip9_5_369)">
<rect x="237.863" y="160" width="48" height="48" rx="11.1212" fill="url(#paint47_linear_5_369)"/>
<g clip-path="url(#clip10_5_369)">
<g filter="url(#filter12_b_5_369)">
<rect x="235.543" y="157.683" width="52.1305" height="52.1305" rx="11.1212" fill="white" fill-opacity="0.32"/>
<rect x="235.995" y="158.135" width="51.2269" height="51.2269" rx="10.6694" stroke="white" stroke-opacity="0.2" stroke-width="0.903596"/>
</g>
<g opacity="0.8">
<circle opacity="0.5" cx="261.855" cy="184" r="10.6957" stroke="white" stroke-width="0.208522"/>
<circle opacity="0.5" cx="261.855" cy="184" r="14.8957" stroke="white" stroke-width="0.208522"/>
<path d="M246.855 160V208" stroke="url(#paint48_linear_5_369)" stroke-width="0.208522" stroke-dasharray="0.7 0.7"/>
<path d="M276.855 160V208" stroke="url(#paint49_linear_5_369)" stroke-width="0.208522" stroke-dasharray="0.7 0.7"/>
<path d="M261.855 160V208" stroke="url(#paint50_linear_5_369)" stroke-width="0.208522" stroke-dasharray="0.7 0.7"/>
<path d="M237.855 199H285.855" stroke="url(#paint51_linear_5_369)" stroke-width="0.208522" stroke-dasharray="0.7 0.7"/>
<path d="M237.855 194.8H285.855" stroke="url(#paint52_linear_5_369)" stroke-width="0.208522" stroke-dasharray="0.7 0.7"/>
<path d="M237.855 173.2H285.855" stroke="url(#paint53_linear_5_369)" stroke-width="0.208522" stroke-dasharray="0.7 0.7"/>
<path d="M237.855 184H285.855" stroke="url(#paint54_linear_5_369)" stroke-width="0.208522" stroke-dasharray="0.7 0.7"/>
<path d="M237.855 169H285.855" stroke="url(#paint55_linear_5_369)" stroke-width="0.208522" stroke-dasharray="0.7 0.7"/>
<path d="M237.855 160L285.855 208" stroke="url(#paint56_linear_5_369)" stroke-width="0.208522" stroke-dasharray="0.7 0.7"/>
<path d="M285.855 160L237.855 208" stroke="url(#paint57_linear_5_369)" stroke-width="0.208522" stroke-dasharray="0.7 0.7"/>
</g>
</g>
<path d="M271.197 194.5C271.197 192.872 271.197 192.058 270.996 191.395C270.543 189.904 269.376 188.737 267.885 188.284C267.222 188.083 266.408 188.083 264.78 188.083H258.947C257.318 188.083 256.504 188.083 255.842 188.284C254.35 188.737 253.183 189.904 252.731 191.395C252.53 192.058 252.53 192.872 252.53 194.5M267.113 178.75C267.113 181.649 264.763 184 261.863 184C258.964 184 256.613 181.649 256.613 178.75C256.613 175.851 258.964 173.5 261.863 173.5C264.763 173.5 267.113 175.851 267.113 178.75Z" stroke="white" stroke-width="2.33333" stroke-linecap="round" stroke-linejoin="round"/>
</g>
<rect x="235.863" y="158" width="52" height="52" rx="26" stroke="#98A2B3" stroke-opacity="0.14" stroke-width="4" shape-rendering="crispEdges"/>
</g>
<rect x="273.113" y="195.25" width="13.5" height="13.5" rx="6.75" fill="#17B26A"/>
<rect x="273.113" y="195.25" width="13.5" height="13.5" rx="6.75" stroke="white" stroke-width="1.5"/>
<path d="M282.391 200.013L278.916 203.488L277.336 201.908" stroke="white" stroke-width="2" stroke-linecap="round" stroke-linejoin="round"/>
</g>
<defs>
<filter id="filter0_f_5_369" x="12" y="-182.83" width="500" height="613.87" filterUnits="userSpaceOnUse" color-interpolation-filters="sRGB">
<feFlood flood-opacity="0" result="BackgroundImageFix"/>
<feBlend mode="normal" in="SourceGraphic" in2="BackgroundImageFix" result="shape"/>
<feGaussianBlur stdDeviation="75" result="effect1_foregroundBlur_5_369"/>
</filter>
<filter id="filter1_d_5_369" x="147.5" y="3.99998" width="229" height="152" filterUnits="userSpaceOnUse" color-interpolation-filters="sRGB">
<feFlood flood-opacity="0" result="BackgroundImageFix"/>
<feColorMatrix in="SourceAlpha" type="matrix" values="0 0 0 0 0 0 0 0 0 0 0 0 0 0 0 0 0 0 127 0" result="hardAlpha"/>
<feOffset dy="24"/>
<feGaussianBlur stdDeviation="24"/>
<feComposite in2="hardAlpha" operator="out"/>
<feColorMatrix type="matrix" values="0 0 0 0 0.00757305 0 0 0 0 0.143701 0 0 0 0 0.24196 0 0 0 0.08 0"/>
<feBlend mode="normal" in2="BackgroundImageFix" result="effect1_dropShadow_5_369"/>
<feBlend mode="normal" in="SourceGraphic" in2="effect1_dropShadow_5_369" result="shape"/>
</filter>
<filter id="filter2_b_5_369" x="184.379" y="16.8788" width="155.242" height="78.2424" filterUnits="userSpaceOnUse" color-interpolation-filters="sRGB">
<feFlood flood-opacity="0" result="BackgroundImageFix"/>
<feGaussianBlur in="BackgroundImageFix" stdDeviation="5.56059"/>
<feComposite in2="SourceAlpha" operator="in" result="effect1_backgroundBlur_5_369"/>
<feBlend mode="normal" in="SourceGraphic" in2="effect1_backgroundBlur_5_369" result="shape"/>
</filter>
<filter id="filter3_d_5_369" x="55.8633" y="72" width="120" height="120" filterUnits="userSpaceOnUse" color-interpolation-filters="sRGB">
<feFlood flood-opacity="0" result="BackgroundImageFix"/>
<feColorMatrix in="SourceAlpha" type="matrix" values="0 0 0 0 0 0 0 0 0 0 0 0 0 0 0 0 0 0 127 0" result="hardAlpha"/>
<feOffset dy="16"/>
<feGaussianBlur stdDeviation="16"/>
<feComposite in2="hardAlpha" operator="out"/>
<feColorMatrix type="matrix" values="0 0 0 0 0.00757305 0 0 0 0 0.143701 0 0 0 0 0.24196 0 0 0 0.08 0"/>
<feBlend mode="normal" in2="BackgroundImageFix" result="effect1_dropShadow_5_369"/>
<feBlend mode="normal" in="SourceGraphic" in2="effect1_dropShadow_5_369" result="shape"/>
</filter>
<filter id="filter4_b_5_369" x="78.4218" y="78.5619" width="74.3728" height="74.3729" filterUnits="userSpaceOnUse" color-interpolation-filters="sRGB">
<feFlood flood-opacity="0" result="BackgroundImageFix"/>
<feGaussianBlur in="BackgroundImageFix" stdDeviation="5.56059"/>
<feComposite in2="SourceAlpha" operator="in" result="effect1_backgroundBlur_5_369"/>
<feBlend mode="normal" in="SourceGraphic" in2="effect1_backgroundBlur_5_369" result="shape"/>
</filter>
<filter id="filter5_d_5_369" x="347.863" y="72" width="120" height="120" filterUnits="userSpaceOnUse" color-interpolation-filters="sRGB">
<feFlood flood-opacity="0" result="BackgroundImageFix"/>
<feColorMatrix in="SourceAlpha" type="matrix" values="0 0 0 0 0 0 0 0 0 0 0 0 0 0 0 0 0 0 127 0" result="hardAlpha"/>
<feOffset dy="16"/>
<feGaussianBlur stdDeviation="16"/>
<feComposite in2="hardAlpha" operator="out"/>
<feColorMatrix type="matrix" values="0 0 0 0 0.00757305 0 0 0 0 0.143701 0 0 0 0 0.24196 0 0 0 0.08 0"/>
<feBlend mode="normal" in2="BackgroundImageFix" result="effect1_dropShadow_5_369"/>
<feBlend mode="normal" in="SourceGraphic" in2="effect1_dropShadow_5_369" result="shape"/>
</filter>
<filter id="filter6_b_5_369" x="370.422" y="78.5619" width="74.3728" height="74.3729" filterUnits="userSpaceOnUse" color-interpolation-filters="sRGB">
<feFlood flood-opacity="0" result="BackgroundImageFix"/>
<feGaussianBlur in="BackgroundImageFix" stdDeviation="5.56059"/>
<feComposite in2="SourceAlpha" operator="in" result="effect1_backgroundBlur_5_369"/>
<feBlend mode="normal" in="SourceGraphic" in2="effect1_backgroundBlur_5_369" result="shape"/>
</filter>
<filter id="filter7_d_5_369" x="312.863" y="165" width="120" height="120" filterUnits="userSpaceOnUse" color-interpolation-filters="sRGB">
<feFlood flood-opacity="0" result="BackgroundImageFix"/>
<feColorMatrix in="SourceAlpha" type="matrix" values="0 0 0 0 0 0 0 0 0 0 0 0 0 0 0 0 0 0 127 0" result="hardAlpha"/>
<feOffset dy="16"/>
<feGaussianBlur stdDeviation="16"/>
<feComposite in2="hardAlpha" operator="out"/>
<feColorMatrix type="matrix" values="0 0 0 0 0.00757305 0 0 0 0 0.143701 0 0 0 0 0.24196 0 0 0 0.08 0"/>
<feBlend mode="normal" in2="BackgroundImageFix" result="effect1_dropShadow_5_369"/>
<feBlend mode="normal" in="SourceGraphic" in2="effect1_dropShadow_5_369" result="shape"/>
</filter>
<filter id="filter8_b_5_369" x="335.422" y="171.562" width="74.3728" height="74.3729" filterUnits="userSpaceOnUse" color-interpolation-filters="sRGB">
<feFlood flood-opacity="0" result="BackgroundImageFix"/>
<feGaussianBlur in="BackgroundImageFix" stdDeviation="5.56059"/>
<feComposite in2="SourceAlpha" operator="in" result="effect1_backgroundBlur_5_369"/>
<feBlend mode="normal" in="SourceGraphic" in2="effect1_backgroundBlur_5_369" result="shape"/>
</filter>
<filter id="filter9_d_5_369" x="90.8633" y="165" width="120" height="120" filterUnits="userSpaceOnUse" color-interpolation-filters="sRGB">
<feFlood flood-opacity="0" result="BackgroundImageFix"/>
<feColorMatrix in="SourceAlpha" type="matrix" values="0 0 0 0 0 0 0 0 0 0 0 0 0 0 0 0 0 0 127 0" result="hardAlpha"/>
<feOffset dy="16"/>
<feGaussianBlur stdDeviation="16"/>
<feComposite in2="hardAlpha" operator="out"/>
<feColorMatrix type="matrix" values="0 0 0 0 0.00757305 0 0 0 0 0.143701 0 0 0 0 0.24196 0 0 0 0.08 0"/>
<feBlend mode="normal" in2="BackgroundImageFix" result="effect1_dropShadow_5_369"/>
<feBlend mode="normal" in="SourceGraphic" in2="effect1_dropShadow_5_369" result="shape"/>
</filter>
<filter id="filter10_b_5_369" x="113.422" y="171.562" width="74.3728" height="74.3729" filterUnits="userSpaceOnUse" color-interpolation-filters="sRGB">
<feFlood flood-opacity="0" result="BackgroundImageFix"/>
<feGaussianBlur in="BackgroundImageFix" stdDeviation="5.56059"/>
<feComposite in2="SourceAlpha" operator="in" result="effect1_backgroundBlur_5_369"/>
<feBlend mode="normal" in="SourceGraphic" in2="effect1_backgroundBlur_5_369" result="shape"/>
</filter>
<filter id="filter11_d_5_369" x="201.863" y="140" width="120" height="120" filterUnits="userSpaceOnUse" color-interpolation-filters="sRGB">
<feFlood flood-opacity="0" result="BackgroundImageFix"/>
<feColorMatrix in="SourceAlpha" type="matrix" values="0 0 0 0 0 0 0 0 0 0 0 0 0 0 0 0 0 0 127 0" result="hardAlpha"/>
<feOffset dy="16"/>
<feGaussianBlur stdDeviation="16"/>
<feComposite in2="hardAlpha" operator="out"/>
<feColorMatrix type="matrix" values="0 0 0 0 0.00757305 0 0 0 0 0.143701 0 0 0 0 0.24196 0 0 0 0.08 0"/>
<feBlend mode="normal" in2="BackgroundImageFix" result="effect1_dropShadow_5_369"/>
<feBlend mode="normal" in="SourceGraphic" in2="effect1_dropShadow_5_369" result="shape"/>
</filter>
<filter id="filter12_b_5_369" x="224.422" y="146.562" width="74.3728" height="74.3729" filterUnits="userSpaceOnUse" color-interpolation-filters="sRGB">
<feFlood flood-opacity="0" result="BackgroundImageFix"/>
<feGaussianBlur in="BackgroundImageFix" stdDeviation="5.56059"/>
<feComposite in2="SourceAlpha" operator="in" result="effect1_backgroundBlur_5_369"/>
<feBlend mode="normal" in="SourceGraphic" in2="effect1_backgroundBlur_5_369" result="shape"/>
</filter>
<radialGradient id="paint0_radial_5_369" cx="0" cy="0" r="1" gradientUnits="userSpaceOnUse" gradientTransform="translate(401.518 401.518) rotate(90) scale(401.518 401.518)">
<stop/>
<stop offset="1" stop-opacity="0"/>
</radialGradient>
<linearGradient id="paint1_linear_5_369" x1="377.403" y1="253.671" x2="135.79" y2="247.448" gradientUnits="userSpaceOnUse">
<stop offset="0.0760103" stop-color="#179CFC"/>
<stop offset="0.228707" stop-color="#A517FC"/>
<stop offset="0.293931" stop-color="#179CFC"/>
<stop offset="0.483821" stop-color="#179CFC"/>
<stop offset="0.719833" stop-color="#A517FC"/>
<stop offset="0.891086" stop-color="#179CFC"/>
</linearGradient>
<linearGradient id="paint2_linear_5_369" x1="196.725" y1="27.8423" x2="353.118" y2="34.8142" gradientUnits="userSpaceOnUse">
<stop stop-color="#047AFF"/>
<stop offset="1" stop-color="#7917DF"/>
</linearGradient>
<linearGradient id="paint3_linear_5_369" x1="92.3054" y1="91.8648" x2="148.84" y2="92.926" gradientUnits="userSpaceOnUse">
<stop stop-color="#047AFF"/>
<stop offset="1" stop-color="#7917DF"/>
</linearGradient>
<linearGradient id="paint4_linear_5_369" x1="101.355" y1="92" x2="101.355" y2="140" gradientUnits="userSpaceOnUse">
<stop stop-color="white" stop-opacity="0"/>
<stop offset="0.26" stop-color="white"/>
<stop offset="0.471357" stop-color="white"/>
<stop offset="0.71" stop-color="white"/>
<stop offset="1" stop-color="white" stop-opacity="0"/>
</linearGradient>
<linearGradient id="paint5_linear_5_369" x1="131.355" y1="92" x2="131.355" y2="140" gradientUnits="userSpaceOnUse">
<stop stop-color="white" stop-opacity="0"/>
<stop offset="0.26" stop-color="white"/>
<stop offset="0.471357" stop-color="white"/>
<stop offset="0.71" stop-color="white"/>
<stop offset="1" stop-color="white" stop-opacity="0"/>
</linearGradient>
<linearGradient id="paint6_linear_5_369" x1="116.355" y1="92" x2="116.355" y2="140" gradientUnits="userSpaceOnUse">
<stop stop-color="white" stop-opacity="0"/>
<stop offset="0.26" stop-color="white"/>
<stop offset="0.471357" stop-color="white"/>
<stop offset="0.71" stop-color="white"/>
<stop offset="1" stop-color="white" stop-opacity="0"/>
</linearGradient>
<linearGradient id="paint7_linear_5_369" x1="91.8555" y1="130.5" x2="139.855" y2="130.5" gradientUnits="userSpaceOnUse">
<stop stop-color="white" stop-opacity="0"/>
<stop offset="0.26" stop-color="white"/>
<stop offset="0.471357" stop-color="white"/>
<stop offset="0.71" stop-color="white"/>
<stop offset="1" stop-color="white" stop-opacity="0"/>
</linearGradient>
<linearGradient id="paint8_linear_5_369" x1="91.8555" y1="126.3" x2="139.855" y2="126.3" gradientUnits="userSpaceOnUse">
<stop stop-color="white" stop-opacity="0"/>
<stop offset="0.26" stop-color="white"/>
<stop offset="0.471357" stop-color="white"/>
<stop offset="0.71" stop-color="white"/>
<stop offset="1" stop-color="white" stop-opacity="0"/>
</linearGradient>
<linearGradient id="paint9_linear_5_369" x1="91.8555" y1="104.7" x2="139.855" y2="104.7" gradientUnits="userSpaceOnUse">
<stop stop-color="white" stop-opacity="0"/>
<stop offset="0.26" stop-color="white"/>
<stop offset="0.471357" stop-color="white"/>
<stop offset="0.71" stop-color="white"/>
<stop offset="1" stop-color="white" stop-opacity="0"/>
</linearGradient>
<linearGradient id="paint10_linear_5_369" x1="91.8555" y1="115.5" x2="139.855" y2="115.5" gradientUnits="userSpaceOnUse">
<stop stop-color="white" stop-opacity="0"/>
<stop offset="0.26" stop-color="white"/>
<stop offset="0.471357" stop-color="white"/>
<stop offset="0.71" stop-color="white"/>
<stop offset="1" stop-color="white" stop-opacity="0"/>
</linearGradient>
<linearGradient id="paint11_linear_5_369" x1="91.8555" y1="100.5" x2="139.855" y2="100.5" gradientUnits="userSpaceOnUse">
<stop stop-color="white" stop-opacity="0"/>
<stop offset="0.26" stop-color="white"/>
<stop offset="0.471357" stop-color="white"/>
<stop offset="0.71" stop-color="white"/>
<stop offset="1" stop-color="white" stop-opacity="0"/>
</linearGradient>
<linearGradient id="paint12_linear_5_369" x1="92.209" y1="91.6464" x2="140.209" y2="139.646" gradientUnits="userSpaceOnUse">
<stop stop-color="white" stop-opacity="0"/>
<stop offset="0.354789" stop-color="white"/>
<stop offset="0.471357" stop-color="white"/>
<stop offset="0.588196" stop-color="white"/>
<stop offset="1" stop-color="white" stop-opacity="0"/>
</linearGradient>
<linearGradient id="paint13_linear_5_369" x1="139.502" y1="91.6464" x2="91.5019" y2="139.646" gradientUnits="userSpaceOnUse">
<stop stop-color="white" stop-opacity="0"/>
<stop offset="0.354789" stop-color="white"/>
<stop offset="0.471357" stop-color="white"/>
<stop offset="0.588196" stop-color="white"/>
<stop offset="1" stop-color="white" stop-opacity="0"/>
</linearGradient>
<linearGradient id="paint14_linear_5_369" x1="384.305" y1="91.8648" x2="440.84" y2="92.926" gradientUnits="userSpaceOnUse">
<stop stop-color="#047AFF"/>
<stop offset="1" stop-color="#7917DF"/>
</linearGradient>
<linearGradient id="paint15_linear_5_369" x1="393.355" y1="92" x2="393.355" y2="140" gradientUnits="userSpaceOnUse">
<stop stop-color="white" stop-opacity="0"/>
<stop offset="0.26" stop-color="white"/>
<stop offset="0.471357" stop-color="white"/>
<stop offset="0.71" stop-color="white"/>
<stop offset="1" stop-color="white" stop-opacity="0"/>
</linearGradient>
<linearGradient id="paint16_linear_5_369" x1="423.355" y1="92" x2="423.355" y2="140" gradientUnits="userSpaceOnUse">
<stop stop-color="white" stop-opacity="0"/>
<stop offset="0.26" stop-color="white"/>
<stop offset="0.471357" stop-color="white"/>
<stop offset="0.71" stop-color="white"/>
<stop offset="1" stop-color="white" stop-opacity="0"/>
</linearGradient>
<linearGradient id="paint17_linear_5_369" x1="408.355" y1="92" x2="408.355" y2="140" gradientUnits="userSpaceOnUse">
<stop stop-color="white" stop-opacity="0"/>
<stop offset="0.26" stop-color="white"/>
<stop offset="0.471357" stop-color="white"/>
<stop offset="0.71" stop-color="white"/>
<stop offset="1" stop-color="white" stop-opacity="0"/>
</linearGradient>
<linearGradient id="paint18_linear_5_369" x1="383.855" y1="130.5" x2="431.855" y2="130.5" gradientUnits="userSpaceOnUse">
<stop stop-color="white" stop-opacity="0"/>
<stop offset="0.26" stop-color="white"/>
<stop offset="0.471357" stop-color="white"/>
<stop offset="0.71" stop-color="white"/>
<stop offset="1" stop-color="white" stop-opacity="0"/>
</linearGradient>
<linearGradient id="paint19_linear_5_369" x1="383.855" y1="126.3" x2="431.855" y2="126.3" gradientUnits="userSpaceOnUse">
<stop stop-color="white" stop-opacity="0"/>
<stop offset="0.26" stop-color="white"/>
<stop offset="0.471357" stop-color="white"/>
<stop offset="0.71" stop-color="white"/>
<stop offset="1" stop-color="white" stop-opacity="0"/>
</linearGradient>
<linearGradient id="paint20_linear_5_369" x1="383.855" y1="104.7" x2="431.855" y2="104.7" gradientUnits="userSpaceOnUse">
<stop stop-color="white" stop-opacity="0"/>
<stop offset="0.26" stop-color="white"/>
<stop offset="0.471357" stop-color="white"/>
<stop offset="0.71" stop-color="white"/>
<stop offset="1" stop-color="white" stop-opacity="0"/>
</linearGradient>
<linearGradient id="paint21_linear_5_369" x1="383.855" y1="115.5" x2="431.855" y2="115.5" gradientUnits="userSpaceOnUse">
<stop stop-color="white" stop-opacity="0"/>
<stop offset="0.26" stop-color="white"/>
<stop offset="0.471357" stop-color="white"/>
<stop offset="0.71" stop-color="white"/>
<stop offset="1" stop-color="white" stop-opacity="0"/>
</linearGradient>
<linearGradient id="paint22_linear_5_369" x1="383.855" y1="100.5" x2="431.855" y2="100.5" gradientUnits="userSpaceOnUse">
<stop stop-color="white" stop-opacity="0"/>
<stop offset="0.26" stop-color="white"/>
<stop offset="0.471357" stop-color="white"/>
<stop offset="0.71" stop-color="white"/>
<stop offset="1" stop-color="white" stop-opacity="0"/>
</linearGradient>
<linearGradient id="paint23_linear_5_369" x1="384.209" y1="91.6464" x2="432.209" y2="139.646" gradientUnits="userSpaceOnUse">
<stop stop-color="white" stop-opacity="0"/>
<stop offset="0.354789" stop-color="white"/>
<stop offset="0.471357" stop-color="white"/>
<stop offset="0.588196" stop-color="white"/>
<stop offset="1" stop-color="white" stop-opacity="0"/>
</linearGradient>
<linearGradient id="paint24_linear_5_369" x1="431.502" y1="91.6464" x2="383.502" y2="139.646" gradientUnits="userSpaceOnUse">
<stop stop-color="white" stop-opacity="0"/>
<stop offset="0.354789" stop-color="white"/>
<stop offset="0.471357" stop-color="white"/>
<stop offset="0.588196" stop-color="white"/>
<stop offset="1" stop-color="white" stop-opacity="0"/>
</linearGradient>
<linearGradient id="paint25_linear_5_369" x1="349.305" y1="184.865" x2="405.84" y2="185.926" gradientUnits="userSpaceOnUse">
<stop stop-color="#047AFF"/>
<stop offset="1" stop-color="#7917DF"/>
</linearGradient>
<linearGradient id="paint26_linear_5_369" x1="358.355" y1="185" x2="358.355" y2="233" gradientUnits="userSpaceOnUse">
<stop stop-color="white" stop-opacity="0"/>
<stop offset="0.26" stop-color="white"/>
<stop offset="0.471357" stop-color="white"/>
<stop offset="0.71" stop-color="white"/>
<stop offset="1" stop-color="white" stop-opacity="0"/>
</linearGradient>
<linearGradient id="paint27_linear_5_369" x1="388.355" y1="185" x2="388.355" y2="233" gradientUnits="userSpaceOnUse">
<stop stop-color="white" stop-opacity="0"/>
<stop offset="0.26" stop-color="white"/>
<stop offset="0.471357" stop-color="white"/>
<stop offset="0.71" stop-color="white"/>
<stop offset="1" stop-color="white" stop-opacity="0"/>
</linearGradient>
<linearGradient id="paint28_linear_5_369" x1="373.355" y1="185" x2="373.355" y2="233" gradientUnits="userSpaceOnUse">
<stop stop-color="white" stop-opacity="0"/>
<stop offset="0.26" stop-color="white"/>
<stop offset="0.471357" stop-color="white"/>
<stop offset="0.71" stop-color="white"/>
<stop offset="1" stop-color="white" stop-opacity="0"/>
</linearGradient>
<linearGradient id="paint29_linear_5_369" x1="348.855" y1="223.5" x2="396.855" y2="223.5" gradientUnits="userSpaceOnUse">
<stop stop-color="white" stop-opacity="0"/>
<stop offset="0.26" stop-color="white"/>
<stop offset="0.471357" stop-color="white"/>
<stop offset="0.71" stop-color="white"/>
<stop offset="1" stop-color="white" stop-opacity="0"/>
</linearGradient>
<linearGradient id="paint30_linear_5_369" x1="348.855" y1="219.3" x2="396.855" y2="219.3" gradientUnits="userSpaceOnUse">
<stop stop-color="white" stop-opacity="0"/>
<stop offset="0.26" stop-color="white"/>
<stop offset="0.471357" stop-color="white"/>
<stop offset="0.71" stop-color="white"/>
<stop offset="1" stop-color="white" stop-opacity="0"/>
</linearGradient>
<linearGradient id="paint31_linear_5_369" x1="348.855" y1="197.7" x2="396.855" y2="197.7" gradientUnits="userSpaceOnUse">
<stop stop-color="white" stop-opacity="0"/>
<stop offset="0.26" stop-color="white"/>
<stop offset="0.471357" stop-color="white"/>
<stop offset="0.71" stop-color="white"/>
<stop offset="1" stop-color="white" stop-opacity="0"/>
</linearGradient>
<linearGradient id="paint32_linear_5_369" x1="348.855" y1="208.5" x2="396.855" y2="208.5" gradientUnits="userSpaceOnUse">
<stop stop-color="white" stop-opacity="0"/>
<stop offset="0.26" stop-color="white"/>
<stop offset="0.471357" stop-color="white"/>
<stop offset="0.71" stop-color="white"/>
<stop offset="1" stop-color="white" stop-opacity="0"/>
</linearGradient>
<linearGradient id="paint33_linear_5_369" x1="348.855" y1="193.5" x2="396.855" y2="193.5" gradientUnits="userSpaceOnUse">
<stop stop-color="white" stop-opacity="0"/>
<stop offset="0.26" stop-color="white"/>
<stop offset="0.471357" stop-color="white"/>
<stop offset="0.71" stop-color="white"/>
<stop offset="1" stop-color="white" stop-opacity="0"/>
</linearGradient>
<linearGradient id="paint34_linear_5_369" x1="349.209" y1="184.646" x2="397.209" y2="232.646" gradientUnits="userSpaceOnUse">
<stop stop-color="white" stop-opacity="0"/>
<stop offset="0.354789" stop-color="white"/>
<stop offset="0.471357" stop-color="white"/>
<stop offset="0.588196" stop-color="white"/>
<stop offset="1" stop-color="white" stop-opacity="0"/>
</linearGradient>
<linearGradient id="paint35_linear_5_369" x1="396.502" y1="184.646" x2="348.502" y2="232.646" gradientUnits="userSpaceOnUse">
<stop stop-color="white" stop-opacity="0"/>
<stop offset="0.354789" stop-color="white"/>
<stop offset="0.471357" stop-color="white"/>
<stop offset="0.588196" stop-color="white"/>
<stop offset="1" stop-color="white" stop-opacity="0"/>
</linearGradient>
<linearGradient id="paint36_linear_5_369" x1="127.305" y1="184.865" x2="183.84" y2="185.926" gradientUnits="userSpaceOnUse">
<stop stop-color="#047AFF"/>
<stop offset="1" stop-color="#7917DF"/>
</linearGradient>
<linearGradient id="paint37_linear_5_369" x1="136.355" y1="185" x2="136.355" y2="233" gradientUnits="userSpaceOnUse">
<stop stop-color="white" stop-opacity="0"/>
<stop offset="0.26" stop-color="white"/>
<stop offset="0.471357" stop-color="white"/>
<stop offset="0.71" stop-color="white"/>
<stop offset="1" stop-color="white" stop-opacity="0"/>
</linearGradient>
<linearGradient id="paint38_linear_5_369" x1="166.355" y1="185" x2="166.355" y2="233" gradientUnits="userSpaceOnUse">
<stop stop-color="white" stop-opacity="0"/>
<stop offset="0.26" stop-color="white"/>
<stop offset="0.471357" stop-color="white"/>
<stop offset="0.71" stop-color="white"/>
<stop offset="1" stop-color="white" stop-opacity="0"/>
</linearGradient>
<linearGradient id="paint39_linear_5_369" x1="151.355" y1="185" x2="151.355" y2="233" gradientUnits="userSpaceOnUse">
<stop stop-color="white" stop-opacity="0"/>
<stop offset="0.26" stop-color="white"/>
<stop offset="0.471357" stop-color="white"/>
<stop offset="0.71" stop-color="white"/>
<stop offset="1" stop-color="white" stop-opacity="0"/>
</linearGradient>
<linearGradient id="paint40_linear_5_369" x1="126.855" y1="223.5" x2="174.855" y2="223.5" gradientUnits="userSpaceOnUse">
<stop stop-color="white" stop-opacity="0"/>
<stop offset="0.26" stop-color="white"/>
<stop offset="0.471357" stop-color="white"/>
<stop offset="0.71" stop-color="white"/>
<stop offset="1" stop-color="white" stop-opacity="0"/>
</linearGradient>
<linearGradient id="paint41_linear_5_369" x1="126.855" y1="219.3" x2="174.855" y2="219.3" gradientUnits="userSpaceOnUse">
<stop stop-color="white" stop-opacity="0"/>
<stop offset="0.26" stop-color="white"/>
<stop offset="0.471357" stop-color="white"/>
<stop offset="0.71" stop-color="white"/>
<stop offset="1" stop-color="white" stop-opacity="0"/>
</linearGradient>
<linearGradient id="paint42_linear_5_369" x1="126.855" y1="197.7" x2="174.855" y2="197.7" gradientUnits="userSpaceOnUse">
<stop stop-color="white" stop-opacity="0"/>
<stop offset="0.26" stop-color="white"/>
<stop offset="0.471357" stop-color="white"/>
<stop offset="0.71" stop-color="white"/>
<stop offset="1" stop-color="white" stop-opacity="0"/>
</linearGradient>
<linearGradient id="paint43_linear_5_369" x1="126.855" y1="208.5" x2="174.855" y2="208.5" gradientUnits="userSpaceOnUse">
<stop stop-color="white" stop-opacity="0"/>
<stop offset="0.26" stop-color="white"/>
<stop offset="0.471357" stop-color="white"/>
<stop offset="0.71" stop-color="white"/>
<stop offset="1" stop-color="white" stop-opacity="0"/>
</linearGradient>
<linearGradient id="paint44_linear_5_369" x1="126.855" y1="193.5" x2="174.855" y2="193.5" gradientUnits="userSpaceOnUse">
<stop stop-color="white" stop-opacity="0"/>
<stop offset="0.26" stop-color="white"/>
<stop offset="0.471357" stop-color="white"/>
<stop offset="0.71" stop-color="white"/>
<stop offset="1" stop-color="white" stop-opacity="0"/>
</linearGradient>
<linearGradient id="paint45_linear_5_369" x1="127.209" y1="184.646" x2="175.209" y2="232.646" gradientUnits="userSpaceOnUse">
<stop stop-color="white" stop-opacity="0"/>
<stop offset="0.354789" stop-color="white"/>
<stop offset="0.471357" stop-color="white"/>
<stop offset="0.588196" stop-color="white"/>
<stop offset="1" stop-color="white" stop-opacity="0"/>
</linearGradient>
<linearGradient id="paint46_linear_5_369" x1="174.502" y1="184.646" x2="126.502" y2="232.646" gradientUnits="userSpaceOnUse">
<stop stop-color="white" stop-opacity="0"/>
<stop offset="0.354789" stop-color="white"/>
<stop offset="0.471357" stop-color="white"/>
<stop offset="0.588196" stop-color="white"/>
<stop offset="1" stop-color="white" stop-opacity="0"/>
</linearGradient>
<linearGradient id="paint47_linear_5_369" x1="238.305" y1="159.865" x2="294.84" y2="160.926" gradientUnits="userSpaceOnUse">
<stop stop-color="#047AFF"/>
<stop offset="1" stop-color="#7917DF"/>
</linearGradient>
<linearGradient id="paint48_linear_5_369" x1="247.355" y1="160" x2="247.355" y2="208" gradientUnits="userSpaceOnUse">
<stop stop-color="white" stop-opacity="0"/>
<stop offset="0.26" stop-color="white"/>
<stop offset="0.471357" stop-color="white"/>
<stop offset="0.71" stop-color="white"/>
<stop offset="1" stop-color="white" stop-opacity="0"/>
</linearGradient>
<linearGradient id="paint49_linear_5_369" x1="277.355" y1="160" x2="277.355" y2="208" gradientUnits="userSpaceOnUse">
<stop stop-color="white" stop-opacity="0"/>
<stop offset="0.26" stop-color="white"/>
<stop offset="0.471357" stop-color="white"/>
<stop offset="0.71" stop-color="white"/>
<stop offset="1" stop-color="white" stop-opacity="0"/>
</linearGradient>
<linearGradient id="paint50_linear_5_369" x1="262.355" y1="160" x2="262.355" y2="208" gradientUnits="userSpaceOnUse">
<stop stop-color="white" stop-opacity="0"/>
<stop offset="0.26" stop-color="white"/>
<stop offset="0.471357" stop-color="white"/>
<stop offset="0.71" stop-color="white"/>
<stop offset="1" stop-color="white" stop-opacity="0"/>
</linearGradient>
<linearGradient id="paint51_linear_5_369" x1="237.855" y1="198.5" x2="285.855" y2="198.5" gradientUnits="userSpaceOnUse">
<stop stop-color="white" stop-opacity="0"/>
<stop offset="0.26" stop-color="white"/>
<stop offset="0.471357" stop-color="white"/>
<stop offset="0.71" stop-color="white"/>
<stop offset="1" stop-color="white" stop-opacity="0"/>
</linearGradient>
<linearGradient id="paint52_linear_5_369" x1="237.855" y1="194.3" x2="285.855" y2="194.3" gradientUnits="userSpaceOnUse">
<stop stop-color="white" stop-opacity="0"/>
<stop offset="0.26" stop-color="white"/>
<stop offset="0.471357" stop-color="white"/>
<stop offset="0.71" stop-color="white"/>
<stop offset="1" stop-color="white" stop-opacity="0"/>
</linearGradient>
<linearGradient id="paint53_linear_5_369" x1="237.855" y1="172.7" x2="285.855" y2="172.7" gradientUnits="userSpaceOnUse">
<stop stop-color="white" stop-opacity="0"/>
<stop offset="0.26" stop-color="white"/>
<stop offset="0.471357" stop-color="white"/>
<stop offset="0.71" stop-color="white"/>
<stop offset="1" stop-color="white" stop-opacity="0"/>
</linearGradient>
<linearGradient id="paint54_linear_5_369" x1="237.855" y1="183.5" x2="285.855" y2="183.5" gradientUnits="userSpaceOnUse">
<stop stop-color="white" stop-opacity="0"/>
<stop offset="0.26" stop-color="white"/>
<stop offset="0.471357" stop-color="white"/>
<stop offset="0.71" stop-color="white"/>
<stop offset="1" stop-color="white" stop-opacity="0"/>
</linearGradient>
<linearGradient id="paint55_linear_5_369" x1="237.855" y1="168.5" x2="285.855" y2="168.5" gradientUnits="userSpaceOnUse">
<stop stop-color="white" stop-opacity="0"/>
<stop offset="0.26" stop-color="white"/>
<stop offset="0.471357" stop-color="white"/>
<stop offset="0.71" stop-color="white"/>
<stop offset="1" stop-color="white" stop-opacity="0"/>
</linearGradient>
<linearGradient id="paint56_linear_5_369" x1="238.209" y1="159.646" x2="286.209" y2="207.646" gradientUnits="userSpaceOnUse">
<stop stop-color="white" stop-opacity="0"/>
<stop offset="0.354789" stop-color="white"/>
<stop offset="0.471357" stop-color="white"/>
<stop offset="0.588196" stop-color="white"/>
<stop offset="1" stop-color="white" stop-opacity="0"/>
</linearGradient>
<linearGradient id="paint57_linear_5_369" x1="285.502" y1="159.646" x2="237.502" y2="207.646" gradientUnits="userSpaceOnUse">
<stop stop-color="white" stop-opacity="0"/>
<stop offset="0.354789" stop-color="white"/>
<stop offset="0.471357" stop-color="white"/>
<stop offset="0.588196" stop-color="white"/>
<stop offset="1" stop-color="white" stop-opacity="0"/>
</linearGradient>
<clipPath id="clip0_5_369">
<rect width="524" height="400" rx="24" fill="white"/>
</clipPath>
<clipPath id="clip1_5_369">
<rect x="91.8633" y="92" width="48" height="48" rx="24" fill="white"/>
</clipPath>
<clipPath id="clip2_5_369">
<rect x="91.8633" y="92" width="48" height="48" rx="10.4261" fill="white"/>
</clipPath>
<clipPath id="clip3_5_369">
<rect x="383.863" y="92" width="48" height="48" rx="24" fill="white"/>
</clipPath>
<clipPath id="clip4_5_369">
<rect x="383.863" y="92" width="48" height="48" rx="10.4261" fill="white"/>
</clipPath>
<clipPath id="clip5_5_369">
<rect x="348.863" y="185" width="48" height="48" rx="24" fill="white"/>
</clipPath>
<clipPath id="clip6_5_369">
<rect x="348.863" y="185" width="48" height="48" rx="10.4261" fill="white"/>
</clipPath>
<clipPath id="clip7_5_369">
<rect x="126.863" y="185" width="48" height="48" rx="24" fill="white"/>
</clipPath>
<clipPath id="clip8_5_369">
<rect x="126.863" y="185" width="48" height="48" rx="10.4261" fill="white"/>
</clipPath>
<clipPath id="clip9_5_369">
<rect x="237.863" y="160" width="48" height="48" rx="24" fill="white"/>
</clipPath>
<clipPath id="clip10_5_369">
<rect x="237.863" y="160" width="48" height="48" rx="10.4261" fill="white"/>
</clipPath>
</defs>
</svg>
