<svg width="422" height="318" viewBox="0 0 422 318" fill="none" xmlns="http://www.w3.org/2000/svg">
<g filter="url(#filter0_bd_1396_6808)">
<rect x="32" y="40" width="358" height="220" rx="8" fill="url(#paint0_linear_1396_6808)" fill-opacity="0.5" shape-rendering="crispEdges"/>
<rect x="32.5" y="40.5" width="357" height="219" rx="7.5" stroke="url(#paint1_linear_1396_6808)" stroke-opacity="0.06" shape-rendering="crispEdges"/>
<g filter="url(#filter1_b_1396_6808)">
<mask id="path-3-inside-1_1396_6808" fill="white">
<path d="M32 40H390V60H32V40Z"/>
</mask>
<path d="M390 59H32V61H390V59Z" fill="black" fill-opacity="0.06" mask="url(#path-3-inside-1_1396_6808)"/>
</g>
<g filter="url(#filter2_b_1396_6808)">
<mask id="path-5-inside-2_1396_6808" fill="white">
<path d="M32 59H390V79H32V59Z"/>
</mask>
<path d="M390 78H32V80H390V78Z" fill="black" fill-opacity="0.06" mask="url(#path-5-inside-2_1396_6808)"/>
</g>
<circle cx="46" cy="69" r="4" fill="black" fill-opacity="0.06"/>
<circle cx="64" cy="69" r="4" fill="black" fill-opacity="0.06"/>
<circle cx="82" cy="69" r="4" fill="black" fill-opacity="0.06"/>
<circle cx="100" cy="69" r="4" fill="black" fill-opacity="0.06"/>
<g filter="url(#filter3_b_1396_6808)">
<mask id="path-11-inside-3_1396_6808" fill="white">
<path d="M32 79H102V260H32V79Z"/>
</mask>
<path d="M101 79V260H103V79H101Z" fill="url(#paint2_linear_1396_6808)" fill-opacity="0.06" mask="url(#path-11-inside-3_1396_6808)"/>
</g>
<g filter="url(#filter4_b_1396_6808)">
<mask id="path-13-inside-4_1396_6808" fill="white">
<path d="M320 79H390V260H320V79Z"/>
</mask>
<path d="M321 260V79H319V260H321Z" fill="url(#paint3_linear_1396_6808)" fill-opacity="0.06" mask="url(#path-13-inside-4_1396_6808)"/>
</g>
<mask id="mask0_1396_6808" style="mask-type:alpha" maskUnits="userSpaceOnUse" x="320" y="77" width="70" height="149">
<rect x="320.176" y="77.745" width="69.8242" height="147.979" fill="url(#paint4_linear_1396_6808)"/>
</mask>
<g mask="url(#mask0_1396_6808)">
<rect x="330" y="89" width="50" height="24" rx="4" fill="black" fill-opacity="0.06"/>
<rect x="330" y="121" width="50" height="24" rx="4" fill="black" fill-opacity="0.06"/>
<rect x="330" y="153" width="50" height="24" rx="4" fill="black" fill-opacity="0.06"/>
<rect x="330" y="185" width="50" height="24" rx="4" fill="black" fill-opacity="0.06"/>
</g>
<circle cx="46" cy="50" r="2" fill="#9FC7FE"/>
<circle cx="54" cy="50" r="2" fill="#9FC7FE"/>
<circle cx="62" cy="50" r="2" fill="#9FC7FE"/>
<mask id="mask1_1396_6808" style="mask-type:alpha" maskUnits="userSpaceOnUse" x="32" y="78" width="70" height="149">
<rect x="32.1758" y="78.745" width="69.8242" height="147.979" fill="url(#paint5_linear_1396_6808)"/>
</mask>
<g mask="url(#mask1_1396_6808)">
<rect x="42" y="89" width="50" height="4" rx="2" fill="black" fill-opacity="0.06"/>
<rect x="42" y="101" width="50" height="4" rx="2" fill="black" fill-opacity="0.06"/>
<rect x="42" y="113" width="50" height="4" rx="2" fill="black" fill-opacity="0.06"/>
<rect x="42" y="125" width="50" height="4" rx="2" fill="black" fill-opacity="0.06"/>
<rect x="42" y="137" width="50" height="4" rx="2" fill="black" fill-opacity="0.06"/>
<rect x="42" y="149" width="50" height="4" rx="2" fill="black" fill-opacity="0.06"/>
<rect x="42" y="161" width="50" height="4" rx="2" fill="black" fill-opacity="0.06"/>
<rect x="42" y="173" width="50" height="4" rx="2" fill="black" fill-opacity="0.06"/>
<rect x="42" y="185" width="50" height="4" rx="2" fill="black" fill-opacity="0.06"/>
<rect x="42" y="197" width="50" height="4" rx="2" fill="black" fill-opacity="0.06"/>
</g>
<g filter="url(#filter5_bd_1396_6808)">
<circle cx="210.53" cy="169.969" r="75.9637" fill="white" fill-opacity="0.2" shape-rendering="crispEdges"/>
</g>
<g filter="url(#filter6_bd_1396_6808)">
<circle cx="210.532" cy="169.969" r="59.0829" fill="white" fill-opacity="0.4" shape-rendering="crispEdges"/>
</g>
<g filter="url(#filter7_d_1396_6808)">
<rect x="171.141" y="130.58" width="78.7772" height="78.7772" rx="39.3886" fill="white" shape-rendering="crispEdges"/>
<g clip-path="url(#clip0_1396_6808)">
<rect x="188.02" y="147.461" width="45.0155" height="45.0155" rx="10.4297" fill="url(#paint6_linear_1396_6808)"/>
<g clip-path="url(#clip1_1396_6808)">
<g filter="url(#filter8_b_1396_6808)">
<rect x="185.844" y="145.288" width="48.8892" height="48.8892" rx="10.4297" fill="white" fill-opacity="0.32"/>
<rect x="186.267" y="145.712" width="48.0418" height="48.0418" rx="10.006" stroke="white" stroke-opacity="0.2" stroke-width="0.847413"/>
</g>
<g opacity="0.8">
<circle opacity="0.5" cx="210.523" cy="169.969" r="10.0307" stroke="white" stroke-width="0.195557"/>
<circle opacity="0.5" cx="210.52" cy="169.969" r="13.9696" stroke="white" stroke-width="0.195557"/>
<path d="M196.453 147.461V192.477" stroke="url(#paint7_linear_1396_6808)" stroke-width="0.195557" stroke-dasharray="0.65 0.65"/>
<path d="M224.59 147.461V192.477" stroke="url(#paint8_linear_1396_6808)" stroke-width="0.195557" stroke-dasharray="0.65 0.65"/>
<path d="M210.523 147.461V192.477" stroke="url(#paint9_linear_1396_6808)" stroke-width="0.195557" stroke-dasharray="0.65 0.65"/>
<path d="M188.016 184.036H233.031" stroke="url(#paint10_linear_1396_6808)" stroke-width="0.195557" stroke-dasharray="0.65 0.65"/>
<path d="M188.016 180.097H233.031" stroke="url(#paint11_linear_1396_6808)" stroke-width="0.195557" stroke-dasharray="0.65 0.65"/>
<path d="M188.016 159.84H233.031" stroke="url(#paint12_linear_1396_6808)" stroke-width="0.195557" stroke-dasharray="0.65 0.65"/>
<path d="M188.016 169.969H233.031" stroke="url(#paint13_linear_1396_6808)" stroke-width="0.195557" stroke-dasharray="0.65 0.65"/>
<path d="M188.016 155.902H233.031" stroke="url(#paint14_linear_1396_6808)" stroke-width="0.195557" stroke-dasharray="0.65 0.65"/>
<path d="M188.016 147.461L233.031 192.477" stroke="url(#paint15_linear_1396_6808)" stroke-width="0.195557" stroke-dasharray="0.65 0.65"/>
<path d="M233.031 147.461L188.016 192.477" stroke="url(#paint16_linear_1396_6808)" stroke-width="0.195557" stroke-dasharray="0.65 0.65"/>
</g>
</g>
<g clip-path="url(#clip2_1396_6808)">
<path d="M213.374 178.646L215.552 176.707C216.774 175.625 216.824 174.869 215.855 173.648L212.014 168.775C211.208 167.755 209.886 167.755 209.08 168.775L205.24 173.648C204.271 174.869 204.271 175.662 205.542 176.707L207.721 178.646" stroke="white" stroke-width="2.28" stroke-linecap="round" stroke-linejoin="round"/>
<path d="M210.539 168.51V173.211" stroke="white" stroke-width="2.28" stroke-linecap="round" stroke-linejoin="round"/>
<path d="M211.186 160.804H209.927C209.235 160.804 208.668 160.238 208.668 159.545V158.286C208.668 157.594 209.235 157.027 209.927 157.027H211.186C211.879 157.027 212.445 157.594 212.445 158.286V159.545C212.445 160.238 211.879 160.804 211.186 160.804Z" stroke="white" stroke-width="2.28" stroke-linecap="round" stroke-linejoin="round"/>
<path d="M199.536 172.351H200.796C201.488 172.351 202.055 171.784 202.055 171.091V169.832C202.055 169.14 201.488 168.573 200.796 168.573H199.536C198.844 168.573 198.277 169.14 198.277 169.832V171.091C198.277 171.784 198.844 172.351 199.536 172.351Z" stroke="white" stroke-width="2.28" stroke-linecap="round" stroke-linejoin="round"/>
<path d="M221.518 172.35H220.259C219.567 172.35 219 171.784 219 171.091V169.832C219 169.14 219.567 168.573 220.259 168.573H221.518C222.211 168.573 222.777 169.14 222.777 169.832V171.091C222.777 171.784 222.211 172.35 221.518 172.35Z" stroke="white" stroke-width="2.28" stroke-linecap="round" stroke-linejoin="round"/>
<path d="M208.665 158.992C203.868 159.558 200.141 163.625 200.141 168.574" stroke="white" stroke-width="2.28" stroke-linecap="round" stroke-linejoin="round"/>
<path d="M220.915 168.574C220.915 163.638 217.214 159.583 212.441 158.992" stroke="white" stroke-width="2.28" stroke-linecap="round" stroke-linejoin="round"/>
<path d="M208.946 182.911H212.109C213.313 182.911 214.092 182.104 213.866 181.119L213.351 178.972H207.703L207.189 181.119C206.963 182.045 207.816 182.911 208.946 182.911Z" stroke="white" stroke-width="2.28" stroke-linecap="round" stroke-linejoin="round"/>
</g>
</g>
</g>
</g>
<defs>
<filter id="filter0_bd_1396_6808" x="-68" y="-60" width="558" height="420" filterUnits="userSpaceOnUse" color-interpolation-filters="sRGB">
<feFlood flood-opacity="0" result="BackgroundImageFix"/>
<feGaussianBlur in="BackgroundImageFix" stdDeviation="50"/>
<feComposite in2="SourceAlpha" operator="in" result="effect1_backgroundBlur_1396_6808"/>
<feColorMatrix in="SourceAlpha" type="matrix" values="0 0 0 0 0 0 0 0 0 0 0 0 0 0 0 0 0 0 127 0" result="hardAlpha"/>
<feOffset dy="-32"/>
<feGaussianBlur stdDeviation="16"/>
<feComposite in2="hardAlpha" operator="out"/>
<feColorMatrix type="matrix" values="0 0 0 0 0.00757305 0 0 0 0 0.143701 0 0 0 0 0.24196 0 0 0 0.04 0"/>
<feBlend mode="normal" in2="effect1_backgroundBlur_1396_6808" result="effect2_dropShadow_1396_6808"/>
<feBlend mode="normal" in="SourceGraphic" in2="effect2_dropShadow_1396_6808" result="shape"/>
</filter>
<filter id="filter1_b_1396_6808" x="-68" y="-60" width="558" height="220" filterUnits="userSpaceOnUse" color-interpolation-filters="sRGB">
<feFlood flood-opacity="0" result="BackgroundImageFix"/>
<feGaussianBlur in="BackgroundImageFix" stdDeviation="50"/>
<feComposite in2="SourceAlpha" operator="in" result="effect1_backgroundBlur_1396_6808"/>
<feBlend mode="normal" in="SourceGraphic" in2="effect1_backgroundBlur_1396_6808" result="shape"/>
</filter>
<filter id="filter2_b_1396_6808" x="-68" y="-41" width="558" height="220" filterUnits="userSpaceOnUse" color-interpolation-filters="sRGB">
<feFlood flood-opacity="0" result="BackgroundImageFix"/>
<feGaussianBlur in="BackgroundImageFix" stdDeviation="50"/>
<feComposite in2="SourceAlpha" operator="in" result="effect1_backgroundBlur_1396_6808"/>
<feBlend mode="normal" in="SourceGraphic" in2="effect1_backgroundBlur_1396_6808" result="shape"/>
</filter>
<filter id="filter3_b_1396_6808" x="-68" y="-21" width="270" height="381" filterUnits="userSpaceOnUse" color-interpolation-filters="sRGB">
<feFlood flood-opacity="0" result="BackgroundImageFix"/>
<feGaussianBlur in="BackgroundImageFix" stdDeviation="50"/>
<feComposite in2="SourceAlpha" operator="in" result="effect1_backgroundBlur_1396_6808"/>
<feBlend mode="normal" in="SourceGraphic" in2="effect1_backgroundBlur_1396_6808" result="shape"/>
</filter>
<filter id="filter4_b_1396_6808" x="220" y="-21" width="270" height="381" filterUnits="userSpaceOnUse" color-interpolation-filters="sRGB">
<feFlood flood-opacity="0" result="BackgroundImageFix"/>
<feGaussianBlur in="BackgroundImageFix" stdDeviation="50"/>
<feComposite in2="SourceAlpha" operator="in" result="effect1_backgroundBlur_1396_6808"/>
<feBlend mode="normal" in="SourceGraphic" in2="effect1_backgroundBlur_1396_6808" result="shape"/>
</filter>
<filter id="filter5_bd_1396_6808" x="86.5664" y="70.0052" width="247.926" height="247.928" filterUnits="userSpaceOnUse" color-interpolation-filters="sRGB">
<feFlood flood-opacity="0" result="BackgroundImageFix"/>
<feGaussianBlur in="BackgroundImageFix" stdDeviation="4"/>
<feComposite in2="SourceAlpha" operator="in" result="effect1_backgroundBlur_1396_6808"/>
<feColorMatrix in="SourceAlpha" type="matrix" values="0 0 0 0 0 0 0 0 0 0 0 0 0 0 0 0 0 0 127 0" result="hardAlpha"/>
<feOffset dy="24"/>
<feGaussianBlur stdDeviation="24"/>
<feComposite in2="hardAlpha" operator="out"/>
<feColorMatrix type="matrix" values="0 0 0 0 0.00757305 0 0 0 0 0.143701 0 0 0 0 0.24196 0 0 0 0.08 0"/>
<feBlend mode="normal" in2="effect1_backgroundBlur_1396_6808" result="effect2_dropShadow_1396_6808"/>
<feBlend mode="normal" in="SourceGraphic" in2="effect2_dropShadow_1396_6808" result="shape"/>
</filter>
<filter id="filter6_bd_1396_6808" x="103.449" y="86.886" width="214.164" height="214.166" filterUnits="userSpaceOnUse" color-interpolation-filters="sRGB">
<feFlood flood-opacity="0" result="BackgroundImageFix"/>
<feGaussianBlur in="BackgroundImageFix" stdDeviation="4"/>
<feComposite in2="SourceAlpha" operator="in" result="effect1_backgroundBlur_1396_6808"/>
<feColorMatrix in="SourceAlpha" type="matrix" values="0 0 0 0 0 0 0 0 0 0 0 0 0 0 0 0 0 0 127 0" result="hardAlpha"/>
<feOffset dy="24"/>
<feGaussianBlur stdDeviation="24"/>
<feComposite in2="hardAlpha" operator="out"/>
<feColorMatrix type="matrix" values="0 0 0 0 0.00757305 0 0 0 0 0.143701 0 0 0 0 0.24196 0 0 0 0.08 0"/>
<feBlend mode="normal" in2="effect1_backgroundBlur_1396_6808" result="effect2_dropShadow_1396_6808"/>
<feBlend mode="normal" in="SourceGraphic" in2="effect2_dropShadow_1396_6808" result="shape"/>
</filter>
<filter id="filter7_d_1396_6808" x="126.125" y="108.073" width="168.808" height="168.808" filterUnits="userSpaceOnUse" color-interpolation-filters="sRGB">
<feFlood flood-opacity="0" result="BackgroundImageFix"/>
<feColorMatrix in="SourceAlpha" type="matrix" values="0 0 0 0 0 0 0 0 0 0 0 0 0 0 0 0 0 0 127 0" result="hardAlpha"/>
<feOffset dy="22.5078"/>
<feGaussianBlur stdDeviation="22.5078"/>
<feComposite in2="hardAlpha" operator="out"/>
<feColorMatrix type="matrix" values="0 0 0 0 0.00757305 0 0 0 0 0.143701 0 0 0 0 0.24196 0 0 0 0.08 0"/>
<feBlend mode="normal" in2="BackgroundImageFix" result="effect1_dropShadow_1396_6808"/>
<feBlend mode="normal" in="SourceGraphic" in2="effect1_dropShadow_1396_6808" result="shape"/>
</filter>
<filter id="filter8_b_1396_6808" x="175.414" y="134.859" width="69.75" height="69.7487" filterUnits="userSpaceOnUse" color-interpolation-filters="sRGB">
<feFlood flood-opacity="0" result="BackgroundImageFix"/>
<feGaussianBlur in="BackgroundImageFix" stdDeviation="5.21485"/>
<feComposite in2="SourceAlpha" operator="in" result="effect1_backgroundBlur_1396_6808"/>
<feBlend mode="normal" in="SourceGraphic" in2="effect1_backgroundBlur_1396_6808" result="shape"/>
</filter>
<linearGradient id="paint0_linear_1396_6808" x1="211" y1="40" x2="211" y2="260" gradientUnits="userSpaceOnUse">
<stop stop-color="white"/>
<stop offset="0.535553" stop-color="white"/>
<stop offset="1" stop-color="#FAFCFF"/>
</linearGradient>
<linearGradient id="paint1_linear_1396_6808" x1="211" y1="40" x2="211" y2="246.5" gradientUnits="userSpaceOnUse">
<stop/>
<stop offset="1" stop-opacity="0"/>
</linearGradient>
<linearGradient id="paint2_linear_1396_6808" x1="67" y1="79" x2="67" y2="260" gradientUnits="userSpaceOnUse">
<stop/>
<stop offset="1" stop-opacity="0"/>
</linearGradient>
<linearGradient id="paint3_linear_1396_6808" x1="355" y1="79" x2="355" y2="260" gradientUnits="userSpaceOnUse">
<stop/>
<stop offset="1" stop-opacity="0"/>
</linearGradient>
<linearGradient id="paint4_linear_1396_6808" x1="355.088" y1="77.745" x2="355.088" y2="225.725" gradientUnits="userSpaceOnUse">
<stop stop-color="#D9D9D9"/>
<stop offset="1" stop-color="#D9D9D9" stop-opacity="0"/>
</linearGradient>
<linearGradient id="paint5_linear_1396_6808" x1="67.0879" y1="78.745" x2="67.0879" y2="226.725" gradientUnits="userSpaceOnUse">
<stop stop-color="#D9D9D9"/>
<stop offset="1" stop-color="#D9D9D9" stop-opacity="0"/>
</linearGradient>
<linearGradient id="paint6_linear_1396_6808" x1="188.434" y1="147.334" x2="241.454" y2="148.33" gradientUnits="userSpaceOnUse">
<stop stop-color="#047AFF"/>
<stop offset="1" stop-color="#7917DF"/>
</linearGradient>
<linearGradient id="paint7_linear_1396_6808" x1="196.953" y1="147.461" x2="196.953" y2="192.477" gradientUnits="userSpaceOnUse">
<stop stop-color="white" stop-opacity="0"/>
<stop offset="0.26" stop-color="white"/>
<stop offset="0.471357" stop-color="white"/>
<stop offset="0.71" stop-color="white"/>
<stop offset="1" stop-color="white" stop-opacity="0"/>
</linearGradient>
<linearGradient id="paint8_linear_1396_6808" x1="225.09" y1="147.461" x2="225.09" y2="192.477" gradientUnits="userSpaceOnUse">
<stop stop-color="white" stop-opacity="0"/>
<stop offset="0.26" stop-color="white"/>
<stop offset="0.471357" stop-color="white"/>
<stop offset="0.71" stop-color="white"/>
<stop offset="1" stop-color="white" stop-opacity="0"/>
</linearGradient>
<linearGradient id="paint9_linear_1396_6808" x1="211.023" y1="147.461" x2="211.023" y2="192.477" gradientUnits="userSpaceOnUse">
<stop stop-color="white" stop-opacity="0"/>
<stop offset="0.26" stop-color="white"/>
<stop offset="0.471357" stop-color="white"/>
<stop offset="0.71" stop-color="white"/>
<stop offset="1" stop-color="white" stop-opacity="0"/>
</linearGradient>
<linearGradient id="paint10_linear_1396_6808" x1="188.016" y1="183.536" x2="233.031" y2="183.536" gradientUnits="userSpaceOnUse">
<stop stop-color="white" stop-opacity="0"/>
<stop offset="0.26" stop-color="white"/>
<stop offset="0.471357" stop-color="white"/>
<stop offset="0.71" stop-color="white"/>
<stop offset="1" stop-color="white" stop-opacity="0"/>
</linearGradient>
<linearGradient id="paint11_linear_1396_6808" x1="188.016" y1="179.597" x2="233.031" y2="179.597" gradientUnits="userSpaceOnUse">
<stop stop-color="white" stop-opacity="0"/>
<stop offset="0.26" stop-color="white"/>
<stop offset="0.471357" stop-color="white"/>
<stop offset="0.71" stop-color="white"/>
<stop offset="1" stop-color="white" stop-opacity="0"/>
</linearGradient>
<linearGradient id="paint12_linear_1396_6808" x1="188.016" y1="159.34" x2="233.031" y2="159.34" gradientUnits="userSpaceOnUse">
<stop stop-color="white" stop-opacity="0"/>
<stop offset="0.26" stop-color="white"/>
<stop offset="0.471357" stop-color="white"/>
<stop offset="0.71" stop-color="white"/>
<stop offset="1" stop-color="white" stop-opacity="0"/>
</linearGradient>
<linearGradient id="paint13_linear_1396_6808" x1="188.016" y1="169.469" x2="233.031" y2="169.469" gradientUnits="userSpaceOnUse">
<stop stop-color="white" stop-opacity="0"/>
<stop offset="0.26" stop-color="white"/>
<stop offset="0.471357" stop-color="white"/>
<stop offset="0.71" stop-color="white"/>
<stop offset="1" stop-color="white" stop-opacity="0"/>
</linearGradient>
<linearGradient id="paint14_linear_1396_6808" x1="188.016" y1="155.402" x2="233.031" y2="155.402" gradientUnits="userSpaceOnUse">
<stop stop-color="white" stop-opacity="0"/>
<stop offset="0.26" stop-color="white"/>
<stop offset="0.471357" stop-color="white"/>
<stop offset="0.71" stop-color="white"/>
<stop offset="1" stop-color="white" stop-opacity="0"/>
</linearGradient>
<linearGradient id="paint15_linear_1396_6808" x1="188.369" y1="147.108" x2="233.385" y2="192.123" gradientUnits="userSpaceOnUse">
<stop stop-color="white" stop-opacity="0"/>
<stop offset="0.354789" stop-color="white"/>
<stop offset="0.471357" stop-color="white"/>
<stop offset="0.588196" stop-color="white"/>
<stop offset="1" stop-color="white" stop-opacity="0"/>
</linearGradient>
<linearGradient id="paint16_linear_1396_6808" x1="232.678" y1="147.108" x2="187.662" y2="192.123" gradientUnits="userSpaceOnUse">
<stop stop-color="white" stop-opacity="0"/>
<stop offset="0.354789" stop-color="white"/>
<stop offset="0.471357" stop-color="white"/>
<stop offset="0.588196" stop-color="white"/>
<stop offset="1" stop-color="white" stop-opacity="0"/>
</linearGradient>
<clipPath id="clip0_1396_6808">
<rect x="188.02" y="147.461" width="45.0155" height="45.0155" rx="22.5078" fill="white"/>
</clipPath>
<clipPath id="clip1_1396_6808">
<rect x="188.02" y="147.461" width="45.0155" height="45.0155" rx="9.77785" fill="white"/>
</clipPath>
<clipPath id="clip2_1396_6808">
<rect width="28.1347" height="28.1347" fill="white" transform="translate(196.461 155.902)"/>
</clipPath>
</defs>
</svg>
