<svg width="358" height="220" viewBox="0 0 358 220" fill="none" xmlns="http://www.w3.org/2000/svg">
<g filter="url(#filter0_b_3_7)">
<g clip-path="url(#clip0_3_7)">
<rect width="358" height="220" rx="8" fill="url(#paint0_linear_3_7)" fill-opacity="0.5"/>
<g filter="url(#filter1_b_3_7)">
<mask id="path-3-inside-1_3_7" fill="white">
<path d="M0 0H358V28H0V0Z"/>
</mask>
<path d="M358 27H0V29H358V27Z" fill="black" fill-opacity="0.12" mask="url(#path-3-inside-1_3_7)"/>
</g>
<circle cx="14" cy="14" r="2" fill="#9FC7FE"/>
<circle cx="22" cy="14" r="2" fill="#9FC7FE"/>
<circle cx="30" cy="14" r="2" fill="#9FC7FE"/>
<g filter="url(#filter2_d_3_7)">
<rect x="79" y="60" width="200" height="100" fill="white" fill-opacity="0.6" shape-rendering="crispEdges"/>
<rect x="79.5" y="60.5" width="199" height="99" stroke="#EAECF0" shape-rendering="crispEdges"/>
<path d="M273.5 60.5H283.5" stroke="#A517FC"/>
<path d="M278.5 65.5V55.5" stroke="#A517FC"/>
<path d="M273.5 159.5H283.5" stroke="#A517FC"/>
<path d="M278.5 164.5V154.5" stroke="#A517FC"/>
<path d="M74.5 60.5H84.5" stroke="#A517FC"/>
<path d="M79.5 65.5V55.5" stroke="#A517FC"/>
<path d="M74.5 159.5H84.5" stroke="#A517FC"/>
<path d="M79.5 164.5V154.5" stroke="#A517FC"/>
<mask id="mask0_3_7" style="mask-type:alpha" maskUnits="userSpaceOnUse" x="193" y="99" width="19" height="23">
<path d="M199.103 121.065C195.038 120.94 191.679 117.249 193.587 109.867C195.494 102.567 200.969 99.3323 205.075 99.4152C209.098 99.5396 212.457 102.94 210.508 110.364C208.6 117.747 203.084 121.147 199.103 121.065ZM199.02 109.95C197.776 114.678 197.07 119.82 199.393 119.903C201.674 119.945 203.872 114.926 205.116 110.24C206.195 106.217 207.149 100.701 204.743 100.618C202.421 100.535 200.264 105.387 199.02 109.95Z" fill="#1D1D1F"/>
</mask>
<g mask="url(#mask0_3_7)">
<path d="M204.753 100.33C204.065 100.305 203.424 100.648 202.847 101.189C202.268 101.732 201.725 102.502 201.225 103.402C200.225 105.203 199.367 107.581 198.742 109.874L198.742 109.874L198.741 109.876C198.118 112.246 197.623 114.74 197.581 116.662C197.56 117.619 197.65 118.466 197.915 119.09C198.049 119.406 198.233 119.676 198.481 119.872C198.733 120.07 199.035 120.179 199.383 120.191L199.383 120.191L199.388 120.191C200.069 120.203 200.705 119.838 201.277 119.275C201.852 118.709 202.395 117.911 202.897 116.981C203.902 115.119 204.769 112.669 205.395 110.314C205.935 108.297 206.45 105.887 206.524 103.962C206.561 103.004 206.49 102.133 206.236 101.485C206.108 101.158 205.927 100.874 205.677 100.668C205.423 100.458 205.113 100.342 204.753 100.33ZM204.753 100.33C204.753 100.33 204.753 100.33 204.753 100.33L204.743 100.618L204.753 100.33C204.753 100.33 204.753 100.33 204.753 100.33ZM210.229 110.291L210.229 110.292C208.349 117.567 202.936 120.855 199.11 120.776C197.167 120.717 195.406 119.808 194.352 118.04C193.295 116.265 192.924 113.583 193.865 109.939C195.743 102.754 201.11 99.6238 205.068 99.703C206.998 99.7631 208.746 100.606 209.786 102.303C210.829 104.007 211.192 106.624 210.229 110.291Z" stroke="#047AFF" stroke-width="0.576021"/>
<path d="M217.032 117.529L191.111 104.28" stroke="#047AFF" stroke-width="0.576021"/>
<path d="M217.032 115.225L191.111 101.976" stroke="#047AFF" stroke-width="0.576021"/>
<path d="M217.032 112.921L191.111 99.6722" stroke="#047AFF" stroke-width="0.576021"/>
<path d="M217.032 110.617L191.111 97.3682" stroke="#047AFF" stroke-width="0.576021"/>
<path d="M217.032 108.313L191.111 95.0641" stroke="#047AFF" stroke-width="0.576021"/>
<path d="M217.032 106.008L191.111 92.76" stroke="#047AFF" stroke-width="0.576021"/>
<path d="M217.032 119.833L191.111 106.585" stroke="#047AFF" stroke-width="0.576021"/>
<path d="M217.032 122.137L191.111 108.889" stroke="#047AFF" stroke-width="0.576021"/>
<path d="M217.032 124.441L191.111 111.193" stroke="#047AFF" stroke-width="0.576021"/>
<path d="M217.032 126.745L191.111 113.497" stroke="#047AFF" stroke-width="0.576021"/>
<path d="M217.032 129.049L191.111 115.801" stroke="#047AFF" stroke-width="0.576021"/>
</g>
<path d="M179.556 129.607C175.243 129.483 170.93 127.326 171.884 123.967C172.589 121.561 175.699 120.939 178.312 122.1L178.354 122.432C176.985 122.971 176.28 123.801 176.031 124.672C175.409 126.87 177.317 128.321 180.22 128.446C182.584 128.529 184.99 127.533 185.695 125.501C186.234 123.801 185.404 122.349 182.916 121.686L177.898 120.4C173.875 119.404 173.584 117.206 174.04 115.796C174.58 114.22 176.031 113.391 177.69 112.852C176.197 111.483 175.533 109.285 176.321 106.506C177.69 101.944 181.962 99.3726 185.695 99.4141C187.893 99.4556 189.759 100.368 190.796 101.903C191.833 100.119 193.699 98.8749 195.648 99.5385L194.446 102.773C193.533 102.276 192.413 102.027 191.252 102.732C191.791 103.976 191.874 105.511 191.377 107.253C189.966 112.022 185.155 114.345 181.755 114.303C180.51 114.303 179.349 114.013 178.437 113.432C178.022 113.681 177.773 113.971 177.649 114.303C177.4 115.008 177.939 115.589 179.805 116.128L184.948 117.497C189.054 118.492 190.132 121.437 189.137 124.34C187.81 128.114 183.704 129.773 179.556 129.607ZM181.34 106.796C180.469 109.865 180.054 113.142 182.003 113.183C183.828 113.225 185.529 110.114 186.441 106.921C187.312 103.935 187.644 100.534 185.695 100.534C183.828 100.534 182.252 103.727 181.34 106.796Z" fill="url(#paint1_linear_3_7)"/>
<path d="M162.479 121.064C158.415 120.94 155.055 117.248 156.963 109.866C158.871 102.567 164.346 99.3317 168.452 99.4146C172.475 99.5391 175.834 102.94 173.885 110.364C171.977 117.746 166.461 121.147 162.479 121.064ZM162.396 109.949C161.152 114.677 160.447 119.82 162.77 119.903C165.051 119.944 167.249 114.926 168.493 110.239C169.571 106.216 170.525 100.7 168.12 100.617C165.797 100.534 163.641 105.387 162.396 109.949Z" fill="url(#paint2_linear_3_7)"/>
<path d="M146.884 121.064C144.561 121.064 143.193 118.907 144.52 114.677L150.782 94.9354C151.57 92.364 150.368 91.9493 149.206 91.9493L149.331 91.3686L157.418 90L149.663 114.552C148.792 117.331 149.04 118.451 149.704 118.451C150.368 118.451 151.653 117.373 153.312 114.428L153.727 114.76C152.192 118.161 149.58 121.064 146.884 121.064Z" fill="url(#paint3_linear_3_7)"/>
<rect x="192.839" y="99.0971" width="18.4327" height="21.8888" stroke="#A517FC" stroke-width="0.576021"/>
<rect x="191.111" y="97.369" width="3.45612" height="3.45612" fill="#A517FC"/>
<rect x="191.111" y="119.258" width="3.45612" height="3.45612" fill="#A517FC"/>
<rect x="209.544" y="97.369" width="3.45612" height="3.45612" fill="#A517FC"/>
<rect x="209.544" y="119.258" width="3.45612" height="3.45612" fill="#A517FC"/>
</g>
</g>
<rect x="0.5" y="0.5" width="357" height="219" rx="7.5" stroke="url(#paint4_linear_3_7)" stroke-opacity="0.12"/>
</g>
<defs>
<filter id="filter0_b_3_7" x="-100" y="-100" width="558" height="420" filterUnits="userSpaceOnUse" color-interpolation-filters="sRGB">
<feFlood flood-opacity="0" result="BackgroundImageFix"/>
<feGaussianBlur in="BackgroundImageFix" stdDeviation="50"/>
<feComposite in2="SourceAlpha" operator="in" result="effect1_backgroundBlur_3_7"/>
<feBlend mode="normal" in="SourceGraphic" in2="effect1_backgroundBlur_3_7" result="shape"/>
</filter>
<filter id="filter1_b_3_7" x="-100" y="-100" width="558" height="228" filterUnits="userSpaceOnUse" color-interpolation-filters="sRGB">
<feFlood flood-opacity="0" result="BackgroundImageFix"/>
<feGaussianBlur in="BackgroundImageFix" stdDeviation="50"/>
<feComposite in2="SourceAlpha" operator="in" result="effect1_backgroundBlur_3_7"/>
<feBlend mode="normal" in="SourceGraphic" in2="effect1_backgroundBlur_3_7" result="shape"/>
</filter>
<filter id="filter2_d_3_7" x="26.5" y="31.5" width="305" height="205" filterUnits="userSpaceOnUse" color-interpolation-filters="sRGB">
<feFlood flood-opacity="0" result="BackgroundImageFix"/>
<feColorMatrix in="SourceAlpha" type="matrix" values="0 0 0 0 0 0 0 0 0 0 0 0 0 0 0 0 0 0 127 0" result="hardAlpha"/>
<feOffset dy="24"/>
<feGaussianBlur stdDeviation="24"/>
<feComposite in2="hardAlpha" operator="out"/>
<feColorMatrix type="matrix" values="0 0 0 0 0.00757305 0 0 0 0 0.143701 0 0 0 0 0.24196 0 0 0 0.08 0"/>
<feBlend mode="normal" in2="BackgroundImageFix" result="effect1_dropShadow_3_7"/>
<feBlend mode="normal" in="SourceGraphic" in2="effect1_dropShadow_3_7" result="shape"/>
</filter>
<linearGradient id="paint0_linear_3_7" x1="179" y1="0" x2="179" y2="220" gradientUnits="userSpaceOnUse">
<stop stop-color="white"/>
<stop offset="0.535553" stop-color="white"/>
<stop offset="1" stop-color="white" stop-opacity="0"/>
</linearGradient>
<linearGradient id="paint1_linear_3_7" x1="171.97" y1="99.2722" x2="200.122" y2="99.6895" gradientUnits="userSpaceOnUse">
<stop stop-color="#047AFF"/>
<stop offset="1" stop-color="#7917DF"/>
</linearGradient>
<linearGradient id="paint2_linear_3_7" x1="156.58" y1="99.3521" x2="177.831" y2="99.6844" gradientUnits="userSpaceOnUse">
<stop stop-color="#047AFF"/>
<stop offset="1" stop-color="#7917DF"/>
</linearGradient>
<linearGradient id="paint3_linear_3_7" x1="144.124" y1="89.9125" x2="159.932" y2="90.0407" gradientUnits="userSpaceOnUse">
<stop stop-color="#047AFF"/>
<stop offset="1" stop-color="#7917DF"/>
</linearGradient>
<linearGradient id="paint4_linear_3_7" x1="179" y1="0" x2="179" y2="206.5" gradientUnits="userSpaceOnUse">
<stop/>
<stop offset="1" stop-opacity="0"/>
</linearGradient>
<clipPath id="clip0_3_7">
<rect width="358" height="220" rx="8" fill="white"/>
</clipPath>
</defs>
</svg>
