<svg width="61" height="60" viewBox="0 0 61 60" fill="none" xmlns="http://www.w3.org/2000/svg">
<circle cx="30.5" cy="30" r="30" fill="#00005B"/>
<path d="M14.751 42.0512V15.641C14.751 15.4615 14.826 15.3589 15.001 15.3589C15.426 15.3589 15.826 15.3589 16.401 15.3333C17.001 15.3076 17.626 15.3076 18.301 15.282C18.976 15.2564 19.701 15.2564 20.476 15.2307C21.251 15.2051 22.001 15.2051 22.751 15.2051C24.801 15.2051 26.501 15.4615 27.901 16C29.151 16.4358 30.301 17.1538 31.251 18.1025C32.051 18.923 32.676 19.923 33.076 21.0256C33.451 22.1025 33.651 23.2051 33.651 24.3589C33.651 26.5641 33.151 28.3846 32.151 29.8205C31.151 31.2564 29.751 32.3333 28.126 32.9487C26.426 33.5897 24.551 33.8205 22.501 33.8205C21.901 33.8205 21.501 33.8205 21.251 33.7948C21.001 33.7692 20.651 33.7692 20.176 33.7692V42C20.201 42.1794 20.076 42.3333 19.901 42.3589H19.801H15.051C14.851 42.3589 14.751 42.2564 14.751 42.0256V42.0512ZM20.201 20.3333V28.9487C20.551 28.9743 20.876 29 21.176 29H22.501C23.476 29 24.451 28.8461 25.376 28.5384C26.176 28.3076 26.876 27.8205 27.426 27.1794C27.951 26.5384 28.201 25.6666 28.201 24.5384C28.226 23.7435 28.026 22.9487 27.626 22.2564C27.201 21.5897 26.601 21.0769 25.876 20.7948C24.951 20.4102 23.951 20.2564 22.926 20.282C22.276 20.282 21.701 20.282 21.226 20.3076C20.726 20.282 20.376 20.3076 20.201 20.3333V20.3333Z" fill="#9999FF"/>
<path d="M37.2504 21.8464H41.6254C41.8754 21.8464 42.0754 22.0259 42.1504 22.2566C42.2254 22.4618 42.2754 22.6669 42.3004 22.8977C42.3504 23.1541 42.4004 23.4361 42.4254 23.6925C42.4504 23.9746 42.4754 24.2823 42.4754 24.6156C43.2254 23.7182 44.1254 22.9746 45.1504 22.4105C46.3004 21.7438 47.6254 21.4105 48.9504 21.4105C49.1254 21.3849 49.2754 21.5131 49.3004 21.6925V21.7951V26.7951C49.3004 27.0002 49.1754 27.0772 48.9004 27.0772C48.0004 27.0515 47.0754 27.1284 46.2004 27.3336C45.4754 27.4874 44.7754 27.7182 44.1004 28.0259C43.6254 28.2566 43.1754 28.5643 42.8254 28.9746V42.0515C42.8254 42.3079 42.7254 42.4105 42.5004 42.4105H37.5754C37.3754 42.4361 37.2004 42.3079 37.1754 42.1028V42.0002V27.7951C37.1754 27.1797 37.1754 26.5387 37.1504 25.872C37.1254 25.2054 37.1254 24.5387 37.1004 23.872C37.1004 23.2823 37.0504 22.7182 37.0004 22.1284C36.9754 22.0002 37.0504 21.872 37.1754 21.8464C37.1754 21.8207 37.2254 21.8207 37.2504 21.8464V21.8464Z" fill="#9999FF"/>
</svg>
