<svg width="61" height="60" viewBox="0 0 61 60" fill="none" xmlns="http://www.w3.org/2000/svg">
<circle cx="30.5" cy="30" r="30" fill="#00005B"/>s
<path d="M14.0015 42.0774V15.6927C14.0015 15.5132 14.0765 15.4107 14.2515 15.4107C14.6765 15.4107 15.0765 15.4107 15.6515 15.385C16.2515 15.3594 16.8765 15.3594 17.5515 15.3338C18.2265 15.3081 18.9515 15.3081 19.7265 15.2825C20.5015 15.2568 21.2515 15.2568 22.0015 15.2568C24.0515 15.2568 25.7515 15.5132 27.1515 16.0517C28.4015 16.4876 29.5515 17.2056 30.5015 18.1543C31.3015 18.9748 31.9265 19.9748 32.3265 21.0773C32.7015 22.1543 32.9015 23.2568 32.9015 24.4107C32.9015 26.6158 32.4015 28.4363 31.4015 29.8722C30.4015 31.3081 29.0015 32.385 27.3765 33.0004C25.6765 33.6415 23.8015 33.8722 21.7515 33.8722C21.1515 33.8722 20.7515 33.8722 20.5015 33.8466C20.2515 33.8209 19.9015 33.8209 19.4265 33.8209V42.0517C19.4515 42.2312 19.3265 42.385 19.1515 42.4107C19.1265 42.4107 19.1015 42.4107 19.0515 42.4107H14.3015C14.1015 42.4107 14.0015 42.3081 14.0015 42.0774ZM19.4515 20.3594V28.9748C19.8015 29.0004 20.1265 29.0261 20.4265 29.0261H21.7515C22.7265 29.0261 23.7015 28.8722 24.6265 28.5645C25.4265 28.3338 26.1265 27.8466 26.6765 27.2056C27.2015 26.5645 27.4515 25.6927 27.4515 24.5645C27.4765 23.7697 27.2765 22.9748 26.8765 22.2825C26.4515 21.6158 25.8515 21.103 25.1265 20.8209C24.2015 20.4363 23.2015 20.2825 22.1765 20.3081C21.5265 20.3081 20.9515 20.3081 20.4765 20.3338C19.9765 20.3081 19.6265 20.3338 19.4515 20.3594Z" fill="#31A8FF"/>
<path d="M48.5005 27.4111C47.7505 27.0008 46.9505 26.7188 46.1005 26.5393C45.1755 26.3342 44.2505 26.206 43.3005 26.206C42.8005 26.1803 42.2755 26.2572 41.8005 26.3854C41.4755 26.4624 41.2005 26.6419 41.0255 26.8983C40.9005 27.1034 40.8255 27.3598 40.8255 27.5906C40.8255 27.8213 40.9255 28.0521 41.0755 28.2572C41.3005 28.5393 41.6005 28.7701 41.9255 28.9495C42.5005 29.2572 43.1005 29.5393 43.7005 29.7957C45.0505 30.2572 46.3505 30.8983 47.5505 31.6675C48.3755 32.206 49.0505 32.9239 49.5255 33.7957C49.9255 34.6162 50.1255 35.5136 50.1005 36.4367C50.1255 37.6419 49.7755 38.847 49.1255 39.847C48.4255 40.8726 47.4505 41.6675 46.3255 42.129C45.1005 42.6675 43.6005 42.9495 41.8005 42.9495C40.6505 42.9495 39.5255 42.847 38.4005 42.6162C37.5255 42.4624 36.6504 42.1803 35.8504 41.7957C35.6754 41.6931 35.5505 41.5136 35.5755 41.3085V36.847C35.5755 36.7701 35.6004 36.6675 35.6754 36.6162C35.7504 36.5649 35.8255 36.5906 35.9005 36.6419C36.8755 37.2316 37.9005 37.6419 39.0005 37.8983C39.9505 38.1547 40.9505 38.2829 41.9505 38.2829C42.9005 38.2829 43.5755 38.1547 44.0255 37.9239C44.4255 37.7444 44.7005 37.3085 44.7005 36.847C44.7005 36.488 44.5005 36.1547 44.1005 35.8213C43.7005 35.488 42.8755 35.1034 41.6505 34.6162C40.3755 34.1547 39.2004 33.5393 38.1004 32.7701C37.3254 32.206 36.6755 31.4624 36.2005 30.5906C35.8005 29.7701 35.6005 28.8726 35.6255 27.9752C35.6255 26.8726 35.9254 25.8213 36.4754 24.8726C37.1004 23.847 38.0254 23.0265 39.1004 22.5136C40.2754 21.8983 41.7505 21.6162 43.5255 21.6162C44.5505 21.6162 45.6005 21.6931 46.6255 21.847C47.3755 21.9495 48.1005 22.1547 48.7755 22.4367C48.8755 22.4624 48.9755 22.5649 49.0255 22.6675C49.0505 22.7701 49.0755 22.8726 49.0755 22.9752V27.1547C49.0755 27.2572 49.0255 27.3598 48.9505 27.4111C48.7255 27.4624 48.6005 27.4624 48.5005 27.4111Z" fill="#31A8FF"/>
</svg>
