<svg width="32" height="32" viewBox="0 0 32 32" fill="none" xmlns="http://www.w3.org/2000/svg">
<g clip-path="url(#clip0_7_1794)">
<path fill-rule="evenodd" clip-rule="evenodd" d="M18.3491 23.7047C18.3491 24.3675 17.8118 24.9047 17.1491 24.9047H14.4218C13.7591 24.9047 13.2218 24.3675 13.2218 23.7047V17.8676H12.1414C11.4787 17.8676 10.9414 17.3303 10.9414 16.6676V13.9242C10.9414 13.2615 11.4787 12.7242 12.1414 12.7242H13.2218V11.9013C13.2218 10.4925 13.6404 9.25823 14.5046 8.37124C15.3705 7.48253 16.5538 7.07617 17.8187 7.07617C18.8321 7.07617 19.7157 7.15381 20.0162 7.19436C20.6115 7.2747 21.0557 7.78286 21.0557 8.38358V10.8373C21.0557 11.4998 20.5187 12.037 19.8562 12.0373L18.4586 12.0379C18.418 12.0379 18.3824 12.0391 18.3523 12.0409C18.3502 12.0789 18.3491 12.1226 18.3491 12.173V12.7242H19.7637C20.1077 12.7242 20.4352 12.8719 20.663 13.1298C20.8908 13.3876 20.9969 13.7309 20.9545 14.0723L20.6134 16.8156C20.5387 17.4165 20.0281 17.8676 19.4226 17.8676H18.3491V23.7047ZM19.4226 16.6676H17.1491V23.7047H14.4218V16.6676H12.1414V13.9242H14.4218V11.9013C14.4218 9.5544 15.8023 8.27617 17.8187 8.27617C18.7843 8.27617 19.614 8.35096 19.8557 8.38358V10.8373L18.4581 10.8379C17.3605 10.8379 17.1491 11.379 17.1491 12.173V13.9242H19.7637L19.4226 16.6676Z" fill="black"/>
</g>
<defs>
<clipPath id="clip0_7_1794">
<rect width="18" height="18" fill="white" transform="translate(7 6.99023)"/>
</clipPath>
</defs>
</svg>
