<svg width="32" height="32" viewBox="0 0 32 32" fill="none" xmlns="http://www.w3.org/2000/svg">
<path fill-rule="evenodd" clip-rule="evenodd" d="M23.4894 23.4795C23.9427 23.0263 24.2963 22.4833 24.5275 21.8855C24.75 21.313 24.9021 20.6588 24.9458 19.7008C24.9896 18.7409 25 18.4344 25 15.9902C25 13.546 24.9896 13.2393 24.9458 12.2795C24.9021 11.3216 24.75 10.6674 24.5275 10.0949C24.3015 9.49438 23.9473 8.95038 23.4894 8.50084C23.0399 8.04292 22.4958 7.68859 21.8953 7.46256C21.3228 7.24024 20.6686 7.08812 19.7106 7.04457C18.7508 7.00059 18.4443 6.99023 16 6.99023C13.5558 6.99023 13.2492 7.00059 12.2894 7.04439C11.3314 7.08812 10.6772 7.24024 10.1047 7.46274C9.50422 7.68872 8.96022 8.04298 8.51068 8.50081C8.05275 8.95032 7.69839 9.49432 7.47232 10.0949C7.25001 10.6674 7.09789 11.3216 7.05434 12.2795C7.01036 13.2393 7 13.5459 7 15.9902C7 18.4344 7.01036 18.741 7.05434 19.7008C7.09807 20.6588 7.25018 21.313 7.47268 21.8855C7.69867 22.486 8.05292 23.03 8.51075 23.4795C8.96029 23.9374 9.50429 24.2916 10.1048 24.5176C10.6773 24.7401 11.3315 24.8922 12.2894 24.9359C13.2494 24.9797 13.5559 24.9901 16.0001 24.9901C18.4443 24.9901 18.7509 24.9797 19.7107 24.9359C20.6687 24.8922 21.3229 24.7401 21.8954 24.5176C22.4932 24.2864 23.0362 23.9328 23.4894 23.4795ZM8.38501 14.9309V14.931V14.9311C8.38536 15.2222 8.38578 15.5685 8.38578 15.9902C8.38578 16.4119 8.38536 16.7582 8.38501 17.0493V17.0494V17.0495C8.38363 18.1861 8.38328 18.4805 8.4129 19.127C8.44975 19.9376 8.49403 20.5332 8.62925 20.9821C8.75922 21.4137 8.90501 21.8529 9.38097 22.383C9.85693 22.913 10.316 23.1531 10.9008 23.3295C11.4856 23.5058 12.2205 23.5437 12.8587 23.5729C13.5826 23.6059 13.8695 23.6058 15.3878 23.6054L16.0011 23.6053C16.4058 23.6053 16.7411 23.6057 17.0248 23.606H17.0259H17.0269C18.1914 23.6073 18.4854 23.6076 19.1382 23.5777C19.9488 23.5408 20.5444 23.4965 20.9934 23.3613C21.4249 23.2313 21.8641 23.0856 22.3942 22.6096C22.9242 22.1336 23.1643 21.6745 23.3407 21.0898C23.5171 20.505 23.555 19.77 23.5841 19.1319C23.6171 18.4089 23.617 18.1228 23.6166 16.6096L23.6165 15.9907L23.6166 15.3774C23.617 13.859 23.6171 13.5722 23.584 12.8483C23.5549 12.2101 23.517 11.4751 23.3406 10.8904C23.1643 10.3056 22.9242 9.8465 22.3941 9.37054C21.8641 8.89459 21.4248 8.7488 20.9933 8.61882C20.5444 8.4836 19.9487 8.43932 19.1382 8.40248C18.4853 8.37256 18.1914 8.37289 17.0269 8.37416L17.0267 8.37416H17.0266C16.7425 8.37447 16.4066 8.37484 16.0011 8.37484L15.3877 8.37474C13.8695 8.37433 13.5826 8.37425 12.8587 8.40728C12.2205 8.43639 11.4856 8.4743 10.9008 8.65067C10.316 8.82704 9.85693 9.06713 9.38097 9.59717C8.90501 10.1272 8.75922 10.5665 8.62925 10.998C8.49403 11.4469 8.44975 12.0426 8.4129 12.8532C8.38328 13.4997 8.38363 13.7942 8.38501 14.9309V14.9309V14.9309ZM15.9992 12.932C14.3106 12.932 12.9418 14.3008 12.9418 15.9894C12.9418 17.678 14.3106 19.0469 15.9992 19.0469C17.6878 19.0469 19.0566 17.678 19.0566 15.9894C19.0566 14.3008 17.6878 12.932 15.9992 12.932ZM11.4418 15.9894C11.4418 13.4724 13.4822 11.432 15.9992 11.432C18.5162 11.432 20.5566 13.4724 20.5566 15.9894C20.5566 18.5064 18.5162 20.5469 15.9992 20.5469C13.4822 20.5469 11.4418 18.5064 11.4418 15.9894ZM20.8033 12.225C21.3768 12.225 21.8417 11.7601 21.8417 11.1865C21.8417 10.613 21.3768 10.1481 20.8033 10.1481C20.2298 10.1481 19.7648 10.613 19.7648 11.1865C19.7648 11.7601 20.2298 12.225 20.8033 12.225Z" fill="black"/>
</svg>
