<svg width="165" height="40" viewBox="0 0 165 40" fill="none" xmlns="http://www.w3.org/2000/svg">
<path d="M25.5254 1.66675H11.4772L0.167969 12.976V27.0242L11.4772 38.3334H25.5254L36.8346 27.0242V12.976L25.5254 1.66675ZM13.421 27.2009L6.17602 19.9559L13.421 12.7109C16.1599 9.97197 20.666 9.97197 23.4049 12.7109L30.6499 19.9559L23.4049 27.2009C20.666 29.9398 16.2483 29.9398 13.421 27.2009Z" fill="#ABABAB"/>
<path d="M52.9516 28.5333C55.2016 28.5333 57.0516 27.3833 57.6266 25.6583V28.3333H60.9516V21.5833C60.9516 20.0583 59.7516 18.7583 58.1266 18.7583H53.3766V21.5833H56.7516C57.1766 21.5833 57.4516 21.8583 57.4516 22.2833C57.4516 23.9083 55.3016 25.4833 53.1266 25.4833C50.2266 25.4833 47.9266 23.2083 47.9266 19.5833C47.9266 15.9583 50.2266 13.8583 53.2016 13.8583C55.4516 13.8583 57.0016 15.0833 57.2766 16.9583H61.0016C60.7766 13.2083 57.6266 10.6333 53.2266 10.6333C48.6016 10.6333 44.3516 13.6083 44.3516 19.5833C44.3516 25.5583 48.4766 28.5333 52.9516 28.5333Z" fill="#ABABAB"/>
<path d="M62.3789 28.3333H65.8539V10.2583H62.3789V28.3333Z" fill="#ABABAB"/>
<path d="M73.3498 28.5333C77.2248 28.5333 79.9998 25.7833 79.9998 22.0333C79.9998 18.2833 77.2248 15.5333 73.3498 15.5333C69.4748 15.5333 66.6998 18.2833 66.6998 22.0333C66.6998 25.7833 69.4748 28.5333 73.3498 28.5333ZM73.3498 25.5333C71.4748 25.5333 70.1998 24.1083 70.1998 22.0333C70.1998 19.9333 71.4748 18.5083 73.3498 18.5083C75.2248 18.5083 76.4998 19.9333 76.4998 22.0333C76.4998 24.1083 75.2248 25.5333 73.3498 25.5333Z" fill="#ABABAB"/>
<path d="M87.7756 28.5333C91.5006 28.5333 93.7256 25.9583 93.7256 22.0333C93.7256 18.1083 91.5006 15.5333 87.8256 15.5333C86.2506 15.5333 85.0256 16.1333 84.3256 17.0583V10.2583H80.8506V28.3333H84.3256V26.9583C85.0256 27.9333 86.3256 28.5333 87.7756 28.5333ZM87.2256 25.5333C85.3506 25.5333 84.1256 24.1333 84.1256 22.0333C84.1256 19.9083 85.3506 18.5083 87.2256 18.5083C89.0506 18.5083 90.3006 19.9083 90.3006 22.0333C90.3006 24.1333 89.0506 25.5333 87.2256 25.5333Z" fill="#ABABAB"/>
<path d="M99.5426 15.5333C96.0926 15.5333 94.0426 17.5583 93.8926 20.0833H96.9926C97.0426 19.0333 97.8176 18.0833 99.3426 18.0833C100.768 18.0833 101.593 18.8083 101.593 19.8583C101.593 20.3833 101.268 20.7833 100.643 20.7833H98.5176C95.7676 20.7833 93.9176 22.2833 93.9176 24.7583C93.9176 26.9083 95.5926 28.5333 98.0426 28.5333C99.7676 28.5333 101.168 27.7583 101.593 26.5833V28.3333H105.043V20.2333C105.043 17.3833 102.718 15.5333 99.5426 15.5333ZM98.9176 26.0083C97.9426 26.0083 97.2426 25.4333 97.2426 24.6083C97.2426 23.6333 97.9926 22.9833 99.0426 22.9833H101.593V23.1583C101.593 24.7583 100.618 26.0083 98.9176 26.0083Z" fill="#ABABAB"/>
<path d="M106.378 28.3333H109.853V10.2583H106.378V28.3333Z" fill="#ABABAB"/>
<path d="M111.699 28.3333H118.849C122.549 28.3333 125.099 26.4333 125.099 23.1083C125.099 20.8083 123.749 19.4083 122.149 18.7833C123.174 18.2333 124.199 16.9833 124.199 15.3333C124.199 12.4083 121.824 10.8333 118.649 10.8333H111.699V28.3333ZM115.399 17.5083V13.8083H118.299C119.974 13.8083 120.724 14.4833 120.724 15.6583C120.724 16.8333 119.974 17.5083 118.374 17.5083H115.399ZM115.399 25.0833V20.6833H118.524C120.599 20.6833 121.524 21.4833 121.524 22.9083C121.524 24.3333 120.599 25.0833 118.524 25.0833H115.399Z" fill="#ABABAB"/>
<path d="M131.144 15.5333C127.694 15.5333 125.644 17.5583 125.494 20.0833H128.594C128.644 19.0333 129.419 18.0833 130.944 18.0833C132.369 18.0833 133.194 18.8083 133.194 19.8583C133.194 20.3833 132.869 20.7833 132.244 20.7833H130.119C127.369 20.7833 125.519 22.2833 125.519 24.7583C125.519 26.9083 127.194 28.5333 129.644 28.5333C131.369 28.5333 132.769 27.7583 133.194 26.5833V28.3333H136.644V20.2333C136.644 17.3833 134.319 15.5333 131.144 15.5333ZM130.519 26.0083C129.544 26.0083 128.844 25.4333 128.844 24.6083C128.844 23.6333 129.594 22.9833 130.644 22.9833H133.194V23.1583C133.194 24.7583 132.219 26.0083 130.519 26.0083Z" fill="#ABABAB"/>
<path d="M137.78 28.3333H141.28V21.4333C141.28 19.8083 142.355 18.6333 143.88 18.6333C145.33 18.6333 146.305 19.7333 146.305 21.2583V28.3333H149.805V20.4833C149.805 17.5833 147.955 15.5333 145.105 15.5333C143.38 15.5333 141.98 16.2583 141.28 17.4833V15.7333H137.78V28.3333Z" fill="#ABABAB"/>
<path d="M159.78 28.3333H163.98L158.555 20.6833L163.58 15.7333H159.18L154.805 20.0333V10.2583H151.305V28.3333H154.805V24.3833L156.205 23.0083L159.78 28.3333Z" fill="#ABABAB"/>
</svg>
