<svg width="108" height="40" viewBox="0 0 108 40" fill="none" xmlns="http://www.w3.org/2000/svg">
<path fill-rule="evenodd" clip-rule="evenodd" d="M-15.6667 38.3334C-5.54144 38.3334 2.66667 30.1253 2.66667 20.0001C2.66667 9.87487 -5.54144 1.66675 -15.6667 1.66675C-25.7919 1.66675 -34 9.87487 -34 20.0001C-34 30.1253 -25.7919 38.3334 -15.6667 38.3334ZM-9.9473 10.2072C-9.66891 9.2183 -10.6286 8.63354 -11.505 9.25794L-23.7396 17.9739C-24.6901 18.651 -24.5406 20.0001 -23.5151 20.0001H-20.2933V19.9751H-14.0144L-19.1306 21.7803L-21.386 29.793C-21.6644 30.7819 -20.7048 31.3666 -19.8283 30.7422L-7.59367 22.0264C-6.64318 21.3492 -6.79278 20.0001 -7.81825 20.0001H-12.7039L-9.9473 10.2072Z" fill="#ABABAB"/>
<path d="M12.1484 28.2577V25.3577H14.4484V13.6577H12.1484V10.7577H21.1484C22.2151 10.7577 23.1401 10.941 23.9234 11.3077C24.7234 11.6577 25.3401 12.166 25.7734 12.8327C26.2234 13.4827 26.4484 14.266 26.4484 15.1827V15.4327C26.4484 16.2327 26.2984 16.891 25.9984 17.4077C25.6984 17.9077 25.3401 18.2994 24.9234 18.5827C24.5234 18.8494 24.1401 19.041 23.7734 19.1577V19.6077C24.1401 19.7077 24.5401 19.8994 24.9734 20.1827C25.4068 20.4494 25.7734 20.8411 26.0734 21.3577C26.3901 21.8744 26.5484 22.5494 26.5484 23.3827V23.6327C26.5484 24.5994 26.3234 25.4327 25.8734 26.1327C25.4234 26.8161 24.7984 27.3411 23.9984 27.7077C23.2151 28.0744 22.2984 28.2577 21.2484 28.2577H12.1484ZM17.7484 25.2577H20.8484C21.5651 25.2577 22.1401 25.0827 22.5734 24.7327C23.0234 24.3827 23.2484 23.8827 23.2484 23.2327V22.9827C23.2484 22.3327 23.0318 21.8327 22.5984 21.4827C22.1651 21.1327 21.5818 20.9577 20.8484 20.9577H17.7484V25.2577ZM17.7484 17.9577H20.7984C21.4818 17.9577 22.0401 17.7827 22.4734 17.4327C22.9234 17.0827 23.1484 16.5994 23.1484 15.9827V15.7327C23.1484 15.0994 22.9318 14.616 22.4984 14.2827C22.0651 13.9327 21.4984 13.7577 20.7984 13.7577H17.7484V17.9577Z" fill="#ABABAB"/>
<path d="M34 28.6077C32.7667 28.6077 31.6583 28.3577 30.675 27.8577C29.6917 27.3577 28.9167 26.6327 28.35 25.6827C27.7833 24.7327 27.5 23.5911 27.5 22.2577V21.8577C27.5 20.5244 27.7833 19.3827 28.35 18.4327C28.9167 17.4827 29.6917 16.7577 30.675 16.2577C31.6583 15.7577 32.7667 15.5077 34 15.5077C35.2333 15.5077 36.3417 15.7577 37.325 16.2577C38.3083 16.7577 39.0833 17.4827 39.65 18.4327C40.2167 19.3827 40.5 20.5244 40.5 21.8577V22.2577C40.5 23.5911 40.2167 24.7327 39.65 25.6827C39.0833 26.6327 38.3083 27.3577 37.325 27.8577C36.3417 28.3577 35.2333 28.6077 34 28.6077ZM34 25.8077C34.9667 25.8077 35.7667 25.4994 36.4 24.8827C37.0333 24.2494 37.35 23.3494 37.35 22.1827V21.9327C37.35 20.7661 37.0333 19.8744 36.4 19.2577C35.7833 18.6244 34.9833 18.3077 34 18.3077C33.0333 18.3077 32.2333 18.6244 31.6 19.2577C30.9667 19.8744 30.65 20.7661 30.65 21.9327V22.1827C30.65 23.3494 30.9667 24.2494 31.6 24.8827C32.2333 25.4994 33.0333 25.8077 34 25.8077Z" fill="#ABABAB"/>
<path d="M42.1576 28.2577V10.7577H45.3076V28.2577H42.1576Z" fill="#ABABAB"/>
<path d="M52.2982 28.2577C51.4816 28.2577 50.8149 28.0077 50.2982 27.5077C49.7982 26.9911 49.5482 26.3077 49.5482 25.4577V18.4577H46.4482V15.8577H49.5482V12.0077H52.6982V15.8577H56.0982V18.4577H52.6982V24.9077C52.6982 25.4077 52.9316 25.6577 53.3982 25.6577H55.7982V28.2577H52.2982Z" fill="#ABABAB"/>
<path d="M62.8496 28.6077C61.2329 28.6077 59.9079 28.2577 58.8746 27.5577C57.8413 26.8577 57.2163 25.8577 56.9996 24.5577L59.8996 23.8077C60.0163 24.3911 60.2079 24.8494 60.4746 25.1827C60.7579 25.5161 61.0996 25.7577 61.4996 25.9077C61.9163 26.0411 62.3663 26.1077 62.8496 26.1077C63.5829 26.1077 64.1246 25.9827 64.4746 25.7327C64.8246 25.4661 64.9996 25.141 64.9996 24.7577C64.9996 24.3744 64.8329 24.0827 64.4996 23.8827C64.1663 23.6661 63.6329 23.491 62.8996 23.3577L62.1996 23.2327C61.3329 23.066 60.5413 22.8411 59.8246 22.5577C59.1079 22.2577 58.5329 21.8494 58.0996 21.3327C57.6663 20.8161 57.4496 20.1494 57.4496 19.3327C57.4496 18.0994 57.8996 17.1577 58.7996 16.5077C59.6996 15.841 60.8829 15.5077 62.3496 15.5077C63.7329 15.5077 64.8829 15.816 65.7996 16.4327C66.7163 17.0494 67.3163 17.8577 67.5996 18.8577L64.6746 19.7577C64.5413 19.1244 64.2663 18.6744 63.8496 18.4077C63.4496 18.141 62.9496 18.0077 62.3496 18.0077C61.7496 18.0077 61.2913 18.116 60.9746 18.3327C60.6579 18.5327 60.4996 18.816 60.4996 19.1827C60.4996 19.5827 60.6663 19.8827 60.9996 20.0827C61.3329 20.266 61.7829 20.4077 62.3496 20.5077L63.0496 20.6327C63.9829 20.7994 64.8246 21.0244 65.5746 21.3077C66.3413 21.5744 66.9413 21.9661 67.3746 22.4827C67.8246 22.9827 68.0496 23.6661 68.0496 24.5327C68.0496 25.8327 67.5746 26.8411 66.6246 27.5577C65.6913 28.2577 64.4329 28.6077 62.8496 28.6077Z" fill="#ABABAB"/>
<path d="M69.56 28.2577V10.7577H72.71V17.3827H73.16C73.2933 17.116 73.5016 16.8494 73.785 16.5827C74.0683 16.316 74.4433 16.0994 74.91 15.9327C75.3933 15.7494 76.0016 15.6577 76.735 15.6577C77.7016 15.6577 78.5433 15.8827 79.26 16.3327C79.9933 16.766 80.56 17.3744 80.96 18.1577C81.36 18.9244 81.56 19.8244 81.56 20.8577V28.2577H78.41V21.1077C78.41 20.1744 78.1766 19.4744 77.71 19.0077C77.26 18.541 76.61 18.3077 75.76 18.3077C74.7933 18.3077 74.0433 18.6327 73.51 19.2827C72.9766 19.916 72.71 20.8077 72.71 21.9577V28.2577H69.56Z" fill="#ABABAB"/>
<path d="M83.7152 28.2577V15.8577H86.8652V28.2577H83.7152ZM85.2902 14.4077C84.7236 14.4077 84.2402 14.2244 83.8402 13.8577C83.4569 13.491 83.2652 13.0077 83.2652 12.4077C83.2652 11.8077 83.4569 11.3244 83.8402 10.9577C84.2402 10.591 84.7236 10.4077 85.2902 10.4077C85.8736 10.4077 86.3569 10.591 86.7402 10.9577C87.1236 11.3244 87.3152 11.8077 87.3152 12.4077C87.3152 13.0077 87.1236 13.491 86.7402 13.8577C86.3569 14.2244 85.8736 14.4077 85.2902 14.4077Z" fill="#ABABAB"/>
<path d="M91.1559 28.2577V18.4577H88.0059V15.8577H91.1559V13.5577C91.1559 12.7077 91.4059 12.0327 91.9059 11.5327C92.4225 11.016 93.0892 10.7577 93.9059 10.7577H97.1559V13.3577H95.0059C94.5392 13.3577 94.3059 13.6077 94.3059 14.1077V15.8577H97.5559V18.4577H94.3059V28.2577H91.1559Z" fill="#ABABAB"/>
<path d="M103.25 28.2577C102.434 28.2577 101.767 28.0077 101.25 27.5077C100.75 26.9911 100.5 26.3077 100.5 25.4577V18.4577H97.4004V15.8577H100.5V12.0077H103.65V15.8577H107.05V18.4577H103.65V24.9077C103.65 25.4077 103.884 25.6577 104.35 25.6577H106.75V28.2577H103.25Z" fill="#ABABAB"/>
</svg>
