<svg width="126" height="40" viewBox="0 0 126 40" fill="none" xmlns="http://www.w3.org/2000/svg">
<g clip-path="url(#clip0_1231_45011)">
<path d="M24.3063 3.43491L20.5957 2.49243L17.4687 13.5546L14.6457 3.5676L10.935 4.51008L13.9851 15.3003L6.38791 8.09884L3.67155 10.6737L12.0048 18.573L1.62707 15.9371L0.632812 19.4544L11.9717 22.3344C11.8419 21.8037 11.7732 21.2506 11.7732 20.6824C11.7732 16.6601 15.213 13.3995 19.4563 13.3995C23.6995 13.3995 27.1393 16.6601 27.1393 20.6824C27.1393 21.247 27.0715 21.7966 26.9433 22.3242L37.2483 24.9416L38.2425 21.4243L26.8585 18.5328L37.2369 15.8968L36.2426 12.3794L24.859 15.2707L32.4562 8.06927L29.7399 5.49438L21.5223 13.284L24.3063 3.43491Z" fill="#ABABAB"/>
<path d="M26.9324 22.3652C26.6143 23.6401 25.9427 24.7855 25.0211 25.7031L32.4866 32.7799L35.203 30.205L26.9324 22.3652Z" fill="#ABABAB"/>
<path d="M24.9458 25.7771C24.0131 26.6801 22.8344 27.3539 21.5126 27.7012L24.2292 37.3115L27.9398 36.3689L24.9458 25.7771Z" fill="#ABABAB"/>
<path d="M21.3741 27.7364C20.7608 27.8858 20.118 27.9652 19.4556 27.9652C18.746 27.9652 18.0588 27.874 17.4064 27.7033L14.6874 37.3223L18.3979 38.2647L21.3741 27.7364Z" fill="#ABABAB"/>
<path d="M17.2752 27.6678C15.9736 27.3033 14.8159 26.6209 13.9023 25.7153L6.4184 32.8094L9.13476 35.3843L17.2752 27.6678Z" fill="#ABABAB"/>
<path d="M13.8406 25.6526C12.9426 24.7413 12.2885 23.6112 11.9772 22.356L1.63856 24.9819L2.63282 28.4992L13.8406 25.6526Z" fill="#ABABAB"/>
</g>
<path d="M60.5703 10.7576V23.4326L51.9989 10.7576H48.5703V28.2576H51.9989V15.6826L60.5703 28.2576H63.9989V10.7576H60.5703Z" fill="#ABABAB"/>
<path d="M65.5438 14.0326H69.0779V10.7576H65.5438V14.0326ZM65.5965 28.2576V15.7576H69.0251V28.2576H65.5965Z" fill="#ABABAB"/>
<path d="M83.7768 22.0076C83.7768 17.6826 80.5329 15.6326 77.1043 15.6076C73.6494 15.5826 70.4582 17.6826 70.4582 22.0076C70.4582 26.3326 73.6494 28.4326 77.1043 28.4076C80.2428 28.3826 82.4054 27.0076 83.4076 24.7326L80.7439 23.6826C79.9263 25.2326 78.634 25.7826 77.1043 25.8076C75.7856 25.8326 74.2823 25.2326 73.9658 23.0076H83.6977C83.7505 22.6826 83.7768 22.3576 83.7768 22.0076ZM77.1043 18.1826C78.423 18.2076 79.768 18.8826 80.19 20.6826H74.0186C74.4669 18.8576 75.812 18.1576 77.1043 18.1826Z" fill="#ABABAB"/>
<path d="M91.7005 18.0826V15.6076H89.5378V12.2576L86.1093 13.2576V15.6076H83.9466V18.0826H86.1093V24.5576C86.1093 27.0076 86.3202 28.2576 90.329 28.2576H91.2521V25.4076H90.329C89.6961 25.4076 89.5378 25.3076 89.5378 24.5576V18.0826H91.7005Z" fill="#ABABAB"/>
<path d="M96.7951 25.5326L104.074 18.4826V15.7576H93.1555V18.4826H100.224L92.9446 25.5326V28.2576H104.153V25.5326H96.7951Z" fill="#ABABAB"/>
<path d="M105.383 24.7326L108.838 24.2326C109.075 25.4826 110.631 25.9576 111.58 25.9576C112.556 25.9576 114.244 25.7576 114.244 24.2576C114.244 21.3326 105.778 24.9826 105.778 19.3826C105.778 15.7826 110.183 15.5826 111.58 15.5826C112.899 15.5826 116.723 15.7826 117.514 18.6826L114.244 19.3326C113.954 18.0076 112.477 17.7576 111.686 17.7576C110.895 17.7576 109.207 17.9326 109.207 19.3826C109.207 22.2826 117.673 18.5826 117.673 24.2576C117.673 28.0826 113.031 28.4076 111.58 28.4076C110.262 28.4076 106.068 28.0826 105.383 24.7326Z" fill="#ABABAB"/>
<path d="M122.127 22.0076C122.127 25.0576 123.841 25.9826 125.634 25.9576C127.243 25.9326 128.351 25.3076 129.01 23.5576L131.832 24.8576C130.804 27.4076 128.298 28.3826 125.634 28.4076C122.18 28.4326 118.698 26.3326 118.698 22.0076C118.698 17.6826 122.18 15.5826 125.634 15.6076C128.298 15.6326 130.804 16.6076 131.832 19.1576L129.01 20.4576C128.351 18.7076 127.243 18.0826 125.634 18.0576C123.841 18.0326 122.127 18.9576 122.127 22.0076Z" fill="#ABABAB"/>
<path d="M141.036 15.5576C139.269 15.5576 137.661 16.4326 136.632 18.3076V10.7576H133.203V28.2576H136.632V23.8326C136.632 18.1076 139.138 17.6326 140.061 17.6326C141.538 17.6326 141.749 19.0826 141.749 21.2076V28.2576H145.177V21.2076C145.177 18.5576 144.729 15.5576 141.036 15.5576Z" fill="#ABABAB"/>
<path d="M159.653 22.0076C159.653 17.6826 156.409 15.6326 152.98 15.6076C149.525 15.5826 146.334 17.6826 146.334 22.0076C146.334 26.3326 149.525 28.4326 152.98 28.4076C156.118 28.3826 158.281 27.0076 159.283 24.7326L156.62 23.6826C155.802 25.2326 154.51 25.7826 152.98 25.8076C151.661 25.8326 150.158 25.2326 149.842 23.0076H159.573C159.626 22.6826 159.653 22.3576 159.653 22.0076ZM152.98 18.1826C154.299 18.2076 155.644 18.8826 156.066 20.6826H149.894C150.343 18.8576 151.688 18.1576 152.98 18.1826Z" fill="#ABABAB"/>
<defs>
<clipPath id="clip0_1231_45011">
<rect width="38.6813" height="36.6667" fill="white" transform="translate(0.332031 1.66675)"/>
</clipPath>
</defs>
</svg>
