<svg width="166" height="40" viewBox="0 0 166 40" fill="none" xmlns="http://www.w3.org/2000/svg">
<path opacity="0.8" d="M31.089 9.30261C30.7288 8.94242 30.3686 8.58224 30.0084 8.22206C28.9279 7.06947 27.7753 5.91688 26.3345 5.19652C24.6777 4.33208 22.8768 4.54818 21.0759 4.54818C18.3385 4.54818 11.495 4.54818 7.46094 4.54818L10.1983 8.22206C15.1689 8.22206 22.9488 8.22206 26.5507 8.22206C28.0634 8.22206 29.3601 8.5102 30.5847 9.30261C30.8008 9.37464 31.0169 9.37464 31.089 9.30261Z" fill="#ABABAB"/>
<path opacity="0.9" d="M34.1114 15.2098C33.7512 14.8496 33.391 14.4895 33.0308 14.1293C31.9503 12.9767 30.7977 11.8241 29.3569 11.1037C27.7001 10.2393 25.8992 10.4554 24.0983 10.4554C21.721 10.4554 16.0301 10.4554 11.9961 10.4554L14.7335 14.1293C19.632 14.1293 26.3314 14.1293 29.6451 14.1293C31.1579 14.1293 32.4545 14.4174 33.6791 15.2098C33.8232 15.2819 33.9673 15.2819 34.1114 15.2098Z" fill="#ABABAB"/>
<path d="M37.4974 20.9725C37.1372 20.6123 36.777 20.2522 36.4168 19.892C35.3363 18.7394 34.1837 17.5868 32.743 16.8664C31.0861 16.002 29.2852 16.2181 27.4843 16.2181C25.2511 16.2181 20.3526 16.2181 16.3906 16.2181L19.128 19.892C23.8824 19.892 29.9335 19.892 32.9591 19.892C34.4718 19.892 35.7685 20.1801 36.9931 20.9725C37.2092 21.0446 37.3533 21.1166 37.4974 20.9725Z" fill="#ABABAB"/>
<path opacity="0.8" d="M7.17188 30.6976C7.53206 31.0578 7.89224 31.4179 8.25243 31.7781C9.33298 32.9307 10.4856 34.0833 11.9263 34.8037C13.5831 35.6681 15.3841 35.452 17.185 35.452H30.7999L28.0625 31.7781C23.092 31.7781 15.312 31.7781 11.7102 31.7781C10.1974 31.7781 8.90075 31.49 7.67613 30.6976C7.46002 30.6255 7.31595 30.6255 7.17188 30.6976Z" fill="#ABABAB"/>
<path opacity="0.9" d="M4.14453 24.7906C4.50471 25.1508 4.8649 25.511 5.22508 25.8712C6.30563 27.0237 7.45821 28.1763 8.89895 28.8967C10.5558 29.7611 12.3567 29.545 14.1576 29.545H26.2598L23.5224 25.8712C18.6239 25.8712 11.9245 25.8712 8.6108 25.8712C7.09803 25.8712 5.80137 25.583 4.57674 24.7906C4.43267 24.7186 4.2886 24.7186 4.14453 24.7906Z" fill="#ABABAB"/>
<path d="M0.832031 18.9554C1.19221 19.3156 1.5524 19.6758 1.91258 20.0359C2.99313 21.1885 4.14572 22.3411 5.58646 23.0615C7.2433 23.9259 9.04421 23.7098 10.8451 23.7098H21.9388L19.2014 20.0359C14.447 20.0359 8.39588 20.0359 5.37034 20.0359C3.85757 20.0359 2.56091 19.7478 1.33629 18.9554C1.12018 18.8834 0.976105 18.8834 0.832031 18.9554Z" fill="#ABABAB"/>
<path d="M45.7734 11.6733V28.3333H49.4368V21.45H56.4134V18.6033H49.4368V14.7533H57.4868V11.6733H45.7734Z" fill="#ABABAB"/>
<path d="M66.6748 21.0067H61.2848C61.3004 20.7733 61.347 20.5089 61.4248 20.2133C61.5182 19.9178 61.6659 19.6378 61.8682 19.3733C62.0859 19.1089 62.3659 18.8911 62.7082 18.72C63.0659 18.5333 63.5093 18.44 64.0382 18.44C64.847 18.44 65.4459 18.6578 65.8348 19.0933C66.2393 19.5289 66.5193 20.1667 66.6748 21.0067ZM61.2848 23.1067H69.9882C70.0504 22.1733 69.9726 21.2789 69.7548 20.4233C69.537 19.5678 69.1793 18.8056 68.6815 18.1367C68.1993 17.4678 67.577 16.9389 66.8148 16.55C66.0526 16.1456 65.1582 15.9433 64.1315 15.9433C63.2137 15.9433 62.3737 16.1067 61.6115 16.4333C60.8648 16.76 60.2193 17.2111 59.6748 17.7867C59.1304 18.3467 58.7104 19.0156 58.4148 19.7933C58.1193 20.5711 57.9715 21.4111 57.9715 22.3133C57.9715 23.2467 58.1115 24.1022 58.3915 24.88C58.687 25.6578 59.0993 26.3267 59.6282 26.8867C60.157 27.4467 60.8026 27.8822 61.5648 28.1933C62.327 28.4889 63.1826 28.6367 64.1315 28.6367C65.5004 28.6367 66.667 28.3256 67.6315 27.7033C68.5959 27.0811 69.3115 26.0467 69.7782 24.6H66.8615C66.7526 24.9733 66.457 25.3311 65.9748 25.6733C65.4926 26 64.917 26.1633 64.2481 26.1633C63.3148 26.1633 62.5993 25.9222 62.1015 25.44C61.6037 24.9578 61.3315 24.18 61.2848 23.1067Z" fill="#ABABAB"/>
<path d="M71.1133 19.98C71.1599 19.2022 71.3544 18.5567 71.6966 18.0433C72.0388 17.53 72.4744 17.1178 73.0033 16.8067C73.5321 16.4956 74.1233 16.2778 74.7766 16.1533C75.4455 16.0133 76.1144 15.9433 76.7833 15.9433C77.3899 15.9433 78.0044 15.99 78.6266 16.0833C79.2488 16.1611 79.8166 16.3245 80.3299 16.5733C80.8433 16.8222 81.2633 17.1722 81.5899 17.6233C81.9166 18.0589 82.0799 18.6422 82.0799 19.3733V25.65C82.0799 26.1945 82.111 26.7156 82.1733 27.2133C82.2355 27.7111 82.3444 28.0845 82.4999 28.3333H79.1399C79.0777 28.1467 79.0233 27.96 78.9766 27.7733C78.9455 27.5711 78.9221 27.3689 78.9066 27.1667C78.3777 27.7111 77.7555 28.0922 77.0399 28.31C76.3244 28.5278 75.5933 28.6367 74.8466 28.6367C74.271 28.6367 73.7344 28.5667 73.2366 28.4267C72.7388 28.2867 72.3033 28.0689 71.9299 27.7733C71.5566 27.4778 71.261 27.1045 71.0433 26.6533C70.841 26.2022 70.7399 25.6656 70.7399 25.0433C70.7399 24.3589 70.8566 23.7989 71.0899 23.3633C71.3388 22.9122 71.6499 22.5545 72.0233 22.29C72.4121 22.0256 72.8477 21.8311 73.3299 21.7067C73.8277 21.5667 74.3255 21.4578 74.8233 21.38C75.321 21.3022 75.811 21.24 76.2933 21.1933C76.7755 21.1467 77.2033 21.0767 77.5766 20.9833C77.9499 20.89 78.2455 20.7578 78.4633 20.5867C78.681 20.4 78.7821 20.1356 78.7666 19.7933C78.7666 19.4356 78.7044 19.1556 78.5799 18.9533C78.471 18.7356 78.3155 18.5722 78.1133 18.4633C77.9266 18.3389 77.701 18.2611 77.4366 18.23C77.1877 18.1833 76.9155 18.16 76.6199 18.16C75.9666 18.16 75.4533 18.3 75.0799 18.58C74.7066 18.86 74.4888 19.3267 74.4266 19.98H71.1133ZM78.7666 22.43C78.6266 22.5545 78.4477 22.6556 78.2299 22.7333C78.0277 22.7956 77.8021 22.85 77.5533 22.8967C77.3199 22.9433 77.071 22.9822 76.8066 23.0133C76.5421 23.0445 76.2777 23.0833 76.0133 23.13C75.7644 23.1767 75.5155 23.2389 75.2666 23.3167C75.0333 23.3945 74.8233 23.5033 74.6366 23.6433C74.4655 23.7678 74.3255 23.9311 74.2166 24.1333C74.1077 24.3356 74.0533 24.5922 74.0533 24.9033C74.0533 25.1989 74.1077 25.4478 74.2166 25.65C74.3255 25.8522 74.4733 26.0156 74.6599 26.14C74.8466 26.2489 75.0644 26.3267 75.3133 26.3733C75.5621 26.42 75.8188 26.4433 76.0833 26.4433C76.7366 26.4433 77.2421 26.3345 77.5999 26.1167C77.9577 25.8989 78.2221 25.6422 78.3933 25.3467C78.5644 25.0356 78.6655 24.7245 78.6966 24.4133C78.7433 24.1022 78.7666 23.8533 78.7666 23.6667V22.43Z" fill="#ABABAB"/>
<path d="M88.1517 16.27V12.6533H84.8384V16.27H82.8317V18.4867H84.8384V25.6033C84.8384 26.21 84.9395 26.7 85.1417 27.0733C85.3439 27.4467 85.6161 27.7345 85.9584 27.9367C86.3161 28.1389 86.7206 28.2711 87.1717 28.3333C87.6384 28.4111 88.1284 28.45 88.6417 28.45C88.9684 28.45 89.3028 28.4422 89.645 28.4267C89.9873 28.4111 90.2984 28.38 90.5784 28.3333V25.7667C90.4228 25.7978 90.2595 25.8211 90.0884 25.8367C89.9173 25.8522 89.7384 25.86 89.5517 25.86C88.9917 25.86 88.6184 25.7667 88.4317 25.58C88.245 25.3933 88.1517 25.02 88.1517 24.46V18.4867H90.5784V16.27H88.1517Z" fill="#ABABAB"/>
<path d="M91.4548 11.6733V28.3333H94.7682V22.01C94.7682 20.7811 94.9704 19.9022 95.3748 19.3733C95.7793 18.8289 96.4326 18.5567 97.3348 18.5567C98.1282 18.5567 98.6804 18.8056 98.9915 19.3033C99.3026 19.7856 99.4582 20.5245 99.4582 21.52V28.3333H102.771V20.9133C102.771 20.1667 102.701 19.49 102.561 18.8833C102.437 18.2611 102.211 17.74 101.885 17.32C101.558 16.8845 101.107 16.55 100.531 16.3167C99.9715 16.0678 99.2482 15.9433 98.3615 15.9433C97.7393 15.9433 97.1015 16.1067 96.4482 16.4333C95.7948 16.7445 95.2582 17.25 94.8382 17.95H94.7682V11.6733H91.4548Z" fill="#ABABAB"/>
<path d="M112.706 21.0067H107.316C107.332 20.7733 107.378 20.5089 107.456 20.2133C107.55 19.9178 107.697 19.6378 107.9 19.3733C108.117 19.1089 108.397 18.8911 108.74 18.72C109.097 18.5333 109.541 18.44 110.07 18.44C110.878 18.44 111.477 18.6578 111.866 19.0933C112.271 19.5289 112.551 20.1667 112.706 21.0067ZM107.316 23.1067H116.02C116.082 22.1733 116.004 21.2789 115.786 20.4233C115.568 19.5678 115.211 18.8056 114.713 18.1367C114.231 17.4678 113.608 16.9389 112.846 16.55C112.084 16.1456 111.19 15.9433 110.163 15.9433C109.245 15.9433 108.405 16.1067 107.643 16.4333C106.896 16.76 106.251 17.2111 105.706 17.7867C105.162 18.3467 104.742 19.0156 104.446 19.7933C104.151 20.5711 104.003 21.4111 104.003 22.3133C104.003 23.2467 104.143 24.1022 104.423 24.88C104.718 25.6578 105.131 26.3267 105.66 26.8867C106.188 27.4467 106.834 27.8822 107.596 28.1933C108.358 28.4889 109.214 28.6367 110.163 28.6367C111.532 28.6367 112.698 28.3256 113.663 27.7033C114.627 27.0811 115.343 26.0467 115.81 24.6H112.893C112.784 24.9733 112.488 25.3311 112.006 25.6733C111.524 26 110.948 26.1633 110.28 26.1633C109.346 26.1633 108.631 25.9222 108.133 25.44C107.635 24.9578 107.363 24.18 107.316 23.1067Z" fill="#ABABAB"/>
<path d="M117.285 16.27V28.3333H120.598V22.8967C120.598 22.3522 120.652 21.8467 120.761 21.38C120.87 20.9133 121.049 20.5089 121.298 20.1667C121.562 19.8089 121.905 19.5289 122.325 19.3267C122.745 19.1245 123.258 19.0233 123.865 19.0233C124.067 19.0233 124.277 19.0389 124.495 19.07C124.712 19.0856 124.899 19.1089 125.055 19.14V16.06C124.79 15.9822 124.549 15.9433 124.331 15.9433C123.911 15.9433 123.507 16.0056 123.118 16.13C122.729 16.2545 122.364 16.4333 122.021 16.6667C121.679 16.8845 121.376 17.1567 121.111 17.4833C120.847 17.7945 120.637 18.1367 120.481 18.51H120.435V16.27H117.285Z" fill="#ABABAB"/>
<path d="M129.667 25.2533V14.7533H132.28C133.183 14.7533 133.937 14.8856 134.544 15.15C135.166 15.3989 135.664 15.7645 136.037 16.2467C136.41 16.7289 136.675 17.3122 136.83 17.9967C137.001 18.6656 137.087 19.42 137.087 20.26C137.087 21.1778 136.97 21.9556 136.737 22.5933C136.504 23.2311 136.193 23.7522 135.804 24.1567C135.415 24.5456 134.971 24.8256 134.474 24.9967C133.976 25.1678 133.463 25.2533 132.934 25.2533H129.667ZM126.004 11.6733V28.3333H133.19C134.466 28.3333 135.57 28.1233 136.504 27.7033C137.453 27.2678 138.238 26.6767 138.86 25.93C139.498 25.1833 139.973 24.2967 140.284 23.27C140.595 22.2433 140.75 21.1233 140.75 19.91C140.75 18.5256 140.556 17.32 140.167 16.2933C139.794 15.2667 139.265 14.4111 138.58 13.7267C137.911 13.0422 137.11 12.5289 136.177 12.1867C135.259 11.8445 134.264 11.6733 133.19 11.6733H126.004Z" fill="#ABABAB"/>
<path d="M150.369 21.0067H144.979C144.994 20.7733 145.041 20.5089 145.119 20.2133C145.212 19.9178 145.36 19.6378 145.562 19.3733C145.78 19.1089 146.06 18.8911 146.402 18.72C146.76 18.5333 147.203 18.44 147.732 18.44C148.541 18.44 149.14 18.6578 149.529 19.0933C149.933 19.5289 150.213 20.1667 150.369 21.0067ZM144.979 23.1067H153.682C153.744 22.1733 153.666 21.2789 153.449 20.4233C153.231 19.5678 152.873 18.8056 152.375 18.1367C151.893 17.4678 151.271 16.9389 150.509 16.55C149.746 16.1456 148.852 15.9433 147.825 15.9433C146.907 15.9433 146.067 16.1067 145.305 16.4333C144.559 16.76 143.913 17.2111 143.369 17.7867C142.824 18.3467 142.404 19.0156 142.109 19.7933C141.813 20.5711 141.665 21.4111 141.665 22.3133C141.665 23.2467 141.805 24.1022 142.085 24.88C142.381 25.6578 142.793 26.3267 143.322 26.8867C143.851 27.4467 144.496 27.8822 145.259 28.1933C146.021 28.4889 146.876 28.6367 147.825 28.6367C149.194 28.6367 150.361 28.3256 151.325 27.7033C152.29 27.0811 153.005 26.0467 153.472 24.6H150.555C150.446 24.9733 150.151 25.3311 149.669 25.6733C149.186 26 148.611 26.1633 147.942 26.1633C147.009 26.1633 146.293 25.9222 145.795 25.44C145.297 24.9578 145.025 24.18 144.979 23.1067Z" fill="#ABABAB"/>
<path d="M161.62 28.3333L165.704 16.27H162.414L159.87 24.5067H159.824L157.28 16.27H153.804L157.934 28.3333H161.62Z" fill="#ABABAB"/>
</svg>
