<svg width="140" height="40" viewBox="0 0 140 40" fill="none" xmlns="http://www.w3.org/2000/svg">
<path fill-rule="evenodd" clip-rule="evenodd" d="M17.1392 2.87327C16.7183 2.78671 16.2843 2.78671 15.8634 2.87327C15.3769 2.97333 14.9421 3.21688 14.5964 3.4105L14.5021 3.46314L2.78591 9.97216C2.75352 9.99016 2.72014 10.0085 2.68594 10.0274C2.32 10.2289 1.85987 10.4824 1.50653 10.8658C1.20103 11.1973 0.96984 11.5902 0.828415 12.0183C0.664836 12.5134 0.666749 13.0387 0.668271 13.4564C0.668414 13.4955 0.668552 13.5336 0.668552 13.5706V26.4223C0.668552 26.4593 0.668414 26.4974 0.668271 26.5365C0.666749 26.9542 0.664836 27.4795 0.828415 27.9746C0.969841 28.4027 1.20103 28.7956 1.50653 29.1271C1.85987 29.5105 2.32 29.764 2.68594 29.9655C2.72014 29.9844 2.75352 30.0027 2.78591 30.0207L14.5021 36.5298L14.5964 36.5824C14.9421 36.776 15.3769 37.0196 15.8634 37.1196C16.2843 37.2062 16.7183 37.2062 17.1392 37.1196C17.6257 37.0196 18.0605 36.776 18.4062 36.5824L18.5005 36.5298L30.2167 30.0207C30.231 30.0128 30.2455 30.0047 30.2602 29.9966C30.2788 29.9864 30.2976 29.976 30.3167 29.9655C30.6826 29.764 31.1427 29.5105 31.4961 29.1271C31.8016 28.7956 32.0328 28.4027 32.1742 27.9746C32.3378 27.4795 32.3359 26.9542 32.3343 26.5364C32.3342 26.4974 32.3341 26.4593 32.3341 26.4223V13.5706C32.3341 13.5336 32.3342 13.4955 32.3343 13.4564C32.3359 13.0387 32.3378 12.5134 32.1742 12.0183C32.0328 11.5902 31.8016 11.1973 31.4961 10.8658C31.1427 10.4824 30.6826 10.2289 30.3167 10.0274L30.3154 10.0267C30.2816 10.0081 30.2487 9.98992 30.2167 9.97216L18.5005 3.46314L18.4062 3.4105C18.0605 3.21687 17.6257 2.97333 17.1392 2.87327ZM16.04 6.2312C16.2799 6.09791 16.4024 6.03056 16.4937 5.98649L16.5013 5.98286L16.5089 5.98649C16.6002 6.03055 16.7227 6.09791 16.9626 6.2312L27.4905 12.08L16.5013 18.1852L5.51201 12.0801L16.04 6.2312ZM3.8351 14.7709L14.918 20.928L14.918 33.1384L4.32372 27.2527C4.07047 27.112 3.94118 27.0394 3.85046 26.9816L3.8428 26.9767L3.84223 26.9676C3.83576 26.8602 3.8351 26.712 3.8351 26.4223V14.7709Z" fill="#ABABAB"/>
<path d="M46.742 25.2876H51.782V28.2576H42.8945V12.4626H46.742V25.2876Z" fill="#ABABAB"/>
<path d="M55.3272 14.3976C54.6522 14.3976 54.0972 14.2026 53.6622 13.8126C53.2422 13.4076 53.0322 12.9126 53.0322 12.3276C53.0322 11.7276 53.2422 11.2326 53.6622 10.8426C54.0972 10.4376 54.6522 10.2351 55.3272 10.2351C55.9872 10.2351 56.5272 10.4376 56.9472 10.8426C57.3822 11.2326 57.5997 11.7276 57.5997 12.3276C57.5997 12.9126 57.3822 13.4076 56.9472 13.8126C56.5272 14.2026 55.9872 14.3976 55.3272 14.3976ZM57.2397 15.7026V28.2576H53.3922V15.7026H57.2397Z" fill="#ABABAB"/>
<path d="M64.5729 15.5226C65.4579 15.5226 66.2304 15.7026 66.8904 16.0626C67.5654 16.4226 68.0829 16.8951 68.4429 17.4801V15.7026H72.2904V28.2351C72.2904 29.3901 72.0579 30.4326 71.5929 31.3626C71.1429 32.3076 70.4454 33.0576 69.5004 33.6126C68.5704 34.1676 67.4079 34.4451 66.0129 34.4451C64.1529 34.4451 62.6454 34.0026 61.4904 33.1176C60.3354 32.2476 59.6754 31.0626 59.5104 29.5626H63.3129C63.4329 30.0426 63.7179 30.4176 64.1679 30.6876C64.6179 30.9726 65.1729 31.1151 65.8329 31.1151C66.6279 31.1151 67.2579 30.8826 67.7229 30.4176C68.2029 29.9676 68.4429 29.2401 68.4429 28.2351V26.4576C68.0679 27.0426 67.5504 27.5226 66.8904 27.8976C66.2304 28.2576 65.4579 28.4376 64.5729 28.4376C63.5379 28.4376 62.6004 28.1751 61.7604 27.6501C60.9204 27.1101 60.2529 26.3526 59.7579 25.3776C59.2779 24.3876 59.0379 23.2476 59.0379 21.9576C59.0379 20.6676 59.2779 19.5351 59.7579 18.5601C60.2529 17.5851 60.9204 16.8351 61.7604 16.3101C62.6004 15.7851 63.5379 15.5226 64.5729 15.5226ZM68.4429 21.9801C68.4429 21.0201 68.1729 20.2626 67.6329 19.7076C67.1079 19.1526 66.4629 18.8751 65.6979 18.8751C64.9329 18.8751 64.2804 19.1526 63.7404 19.7076C63.2154 20.2476 62.9529 20.9976 62.9529 21.9576C62.9529 22.9176 63.2154 23.6826 63.7404 24.2526C64.2804 24.8076 64.9329 25.0851 65.6979 25.0851C66.4629 25.0851 67.1079 24.8076 67.6329 24.2526C68.1729 23.6976 68.4429 22.9401 68.4429 21.9801Z" fill="#ABABAB"/>
<path d="M82.5664 15.5676C84.0064 15.5676 85.1614 16.0476 86.0314 17.0076C86.9014 17.9526 87.3364 19.2576 87.3364 20.9226V28.2576H83.5114V21.4401C83.5114 20.6001 83.2939 19.9476 82.8589 19.4826C82.4239 19.0176 81.8389 18.7851 81.1039 18.7851C80.3689 18.7851 79.7839 19.0176 79.3489 19.4826C78.9139 19.9476 78.6964 20.6001 78.6964 21.4401V28.2576H74.8489V11.6076H78.6964V17.3901C79.0864 16.8351 79.6189 16.3926 80.2939 16.0626C80.9689 15.7326 81.7264 15.5676 82.5664 15.5676Z" fill="#ABABAB"/>
<path d="M96.7826 24.9951V28.2576H94.8251C93.4301 28.2576 92.3426 27.9201 91.5626 27.2451C90.7826 26.5551 90.3926 25.4376 90.3926 23.8926V18.8976H88.8626V15.7026H90.3926V12.6426H94.2401V15.7026H96.7601V18.8976H94.2401V23.9376C94.2401 24.3126 94.3301 24.5826 94.5101 24.7476C94.6901 24.9126 94.9901 24.9951 95.4101 24.9951H96.7826Z" fill="#ABABAB"/>
<path d="M102.548 17.4801C102.908 16.8951 103.426 16.4226 104.101 16.0626C104.776 15.7026 105.548 15.5226 106.418 15.5226C107.453 15.5226 108.391 15.7851 109.231 16.3101C110.071 16.8351 110.731 17.5851 111.211 18.5601C111.706 19.5351 111.953 20.6676 111.953 21.9576C111.953 23.2476 111.706 24.3876 111.211 25.3776C110.731 26.3526 110.071 27.1101 109.231 27.6501C108.391 28.1751 107.453 28.4376 106.418 28.4376C105.533 28.4376 104.761 28.2651 104.101 27.9201C103.441 27.5601 102.923 27.0876 102.548 26.5026V28.2576H98.7007V11.6076H102.548V17.4801ZM108.038 21.9576C108.038 20.9976 107.768 20.2476 107.228 19.7076C106.703 19.1526 106.051 18.8751 105.271 18.8751C104.506 18.8751 103.853 19.1526 103.313 19.7076C102.788 20.2626 102.526 21.0201 102.526 21.9801C102.526 22.9401 102.788 23.6976 103.313 24.2526C103.853 24.8076 104.506 25.0851 105.271 25.0851C106.036 25.0851 106.688 24.8076 107.228 24.2526C107.768 23.6826 108.038 22.9176 108.038 21.9576Z" fill="#ABABAB"/>
<path d="M119.462 28.4376C118.232 28.4376 117.122 28.1751 116.132 27.6501C115.157 27.1251 114.384 26.3751 113.814 25.4001C113.259 24.4251 112.982 23.2851 112.982 21.9801C112.982 20.6901 113.267 19.5576 113.837 18.5826C114.407 17.5926 115.187 16.8351 116.177 16.3101C117.167 15.7851 118.277 15.5226 119.507 15.5226C120.737 15.5226 121.847 15.7851 122.837 16.3101C123.827 16.8351 124.607 17.5926 125.177 18.5826C125.747 19.5576 126.032 20.6901 126.032 21.9801C126.032 23.2701 125.739 24.4101 125.154 25.4001C124.584 26.3751 123.797 27.1251 122.792 27.6501C121.802 28.1751 120.692 28.4376 119.462 28.4376ZM119.462 25.1076C120.197 25.1076 120.819 24.8376 121.329 24.2976C121.854 23.7576 122.117 22.9851 122.117 21.9801C122.117 20.9751 121.862 20.2026 121.352 19.6626C120.857 19.1226 120.242 18.8526 119.507 18.8526C118.757 18.8526 118.134 19.1226 117.639 19.6626C117.144 20.1876 116.897 20.9601 116.897 21.9801C116.897 22.9851 117.137 23.7576 117.617 24.2976C118.112 24.8376 118.727 25.1076 119.462 25.1076Z" fill="#ABABAB"/>
<path d="M135.273 28.2576L132.865 24.7701L130.84 28.2576H126.678L130.818 21.8451L126.565 15.7026H130.885L133.293 19.1676L135.318 15.7026H139.48L135.273 22.0251L139.593 28.2576H135.273Z" fill="#ABABAB"/>
</svg>
