<svg width="140" height="40" viewBox="0 0 140 40" fill="none" xmlns="http://www.w3.org/2000/svg">
<circle cx="19.1654" cy="20.2083" r="16.8333" stroke="#ABABAB" stroke-width="3"/>
<path d="M25.7651 26.8081C22.3417 30.2315 18.4718 32.457 15.0419 33.339C11.5742 34.2307 8.85083 33.6997 7.26249 32.1114C5.67415 30.523 5.14318 27.7996 6.03486 24.332C6.91684 20.9021 9.14235 17.0322 12.5658 13.6088C15.9892 10.1853 19.8591 7.95981 23.289 7.07783C26.7567 6.18614 29.4801 6.71712 31.0684 8.30546C32.6568 9.89379 33.1877 12.6172 32.296 16.0849C31.4141 19.5148 29.1885 23.3846 25.7651 26.8081Z" stroke="#ABABAB" stroke-width="3"/>
<path d="M25.7666 13.6087C29.19 17.0321 31.4155 20.902 32.2975 24.3319C33.1892 27.7995 32.6582 30.523 31.0699 32.1113C29.4815 33.6996 26.7581 34.2306 23.2905 33.3389C19.8605 32.4569 15.9907 30.2314 12.5673 26.808C9.14382 23.3846 6.9183 19.5147 6.03632 16.0848C5.14464 12.6171 5.67561 9.89371 7.26395 8.30537C8.85229 6.71703 11.5757 6.18605 15.0434 7.07774C18.4733 7.95972 22.3431 10.1852 25.7666 13.6087Z" stroke="#ABABAB" stroke-width="3"/>
<path d="M53.2086 28.5333C57.1336 28.5333 59.7836 26.4833 59.7836 23.2083C59.7836 16.2833 50.5836 19.2333 50.5836 15.5833C50.5836 14.5583 51.5086 13.8583 52.9836 13.8583C54.6586 13.8583 55.7086 14.7583 55.8336 16.1333H59.4086C59.3086 12.8083 56.7586 10.6333 52.9836 10.6333C49.4336 10.6333 46.9336 12.6833 46.9336 15.5833C46.9336 22.4583 56.0086 19.8333 56.0086 23.2583C56.0086 24.5833 54.8836 25.2833 53.2086 25.2833C51.3586 25.2833 50.1836 24.1583 50.0336 22.3833H46.4336C46.5836 26.1083 49.2336 28.5333 53.2086 28.5333Z" fill="#ABABAB"/>
<path d="M60.6338 33.4333H64.1088V27.2083C64.7838 28.0583 66.0088 28.5333 67.4338 28.5333C71.0588 28.5333 73.5088 25.9583 73.5088 22.0333C73.5088 18.1083 71.2588 15.5333 67.7338 15.5333C66.1088 15.5333 64.8588 16.1333 64.1088 17.1083V15.7333H60.6338V33.4333ZM67.0088 25.5333C65.1338 25.5333 63.9088 24.1333 63.9088 22.0333C63.9088 19.9083 65.1338 18.5083 67.0088 18.5083C68.8338 18.5083 70.0838 19.9083 70.0838 22.0333C70.0838 24.1333 68.8338 25.5333 67.0088 25.5333Z" fill="#ABABAB"/>
<path d="M74.3496 28.3333H77.8246V21.4333C77.8246 19.8083 78.8996 18.6333 80.4246 18.6333C81.8746 18.6333 82.8746 19.7333 82.8746 21.2583V28.3333H86.3496V20.4833C86.3496 17.5833 84.4996 15.5333 81.6746 15.5333C79.9246 15.5333 78.5496 16.2583 77.8246 17.4833V10.2583H74.3496V28.3333Z" fill="#ABABAB"/>
<path d="M96.0707 24.0583C95.7957 25.1333 94.8707 25.6833 93.4707 25.6833C91.7207 25.6833 90.5957 24.5833 90.3457 22.8083H99.3957C99.4207 22.5333 99.4457 22.1583 99.4457 21.6833C99.4457 18.8083 97.6707 15.5333 93.2207 15.5333C88.9457 15.5333 86.9957 18.8083 86.9957 22.0083C86.9957 25.1833 89.1957 28.5333 93.4707 28.5333C96.5707 28.5333 98.9707 26.7833 99.4707 24.0583H96.0707ZM93.2207 18.0833C94.8957 18.0833 95.8707 19.2083 95.9707 20.6083H90.3957C90.6957 18.8583 91.6457 18.0833 93.2207 18.0833Z" fill="#ABABAB"/>
<path d="M108.559 18.6333V15.7333H106.766C105.241 15.7333 104.291 16.2583 103.616 17.8333V15.7333H100.116V28.3333H103.616V22.2083C103.616 20.0583 104.391 18.6333 106.116 18.6333H108.559Z" fill="#ABABAB"/>
<path d="M120.559 15.7333H117.059V22.6333C117.059 24.2333 115.984 25.4333 114.459 25.4333C113.034 25.4333 112.034 24.3333 112.034 22.8083V15.7333H108.559V23.5833C108.559 26.4583 110.409 28.5333 113.234 28.5333C114.959 28.5333 116.359 27.7833 117.059 26.5833V28.3333H120.559V15.7333Z" fill="#ABABAB"/>
<path d="M122.06 28.3333H125.535V10.2583H122.06V28.3333Z" fill="#ABABAB"/>
<path d="M135.455 24.0583C135.18 25.1333 134.255 25.6833 132.855 25.6833C131.105 25.6833 129.98 24.5833 129.73 22.8083H138.78C138.805 22.5333 138.83 22.1583 138.83 21.6833C138.83 18.8083 137.055 15.5333 132.605 15.5333C128.33 15.5333 126.38 18.8083 126.38 22.0083C126.38 25.1833 128.58 28.5333 132.855 28.5333C135.955 28.5333 138.355 26.7833 138.855 24.0583H135.455ZM132.605 18.0833C134.28 18.0833 135.255 19.2083 135.355 20.6083H129.78C130.08 18.8583 131.03 18.0833 132.605 18.0833Z" fill="#ABABAB"/>
</svg>
