<svg width="1920" height="370" viewBox="0 0 1920 370" fill="none" xmlns="http://www.w3.org/2000/svg">
<g clip-path="url(#clip0_35_360)">
<g clip-path="url(#clip1_35_360)">
<g filter="url(#filter0_f_35_360)">
<ellipse cx="671.5" cy="229" rx="671.5" ry="229" transform="matrix(1 0 0 -1 289.5 1)" fill="url(#paint0_linear_35_360)"/>
</g>
</g>
<ellipse cx="749" cy="12" rx="749" ry="12" transform="matrix(1 0 0 -1 212 11)" fill="url(#paint1_radial_35_360)"/>
<ellipse opacity="0.7" cx="324.567" cy="6" rx="324.567" ry="6" transform="matrix(1 0 0 -1 636.434 6)" fill="url(#paint2_radial_35_360)"/>
</g>
<defs>
<filter id="filter0_f_35_360" x="-10.5" y="-757" width="1943" height="1058" filterUnits="userSpaceOnUse" color-interpolation-filters="sRGB">
<feFlood flood-opacity="0" result="BackgroundImageFix"/>
<feBlend mode="normal" in="SourceGraphic" in2="BackgroundImageFix" result="shape"/>
<feGaussianBlur stdDeviation="150" result="effect1_foregroundBlur_35_360"/>
</filter>
<linearGradient id="paint0_linear_35_360" x1="1365.5" y1="5.63558e-05" x2="-53.9553" y2="-32.6564" gradientUnits="userSpaceOnUse">
<stop stop-color="#A517FC"/>
<stop offset="1" stop-color="#179CFC"/>
</linearGradient>
<radialGradient id="paint1_radial_35_360" cx="0" cy="0" r="1" gradientUnits="userSpaceOnUse" gradientTransform="translate(749 12) rotate(90) scale(12 749)">
<stop stop-color="#146CFB"/>
<stop offset="1" stop-color="#A9CAFF" stop-opacity="0.1"/>
</radialGradient>
<radialGradient id="paint2_radial_35_360" cx="0" cy="0" r="1" gradientUnits="userSpaceOnUse" gradientTransform="translate(324.567 6) rotate(90) scale(6 324.567)">
<stop stop-color="#E6E7FF"/>
<stop offset="1" stop-color="white" stop-opacity="0"/>
</radialGradient>
<clipPath id="clip0_35_360">
<rect width="1920" height="370" fill="white" transform="matrix(1 0 0 -1 0 370)"/>
</clipPath>
<clipPath id="clip1_35_360">
<rect width="1498" height="331" fill="white" transform="matrix(1 0 0 -1 212 332)"/>
</clipPath>
</defs>
</svg>
