<svg width="1872" height="1013" viewBox="0 0 1872 1013" fill="none" xmlns="http://www.w3.org/2000/svg">
<g opacity="0.5" clip-path="url(#clip0_5_539)">
<mask id="path-1-inside-1_5_539" fill="white">
<path d="M0 0.0566406H1872V150.155H0V0.0566406Z"/>
</mask>
<path d="M0 1.05664H1872V-0.943359H0V1.05664Z" fill="black" fill-opacity="0.1" mask="url(#path-1-inside-1_5_539)"/>
<mask id="path-3-inside-2_5_539" fill="white">
<path d="M0 150.155H1872V300.254H0V150.155Z"/>
</mask>
<path d="M0 151.155H1872V149.155H0V151.155Z" fill="black" fill-opacity="0.1" mask="url(#path-3-inside-2_5_539)"/>
<mask id="path-5-inside-3_5_539" fill="white">
<path d="M0 300.254H1872V450.353H0V300.254Z"/>
</mask>
<path d="M0 301.254H1872V299.254H0V301.254Z" fill="black" fill-opacity="0.1" mask="url(#path-5-inside-3_5_539)"/>
<mask id="path-7-inside-4_5_539" fill="white">
<path d="M0 450.353H1872V600.451H0V450.353Z"/>
</mask>
<path d="M0 451.353H1872V449.353H0V451.353Z" fill="black" fill-opacity="0.1" mask="url(#path-7-inside-4_5_539)"/>
<mask id="path-9-inside-5_5_539" fill="white">
<path d="M0 600.451H1872V750.55H0V600.451Z"/>
</mask>
<path d="M0 601.451H1872V599.451H0V601.451Z" fill="black" fill-opacity="0.1" mask="url(#path-9-inside-5_5_539)"/>
<mask id="path-11-inside-6_5_539" fill="white">
<path d="M0 750.55H1872V900.648H0V750.55Z"/>
</mask>
<path d="M0 751.55H1872V749.55H0V751.55Z" fill="black" fill-opacity="0.1" mask="url(#path-11-inside-6_5_539)"/>
<mask id="path-13-inside-7_5_539" fill="white">
<path d="M0 900.648H1872V1050.75H0V900.648Z"/>
</mask>
<path d="M0 901.648H1872V899.648H0V901.648Z" fill="black" fill-opacity="0.1" mask="url(#path-13-inside-7_5_539)"/>
<mask id="path-15-inside-8_5_539" fill="white">
<path d="M0 0.0566406H187.2V1350.94H0V0.0566406Z"/>
</mask>
<path d="M1 1350.94V0.0566406H-1V1350.94H1Z" fill="black" fill-opacity="0.1" mask="url(#path-15-inside-8_5_539)"/>
<mask id="path-17-inside-9_5_539" fill="white">
<path d="M187.2 0.0566406H374.4V1350.94H187.2V0.0566406Z"/>
</mask>
<path d="M188.2 1350.94V0.0566406H186.2V1350.94H188.2Z" fill="black" fill-opacity="0.1" mask="url(#path-17-inside-9_5_539)"/>
<mask id="path-19-inside-10_5_539" fill="white">
<path d="M374.4 0.0566406H561.6V1350.94H374.4V0.0566406Z"/>
</mask>
<path d="M375.4 1350.94V0.0566406H373.4V1350.94H375.4Z" fill="black" fill-opacity="0.1" mask="url(#path-19-inside-10_5_539)"/>
<mask id="path-21-inside-11_5_539" fill="white">
<path d="M561.6 0.0566406H748.8V1350.94H561.6V0.0566406Z"/>
</mask>
<path d="M562.6 1350.94V0.0566406H560.6V1350.94H562.6Z" fill="black" fill-opacity="0.1" mask="url(#path-21-inside-11_5_539)"/>
<mask id="path-23-inside-12_5_539" fill="white">
<path d="M748.8 0.0566406H936V1350.94H748.8V0.0566406Z"/>
</mask>
<path d="M749.8 1350.94V0.0566406H747.8V1350.94H749.8Z" fill="black" fill-opacity="0.1" mask="url(#path-23-inside-12_5_539)"/>
<mask id="path-25-inside-13_5_539" fill="white">
<path d="M936 0.0566406H1123.2V1350.94H936V0.0566406Z"/>
</mask>
<path d="M937 1350.94V0.0566406H935V1350.94H937Z" fill="black" fill-opacity="0.1" mask="url(#path-25-inside-13_5_539)"/>
<mask id="path-27-inside-14_5_539" fill="white">
<path d="M1123.2 0.0566406H1310.4V1350.94H1123.2V0.0566406Z"/>
</mask>
<path d="M1124.2 1350.94V0.0566406H1122.2V1350.94H1124.2Z" fill="black" fill-opacity="0.1" mask="url(#path-27-inside-14_5_539)"/>
<mask id="path-29-inside-15_5_539" fill="white">
<path d="M1310.4 0.0566406H1497.6V1350.94H1310.4V0.0566406Z"/>
</mask>
<path d="M1311.4 1350.94V0.0566406H1309.4V1350.94H1311.4Z" fill="black" fill-opacity="0.1" mask="url(#path-29-inside-15_5_539)"/>
<mask id="path-31-inside-16_5_539" fill="white">
<path d="M1497.6 0.0566406H1684.8V1350.94H1497.6V0.0566406Z"/>
</mask>
<path d="M1498.6 1350.94V0.0566406H1496.6V1350.94H1498.6Z" fill="black" fill-opacity="0.1" mask="url(#path-31-inside-16_5_539)"/>
<mask id="path-33-inside-17_5_539" fill="white">
<path d="M1684.8 0.0566406H1872V1350.94H1684.8V0.0566406Z"/>
</mask>
<path d="M1871 0.0566406V1350.94H1873V0.0566406H1871ZM1685.8 1350.94V0.0566406H1683.8V1350.94H1685.8Z" fill="black" fill-opacity="0.1" mask="url(#path-33-inside-17_5_539)"/>
<g filter="url(#filter0_d_5_539)">
<circle cx="2" cy="2" r="2" transform="matrix(0 1 1 0 185.695 749)" fill="#047AFF"/>
</g>
<g filter="url(#filter1_d_5_539)">
<circle cx="2" cy="2" r="2" transform="matrix(0 1 1 0 185.695 448)" fill="#047AFF"/>
</g>
<g filter="url(#filter2_d_5_539)">
<circle cx="1.5" cy="1.5" r="1.5" transform="matrix(0 1 1 0 935 299.25)" fill="#047AFF"/>
</g>
<g filter="url(#filter3_d_5_539)">
<circle cx="1.5" cy="1.5" r="1.5" transform="matrix(0 1 1 0 1309.37 299.25)" fill="#047AFF"/>
</g>
<g filter="url(#filter4_d_5_539)">
<circle cx="1.5" cy="1.5" r="1.5" transform="matrix(0 1 1 0 1684 149.25)" fill="#047AFF"/>
</g>
<rect width="187" height="149" transform="matrix(1 0 0 -1 375 150)" fill="url(#paint0_linear_5_539)" fill-opacity="0.03"/>
<rect width="187" height="149" transform="matrix(1 0 0 -1 375 150)" fill="url(#paint1_linear_5_539)"/>
<rect width="187" height="149" transform="matrix(1 0 0 -1 189 600)" fill="url(#paint2_linear_5_539)" fill-opacity="0.03"/>
<rect width="187" height="149" transform="matrix(1 0 0 -1 189 600)" fill="url(#paint3_linear_5_539)"/>
<rect width="187" height="149" transform="matrix(1 0 0 -1 750 301)" fill="url(#paint4_linear_5_539)" fill-opacity="0.03"/>
<rect width="187" height="149" transform="matrix(1 0 0 -1 750 301)" fill="url(#paint5_linear_5_539)"/>
</g>
<defs>
<filter id="filter0_d_5_539" x="179.695" y="743" width="16" height="16" filterUnits="userSpaceOnUse" color-interpolation-filters="sRGB">
<feFlood flood-opacity="0" result="BackgroundImageFix"/>
<feColorMatrix in="SourceAlpha" type="matrix" values="0 0 0 0 0 0 0 0 0 0 0 0 0 0 0 0 0 0 127 0" result="hardAlpha"/>
<feOffset/>
<feGaussianBlur stdDeviation="3"/>
<feComposite in2="hardAlpha" operator="out"/>
<feColorMatrix type="matrix" values="0 0 0 0 0.0156863 0 0 0 0 0.478431 0 0 0 0 1 0 0 0 1 0"/>
<feBlend mode="normal" in2="BackgroundImageFix" result="effect1_dropShadow_5_539"/>
<feBlend mode="normal" in="SourceGraphic" in2="effect1_dropShadow_5_539" result="shape"/>
</filter>
<filter id="filter1_d_5_539" x="179.695" y="442" width="16" height="16" filterUnits="userSpaceOnUse" color-interpolation-filters="sRGB">
<feFlood flood-opacity="0" result="BackgroundImageFix"/>
<feColorMatrix in="SourceAlpha" type="matrix" values="0 0 0 0 0 0 0 0 0 0 0 0 0 0 0 0 0 0 127 0" result="hardAlpha"/>
<feOffset/>
<feGaussianBlur stdDeviation="3"/>
<feComposite in2="hardAlpha" operator="out"/>
<feColorMatrix type="matrix" values="0 0 0 0 0.0156863 0 0 0 0 0.478431 0 0 0 0 1 0 0 0 1 0"/>
<feBlend mode="normal" in2="BackgroundImageFix" result="effect1_dropShadow_5_539"/>
<feBlend mode="normal" in="SourceGraphic" in2="effect1_dropShadow_5_539" result="shape"/>
</filter>
<filter id="filter2_d_5_539" x="929" y="293.25" width="15" height="15" filterUnits="userSpaceOnUse" color-interpolation-filters="sRGB">
<feFlood flood-opacity="0" result="BackgroundImageFix"/>
<feColorMatrix in="SourceAlpha" type="matrix" values="0 0 0 0 0 0 0 0 0 0 0 0 0 0 0 0 0 0 127 0" result="hardAlpha"/>
<feOffset/>
<feGaussianBlur stdDeviation="3"/>
<feComposite in2="hardAlpha" operator="out"/>
<feColorMatrix type="matrix" values="0 0 0 0 0.0156863 0 0 0 0 0.478431 0 0 0 0 1 0 0 0 1 0"/>
<feBlend mode="normal" in2="BackgroundImageFix" result="effect1_dropShadow_5_539"/>
<feBlend mode="normal" in="SourceGraphic" in2="effect1_dropShadow_5_539" result="shape"/>
</filter>
<filter id="filter3_d_5_539" x="1303.37" y="293.25" width="15" height="15" filterUnits="userSpaceOnUse" color-interpolation-filters="sRGB">
<feFlood flood-opacity="0" result="BackgroundImageFix"/>
<feColorMatrix in="SourceAlpha" type="matrix" values="0 0 0 0 0 0 0 0 0 0 0 0 0 0 0 0 0 0 127 0" result="hardAlpha"/>
<feOffset/>
<feGaussianBlur stdDeviation="3"/>
<feComposite in2="hardAlpha" operator="out"/>
<feColorMatrix type="matrix" values="0 0 0 0 0.0156863 0 0 0 0 0.478431 0 0 0 0 1 0 0 0 1 0"/>
<feBlend mode="normal" in2="BackgroundImageFix" result="effect1_dropShadow_5_539"/>
<feBlend mode="normal" in="SourceGraphic" in2="effect1_dropShadow_5_539" result="shape"/>
</filter>
<filter id="filter4_d_5_539" x="1678" y="143.25" width="15" height="15" filterUnits="userSpaceOnUse" color-interpolation-filters="sRGB">
<feFlood flood-opacity="0" result="BackgroundImageFix"/>
<feColorMatrix in="SourceAlpha" type="matrix" values="0 0 0 0 0 0 0 0 0 0 0 0 0 0 0 0 0 0 127 0" result="hardAlpha"/>
<feOffset/>
<feGaussianBlur stdDeviation="3"/>
<feComposite in2="hardAlpha" operator="out"/>
<feColorMatrix type="matrix" values="0 0 0 0 0.0156863 0 0 0 0 0.478431 0 0 0 0 1 0 0 0 1 0"/>
<feBlend mode="normal" in2="BackgroundImageFix" result="effect1_dropShadow_5_539"/>
<feBlend mode="normal" in="SourceGraphic" in2="effect1_dropShadow_5_539" result="shape"/>
</filter>
<linearGradient id="paint0_linear_5_539" x1="189.497" y1="149.124" x2="-25.1186" y2="117.029" gradientUnits="userSpaceOnUse">
<stop stop-color="#A517FC"/>
<stop offset="1" stop-color="#179CFC"/>
</linearGradient>
<linearGradient id="paint1_linear_5_539" x1="108.157" y1="36.3353" x2="99.7785" y2="148.658" gradientUnits="userSpaceOnUse">
<stop stop-color="white" stop-opacity="0"/>
<stop offset="1" stop-color="white"/>
</linearGradient>
<linearGradient id="paint2_linear_5_539" x1="189.497" y1="149.124" x2="-25.1186" y2="117.029" gradientUnits="userSpaceOnUse">
<stop stop-color="#A517FC"/>
<stop offset="1" stop-color="#179CFC"/>
</linearGradient>
<linearGradient id="paint3_linear_5_539" x1="108.157" y1="36.3353" x2="99.7785" y2="148.658" gradientUnits="userSpaceOnUse">
<stop stop-color="white" stop-opacity="0"/>
<stop offset="1" stop-color="white"/>
</linearGradient>
<linearGradient id="paint4_linear_5_539" x1="189.497" y1="149.124" x2="-25.1186" y2="117.029" gradientUnits="userSpaceOnUse">
<stop stop-color="#A517FC"/>
<stop offset="1" stop-color="#179CFC"/>
</linearGradient>
<linearGradient id="paint5_linear_5_539" x1="108.157" y1="36.3353" x2="99.7785" y2="148.658" gradientUnits="userSpaceOnUse">
<stop stop-color="white" stop-opacity="0"/>
<stop offset="1" stop-color="white"/>
</linearGradient>
<clipPath id="clip0_5_539">
<rect width="1872" height="1013" fill="white"/>
</clipPath>
</defs>
</svg>
