<svg width="36" height="37" viewBox="0 0 36 37" fill="none" xmlns="http://www.w3.org/2000/svg">
<rect y="0.5" width="36" height="36" rx="12" fill="#9362FC"/>
<path d="M22.1641 11.834H13.8307C11.3307 11.834 9.66406 13.084 9.66406 16.0007V18.9673C9.66406 19.2757 9.98073 19.4673 10.2557 19.3423C11.0724 18.9673 12.0141 18.8257 13.0057 19.0007C15.1974 19.3923 16.8057 21.4257 16.7474 23.6507C16.7391 24.0007 16.6891 24.3423 16.5974 24.6757C16.5307 24.934 16.7391 25.1757 17.0057 25.1757H22.1641C24.6641 25.1757 26.3307 23.9257 26.3307 21.009V16.0007C26.3307 13.084 24.6641 11.834 22.1641 11.834ZM17.9974 20.584C17.4449 20.584 16.915 20.3645 16.5243 19.9738C16.1336 19.5831 15.9141 19.0532 15.9141 18.5007C15.9141 17.9481 16.1336 17.4182 16.5243 17.0275C16.915 16.6368 17.4449 16.4173 17.9974 16.4173C18.5499 16.4173 19.0798 16.6368 19.4705 17.0275C19.8612 17.4182 20.0807 17.9481 20.0807 18.5007C20.0807 19.0532 19.8612 19.5831 19.4705 19.9738C19.0798 20.3645 18.5499 20.584 17.9974 20.584ZM24.0391 20.1673C24.0391 20.509 23.7557 20.7923 23.4141 20.7923C23.0724 20.7923 22.7891 20.509 22.7891 20.1673V16.834C22.7891 16.4923 23.0724 16.209 23.4141 16.209C23.7557 16.209 24.0391 16.4923 24.0391 16.834V20.1673Z" fill="white"/>
<path d="M12.1654 20.168C11.1237 20.168 10.182 20.6596 9.57371 21.4096C9.09242 22.0003 8.83038 22.7394 8.83204 23.5013C8.83204 25.343 10.332 26.8346 12.1654 26.8346C13.6154 26.8346 14.857 25.9096 15.307 24.6096C15.432 24.268 15.4987 23.893 15.4987 23.5013C15.4987 21.668 14.007 20.168 12.1654 20.168ZM14.132 24.9513C14.1154 25.0013 14.082 25.0513 14.0487 25.0846L13.4487 25.6763C13.3737 25.7596 13.2737 25.793 13.1654 25.793C13.1113 25.7952 13.0573 25.786 13.007 25.7659C12.9568 25.7458 12.9113 25.7152 12.8737 25.6763C12.8116 25.6156 12.7714 25.5361 12.7594 25.4502C12.7473 25.3642 12.7641 25.2767 12.807 25.2013H11.132C10.5987 25.2013 10.1654 24.768 10.1654 24.2263V24.143C10.1654 23.9096 10.3487 23.7346 10.5737 23.7346C10.7987 23.7346 10.982 23.9096 10.982 24.143V24.2263C10.982 24.318 11.0487 24.393 11.1404 24.393H12.8154C12.732 24.2346 12.7487 24.043 12.882 23.9096C13.0404 23.7513 13.2987 23.7513 13.4487 23.9096L14.0487 24.5096C14.082 24.543 14.1154 24.593 14.1404 24.643C14.1737 24.7346 14.1737 24.8513 14.132 24.9513ZM14.1654 22.8596C14.1654 23.093 13.982 23.268 13.757 23.268C13.532 23.268 13.3487 23.093 13.3487 22.8596V22.7763C13.3487 22.6846 13.282 22.6096 13.1904 22.6096H11.5237C11.5942 22.611 11.6631 22.6308 11.7235 22.6672C11.7839 22.7035 11.8338 22.7551 11.868 22.8167C11.9022 22.8784 11.9196 22.9479 11.9185 23.0184C11.9174 23.0889 11.8978 23.1579 11.8616 23.2184C11.8255 23.279 11.774 23.329 11.7125 23.3634C11.651 23.3978 11.5815 23.4154 11.511 23.4145C11.4405 23.4136 11.3714 23.3942 11.3108 23.3583C11.2501 23.3223 11.2 23.2711 11.1654 23.2096C11.0654 23.2096 10.957 23.168 10.882 23.093L10.282 22.493C10.2449 22.4534 10.214 22.4084 10.1904 22.3596C10.157 22.2596 10.157 22.1514 10.1904 22.0513C10.2154 22.0096 10.2404 21.9513 10.282 21.918L10.882 21.3263C11.0404 21.1596 11.2987 21.1596 11.4487 21.3263C11.582 21.4513 11.5987 21.6513 11.5154 21.8013H13.1904C13.7237 21.8013 14.157 22.2346 14.157 22.7763V22.8596H14.1654Z" fill="white"/>
</svg>
