<svg width="1833" height="934" viewBox="0 0 1833 934" fill="none" xmlns="http://www.w3.org/2000/svg">
<path d="M1495.21 331H1653.5V932.5H156L321.558 799.612C335.76 788.213 353.425 782 371.635 782H502.438C520.603 782 538.228 775.818 552.413 764.47L696.087 649.53C710.272 638.182 727.897 632 746.062 632H876.879C895.08 632 912.738 625.793 926.936 614.404L1070.06 499.596C1084.26 488.207 1101.92 482 1120.12 482H1251.29C1269.55 482 1287.25 475.757 1301.47 464.307L1445.03 348.693C1459.25 337.243 1476.95 331 1495.21 331Z" fill="url(#paint0_linear_5_695)" fill-opacity="0.1"/>
<path d="M1495.21 331H1653.5V932.5H156L321.558 799.612C335.76 788.213 353.425 782 371.635 782H502.438C520.603 782 538.228 775.818 552.413 764.47L696.087 649.53C710.272 638.182 727.897 632 746.062 632H876.879C895.08 632 912.738 625.793 926.936 614.404L1070.06 499.596C1084.26 488.207 1101.92 482 1120.12 482H1251.29C1269.55 482 1287.25 475.757 1301.47 464.307L1445.03 348.693C1459.25 337.243 1476.95 331 1495.21 331Z" fill="url(#paint1_linear_5_695)"/>
<path d="M1653 331L1495.21 331C1476.95 331 1459.25 337.243 1445.03 348.693L1301.47 464.307C1287.25 475.757 1269.55 482 1251.29 482H1120.12C1101.92 482 1084.26 488.207 1070.06 499.596L926.936 614.404C912.738 625.793 895.08 632 876.879 632H746.062C727.897 632 710.272 638.182 696.087 649.53L552.413 764.47C538.228 775.818 520.603 782 502.438 782H371.635C353.425 782 335.76 788.213 321.558 799.612L156 932.5" stroke="url(#paint2_linear_5_695)" stroke-width="3" stroke-linecap="round"/>
<g opacity="0.04" filter="url(#filter0_i_5_695)">
<circle cx="1652.5" cy="331" r="16" transform="rotate(90 1652.5 331)" fill="black"/>
</g>
<g filter="url(#filter1_d_5_695)">
<circle cx="1652.5" cy="331" r="5.71429" transform="rotate(90 1652.5 331)" fill="white"/>
</g>
<circle cx="1652.5" cy="331" r="2.28571" transform="rotate(90 1652.5 331)" fill="#146EFB"/>
<g opacity="0.06" filter="url(#filter2_i_5_695)">
<circle cx="1278.5" cy="477" r="16" transform="rotate(90 1278.5 477)" fill="black"/>
</g>
<g filter="url(#filter3_d_5_695)">
<circle cx="1278.5" cy="477" r="5.71429" transform="rotate(90 1278.5 477)" fill="white"/>
</g>
<circle cx="1278.5" cy="477" r="2.28571" transform="rotate(90 1278.5 477)" fill="#146EFB"/>
<g opacity="0.04" filter="url(#filter4_i_5_695)">
<circle cx="903.5" cy="626" r="16" transform="rotate(90 903.5 626)" fill="black"/>
</g>
<g filter="url(#filter5_d_5_695)">
<circle cx="903.501" cy="626" r="5.71429" transform="rotate(90 903.501 626)" fill="white"/>
</g>
<circle cx="903.499" cy="626" r="2.28571" transform="rotate(90 903.499 626)" fill="#146EFB"/>
<g opacity="0.04" filter="url(#filter6_i_5_695)">
<circle cx="530.5" cy="777" r="16" transform="rotate(90 530.5 777)" fill="black"/>
</g>
<g filter="url(#filter7_d_5_695)">
<circle cx="530.501" cy="777" r="5.71429" transform="rotate(90 530.501 777)" fill="white"/>
</g>
<circle cx="530.499" cy="777" r="2.28571" transform="rotate(90 530.499 777)" fill="#146EFB"/>
<g filter="url(#filter8_bd_5_695)">
<g clip-path="url(#clip0_5_695)">
<rect x="555" y="482" width="350" height="102" rx="16" fill="white" fill-opacity="0.5" shape-rendering="crispEdges"/>
<g opacity="0.16" filter="url(#filter9_f_5_695)">
<ellipse cx="602.062" cy="533" rx="35.3086" ry="34.4668" fill="url(#paint3_linear_5_695)"/>
</g>
<rect x="586.188" y="509" width="41.4345" height="41.4345" rx="9.6" transform="rotate(10 586.188 509)" fill="url(#paint4_linear_5_695)"/>
<g clip-path="url(#clip1_5_695)">
<g filter="url(#filter10_b_5_695)">
<rect x="579.602" y="515.3" width="41.4345" height="41.4345" rx="9.6" fill="white" fill-opacity="0.32"/>
<rect x="579.992" y="515.69" width="40.6545" height="40.6545" rx="9.21" stroke="white" stroke-opacity="0.2" stroke-width="0.78"/>
</g>
<g opacity="0.8">
<circle opacity="0.5" cx="600.311" cy="536.012" r="9.23276" stroke="white" stroke-width="0.18"/>
<circle opacity="0.5" cx="600.319" cy="536.015" r="12.8583" stroke="white" stroke-width="0.18"/>
<path d="M587.371 515.297V556.731" stroke="url(#paint5_linear_5_695)" stroke-width="0.18" stroke-dasharray="0.6 0.6"/>
<path d="M613.266 515.297V556.731" stroke="url(#paint6_linear_5_695)" stroke-width="0.18" stroke-dasharray="0.6 0.6"/>
<path d="M600.316 515.297V556.731" stroke="url(#paint7_linear_5_695)" stroke-width="0.18" stroke-dasharray="0.6 0.6"/>
<path d="M579.594 548.961H621.028" stroke="url(#paint8_linear_5_695)" stroke-width="0.18" stroke-dasharray="0.6 0.6"/>
<path d="M579.594 545.338H621.028" stroke="url(#paint9_linear_5_695)" stroke-width="0.18" stroke-dasharray="0.6 0.6"/>
<path d="M579.594 526.689H621.028" stroke="url(#paint10_linear_5_695)" stroke-width="0.18" stroke-dasharray="0.6 0.6"/>
<path d="M579.594 536.016H621.028" stroke="url(#paint11_linear_5_695)" stroke-width="0.18" stroke-dasharray="0.6 0.6"/>
<path d="M579.594 523.066H621.028" stroke="url(#paint12_linear_5_695)" stroke-width="0.18" stroke-dasharray="0.6 0.6"/>
<path d="M579.594 515.297L621.028 556.731" stroke="url(#paint13_linear_5_695)" stroke-width="0.18" stroke-dasharray="0.6 0.6"/>
<path d="M621.027 515.297L579.593 556.731" stroke="url(#paint14_linear_5_695)" stroke-width="0.18" stroke-dasharray="0.6 0.6"/>
</g>
</g>
<path d="M598.133 534.303H594.525C594.525 532.514 595.009 531.084 595.977 530.013C596.959 528.942 598.477 528.407 600.531 528.407C601.631 528.407 602.591 528.59 603.413 528.957C604.234 529.324 604.872 529.852 605.327 530.541C605.781 531.23 606.009 532.059 606.009 533.027C606.009 533.775 605.869 534.457 605.591 535.073C605.327 535.674 604.967 536.232 604.513 536.745C604.073 537.244 603.581 537.713 603.039 538.153C602.511 538.578 601.983 538.982 601.455 539.363C601.103 539.642 600.758 539.906 600.421 540.155C600.098 540.404 599.812 540.654 599.563 540.903V540.947H606.009V543.961H594.305C594.305 543.154 594.407 542.45 594.613 541.849C594.833 541.248 595.148 540.69 595.559 540.177C595.984 539.664 596.512 539.15 597.143 538.637C597.773 538.109 598.499 537.537 599.321 536.921C600.142 536.305 600.824 535.718 601.367 535.161C601.909 534.604 602.181 533.98 602.181 533.291C602.181 532.704 602.034 532.25 601.741 531.927C601.462 531.59 601.022 531.421 600.421 531.421C599.702 531.421 599.137 531.641 598.727 532.081C598.331 532.521 598.133 533.262 598.133 534.303Z" fill="white"/>
<path d="M658.59 527H652.562V511.27H658.546C662.902 511.27 665.542 514.086 665.542 519.146C665.542 524.206 662.946 527 658.59 527ZM654.982 524.91H658.436C662.088 524.91 663.034 522.182 663.034 519.146C663.034 516.11 662.088 513.36 658.436 513.36H654.982V524.91ZM677.406 521.148C677.406 521.456 677.406 521.786 677.384 521.962H668.76C668.804 523.832 669.904 525.57 672.126 525.57C674.106 525.57 674.876 524.294 675.074 523.546H677.274C676.68 525.702 675.03 527.33 672.082 527.33C668.518 527.33 666.538 524.8 666.538 521.368C666.538 517.848 668.65 515.428 672.082 515.428C675.492 515.428 677.406 517.672 677.406 521.148ZM668.76 520.268H675.162C675.162 518.508 673.93 517.188 672.016 517.188C670.212 517.188 668.892 518.42 668.76 520.268ZM683.209 527.308C679.799 527.308 678.105 525.548 678.039 523.26H680.217C680.305 524.558 681.097 525.57 683.187 525.57C685.079 525.57 685.585 524.734 685.585 523.92C685.585 522.512 684.089 522.358 682.637 522.05C680.679 521.588 678.435 521.016 678.435 518.684C678.435 516.748 679.997 515.45 682.703 515.45C685.783 515.45 687.257 517.1 687.411 519.036H685.233C685.079 518.178 684.617 517.188 682.747 517.188C681.295 517.188 680.679 517.76 680.679 518.596C680.679 519.762 681.933 519.872 683.517 520.224C685.585 520.708 687.829 521.302 687.829 523.81C687.829 525.988 686.157 527.308 683.209 527.308ZM691.399 513.778H688.957V511.446H691.399V513.778ZM691.245 527H689.089V515.78H691.245V527ZM701.145 517.1V515.78H703.301V526.12C703.301 529.508 701.255 531.026 698.043 531.026C694.831 531.026 693.225 529.486 693.005 527.462H695.249C695.469 528.474 696.217 529.266 698.043 529.266C700.089 529.266 701.145 528.364 701.145 526.252V524.734H701.101C700.485 525.636 699.451 526.428 697.647 526.428C694.853 526.428 692.697 524.536 692.697 520.95C692.697 517.342 694.853 515.45 697.647 515.45C699.451 515.45 700.485 516.308 701.101 517.1H701.145ZM698.043 524.646C699.979 524.646 701.123 523.392 701.123 520.95C701.123 518.486 699.979 517.254 698.043 517.254C695.931 517.254 694.941 518.838 694.941 520.95C694.941 523.062 695.931 524.646 698.043 524.646ZM711.164 515.45C713.232 515.45 714.904 516.638 714.904 519.212V527H712.748V519.806C712.748 518.31 712.088 517.298 710.46 517.298C708.612 517.298 707.424 518.42 707.424 520.114V527H705.268V515.78H707.424V517.188H707.468C708.062 516.33 709.228 515.45 711.164 515.45Z" fill="#1D1D1F"/>
<path opacity="0.5" d="M652.169 555V542.317H654.138V553.304H660.044V555H652.169ZM664.887 555.185C662.233 555.185 660.501 553.348 660.501 550.377V550.359C660.501 547.406 662.25 545.578 664.878 545.578C667.515 545.578 669.273 547.397 669.273 550.359V550.377C669.273 553.356 667.533 555.185 664.887 555.185ZM664.896 553.594C666.381 553.594 667.33 552.416 667.33 550.377V550.359C667.33 548.338 666.364 547.169 664.878 547.169C663.419 547.169 662.444 548.338 662.444 550.359V550.377C662.444 552.425 663.411 553.594 664.896 553.594ZM670.381 555V545.754H672.279V547.336H672.323C672.622 546.255 673.395 545.578 674.45 545.578C674.722 545.578 674.96 545.622 675.109 545.648V547.415C674.96 547.354 674.626 547.31 674.257 547.31C673.035 547.31 672.279 548.109 672.279 549.489V555H670.381ZM679.469 555.185C676.753 555.185 675.109 553.33 675.109 550.412V550.403C675.109 547.512 676.779 545.578 679.372 545.578C681.965 545.578 683.556 547.441 683.556 550.219V550.86H677.008C677.043 552.609 678.001 553.629 679.513 553.629C680.638 553.629 681.385 553.049 681.622 552.354L681.649 552.284H683.45L683.433 552.381C683.134 553.849 681.71 555.185 679.469 555.185ZM679.381 547.134C678.15 547.134 677.201 547.969 677.034 549.516H681.675C681.517 547.916 680.62 547.134 679.381 547.134ZM684.672 555V545.754H686.571V547.187H686.615C687.01 546.22 687.951 545.578 689.164 545.578C690.438 545.578 691.37 546.237 691.739 547.397H691.783C692.257 546.272 693.347 545.578 694.665 545.578C696.494 545.578 697.689 546.791 697.689 548.646V555H695.782V549.103C695.782 547.898 695.14 547.204 694.015 547.204C692.89 547.204 692.108 548.048 692.108 549.217V555H690.245V548.962C690.245 547.89 689.568 547.204 688.496 547.204C687.371 547.204 686.571 548.092 686.571 549.287V555H684.672ZM703.49 544.33C702.875 544.33 702.383 543.838 702.383 543.24C702.383 542.634 702.875 542.142 703.49 542.142C704.114 542.142 704.598 542.634 704.598 543.24C704.598 543.838 704.114 544.33 703.49 544.33ZM702.541 555V545.754H704.44V555H702.541ZM706.04 558.076V545.754H707.938V547.345H707.982C708.536 546.246 709.555 545.578 710.874 545.578C713.229 545.578 714.741 547.424 714.741 550.377V550.386C714.741 553.33 713.22 555.185 710.9 555.185C709.59 555.185 708.527 554.517 707.982 553.444H707.938V558.076H706.04ZM710.381 553.55C711.876 553.55 712.807 552.337 712.807 550.386V550.377C712.807 548.408 711.867 547.204 710.381 547.204C708.94 547.204 707.929 548.452 707.929 550.377V550.386C707.929 552.302 708.949 553.55 710.381 553.55ZM719.32 555.185C717.009 555.185 715.655 554.042 715.462 552.354L715.453 552.275H717.334L717.351 552.363C717.527 553.216 718.16 553.717 719.329 553.717C720.472 553.717 721.157 553.242 721.157 552.495V552.486C721.157 551.889 720.823 551.546 719.83 551.309L718.318 550.966C716.56 550.562 715.69 549.718 715.69 548.373V548.364C715.69 546.712 717.132 545.578 719.259 545.578C721.447 545.578 722.766 546.8 722.862 548.373L722.871 548.479H721.087L721.078 548.417C720.964 547.608 720.331 547.046 719.259 547.046C718.239 547.046 717.598 547.529 717.598 548.268V548.276C717.598 548.848 717.975 549.234 718.969 549.472L720.472 549.814C722.361 550.254 723.082 551.001 723.082 552.328V552.337C723.082 554.024 721.5 555.185 719.32 555.185ZM727.345 555.185C725.315 555.185 724.155 553.875 724.155 551.748V545.754H726.053V551.379C726.053 552.776 726.703 553.55 728.022 553.55C729.358 553.55 730.219 552.592 730.219 551.15V545.754H732.126V555H730.219V553.611H730.175C729.692 554.543 728.751 555.185 727.345 555.185ZM733.647 555V545.754H735.546V547.187H735.589C735.985 546.22 736.925 545.578 738.138 545.578C739.413 545.578 740.344 546.237 740.713 547.397H740.757C741.232 546.272 742.322 545.578 743.64 545.578C745.468 545.578 746.664 546.791 746.664 548.646V555H744.756V549.103C744.756 547.898 744.115 547.204 742.99 547.204C741.865 547.204 741.083 548.048 741.083 549.217V555H739.219V548.962C739.219 547.89 738.543 547.204 737.47 547.204C736.345 547.204 735.546 548.092 735.546 549.287V555H733.647ZM754.891 555.185C752.535 555.185 751.024 553.321 751.024 550.377V550.368C751.024 547.424 752.553 545.578 754.873 545.578C756.183 545.578 757.238 546.237 757.791 547.327H757.826V542.317H759.734V555H757.826V553.436H757.791C757.238 554.517 756.218 555.185 754.891 555.185ZM755.392 553.55C756.825 553.55 757.835 552.302 757.835 550.377V550.368C757.835 548.452 756.816 547.204 755.392 547.204C753.898 547.204 752.966 548.417 752.966 550.368V550.377C752.966 552.346 753.889 553.55 755.392 553.55ZM765.298 555.185C762.643 555.185 760.912 553.348 760.912 550.377V550.359C760.912 547.406 762.661 545.578 765.289 545.578C767.925 545.578 769.683 547.397 769.683 550.359V550.377C769.683 553.356 767.943 555.185 765.298 555.185ZM765.306 553.594C766.792 553.594 767.741 552.416 767.741 550.377V550.359C767.741 548.338 766.774 547.169 765.289 547.169C763.83 547.169 762.854 548.338 762.854 550.359V550.377C762.854 552.425 763.821 553.594 765.306 553.594ZM770.861 555V542.317H772.76V555H770.861ZM778.324 555.185C775.669 555.185 773.938 553.348 773.938 550.377V550.359C773.938 547.406 775.687 545.578 778.315 545.578C780.952 545.578 782.709 547.397 782.709 550.359V550.377C782.709 553.356 780.969 555.185 778.324 555.185ZM778.332 553.594C779.818 553.594 780.767 552.416 780.767 550.377V550.359C780.767 548.338 779.8 547.169 778.315 547.169C776.856 547.169 775.88 548.338 775.88 550.359V550.377C775.88 552.425 776.847 553.594 778.332 553.594ZM783.817 555V545.754H785.716V547.336H785.76C786.058 546.255 786.832 545.578 787.886 545.578C788.159 545.578 788.396 545.622 788.546 545.648V547.415C788.396 547.354 788.062 547.31 787.693 547.31C786.471 547.31 785.716 548.109 785.716 549.489V555H783.817ZM796.123 555.185C793.811 555.185 792.458 554.042 792.264 552.354L792.255 552.275H794.136L794.154 552.363C794.33 553.216 794.962 553.717 796.131 553.717C797.274 553.717 797.959 553.242 797.959 552.495V552.486C797.959 551.889 797.625 551.546 796.632 551.309L795.121 550.966C793.363 550.562 792.493 549.718 792.493 548.373V548.364C792.493 546.712 793.934 545.578 796.061 545.578C798.249 545.578 799.568 546.8 799.665 548.373L799.673 548.479H797.889L797.88 548.417C797.766 547.608 797.133 547.046 796.061 547.046C795.041 547.046 794.4 547.529 794.4 548.268V548.276C794.4 548.848 794.778 549.234 795.771 549.472L797.274 549.814C799.164 550.254 799.884 551.001 799.884 552.328V552.337C799.884 554.024 798.302 555.185 796.123 555.185ZM802.029 544.33C801.414 544.33 800.922 543.838 800.922 543.24C800.922 542.634 801.414 542.142 802.029 542.142C802.653 542.142 803.137 542.634 803.137 543.24C803.137 543.838 802.653 544.33 802.029 544.33ZM801.08 555V545.754H802.978V555H801.08ZM807.821 555.185C805.993 555.185 805.114 554.411 805.114 552.565V547.266H803.787V545.754H805.114V543.346H807.057V545.754H808.788V547.266H807.057V552.451C807.057 553.392 807.479 553.673 808.279 553.673C808.481 553.673 808.648 553.655 808.788 553.638V555.105C808.569 555.141 808.208 555.185 807.821 555.185ZM816.014 555.167C814.168 555.167 812.929 554.033 812.929 552.372V552.354C812.929 550.746 814.177 549.762 816.365 549.63L818.879 549.48V548.786C818.879 547.767 818.22 547.151 817.042 547.151C815.943 547.151 815.267 547.67 815.108 548.408L815.091 548.487H813.298L813.307 548.391C813.438 546.8 814.818 545.578 817.095 545.578C819.353 545.578 820.786 546.773 820.786 548.628V555H818.879V553.541H818.844C818.308 554.534 817.235 555.167 816.014 555.167ZM814.845 552.328C814.845 553.137 815.513 553.646 816.532 553.646C817.868 553.646 818.879 552.741 818.879 551.537V550.816L816.62 550.957C815.477 551.027 814.845 551.528 814.845 552.311V552.328ZM822.272 555V545.754H824.17V547.187H824.214C824.61 546.22 825.55 545.578 826.763 545.578C828.037 545.578 828.969 546.237 829.338 547.397H829.382C829.857 546.272 830.947 545.578 832.265 545.578C834.093 545.578 835.288 546.791 835.288 548.646V555H833.381V549.103C833.381 547.898 832.74 547.204 831.615 547.204C830.49 547.204 829.707 548.048 829.707 549.217V555H827.844V548.962C827.844 547.89 827.167 547.204 826.095 547.204C824.97 547.204 824.17 548.092 824.17 549.287V555H822.272ZM840.712 555.185C837.996 555.185 836.352 553.33 836.352 550.412V550.403C836.352 547.512 838.022 545.578 840.615 545.578C843.208 545.578 844.798 547.441 844.798 550.219V550.86H838.251C838.286 552.609 839.244 553.629 840.756 553.629C841.881 553.629 842.628 553.049 842.865 552.354L842.891 552.284H844.693L844.675 552.381C844.377 553.849 842.953 555.185 840.712 555.185ZM840.624 547.134C839.393 547.134 838.444 547.969 838.277 549.516H842.918C842.759 547.916 841.863 547.134 840.624 547.134ZM849.158 555.185C847.33 555.185 846.451 554.411 846.451 552.565V547.266H845.124V545.754H846.451V543.346H848.394V545.754H850.125V547.266H848.394V552.451C848.394 553.392 848.815 553.673 849.615 553.673C849.817 553.673 849.984 553.655 850.125 553.638V555.105C849.905 555.141 849.545 555.185 849.158 555.185Z" fill="#1D1D1F"/>
</g>
<rect x="555.5" y="482.5" width="349" height="101" rx="15.5" stroke="#E7E7E7" shape-rendering="crispEdges"/>
</g>
<g filter="url(#filter11_bd_5_695)">
<g clip-path="url(#clip2_5_695)">
<rect x="181" y="633" width="350" height="102" rx="16" fill="white" fill-opacity="0.5" shape-rendering="crispEdges"/>
<g opacity="0.16" filter="url(#filter12_f_5_695)">
<ellipse cx="228.062" cy="684" rx="35.3086" ry="34.4668" fill="url(#paint15_linear_5_695)"/>
</g>
<rect x="212.188" y="660" width="41.4345" height="41.4345" rx="9.6" transform="rotate(10 212.188 660)" fill="url(#paint16_linear_5_695)"/>
<g clip-path="url(#clip3_5_695)">
<g filter="url(#filter13_b_5_695)">
<rect x="205.602" y="666.3" width="41.4345" height="41.4345" rx="9.6" fill="white" fill-opacity="0.32"/>
<rect x="205.992" y="666.69" width="40.6545" height="40.6545" rx="9.21" stroke="white" stroke-opacity="0.2" stroke-width="0.78"/>
</g>
<g opacity="0.8">
<circle opacity="0.5" cx="226.311" cy="687.012" r="9.23276" stroke="white" stroke-width="0.18"/>
<circle opacity="0.5" cx="226.319" cy="687.015" r="12.8583" stroke="white" stroke-width="0.18"/>
<path d="M213.371 666.297V707.731" stroke="url(#paint17_linear_5_695)" stroke-width="0.18" stroke-dasharray="0.6 0.6"/>
<path d="M239.266 666.297V707.731" stroke="url(#paint18_linear_5_695)" stroke-width="0.18" stroke-dasharray="0.6 0.6"/>
<path d="M226.316 666.297V707.731" stroke="url(#paint19_linear_5_695)" stroke-width="0.18" stroke-dasharray="0.6 0.6"/>
<path d="M205.594 699.961H247.028" stroke="url(#paint20_linear_5_695)" stroke-width="0.18" stroke-dasharray="0.6 0.6"/>
<path d="M205.594 696.338H247.028" stroke="url(#paint21_linear_5_695)" stroke-width="0.18" stroke-dasharray="0.6 0.6"/>
<path d="M205.594 677.689H247.028" stroke="url(#paint22_linear_5_695)" stroke-width="0.18" stroke-dasharray="0.6 0.6"/>
<path d="M205.594 687.016H247.028" stroke="url(#paint23_linear_5_695)" stroke-width="0.18" stroke-dasharray="0.6 0.6"/>
<path d="M205.594 674.066H247.028" stroke="url(#paint24_linear_5_695)" stroke-width="0.18" stroke-dasharray="0.6 0.6"/>
<path d="M205.594 666.297L247.028 707.731" stroke="url(#paint25_linear_5_695)" stroke-width="0.18" stroke-dasharray="0.6 0.6"/>
<path d="M247.027 666.297L205.593 707.731" stroke="url(#paint26_linear_5_695)" stroke-width="0.18" stroke-dasharray="0.6 0.6"/>
</g>
</g>
<path d="M225.892 679.759H228.972V694.961H225.232V684.753C224.938 684.987 224.498 685.156 223.912 685.259C223.325 685.347 222.694 685.391 222.02 685.391V682.465C222.738 682.465 223.384 682.369 223.956 682.179C224.542 681.988 225.012 681.695 225.364 681.299C225.716 680.888 225.892 680.375 225.892 679.759Z" fill="white"/>
<path d="M285.14 678.308C280.674 678.308 277.792 674.876 277.792 670.146C277.792 665.394 280.696 661.962 285.162 661.962C289.1 661.962 291.542 664.47 291.916 667.616H289.386C289.1 666.076 288.132 664.052 285.118 664.052C281.642 664.052 280.322 667 280.322 670.124C280.322 673.27 281.642 676.218 285.118 676.218C288.154 676.218 289.232 674.194 289.386 672.28H291.916C291.564 675.778 289.1 678.308 285.14 678.308ZM298.276 678.33C294.778 678.33 292.666 675.91 292.666 672.39C292.666 668.892 294.778 666.428 298.298 666.428C301.774 666.428 303.886 668.87 303.886 672.368C303.886 675.888 301.774 678.33 298.276 678.33ZM298.298 676.548C300.586 676.548 301.642 674.722 301.642 672.39C301.642 670.036 300.586 668.232 298.298 668.232C295.966 668.232 294.91 670.036 294.91 672.39C294.91 674.722 295.966 676.548 298.298 676.548ZM311.177 666.45C313.245 666.45 314.917 667.638 314.917 670.212V678H312.761V670.806C312.761 669.31 312.101 668.298 310.473 668.298C308.625 668.298 307.437 669.42 307.437 671.114V678H305.281V666.78H307.437V668.188H307.481C308.075 667.33 309.241 666.45 311.177 666.45ZM321.736 678.33C318.392 678.33 316.214 675.91 316.214 672.39C316.214 668.87 318.392 666.45 321.714 666.45C324.596 666.45 326.51 668.32 326.774 670.85H324.552C324.442 669.684 323.782 668.232 321.736 668.232C319.338 668.232 318.458 670.278 318.458 672.39C318.458 674.502 319.338 676.526 321.736 676.526C323.804 676.526 324.442 675.118 324.552 673.842H326.774C326.62 676.416 324.618 678.33 321.736 678.33ZM338.351 672.148C338.351 672.456 338.351 672.786 338.329 672.962H329.705C329.749 674.832 330.849 676.57 333.071 676.57C335.051 676.57 335.821 675.294 336.019 674.546H338.219C337.625 676.702 335.975 678.33 333.027 678.33C329.463 678.33 327.483 675.8 327.483 672.368C327.483 668.848 329.595 666.428 333.027 666.428C336.437 666.428 338.351 668.672 338.351 672.148ZM329.705 671.268H336.107C336.107 669.508 334.875 668.188 332.961 668.188C331.157 668.188 329.837 669.42 329.705 671.268ZM345.387 666.45C348.247 666.45 350.425 668.694 350.425 672.39C350.425 676.086 348.247 678.308 345.387 678.308C343.627 678.308 342.549 677.516 341.933 676.614H341.889V681.894H339.733V666.78H341.889V668.1H341.933C342.549 667.308 343.627 666.45 345.387 666.45ZM345.035 676.526C347.147 676.526 348.159 674.59 348.159 672.39C348.159 670.19 347.147 668.254 345.035 668.254C343.099 668.254 341.911 669.838 341.911 672.39C341.911 674.92 343.099 676.526 345.035 676.526ZM355.761 676.35C356.135 676.35 356.311 676.328 356.685 676.262V678C356.135 678.11 355.783 678.132 355.321 678.132C353.473 678.132 352.351 677.428 352.351 674.832V668.562H350.723V666.78H352.351V663.172H354.507V666.78H356.663V668.562H354.507V674.898C354.507 676.086 354.837 676.35 355.761 676.35ZM365.409 673.666V666.78H367.565V678H365.409V676.592H365.365C364.771 677.45 363.605 678.308 361.669 678.308C359.601 678.308 357.929 677.12 357.929 674.546V666.78H360.085V673.952C360.085 675.47 360.745 676.482 362.373 676.482C364.221 676.482 365.409 675.36 365.409 673.666ZM372.646 678.308C370.402 678.308 368.972 677.01 368.972 675.096C368.972 672.588 370.864 671.84 373.658 671.312C375.418 670.982 376.496 670.762 376.496 669.662C376.496 668.848 376.012 668.166 374.362 668.166C372.404 668.166 371.81 668.782 371.7 670.278H369.5C369.61 668.122 371.018 666.428 374.45 666.428C376.76 666.428 378.608 667.396 378.608 670.3V675.448C378.608 676.262 378.718 676.68 379.136 676.68C379.202 676.68 379.268 676.68 379.4 676.658V677.978C379.026 678.066 378.652 678.11 378.3 678.11C377.222 678.11 376.65 677.692 376.518 676.416H376.474C375.748 677.582 374.472 678.308 372.646 678.308ZM373.13 676.57C375.066 676.57 376.496 675.58 376.496 673.622V672.016C376.144 672.346 375.176 672.588 374.032 672.83C372.052 673.226 371.216 673.776 371.216 674.942C371.216 675.998 371.788 676.57 373.13 676.57ZM382.947 678H380.791V662.27H382.947V678ZM387.237 664.778H384.795V662.446H387.237V664.778ZM387.083 678H384.927V666.78H387.083V678ZM397.577 678H388.271V676.394L394.409 668.606V668.562H388.667V666.78H397.335V668.166L391.043 676.174V676.218H397.577V678ZM408.845 672.148C408.845 672.456 408.845 672.786 408.823 672.962H400.199C400.243 674.832 401.343 676.57 403.565 676.57C405.545 676.57 406.315 675.294 406.513 674.546H408.713C408.119 676.702 406.469 678.33 403.521 678.33C399.957 678.33 397.977 675.8 397.977 672.368C397.977 668.848 400.089 666.428 403.521 666.428C406.931 666.428 408.845 668.672 408.845 672.148ZM400.199 671.268H406.601C406.601 669.508 405.369 668.188 403.455 668.188C401.651 668.188 400.331 669.42 400.199 671.268Z" fill="#1D1D1F"/>
<path opacity="0.5" d="M278.169 706V693.317H280.138V704.304H286.044V706H278.169ZM290.887 706.185C288.233 706.185 286.501 704.348 286.501 701.377V701.359C286.501 698.406 288.25 696.578 290.878 696.578C293.515 696.578 295.273 698.397 295.273 701.359V701.377C295.273 704.356 293.533 706.185 290.887 706.185ZM290.896 704.594C292.381 704.594 293.33 703.416 293.33 701.377V701.359C293.33 699.338 292.364 698.169 290.878 698.169C289.419 698.169 288.444 699.338 288.444 701.359V701.377C288.444 703.425 289.411 704.594 290.896 704.594ZM296.381 706V696.754H298.279V698.336H298.323C298.622 697.255 299.395 696.578 300.45 696.578C300.722 696.578 300.96 696.622 301.109 696.648V698.415C300.96 698.354 300.626 698.31 300.257 698.31C299.035 698.31 298.279 699.109 298.279 700.489V706H296.381ZM305.469 706.185C302.753 706.185 301.109 704.33 301.109 701.412V701.403C301.109 698.512 302.779 696.578 305.372 696.578C307.965 696.578 309.556 698.441 309.556 701.219V701.86H303.008C303.043 703.609 304.001 704.629 305.513 704.629C306.638 704.629 307.385 704.049 307.622 703.354L307.649 703.284H309.45L309.433 703.381C309.134 704.849 307.71 706.185 305.469 706.185ZM305.381 698.134C304.15 698.134 303.201 698.969 303.034 700.516H307.675C307.517 698.916 306.62 698.134 305.381 698.134ZM310.672 706V696.754H312.571V698.187H312.615C313.01 697.22 313.951 696.578 315.164 696.578C316.438 696.578 317.37 697.237 317.739 698.397H317.783C318.257 697.272 319.347 696.578 320.665 696.578C322.494 696.578 323.689 697.791 323.689 699.646V706H321.782V700.103C321.782 698.898 321.14 698.204 320.015 698.204C318.89 698.204 318.108 699.048 318.108 700.217V706H316.245V699.962C316.245 698.89 315.568 698.204 314.496 698.204C313.371 698.204 312.571 699.092 312.571 700.287V706H310.672ZM329.49 695.33C328.875 695.33 328.383 694.838 328.383 694.24C328.383 693.634 328.875 693.142 329.49 693.142C330.114 693.142 330.598 693.634 330.598 694.24C330.598 694.838 330.114 695.33 329.49 695.33ZM328.541 706V696.754H330.44V706H328.541ZM332.04 709.076V696.754H333.938V698.345H333.982C334.536 697.246 335.555 696.578 336.874 696.578C339.229 696.578 340.741 698.424 340.741 701.377V701.386C340.741 704.33 339.22 706.185 336.9 706.185C335.59 706.185 334.527 705.517 333.982 704.444H333.938V709.076H332.04ZM336.381 704.55C337.876 704.55 338.807 703.337 338.807 701.386V701.377C338.807 699.408 337.867 698.204 336.381 698.204C334.94 698.204 333.929 699.452 333.929 701.377V701.386C333.929 703.302 334.949 704.55 336.381 704.55ZM345.32 706.185C343.009 706.185 341.655 705.042 341.462 703.354L341.453 703.275H343.334L343.351 703.363C343.527 704.216 344.16 704.717 345.329 704.717C346.472 704.717 347.157 704.242 347.157 703.495V703.486C347.157 702.889 346.823 702.546 345.83 702.309L344.318 701.966C342.56 701.562 341.69 700.718 341.69 699.373V699.364C341.69 697.712 343.132 696.578 345.259 696.578C347.447 696.578 348.766 697.8 348.862 699.373L348.871 699.479H347.087L347.078 699.417C346.964 698.608 346.331 698.046 345.259 698.046C344.239 698.046 343.598 698.529 343.598 699.268V699.276C343.598 699.848 343.975 700.234 344.969 700.472L346.472 700.814C348.361 701.254 349.082 702.001 349.082 703.328V703.337C349.082 705.024 347.5 706.185 345.32 706.185ZM353.345 706.185C351.315 706.185 350.155 704.875 350.155 702.748V696.754H352.053V702.379C352.053 703.776 352.703 704.55 354.022 704.55C355.358 704.55 356.219 703.592 356.219 702.15V696.754H358.126V706H356.219V704.611H356.175C355.692 705.543 354.751 706.185 353.345 706.185ZM359.647 706V696.754H361.546V698.187H361.589C361.985 697.22 362.925 696.578 364.138 696.578C365.413 696.578 366.344 697.237 366.713 698.397H366.757C367.232 697.272 368.322 696.578 369.64 696.578C371.468 696.578 372.664 697.791 372.664 699.646V706H370.756V700.103C370.756 698.898 370.115 698.204 368.99 698.204C367.865 698.204 367.083 699.048 367.083 700.217V706H365.219V699.962C365.219 698.89 364.543 698.204 363.47 698.204C362.345 698.204 361.546 699.092 361.546 700.287V706H359.647ZM380.891 706.185C378.535 706.185 377.024 704.321 377.024 701.377V701.368C377.024 698.424 378.553 696.578 380.873 696.578C382.183 696.578 383.238 697.237 383.791 698.327H383.826V693.317H385.734V706H383.826V704.436H383.791C383.238 705.517 382.218 706.185 380.891 706.185ZM381.392 704.55C382.825 704.55 383.835 703.302 383.835 701.377V701.368C383.835 699.452 382.816 698.204 381.392 698.204C379.898 698.204 378.966 699.417 378.966 701.368V701.377C378.966 703.346 379.889 704.55 381.392 704.55ZM391.298 706.185C388.643 706.185 386.912 704.348 386.912 701.377V701.359C386.912 698.406 388.661 696.578 391.289 696.578C393.925 696.578 395.683 698.397 395.683 701.359V701.377C395.683 704.356 393.943 706.185 391.298 706.185ZM391.306 704.594C392.792 704.594 393.741 703.416 393.741 701.377V701.359C393.741 699.338 392.774 698.169 391.289 698.169C389.83 698.169 388.854 699.338 388.854 701.359V701.377C388.854 703.425 389.821 704.594 391.306 704.594ZM396.861 706V693.317H398.76V706H396.861ZM404.324 706.185C401.669 706.185 399.938 704.348 399.938 701.377V701.359C399.938 698.406 401.687 696.578 404.315 696.578C406.952 696.578 408.709 698.397 408.709 701.359V701.377C408.709 704.356 406.969 706.185 404.324 706.185ZM404.332 704.594C405.818 704.594 406.767 703.416 406.767 701.377V701.359C406.767 699.338 405.8 698.169 404.315 698.169C402.856 698.169 401.88 699.338 401.88 701.359V701.377C401.88 703.425 402.847 704.594 404.332 704.594ZM409.817 706V696.754H411.716V698.336H411.76C412.058 697.255 412.832 696.578 413.886 696.578C414.159 696.578 414.396 696.622 414.546 696.648V698.415C414.396 698.354 414.062 698.31 413.693 698.31C412.471 698.31 411.716 699.109 411.716 700.489V706H409.817ZM422.123 706.185C419.811 706.185 418.458 705.042 418.264 703.354L418.255 703.275H420.136L420.154 703.363C420.33 704.216 420.962 704.717 422.131 704.717C423.274 704.717 423.959 704.242 423.959 703.495V703.486C423.959 702.889 423.625 702.546 422.632 702.309L421.121 701.966C419.363 701.562 418.493 700.718 418.493 699.373V699.364C418.493 697.712 419.934 696.578 422.061 696.578C424.249 696.578 425.568 697.8 425.665 699.373L425.673 699.479H423.889L423.88 699.417C423.766 698.608 423.133 698.046 422.061 698.046C421.041 698.046 420.4 698.529 420.4 699.268V699.276C420.4 699.848 420.778 700.234 421.771 700.472L423.274 700.814C425.164 701.254 425.884 702.001 425.884 703.328V703.337C425.884 705.024 424.302 706.185 422.123 706.185ZM428.029 695.33C427.414 695.33 426.922 694.838 426.922 694.24C426.922 693.634 427.414 693.142 428.029 693.142C428.653 693.142 429.137 693.634 429.137 694.24C429.137 694.838 428.653 695.33 428.029 695.33ZM427.08 706V696.754H428.978V706H427.08ZM433.821 706.185C431.993 706.185 431.114 705.411 431.114 703.565V698.266H429.787V696.754H431.114V694.346H433.057V696.754H434.788V698.266H433.057V703.451C433.057 704.392 433.479 704.673 434.279 704.673C434.481 704.673 434.648 704.655 434.788 704.638V706.105C434.569 706.141 434.208 706.185 433.821 706.185ZM442.014 706.167C440.168 706.167 438.929 705.033 438.929 703.372V703.354C438.929 701.746 440.177 700.762 442.365 700.63L444.879 700.48V699.786C444.879 698.767 444.22 698.151 443.042 698.151C441.943 698.151 441.267 698.67 441.108 699.408L441.091 699.487H439.298L439.307 699.391C439.438 697.8 440.818 696.578 443.095 696.578C445.353 696.578 446.786 697.773 446.786 699.628V706H444.879V704.541H444.844C444.308 705.534 443.235 706.167 442.014 706.167ZM440.845 703.328C440.845 704.137 441.513 704.646 442.532 704.646C443.868 704.646 444.879 703.741 444.879 702.537V701.816L442.62 701.957C441.477 702.027 440.845 702.528 440.845 703.311V703.328ZM448.272 706V696.754H450.17V698.187H450.214C450.61 697.22 451.55 696.578 452.763 696.578C454.037 696.578 454.969 697.237 455.338 698.397H455.382C455.857 697.272 456.947 696.578 458.265 696.578C460.093 696.578 461.288 697.791 461.288 699.646V706H459.381V700.103C459.381 698.898 458.74 698.204 457.615 698.204C456.49 698.204 455.707 699.048 455.707 700.217V706H453.844V699.962C453.844 698.89 453.167 698.204 452.095 698.204C450.97 698.204 450.17 699.092 450.17 700.287V706H448.272ZM466.712 706.185C463.996 706.185 462.352 704.33 462.352 701.412V701.403C462.352 698.512 464.022 696.578 466.615 696.578C469.208 696.578 470.798 698.441 470.798 701.219V701.86H464.251C464.286 703.609 465.244 704.629 466.756 704.629C467.881 704.629 468.628 704.049 468.865 703.354L468.891 703.284H470.693L470.675 703.381C470.377 704.849 468.953 706.185 466.712 706.185ZM466.624 698.134C465.393 698.134 464.444 698.969 464.277 700.516H468.918C468.759 698.916 467.863 698.134 466.624 698.134ZM475.158 706.185C473.33 706.185 472.451 705.411 472.451 703.565V698.266H471.124V696.754H472.451V694.346H474.394V696.754H476.125V698.266H474.394V703.451C474.394 704.392 474.815 704.673 475.615 704.673C475.817 704.673 475.984 704.655 476.125 704.638V706.105C475.905 706.141 475.545 706.185 475.158 706.185Z" fill="#1D1D1F"/>
</g>
<rect x="181.5" y="633.5" width="349" height="101" rx="15.5" stroke="#E7E7E7" shape-rendering="crispEdges"/>
</g>
<g filter="url(#filter14_bd_5_695)">
<g clip-path="url(#clip4_5_695)">
<rect x="928" y="332" width="350" height="102" rx="16" fill="white" fill-opacity="0.5" shape-rendering="crispEdges"/>
<g opacity="0.16" filter="url(#filter15_f_5_695)">
<ellipse cx="975.062" cy="383" rx="35.3086" ry="34.4668" fill="url(#paint27_linear_5_695)"/>
</g>
<rect x="959.188" y="359" width="41.4345" height="41.4345" rx="9.6" transform="rotate(10 959.188 359)" fill="url(#paint28_linear_5_695)"/>
<g clip-path="url(#clip5_5_695)">
<g filter="url(#filter16_b_5_695)">
<rect x="952.602" y="365.3" width="41.4345" height="41.4345" rx="9.6" fill="white" fill-opacity="0.32"/>
<rect x="952.992" y="365.69" width="40.6545" height="40.6545" rx="9.21" stroke="white" stroke-opacity="0.2" stroke-width="0.78"/>
</g>
<g opacity="0.8">
<circle opacity="0.5" cx="973.311" cy="386.012" r="9.23276" stroke="white" stroke-width="0.18"/>
<circle opacity="0.5" cx="973.319" cy="386.015" r="12.8583" stroke="white" stroke-width="0.18"/>
<path d="M960.371 365.297V406.731" stroke="url(#paint29_linear_5_695)" stroke-width="0.18" stroke-dasharray="0.6 0.6"/>
<path d="M986.266 365.297V406.731" stroke="url(#paint30_linear_5_695)" stroke-width="0.18" stroke-dasharray="0.6 0.6"/>
<path d="M973.316 365.297V406.731" stroke="url(#paint31_linear_5_695)" stroke-width="0.18" stroke-dasharray="0.6 0.6"/>
<path d="M952.594 398.961H994.028" stroke="url(#paint32_linear_5_695)" stroke-width="0.18" stroke-dasharray="0.6 0.6"/>
<path d="M952.594 395.338H994.028" stroke="url(#paint33_linear_5_695)" stroke-width="0.18" stroke-dasharray="0.6 0.6"/>
<path d="M952.594 376.689H994.028" stroke="url(#paint34_linear_5_695)" stroke-width="0.18" stroke-dasharray="0.6 0.6"/>
<path d="M952.594 386.016H994.028" stroke="url(#paint35_linear_5_695)" stroke-width="0.18" stroke-dasharray="0.6 0.6"/>
<path d="M952.594 373.066H994.028" stroke="url(#paint36_linear_5_695)" stroke-width="0.18" stroke-dasharray="0.6 0.6"/>
<path d="M952.594 365.297L994.028 406.731" stroke="url(#paint37_linear_5_695)" stroke-width="0.18" stroke-dasharray="0.6 0.6"/>
<path d="M994.027 365.297L952.593 406.731" stroke="url(#paint38_linear_5_695)" stroke-width="0.18" stroke-dasharray="0.6 0.6"/>
</g>
</g>
<path d="M971.087 383.479H967.479C967.479 382.511 967.714 381.653 968.183 380.905C968.652 380.142 969.327 379.548 970.207 379.123C971.087 378.683 972.136 378.463 973.353 378.463C974.38 378.463 975.318 378.624 976.169 378.947C977.02 379.27 977.694 379.746 978.193 380.377C978.706 380.993 978.963 381.748 978.963 382.643C978.963 383.464 978.75 384.146 978.325 384.689C977.9 385.217 977.379 385.642 976.763 385.965V386.009C977.702 386.302 978.376 386.764 978.787 387.395C979.198 388.026 979.403 388.781 979.403 389.661C979.403 391.201 978.86 392.374 977.775 393.181C976.704 393.973 975.26 394.369 973.441 394.369C971.402 394.369 969.826 393.87 968.711 392.873C967.596 391.876 967.039 390.468 967.039 388.649H970.647C970.647 389.529 970.845 390.204 971.241 390.673C971.652 391.128 972.341 391.355 973.309 391.355C974.13 391.355 974.71 391.194 975.047 390.871C975.399 390.548 975.575 390.094 975.575 389.507C975.575 388.774 975.34 388.26 974.871 387.967C974.402 387.659 973.734 387.505 972.869 387.505H972.099V384.931H972.781C973.456 384.931 974.013 384.784 974.453 384.491C974.908 384.183 975.135 383.706 975.135 383.061C975.135 382.005 974.512 381.477 973.265 381.477C972.678 381.477 972.165 381.631 971.725 381.939C971.3 382.232 971.087 382.746 971.087 383.479Z" fill="white"/>
<path d="M1032.51 377.308C1027.81 377.308 1024.79 373.854 1024.79 369.124C1024.79 364.394 1027.81 360.962 1032.51 360.962C1037.22 360.962 1040.24 364.394 1040.24 369.124C1040.24 373.854 1037.22 377.308 1032.51 377.308ZM1032.51 375.218C1036.23 375.218 1037.71 372.358 1037.71 369.124C1037.71 365.89 1036.23 363.052 1032.51 363.052C1028.8 363.052 1027.32 365.89 1027.32 369.124C1027.32 372.358 1028.8 375.218 1032.51 375.218ZM1047.31 365.45C1050.17 365.45 1052.35 367.694 1052.35 371.39C1052.35 375.086 1050.17 377.308 1047.31 377.308C1045.55 377.308 1044.47 376.516 1043.86 375.614H1043.81V380.894H1041.66V365.78H1043.81V367.1H1043.86C1044.47 366.308 1045.55 365.45 1047.31 365.45ZM1046.96 375.526C1049.07 375.526 1050.08 373.59 1050.08 371.39C1050.08 369.19 1049.07 367.254 1046.96 367.254C1045.02 367.254 1043.83 368.838 1043.83 371.39C1043.83 373.92 1045.02 375.526 1046.96 375.526ZM1057.68 375.35C1058.06 375.35 1058.23 375.328 1058.61 375.262V377C1058.06 377.11 1057.71 377.132 1057.24 377.132C1055.4 377.132 1054.27 376.428 1054.27 373.832V367.562H1052.65V365.78H1054.27V362.172H1056.43V365.78H1058.59V367.562H1056.43V373.898C1056.43 375.086 1056.76 375.35 1057.68 375.35ZM1062.25 363.778H1059.81V361.446H1062.25V363.778ZM1062.1 377H1059.94V365.78H1062.1V377ZM1076.29 365.45C1078.55 365.45 1079.7 366.814 1079.7 369.212V377H1077.54V369.806C1077.54 368.31 1077.23 367.298 1075.58 367.298C1073.98 367.298 1072.96 368.42 1072.96 370.114V377H1070.81V369.806C1070.81 368.31 1070.5 367.298 1068.85 367.298C1067.24 367.298 1066.23 368.42 1066.23 370.114V377H1064.08V365.78H1066.23V367.188H1066.28C1066.87 366.33 1067.9 365.45 1069.6 365.45C1071.16 365.45 1072.13 366.154 1072.57 367.408H1072.61C1073.43 366.33 1074.57 365.45 1076.29 365.45ZM1083.93 363.778H1081.49V361.446H1083.93V363.778ZM1083.78 377H1081.62V365.78H1083.78V377ZM1094.27 377H1084.96V375.394L1091.1 367.606V367.562H1085.36V365.78H1094.03V367.166L1087.74 375.174V375.218H1094.27V377ZM1098.49 377.308C1096.25 377.308 1094.82 376.01 1094.82 374.096C1094.82 371.588 1096.71 370.84 1099.51 370.312C1101.27 369.982 1102.34 369.762 1102.34 368.662C1102.34 367.848 1101.86 367.166 1100.21 367.166C1098.25 367.166 1097.66 367.782 1097.55 369.278H1095.35C1095.46 367.122 1096.87 365.428 1100.3 365.428C1102.61 365.428 1104.46 366.396 1104.46 369.3V374.448C1104.46 375.262 1104.57 375.68 1104.98 375.68C1105.05 375.68 1105.12 375.68 1105.25 375.658V376.978C1104.87 377.066 1104.5 377.11 1104.15 377.11C1103.07 377.11 1102.5 376.692 1102.37 375.416H1102.32C1101.6 376.582 1100.32 377.308 1098.49 377.308ZM1098.98 375.57C1100.91 375.57 1102.34 374.58 1102.34 372.622V371.016C1101.99 371.346 1101.02 371.588 1099.88 371.83C1097.9 372.226 1097.06 372.776 1097.06 373.942C1097.06 374.998 1097.64 375.57 1098.98 375.57ZM1110.56 375.35C1110.93 375.35 1111.11 375.328 1111.48 375.262V377C1110.93 377.11 1110.58 377.132 1110.12 377.132C1108.27 377.132 1107.15 376.428 1107.15 373.832V367.562H1105.52V365.78H1107.15V362.172H1109.31V365.78H1111.46V367.562H1109.31V373.898C1109.31 375.086 1109.64 375.35 1110.56 375.35ZM1115.13 363.778H1112.68V361.446H1115.13V363.778ZM1114.97 377H1112.82V365.78H1114.97V377ZM1121.97 377.33C1118.47 377.33 1116.36 374.91 1116.36 371.39C1116.36 367.892 1118.47 365.428 1121.99 365.428C1125.47 365.428 1127.58 367.87 1127.58 371.368C1127.58 374.888 1125.47 377.33 1121.97 377.33ZM1121.99 375.548C1124.28 375.548 1125.33 373.722 1125.33 371.39C1125.33 369.036 1124.28 367.232 1121.99 367.232C1119.66 367.232 1118.6 369.036 1118.6 371.39C1118.6 373.722 1119.66 375.548 1121.99 375.548ZM1134.87 365.45C1136.94 365.45 1138.61 366.638 1138.61 369.212V377H1136.45V369.806C1136.45 368.31 1135.79 367.298 1134.17 367.298C1132.32 367.298 1131.13 368.42 1131.13 370.114V377H1128.97V365.78H1131.13V367.188H1131.17C1131.77 366.33 1132.93 365.45 1134.87 365.45Z" fill="#1D1D1F"/>
<path opacity="0.5" d="M1025.17 405V392.317H1027.14V403.304H1033.04V405H1025.17ZM1037.89 405.185C1035.23 405.185 1033.5 403.348 1033.5 400.377V400.359C1033.5 397.406 1035.25 395.578 1037.88 395.578C1040.52 395.578 1042.27 397.397 1042.27 400.359V400.377C1042.27 403.356 1040.53 405.185 1037.89 405.185ZM1037.9 403.594C1039.38 403.594 1040.33 402.416 1040.33 400.377V400.359C1040.33 398.338 1039.36 397.169 1037.88 397.169C1036.42 397.169 1035.44 398.338 1035.44 400.359V400.377C1035.44 402.425 1036.41 403.594 1037.9 403.594ZM1043.38 405V395.754H1045.28V397.336H1045.32C1045.62 396.255 1046.4 395.578 1047.45 395.578C1047.72 395.578 1047.96 395.622 1048.11 395.648V397.415C1047.96 397.354 1047.63 397.31 1047.26 397.31C1046.03 397.31 1045.28 398.109 1045.28 399.489V405H1043.38ZM1052.47 405.185C1049.75 405.185 1048.11 403.33 1048.11 400.412V400.403C1048.11 397.512 1049.78 395.578 1052.37 395.578C1054.96 395.578 1056.56 397.441 1056.56 400.219V400.86H1050.01C1050.04 402.609 1051 403.629 1052.51 403.629C1053.64 403.629 1054.38 403.049 1054.62 402.354L1054.65 402.284H1056.45L1056.43 402.381C1056.13 403.849 1054.71 405.185 1052.47 405.185ZM1052.38 397.134C1051.15 397.134 1050.2 397.969 1050.03 399.516H1054.67C1054.52 397.916 1053.62 397.134 1052.38 397.134ZM1057.67 405V395.754H1059.57V397.187H1059.61C1060.01 396.22 1060.95 395.578 1062.16 395.578C1063.44 395.578 1064.37 396.237 1064.74 397.397H1064.78C1065.26 396.272 1066.35 395.578 1067.67 395.578C1069.49 395.578 1070.69 396.791 1070.69 398.646V405H1068.78V399.103C1068.78 397.898 1068.14 397.204 1067.02 397.204C1065.89 397.204 1065.11 398.048 1065.11 399.217V405H1063.24V398.962C1063.24 397.89 1062.57 397.204 1061.5 397.204C1060.37 397.204 1059.57 398.092 1059.57 399.287V405H1057.67ZM1076.49 394.33C1075.88 394.33 1075.38 393.838 1075.38 393.24C1075.38 392.634 1075.88 392.142 1076.49 392.142C1077.11 392.142 1077.6 392.634 1077.6 393.24C1077.6 393.838 1077.11 394.33 1076.49 394.33ZM1075.54 405V395.754H1077.44V405H1075.54ZM1079.04 408.076V395.754H1080.94V397.345H1080.98C1081.54 396.246 1082.56 395.578 1083.87 395.578C1086.23 395.578 1087.74 397.424 1087.74 400.377V400.386C1087.74 403.33 1086.22 405.185 1083.9 405.185C1082.59 405.185 1081.53 404.517 1080.98 403.444H1080.94V408.076H1079.04ZM1083.38 403.55C1084.88 403.55 1085.81 402.337 1085.81 400.386V400.377C1085.81 398.408 1084.87 397.204 1083.38 397.204C1081.94 397.204 1080.93 398.452 1080.93 400.377V400.386C1080.93 402.302 1081.95 403.55 1083.38 403.55ZM1092.32 405.185C1090.01 405.185 1088.66 404.042 1088.46 402.354L1088.45 402.275H1090.33L1090.35 402.363C1090.53 403.216 1091.16 403.717 1092.33 403.717C1093.47 403.717 1094.16 403.242 1094.16 402.495V402.486C1094.16 401.889 1093.82 401.546 1092.83 401.309L1091.32 400.966C1089.56 400.562 1088.69 399.718 1088.69 398.373V398.364C1088.69 396.712 1090.13 395.578 1092.26 395.578C1094.45 395.578 1095.77 396.8 1095.86 398.373L1095.87 398.479H1094.09L1094.08 398.417C1093.96 397.608 1093.33 397.046 1092.26 397.046C1091.24 397.046 1090.6 397.529 1090.6 398.268V398.276C1090.6 398.848 1090.98 399.234 1091.97 399.472L1093.47 399.814C1095.36 400.254 1096.08 401.001 1096.08 402.328V402.337C1096.08 404.024 1094.5 405.185 1092.32 405.185ZM1100.34 405.185C1098.31 405.185 1097.15 403.875 1097.15 401.748V395.754H1099.05V401.379C1099.05 402.776 1099.7 403.55 1101.02 403.55C1102.36 403.55 1103.22 402.592 1103.22 401.15V395.754H1105.13V405H1103.22V403.611H1103.18C1102.69 404.543 1101.75 405.185 1100.34 405.185ZM1106.65 405V395.754H1108.55V397.187H1108.59C1108.98 396.22 1109.93 395.578 1111.14 395.578C1112.41 395.578 1113.34 396.237 1113.71 397.397H1113.76C1114.23 396.272 1115.32 395.578 1116.64 395.578C1118.47 395.578 1119.66 396.791 1119.66 398.646V405H1117.76V399.103C1117.76 397.898 1117.11 397.204 1115.99 397.204C1114.86 397.204 1114.08 398.048 1114.08 399.217V405H1112.22V398.962C1112.22 397.89 1111.54 397.204 1110.47 397.204C1109.35 397.204 1108.55 398.092 1108.55 399.287V405H1106.65ZM1127.89 405.185C1125.54 405.185 1124.02 403.321 1124.02 400.377V400.368C1124.02 397.424 1125.55 395.578 1127.87 395.578C1129.18 395.578 1130.24 396.237 1130.79 397.327H1130.83V392.317H1132.73V405H1130.83V403.436H1130.79C1130.24 404.517 1129.22 405.185 1127.89 405.185ZM1128.39 403.55C1129.82 403.55 1130.84 402.302 1130.84 400.377V400.368C1130.84 398.452 1129.82 397.204 1128.39 397.204C1126.9 397.204 1125.97 398.417 1125.97 400.368V400.377C1125.97 402.346 1126.89 403.55 1128.39 403.55ZM1138.3 405.185C1135.64 405.185 1133.91 403.348 1133.91 400.377V400.359C1133.91 397.406 1135.66 395.578 1138.29 395.578C1140.93 395.578 1142.68 397.397 1142.68 400.359V400.377C1142.68 403.356 1140.94 405.185 1138.3 405.185ZM1138.31 403.594C1139.79 403.594 1140.74 402.416 1140.74 400.377V400.359C1140.74 398.338 1139.77 397.169 1138.29 397.169C1136.83 397.169 1135.85 398.338 1135.85 400.359V400.377C1135.85 402.425 1136.82 403.594 1138.31 403.594ZM1143.86 405V392.317H1145.76V405H1143.86ZM1151.32 405.185C1148.67 405.185 1146.94 403.348 1146.94 400.377V400.359C1146.94 397.406 1148.69 395.578 1151.31 395.578C1153.95 395.578 1155.71 397.397 1155.71 400.359V400.377C1155.71 403.356 1153.97 405.185 1151.32 405.185ZM1151.33 403.594C1152.82 403.594 1153.77 402.416 1153.77 400.377V400.359C1153.77 398.338 1152.8 397.169 1151.31 397.169C1149.86 397.169 1148.88 398.338 1148.88 400.359V400.377C1148.88 402.425 1149.85 403.594 1151.33 403.594ZM1156.82 405V395.754H1158.72V397.336H1158.76C1159.06 396.255 1159.83 395.578 1160.89 395.578C1161.16 395.578 1161.4 395.622 1161.55 395.648V397.415C1161.4 397.354 1161.06 397.31 1160.69 397.31C1159.47 397.31 1158.72 398.109 1158.72 399.489V405H1156.82ZM1169.12 405.185C1166.81 405.185 1165.46 404.042 1165.26 402.354L1165.26 402.275H1167.14L1167.15 402.363C1167.33 403.216 1167.96 403.717 1169.13 403.717C1170.27 403.717 1170.96 403.242 1170.96 402.495V402.486C1170.96 401.889 1170.63 401.546 1169.63 401.309L1168.12 400.966C1166.36 400.562 1165.49 399.718 1165.49 398.373V398.364C1165.49 396.712 1166.93 395.578 1169.06 395.578C1171.25 395.578 1172.57 396.8 1172.66 398.373L1172.67 398.479H1170.89L1170.88 398.417C1170.77 397.608 1170.13 397.046 1169.06 397.046C1168.04 397.046 1167.4 397.529 1167.4 398.268V398.276C1167.4 398.848 1167.78 399.234 1168.77 399.472L1170.27 399.814C1172.16 400.254 1172.88 401.001 1172.88 402.328V402.337C1172.88 404.024 1171.3 405.185 1169.12 405.185ZM1175.03 394.33C1174.41 394.33 1173.92 393.838 1173.92 393.24C1173.92 392.634 1174.41 392.142 1175.03 392.142C1175.65 392.142 1176.14 392.634 1176.14 393.24C1176.14 393.838 1175.65 394.33 1175.03 394.33ZM1174.08 405V395.754H1175.98V405H1174.08ZM1180.82 405.185C1178.99 405.185 1178.11 404.411 1178.11 402.565V397.266H1176.79V395.754H1178.11V393.346H1180.06V395.754H1181.79V397.266H1180.06V402.451C1180.06 403.392 1180.48 403.673 1181.28 403.673C1181.48 403.673 1181.65 403.655 1181.79 403.638V405.105C1181.57 405.141 1181.21 405.185 1180.82 405.185ZM1189.01 405.167C1187.17 405.167 1185.93 404.033 1185.93 402.372V402.354C1185.93 400.746 1187.18 399.762 1189.37 399.63L1191.88 399.48V398.786C1191.88 397.767 1191.22 397.151 1190.04 397.151C1188.94 397.151 1188.27 397.67 1188.11 398.408L1188.09 398.487H1186.3L1186.31 398.391C1186.44 396.8 1187.82 395.578 1190.09 395.578C1192.35 395.578 1193.79 396.773 1193.79 398.628V405H1191.88V403.541H1191.84C1191.31 404.534 1190.24 405.167 1189.01 405.167ZM1187.84 402.328C1187.84 403.137 1188.51 403.646 1189.53 403.646C1190.87 403.646 1191.88 402.741 1191.88 401.537V400.816L1189.62 400.957C1188.48 401.027 1187.84 401.528 1187.84 402.311V402.328ZM1195.27 405V395.754H1197.17V397.187H1197.21C1197.61 396.22 1198.55 395.578 1199.76 395.578C1201.04 395.578 1201.97 396.237 1202.34 397.397H1202.38C1202.86 396.272 1203.95 395.578 1205.26 395.578C1207.09 395.578 1208.29 396.791 1208.29 398.646V405H1206.38V399.103C1206.38 397.898 1205.74 397.204 1204.61 397.204C1203.49 397.204 1202.71 398.048 1202.71 399.217V405H1200.84V398.962C1200.84 397.89 1200.17 397.204 1199.1 397.204C1197.97 397.204 1197.17 398.092 1197.17 399.287V405H1195.27ZM1213.71 405.185C1211 405.185 1209.35 403.33 1209.35 400.412V400.403C1209.35 397.512 1211.02 395.578 1213.61 395.578C1216.21 395.578 1217.8 397.441 1217.8 400.219V400.86H1211.25C1211.29 402.609 1212.24 403.629 1213.76 403.629C1214.88 403.629 1215.63 403.049 1215.86 402.354L1215.89 402.284H1217.69L1217.68 402.381C1217.38 403.849 1215.95 405.185 1213.71 405.185ZM1213.62 397.134C1212.39 397.134 1211.44 397.969 1211.28 399.516H1215.92C1215.76 397.916 1214.86 397.134 1213.62 397.134ZM1222.16 405.185C1220.33 405.185 1219.45 404.411 1219.45 402.565V397.266H1218.12V395.754H1219.45V393.346H1221.39V395.754H1223.12V397.266H1221.39V402.451C1221.39 403.392 1221.82 403.673 1222.62 403.673C1222.82 403.673 1222.98 403.655 1223.12 403.638V405.105C1222.91 405.141 1222.54 405.185 1222.16 405.185Z" fill="#1D1D1F"/>
</g>
<rect x="928.5" y="332.5" width="349" height="101" rx="15.5" stroke="#E7E7E7" shape-rendering="crispEdges"/>
</g>
<g filter="url(#filter17_bd_5_695)">
<g clip-path="url(#clip6_5_695)">
<rect x="1308" y="197.106" width="350" height="102" rx="16" fill="white" fill-opacity="0.5" shape-rendering="crispEdges"/>
<g opacity="0.16" filter="url(#filter18_f_5_695)">
<ellipse cx="1355.06" cy="248.106" rx="35.3086" ry="34.4668" fill="url(#paint39_linear_5_695)"/>
</g>
<rect x="1339.19" y="224.106" width="41.4345" height="41.4345" rx="9.6" transform="rotate(10 1339.19 224.106)" fill="url(#paint40_linear_5_695)"/>
<g clip-path="url(#clip7_5_695)">
<g filter="url(#filter19_b_5_695)">
<rect x="1332.6" y="230.406" width="41.4345" height="41.4345" rx="9.6" fill="white" fill-opacity="0.32"/>
<rect x="1332.99" y="230.796" width="40.6545" height="40.6545" rx="9.21" stroke="white" stroke-opacity="0.2" stroke-width="0.78"/>
</g>
<g opacity="0.8">
<circle opacity="0.5" cx="1353.31" cy="251.118" r="9.23276" stroke="white" stroke-width="0.18"/>
<circle opacity="0.5" cx="1353.32" cy="251.121" r="12.8583" stroke="white" stroke-width="0.18"/>
<path d="M1340.37 230.403V271.837" stroke="url(#paint41_linear_5_695)" stroke-width="0.18" stroke-dasharray="0.6 0.6"/>
<path d="M1366.27 230.403V271.837" stroke="url(#paint42_linear_5_695)" stroke-width="0.18" stroke-dasharray="0.6 0.6"/>
<path d="M1353.32 230.403V271.837" stroke="url(#paint43_linear_5_695)" stroke-width="0.18" stroke-dasharray="0.6 0.6"/>
<path d="M1332.59 264.067H1374.03" stroke="url(#paint44_linear_5_695)" stroke-width="0.18" stroke-dasharray="0.6 0.6"/>
<path d="M1332.59 260.444H1374.03" stroke="url(#paint45_linear_5_695)" stroke-width="0.18" stroke-dasharray="0.6 0.6"/>
<path d="M1332.59 241.795H1374.03" stroke="url(#paint46_linear_5_695)" stroke-width="0.18" stroke-dasharray="0.6 0.6"/>
<path d="M1332.59 251.122H1374.03" stroke="url(#paint47_linear_5_695)" stroke-width="0.18" stroke-dasharray="0.6 0.6"/>
<path d="M1332.59 238.172H1374.03" stroke="url(#paint48_linear_5_695)" stroke-width="0.18" stroke-dasharray="0.6 0.6"/>
<path d="M1332.59 230.403L1374.03 271.837" stroke="url(#paint49_linear_5_695)" stroke-width="0.18" stroke-dasharray="0.6 0.6"/>
<path d="M1374.03 230.403L1332.59 271.837" stroke="url(#paint50_linear_5_695)" stroke-width="0.18" stroke-dasharray="0.6 0.6"/>
</g>
</g>
<path d="M1357.43 259.123H1353.69V255.911H1346.8V252.237L1353.69 243.921H1357.43V252.897H1359.67V255.911H1357.43V259.123ZM1353.69 247.991L1349.55 252.897H1353.69V247.991Z" fill="white"/>
<path d="M1411.59 242.106H1405.56V226.376H1411.55C1415.9 226.376 1418.54 229.192 1418.54 234.252C1418.54 239.312 1415.95 242.106 1411.59 242.106ZM1407.98 240.016H1411.44C1415.09 240.016 1416.03 237.288 1416.03 234.252C1416.03 231.216 1415.09 228.466 1411.44 228.466H1407.98V240.016ZM1430.41 236.254C1430.41 236.562 1430.41 236.892 1430.38 237.068H1421.76C1421.8 238.938 1422.9 240.676 1425.13 240.676C1427.11 240.676 1427.88 239.4 1428.07 238.652H1430.27C1429.68 240.808 1428.03 242.436 1425.08 242.436C1421.52 242.436 1419.54 239.906 1419.54 236.474C1419.54 232.954 1421.65 230.534 1425.08 230.534C1428.49 230.534 1430.41 232.778 1430.41 236.254ZM1421.76 235.374H1428.16C1428.16 233.614 1426.93 232.294 1425.02 232.294C1423.21 232.294 1421.89 233.526 1421.76 235.374ZM1436.81 242.106H1434.39L1430.39 230.886H1432.7L1435.65 239.884H1435.67L1438.57 230.886H1440.82L1436.81 242.106ZM1451.68 236.254C1451.68 236.562 1451.68 236.892 1451.65 237.068H1443.03C1443.07 238.938 1444.17 240.676 1446.4 240.676C1448.38 240.676 1449.15 239.4 1449.34 238.652H1451.54C1450.95 240.808 1449.3 242.436 1446.35 242.436C1442.79 242.436 1440.81 239.906 1440.81 236.474C1440.81 232.954 1442.92 230.534 1446.35 230.534C1449.76 230.534 1451.68 232.778 1451.68 236.254ZM1443.03 235.374H1449.43C1449.43 233.614 1448.2 232.294 1446.29 232.294C1444.48 232.294 1443.16 233.526 1443.03 235.374ZM1455.21 242.106H1453.06V226.376H1455.21V242.106ZM1462.21 242.436C1458.71 242.436 1456.6 240.016 1456.6 236.496C1456.6 232.998 1458.71 230.534 1462.23 230.534C1465.71 230.534 1467.82 232.976 1467.82 236.474C1467.82 239.994 1465.71 242.436 1462.21 242.436ZM1462.23 240.654C1464.52 240.654 1465.58 238.828 1465.58 236.496C1465.58 234.142 1464.52 232.338 1462.23 232.338C1459.9 232.338 1458.84 234.142 1458.84 236.496C1458.84 238.828 1459.9 240.654 1462.23 240.654ZM1474.87 230.556C1477.73 230.556 1479.91 232.8 1479.91 236.496C1479.91 240.192 1477.73 242.414 1474.87 242.414C1473.11 242.414 1472.03 241.622 1471.41 240.72H1471.37V246H1469.21V230.886H1471.37V232.206H1471.41C1472.03 231.414 1473.11 230.556 1474.87 230.556ZM1474.52 240.632C1476.63 240.632 1477.64 238.696 1477.64 236.496C1477.64 234.296 1476.63 232.36 1474.52 232.36C1472.58 232.36 1471.39 233.944 1471.39 236.496C1471.39 239.026 1472.58 240.632 1474.52 240.632Z" fill="#1D1D1F"/>
<path opacity="0.5" d="M1405.17 270.106V257.423H1407.14V268.41H1413.04V270.106H1405.17ZM1417.89 270.291C1415.23 270.291 1413.5 268.454 1413.5 265.483V265.465C1413.5 262.512 1415.25 260.684 1417.88 260.684C1420.52 260.684 1422.27 262.503 1422.27 265.465V265.483C1422.27 268.462 1420.53 270.291 1417.89 270.291ZM1417.9 268.7C1419.38 268.7 1420.33 267.522 1420.33 265.483V265.465C1420.33 263.444 1419.36 262.275 1417.88 262.275C1416.42 262.275 1415.44 263.444 1415.44 265.465V265.483C1415.44 267.531 1416.41 268.7 1417.9 268.7ZM1423.38 270.106V260.86H1425.28V262.442H1425.32C1425.62 261.361 1426.4 260.684 1427.45 260.684C1427.72 260.684 1427.96 260.728 1428.11 260.754V262.521C1427.96 262.459 1427.63 262.416 1427.26 262.416C1426.03 262.416 1425.28 263.215 1425.28 264.595V270.106H1423.38ZM1432.47 270.291C1429.75 270.291 1428.11 268.436 1428.11 265.518V265.509C1428.11 262.618 1429.78 260.684 1432.37 260.684C1434.96 260.684 1436.56 262.547 1436.56 265.325V265.966H1430.01C1430.04 267.715 1431 268.735 1432.51 268.735C1433.64 268.735 1434.38 268.155 1434.62 267.46L1434.65 267.39H1436.45L1436.43 267.487C1436.13 268.955 1434.71 270.291 1432.47 270.291ZM1432.38 262.24C1431.15 262.24 1430.2 263.075 1430.03 264.622H1434.67C1434.52 263.022 1433.62 262.24 1432.38 262.24ZM1437.67 270.106V260.86H1439.57V262.292H1439.61C1440.01 261.326 1440.95 260.684 1442.16 260.684C1443.44 260.684 1444.37 261.343 1444.74 262.503H1444.78C1445.26 261.378 1446.35 260.684 1447.67 260.684C1449.49 260.684 1450.69 261.897 1450.69 263.751V270.106H1448.78V264.208C1448.78 263.004 1448.14 262.31 1447.02 262.31C1445.89 262.31 1445.11 263.154 1445.11 264.323V270.106H1443.24V264.068C1443.24 262.996 1442.57 262.31 1441.5 262.31C1440.37 262.31 1439.57 263.198 1439.57 264.393V270.106H1437.67ZM1456.49 259.436C1455.88 259.436 1455.38 258.944 1455.38 258.346C1455.38 257.74 1455.88 257.248 1456.49 257.248C1457.11 257.248 1457.6 257.74 1457.6 258.346C1457.6 258.944 1457.11 259.436 1456.49 259.436ZM1455.54 270.106V260.86H1457.44V270.106H1455.54ZM1459.04 273.182V260.86H1460.94V262.451H1460.98C1461.54 261.352 1462.56 260.684 1463.87 260.684C1466.23 260.684 1467.74 262.53 1467.74 265.483V265.492C1467.74 268.436 1466.22 270.291 1463.9 270.291C1462.59 270.291 1461.53 269.623 1460.98 268.55H1460.94V273.182H1459.04ZM1463.38 268.656C1464.88 268.656 1465.81 267.443 1465.81 265.492V265.483C1465.81 263.514 1464.87 262.31 1463.38 262.31C1461.94 262.31 1460.93 263.558 1460.93 265.483V265.492C1460.93 267.408 1461.95 268.656 1463.38 268.656ZM1472.32 270.291C1470.01 270.291 1468.66 269.148 1468.46 267.46L1468.45 267.381H1470.33L1470.35 267.469C1470.53 268.322 1471.16 268.823 1472.33 268.823C1473.47 268.823 1474.16 268.348 1474.16 267.601V267.592C1474.16 266.995 1473.82 266.652 1472.83 266.415L1471.32 266.072C1469.56 265.667 1468.69 264.824 1468.69 263.479V263.47C1468.69 261.818 1470.13 260.684 1472.26 260.684C1474.45 260.684 1475.77 261.906 1475.86 263.479L1475.87 263.584H1474.09L1474.08 263.523C1473.96 262.714 1473.33 262.152 1472.26 262.152C1471.24 262.152 1470.6 262.635 1470.6 263.374V263.382C1470.6 263.954 1470.98 264.34 1471.97 264.578L1473.47 264.92C1475.36 265.36 1476.08 266.107 1476.08 267.434V267.443C1476.08 269.13 1474.5 270.291 1472.32 270.291ZM1480.34 270.291C1478.31 270.291 1477.15 268.981 1477.15 266.854V260.86H1479.05V266.485C1479.05 267.882 1479.7 268.656 1481.02 268.656C1482.36 268.656 1483.22 267.698 1483.22 266.256V260.86H1485.13V270.106H1483.22V268.717H1483.18C1482.69 269.649 1481.75 270.291 1480.34 270.291ZM1486.65 270.106V260.86H1488.55V262.292H1488.59C1488.98 261.326 1489.93 260.684 1491.14 260.684C1492.41 260.684 1493.34 261.343 1493.71 262.503H1493.76C1494.23 261.378 1495.32 260.684 1496.64 260.684C1498.47 260.684 1499.66 261.897 1499.66 263.751V270.106H1497.76V264.208C1497.76 263.004 1497.11 262.31 1495.99 262.31C1494.86 262.31 1494.08 263.154 1494.08 264.323V270.106H1492.22V264.068C1492.22 262.996 1491.54 262.31 1490.47 262.31C1489.35 262.31 1488.55 263.198 1488.55 264.393V270.106H1486.65ZM1507.89 270.291C1505.54 270.291 1504.02 268.427 1504.02 265.483V265.474C1504.02 262.53 1505.55 260.684 1507.87 260.684C1509.18 260.684 1510.24 261.343 1510.79 262.433H1510.83V257.423H1512.73V270.106H1510.83V268.542H1510.79C1510.24 269.623 1509.22 270.291 1507.89 270.291ZM1508.39 268.656C1509.82 268.656 1510.84 267.408 1510.84 265.483V265.474C1510.84 263.558 1509.82 262.31 1508.39 262.31C1506.9 262.31 1505.97 263.523 1505.97 265.474V265.483C1505.97 267.452 1506.89 268.656 1508.39 268.656ZM1518.3 270.291C1515.64 270.291 1513.91 268.454 1513.91 265.483V265.465C1513.91 262.512 1515.66 260.684 1518.29 260.684C1520.93 260.684 1522.68 262.503 1522.68 265.465V265.483C1522.68 268.462 1520.94 270.291 1518.3 270.291ZM1518.31 268.7C1519.79 268.7 1520.74 267.522 1520.74 265.483V265.465C1520.74 263.444 1519.77 262.275 1518.29 262.275C1516.83 262.275 1515.85 263.444 1515.85 265.465V265.483C1515.85 267.531 1516.82 268.7 1518.31 268.7ZM1523.86 270.106V257.423H1525.76V270.106H1523.86ZM1531.32 270.291C1528.67 270.291 1526.94 268.454 1526.94 265.483V265.465C1526.94 262.512 1528.69 260.684 1531.31 260.684C1533.95 260.684 1535.71 262.503 1535.71 265.465V265.483C1535.71 268.462 1533.97 270.291 1531.32 270.291ZM1531.33 268.7C1532.82 268.7 1533.77 267.522 1533.77 265.483V265.465C1533.77 263.444 1532.8 262.275 1531.31 262.275C1529.86 262.275 1528.88 263.444 1528.88 265.465V265.483C1528.88 267.531 1529.85 268.7 1531.33 268.7ZM1536.82 270.106V260.86H1538.72V262.442H1538.76C1539.06 261.361 1539.83 260.684 1540.89 260.684C1541.16 260.684 1541.4 260.728 1541.55 260.754V262.521C1541.4 262.459 1541.06 262.416 1540.69 262.416C1539.47 262.416 1538.72 263.215 1538.72 264.595V270.106H1536.82ZM1549.12 270.291C1546.81 270.291 1545.46 269.148 1545.26 267.46L1545.26 267.381H1547.14L1547.15 267.469C1547.33 268.322 1547.96 268.823 1549.13 268.823C1550.27 268.823 1550.96 268.348 1550.96 267.601V267.592C1550.96 266.995 1550.63 266.652 1549.63 266.415L1548.12 266.072C1546.36 265.667 1545.49 264.824 1545.49 263.479V263.47C1545.49 261.818 1546.93 260.684 1549.06 260.684C1551.25 260.684 1552.57 261.906 1552.66 263.479L1552.67 263.584H1550.89L1550.88 263.523C1550.77 262.714 1550.13 262.152 1549.06 262.152C1548.04 262.152 1547.4 262.635 1547.4 263.374V263.382C1547.4 263.954 1547.78 264.34 1548.77 264.578L1550.27 264.92C1552.16 265.36 1552.88 266.107 1552.88 267.434V267.443C1552.88 269.13 1551.3 270.291 1549.12 270.291ZM1555.03 259.436C1554.41 259.436 1553.92 258.944 1553.92 258.346C1553.92 257.74 1554.41 257.248 1555.03 257.248C1555.65 257.248 1556.14 257.74 1556.14 258.346C1556.14 258.944 1555.65 259.436 1555.03 259.436ZM1554.08 270.106V260.86H1555.98V270.106H1554.08ZM1560.82 270.291C1558.99 270.291 1558.11 269.517 1558.11 267.671V262.372H1556.79V260.86H1558.11V258.452H1560.06V260.86H1561.79V262.372H1560.06V267.557C1560.06 268.498 1560.48 268.779 1561.28 268.779C1561.48 268.779 1561.65 268.761 1561.79 268.744V270.211C1561.57 270.247 1561.21 270.291 1560.82 270.291ZM1569.01 270.273C1567.17 270.273 1565.93 269.139 1565.93 267.478V267.46C1565.93 265.852 1567.18 264.868 1569.37 264.736L1571.88 264.586V263.892C1571.88 262.873 1571.22 262.257 1570.04 262.257C1568.94 262.257 1568.27 262.776 1568.11 263.514L1568.09 263.593H1566.3L1566.31 263.497C1566.44 261.906 1567.82 260.684 1570.09 260.684C1572.35 260.684 1573.79 261.879 1573.79 263.734V270.106H1571.88V268.647H1571.84C1571.31 269.64 1570.24 270.273 1569.01 270.273ZM1567.84 267.434C1567.84 268.243 1568.51 268.752 1569.53 268.752C1570.87 268.752 1571.88 267.847 1571.88 266.643V265.922L1569.62 266.063C1568.48 266.133 1567.84 266.634 1567.84 267.417V267.434ZM1575.27 270.106V260.86H1577.17V262.292H1577.21C1577.61 261.326 1578.55 260.684 1579.76 260.684C1581.04 260.684 1581.97 261.343 1582.34 262.503H1582.38C1582.86 261.378 1583.95 260.684 1585.26 260.684C1587.09 260.684 1588.29 261.897 1588.29 263.751V270.106H1586.38V264.208C1586.38 263.004 1585.74 262.31 1584.61 262.31C1583.49 262.31 1582.71 263.154 1582.71 264.323V270.106H1580.84V264.068C1580.84 262.996 1580.17 262.31 1579.1 262.31C1577.97 262.31 1577.17 263.198 1577.17 264.393V270.106H1575.27ZM1593.71 270.291C1591 270.291 1589.35 268.436 1589.35 265.518V265.509C1589.35 262.618 1591.02 260.684 1593.61 260.684C1596.21 260.684 1597.8 262.547 1597.8 265.325V265.966H1591.25C1591.29 267.715 1592.24 268.735 1593.76 268.735C1594.88 268.735 1595.63 268.155 1595.86 267.46L1595.89 267.39H1597.69L1597.68 267.487C1597.38 268.955 1595.95 270.291 1593.71 270.291ZM1593.62 262.24C1592.39 262.24 1591.44 263.075 1591.28 264.622H1595.92C1595.76 263.022 1594.86 262.24 1593.62 262.24ZM1602.16 270.291C1600.33 270.291 1599.45 269.517 1599.45 267.671V262.372H1598.12V260.86H1599.45V258.452H1601.39V260.86H1603.12V262.372H1601.39V267.557C1601.39 268.498 1601.82 268.779 1602.62 268.779C1602.82 268.779 1602.98 268.761 1603.12 268.744V270.211C1602.91 270.247 1602.54 270.291 1602.16 270.291Z" fill="#1D1D1F"/>
</g>
<rect x="1308.5" y="197.606" width="349" height="101" rx="15.5" stroke="#E7E7E7" shape-rendering="crispEdges"/>
</g>
<g opacity="0.1" filter="url(#filter20_f_5_695)">
<ellipse cx="352.602" cy="683.148" rx="202.398" ry="97.5659" fill="url(#paint51_linear_5_695)"/>
</g>
<g opacity="0.1" filter="url(#filter21_f_5_695)">
<ellipse cx="727.602" cy="532.148" rx="202.398" ry="97.5659" fill="url(#paint52_linear_5_695)"/>
</g>
<g opacity="0.1" filter="url(#filter22_f_5_695)">
<ellipse cx="1101.6" cy="382.148" rx="202.398" ry="97.5659" fill="url(#paint53_linear_5_695)"/>
</g>
<g opacity="0.1" filter="url(#filter23_f_5_695)">
<ellipse cx="1480.6" cy="248.148" rx="202.398" ry="97.5659" fill="url(#paint54_linear_5_695)"/>
</g>
<defs>
<filter id="filter0_i_5_695" x="1636.5" y="315" width="32" height="36" filterUnits="userSpaceOnUse" color-interpolation-filters="sRGB">
<feFlood flood-opacity="0" result="BackgroundImageFix"/>
<feBlend mode="normal" in="SourceGraphic" in2="BackgroundImageFix" result="shape"/>
<feColorMatrix in="SourceAlpha" type="matrix" values="0 0 0 0 0 0 0 0 0 0 0 0 0 0 0 0 0 0 127 0" result="hardAlpha"/>
<feOffset dy="4"/>
<feGaussianBlur stdDeviation="2"/>
<feComposite in2="hardAlpha" operator="arithmetic" k2="-1" k3="1"/>
<feColorMatrix type="matrix" values="0 0 0 0 0 0 0 0 0 0 0 0 0 0 0 0 0 0 0.25 0"/>
<feBlend mode="normal" in2="shape" result="effect1_innerShadow_5_695"/>
</filter>
<filter id="filter1_d_5_695" x="1640.79" y="319.286" width="23.4285" height="23.4285" filterUnits="userSpaceOnUse" color-interpolation-filters="sRGB">
<feFlood flood-opacity="0" result="BackgroundImageFix"/>
<feColorMatrix in="SourceAlpha" type="matrix" values="0 0 0 0 0 0 0 0 0 0 0 0 0 0 0 0 0 0 127 0" result="hardAlpha"/>
<feOffset/>
<feGaussianBlur stdDeviation="3"/>
<feComposite in2="hardAlpha" operator="out"/>
<feColorMatrix type="matrix" values="0 0 0 0 0.0784314 0 0 0 0 0.431373 0 0 0 0 0.984314 0 0 0 1 0"/>
<feBlend mode="normal" in2="BackgroundImageFix" result="effect1_dropShadow_5_695"/>
<feBlend mode="normal" in="SourceGraphic" in2="effect1_dropShadow_5_695" result="shape"/>
</filter>
<filter id="filter2_i_5_695" x="1262.5" y="461" width="32" height="36" filterUnits="userSpaceOnUse" color-interpolation-filters="sRGB">
<feFlood flood-opacity="0" result="BackgroundImageFix"/>
<feBlend mode="normal" in="SourceGraphic" in2="BackgroundImageFix" result="shape"/>
<feColorMatrix in="SourceAlpha" type="matrix" values="0 0 0 0 0 0 0 0 0 0 0 0 0 0 0 0 0 0 127 0" result="hardAlpha"/>
<feOffset dy="4"/>
<feGaussianBlur stdDeviation="2"/>
<feComposite in2="hardAlpha" operator="arithmetic" k2="-1" k3="1"/>
<feColorMatrix type="matrix" values="0 0 0 0 0 0 0 0 0 0 0 0 0 0 0 0 0 0 0.25 0"/>
<feBlend mode="normal" in2="shape" result="effect1_innerShadow_5_695"/>
</filter>
<filter id="filter3_d_5_695" x="1266.79" y="465.286" width="23.4286" height="23.4285" filterUnits="userSpaceOnUse" color-interpolation-filters="sRGB">
<feFlood flood-opacity="0" result="BackgroundImageFix"/>
<feColorMatrix in="SourceAlpha" type="matrix" values="0 0 0 0 0 0 0 0 0 0 0 0 0 0 0 0 0 0 127 0" result="hardAlpha"/>
<feOffset/>
<feGaussianBlur stdDeviation="3"/>
<feComposite in2="hardAlpha" operator="out"/>
<feColorMatrix type="matrix" values="0 0 0 0 0.0784314 0 0 0 0 0.431373 0 0 0 0 0.984314 0 0 0 1 0"/>
<feBlend mode="normal" in2="BackgroundImageFix" result="effect1_dropShadow_5_695"/>
<feBlend mode="normal" in="SourceGraphic" in2="effect1_dropShadow_5_695" result="shape"/>
</filter>
<filter id="filter4_i_5_695" x="887.5" y="610" width="32" height="36" filterUnits="userSpaceOnUse" color-interpolation-filters="sRGB">
<feFlood flood-opacity="0" result="BackgroundImageFix"/>
<feBlend mode="normal" in="SourceGraphic" in2="BackgroundImageFix" result="shape"/>
<feColorMatrix in="SourceAlpha" type="matrix" values="0 0 0 0 0 0 0 0 0 0 0 0 0 0 0 0 0 0 127 0" result="hardAlpha"/>
<feOffset dy="4"/>
<feGaussianBlur stdDeviation="2"/>
<feComposite in2="hardAlpha" operator="arithmetic" k2="-1" k3="1"/>
<feColorMatrix type="matrix" values="0 0 0 0 0 0 0 0 0 0 0 0 0 0 0 0 0 0 0.25 0"/>
<feBlend mode="normal" in2="shape" result="effect1_innerShadow_5_695"/>
</filter>
<filter id="filter5_d_5_695" x="891.786" y="614.286" width="23.4286" height="23.4285" filterUnits="userSpaceOnUse" color-interpolation-filters="sRGB">
<feFlood flood-opacity="0" result="BackgroundImageFix"/>
<feColorMatrix in="SourceAlpha" type="matrix" values="0 0 0 0 0 0 0 0 0 0 0 0 0 0 0 0 0 0 127 0" result="hardAlpha"/>
<feOffset/>
<feGaussianBlur stdDeviation="3"/>
<feComposite in2="hardAlpha" operator="out"/>
<feColorMatrix type="matrix" values="0 0 0 0 0.0784314 0 0 0 0 0.431373 0 0 0 0 0.984314 0 0 0 1 0"/>
<feBlend mode="normal" in2="BackgroundImageFix" result="effect1_dropShadow_5_695"/>
<feBlend mode="normal" in="SourceGraphic" in2="effect1_dropShadow_5_695" result="shape"/>
</filter>
<filter id="filter6_i_5_695" x="514.5" y="761" width="32" height="36" filterUnits="userSpaceOnUse" color-interpolation-filters="sRGB">
<feFlood flood-opacity="0" result="BackgroundImageFix"/>
<feBlend mode="normal" in="SourceGraphic" in2="BackgroundImageFix" result="shape"/>
<feColorMatrix in="SourceAlpha" type="matrix" values="0 0 0 0 0 0 0 0 0 0 0 0 0 0 0 0 0 0 127 0" result="hardAlpha"/>
<feOffset dy="4"/>
<feGaussianBlur stdDeviation="2"/>
<feComposite in2="hardAlpha" operator="arithmetic" k2="-1" k3="1"/>
<feColorMatrix type="matrix" values="0 0 0 0 0 0 0 0 0 0 0 0 0 0 0 0 0 0 0.25 0"/>
<feBlend mode="normal" in2="shape" result="effect1_innerShadow_5_695"/>
</filter>
<filter id="filter7_d_5_695" x="518.786" y="765.286" width="23.4286" height="23.4285" filterUnits="userSpaceOnUse" color-interpolation-filters="sRGB">
<feFlood flood-opacity="0" result="BackgroundImageFix"/>
<feColorMatrix in="SourceAlpha" type="matrix" values="0 0 0 0 0 0 0 0 0 0 0 0 0 0 0 0 0 0 127 0" result="hardAlpha"/>
<feOffset/>
<feGaussianBlur stdDeviation="3"/>
<feComposite in2="hardAlpha" operator="out"/>
<feColorMatrix type="matrix" values="0 0 0 0 0.0784314 0 0 0 0 0.431373 0 0 0 0 0.984314 0 0 0 1 0"/>
<feBlend mode="normal" in2="BackgroundImageFix" result="effect1_dropShadow_5_695"/>
<feBlend mode="normal" in="SourceGraphic" in2="effect1_dropShadow_5_695" result="shape"/>
</filter>
<filter id="filter8_bd_5_695" x="475" y="402" width="510" height="262" filterUnits="userSpaceOnUse" color-interpolation-filters="sRGB">
<feFlood flood-opacity="0" result="BackgroundImageFix"/>
<feGaussianBlur in="BackgroundImageFix" stdDeviation="20"/>
<feComposite in2="SourceAlpha" operator="in" result="effect1_backgroundBlur_5_695"/>
<feColorMatrix in="SourceAlpha" type="matrix" values="0 0 0 0 0 0 0 0 0 0 0 0 0 0 0 0 0 0 127 0" result="hardAlpha"/>
<feOffset/>
<feGaussianBlur stdDeviation="40"/>
<feComposite in2="hardAlpha" operator="out"/>
<feColorMatrix type="matrix" values="0 0 0 0 0 0 0 0 0 0 0 0 0 0 0 0 0 0 0.06 0"/>
<feBlend mode="normal" in2="effect1_backgroundBlur_5_695" result="effect2_dropShadow_5_695"/>
<feBlend mode="normal" in="SourceGraphic" in2="effect2_dropShadow_5_695" result="shape"/>
</filter>
<filter id="filter9_f_5_695" x="516.754" y="448.533" width="170.617" height="168.934" filterUnits="userSpaceOnUse" color-interpolation-filters="sRGB">
<feFlood flood-opacity="0" result="BackgroundImageFix"/>
<feBlend mode="normal" in="SourceGraphic" in2="BackgroundImageFix" result="shape"/>
<feGaussianBlur stdDeviation="25" result="effect1_foregroundBlur_5_695"/>
</filter>
<filter id="filter10_b_5_695" x="570.002" y="505.7" width="60.6344" height="60.6346" filterUnits="userSpaceOnUse" color-interpolation-filters="sRGB">
<feFlood flood-opacity="0" result="BackgroundImageFix"/>
<feGaussianBlur in="BackgroundImageFix" stdDeviation="4.8"/>
<feComposite in2="SourceAlpha" operator="in" result="effect1_backgroundBlur_5_695"/>
<feBlend mode="normal" in="SourceGraphic" in2="effect1_backgroundBlur_5_695" result="shape"/>
</filter>
<filter id="filter11_bd_5_695" x="101" y="553" width="510" height="262" filterUnits="userSpaceOnUse" color-interpolation-filters="sRGB">
<feFlood flood-opacity="0" result="BackgroundImageFix"/>
<feGaussianBlur in="BackgroundImageFix" stdDeviation="20"/>
<feComposite in2="SourceAlpha" operator="in" result="effect1_backgroundBlur_5_695"/>
<feColorMatrix in="SourceAlpha" type="matrix" values="0 0 0 0 0 0 0 0 0 0 0 0 0 0 0 0 0 0 127 0" result="hardAlpha"/>
<feOffset/>
<feGaussianBlur stdDeviation="40"/>
<feComposite in2="hardAlpha" operator="out"/>
<feColorMatrix type="matrix" values="0 0 0 0 0 0 0 0 0 0 0 0 0 0 0 0 0 0 0.06 0"/>
<feBlend mode="normal" in2="effect1_backgroundBlur_5_695" result="effect2_dropShadow_5_695"/>
<feBlend mode="normal" in="SourceGraphic" in2="effect2_dropShadow_5_695" result="shape"/>
</filter>
<filter id="filter12_f_5_695" x="142.754" y="599.533" width="170.617" height="168.934" filterUnits="userSpaceOnUse" color-interpolation-filters="sRGB">
<feFlood flood-opacity="0" result="BackgroundImageFix"/>
<feBlend mode="normal" in="SourceGraphic" in2="BackgroundImageFix" result="shape"/>
<feGaussianBlur stdDeviation="25" result="effect1_foregroundBlur_5_695"/>
</filter>
<filter id="filter13_b_5_695" x="196.002" y="656.7" width="60.6344" height="60.6346" filterUnits="userSpaceOnUse" color-interpolation-filters="sRGB">
<feFlood flood-opacity="0" result="BackgroundImageFix"/>
<feGaussianBlur in="BackgroundImageFix" stdDeviation="4.8"/>
<feComposite in2="SourceAlpha" operator="in" result="effect1_backgroundBlur_5_695"/>
<feBlend mode="normal" in="SourceGraphic" in2="effect1_backgroundBlur_5_695" result="shape"/>
</filter>
<filter id="filter14_bd_5_695" x="848" y="252" width="510" height="262" filterUnits="userSpaceOnUse" color-interpolation-filters="sRGB">
<feFlood flood-opacity="0" result="BackgroundImageFix"/>
<feGaussianBlur in="BackgroundImageFix" stdDeviation="20"/>
<feComposite in2="SourceAlpha" operator="in" result="effect1_backgroundBlur_5_695"/>
<feColorMatrix in="SourceAlpha" type="matrix" values="0 0 0 0 0 0 0 0 0 0 0 0 0 0 0 0 0 0 127 0" result="hardAlpha"/>
<feOffset/>
<feGaussianBlur stdDeviation="40"/>
<feComposite in2="hardAlpha" operator="out"/>
<feColorMatrix type="matrix" values="0 0 0 0 0 0 0 0 0 0 0 0 0 0 0 0 0 0 0.06 0"/>
<feBlend mode="normal" in2="effect1_backgroundBlur_5_695" result="effect2_dropShadow_5_695"/>
<feBlend mode="normal" in="SourceGraphic" in2="effect2_dropShadow_5_695" result="shape"/>
</filter>
<filter id="filter15_f_5_695" x="889.754" y="298.533" width="170.617" height="168.934" filterUnits="userSpaceOnUse" color-interpolation-filters="sRGB">
<feFlood flood-opacity="0" result="BackgroundImageFix"/>
<feBlend mode="normal" in="SourceGraphic" in2="BackgroundImageFix" result="shape"/>
<feGaussianBlur stdDeviation="25" result="effect1_foregroundBlur_5_695"/>
</filter>
<filter id="filter16_b_5_695" x="943.002" y="355.7" width="60.6344" height="60.6346" filterUnits="userSpaceOnUse" color-interpolation-filters="sRGB">
<feFlood flood-opacity="0" result="BackgroundImageFix"/>
<feGaussianBlur in="BackgroundImageFix" stdDeviation="4.8"/>
<feComposite in2="SourceAlpha" operator="in" result="effect1_backgroundBlur_5_695"/>
<feBlend mode="normal" in="SourceGraphic" in2="effect1_backgroundBlur_5_695" result="shape"/>
</filter>
<filter id="filter17_bd_5_695" x="1228" y="117.106" width="510" height="262" filterUnits="userSpaceOnUse" color-interpolation-filters="sRGB">
<feFlood flood-opacity="0" result="BackgroundImageFix"/>
<feGaussianBlur in="BackgroundImageFix" stdDeviation="20"/>
<feComposite in2="SourceAlpha" operator="in" result="effect1_backgroundBlur_5_695"/>
<feColorMatrix in="SourceAlpha" type="matrix" values="0 0 0 0 0 0 0 0 0 0 0 0 0 0 0 0 0 0 127 0" result="hardAlpha"/>
<feOffset/>
<feGaussianBlur stdDeviation="40"/>
<feComposite in2="hardAlpha" operator="out"/>
<feColorMatrix type="matrix" values="0 0 0 0 0 0 0 0 0 0 0 0 0 0 0 0 0 0 0.06 0"/>
<feBlend mode="normal" in2="effect1_backgroundBlur_5_695" result="effect2_dropShadow_5_695"/>
<feBlend mode="normal" in="SourceGraphic" in2="effect2_dropShadow_5_695" result="shape"/>
</filter>
<filter id="filter18_f_5_695" x="1269.75" y="163.639" width="170.617" height="168.934" filterUnits="userSpaceOnUse" color-interpolation-filters="sRGB">
<feFlood flood-opacity="0" result="BackgroundImageFix"/>
<feBlend mode="normal" in="SourceGraphic" in2="BackgroundImageFix" result="shape"/>
<feGaussianBlur stdDeviation="25" result="effect1_foregroundBlur_5_695"/>
</filter>
<filter id="filter19_b_5_695" x="1323" y="220.806" width="60.6346" height="60.6346" filterUnits="userSpaceOnUse" color-interpolation-filters="sRGB">
<feFlood flood-opacity="0" result="BackgroundImageFix"/>
<feGaussianBlur in="BackgroundImageFix" stdDeviation="4.8"/>
<feComposite in2="SourceAlpha" operator="in" result="effect1_backgroundBlur_5_695"/>
<feBlend mode="normal" in="SourceGraphic" in2="effect1_backgroundBlur_5_695" result="shape"/>
</filter>
<filter id="filter20_f_5_695" x="0.203125" y="435.583" width="704.797" height="495.132" filterUnits="userSpaceOnUse" color-interpolation-filters="sRGB">
<feFlood flood-opacity="0" result="BackgroundImageFix"/>
<feBlend mode="normal" in="SourceGraphic" in2="BackgroundImageFix" result="shape"/>
<feGaussianBlur stdDeviation="75" result="effect1_foregroundBlur_5_695"/>
</filter>
<filter id="filter21_f_5_695" x="375.203" y="284.583" width="704.797" height="495.132" filterUnits="userSpaceOnUse" color-interpolation-filters="sRGB">
<feFlood flood-opacity="0" result="BackgroundImageFix"/>
<feBlend mode="normal" in="SourceGraphic" in2="BackgroundImageFix" result="shape"/>
<feGaussianBlur stdDeviation="75" result="effect1_foregroundBlur_5_695"/>
</filter>
<filter id="filter22_f_5_695" x="749.203" y="134.583" width="704.797" height="495.132" filterUnits="userSpaceOnUse" color-interpolation-filters="sRGB">
<feFlood flood-opacity="0" result="BackgroundImageFix"/>
<feBlend mode="normal" in="SourceGraphic" in2="BackgroundImageFix" result="shape"/>
<feGaussianBlur stdDeviation="75" result="effect1_foregroundBlur_5_695"/>
</filter>
<filter id="filter23_f_5_695" x="1128.2" y="0.58252" width="704.797" height="495.132" filterUnits="userSpaceOnUse" color-interpolation-filters="sRGB">
<feFlood flood-opacity="0" result="BackgroundImageFix"/>
<feBlend mode="normal" in="SourceGraphic" in2="BackgroundImageFix" result="shape"/>
<feGaussianBlur stdDeviation="75" result="effect1_foregroundBlur_5_695"/>
</filter>
<linearGradient id="paint0_linear_5_695" x1="136" y1="933" x2="1750.96" y2="453.914" gradientUnits="userSpaceOnUse">
<stop stop-color="#A517FC"/>
<stop offset="1" stop-color="#179CFC"/>
</linearGradient>
<linearGradient id="paint1_linear_5_695" x1="787.38" y1="477.683" x2="804.5" y2="933" gradientUnits="userSpaceOnUse">
<stop stop-color="white" stop-opacity="0"/>
<stop offset="1" stop-color="white"/>
</linearGradient>
<linearGradient id="paint2_linear_5_695" x1="1652.5" y1="331" x2="177.457" y2="281.302" gradientUnits="userSpaceOnUse">
<stop stop-color="#047AFF" stop-opacity="0"/>
<stop offset="0.158541" stop-color="#146CFB"/>
<stop offset="0.837371" stop-color="#7917DF"/>
<stop offset="1" stop-color="#7917DF" stop-opacity="0"/>
</linearGradient>
<linearGradient id="paint3_linear_5_695" x1="567.404" y1="498.339" x2="650.577" y2="499.938" gradientUnits="userSpaceOnUse">
<stop stop-color="#047AFF"/>
<stop offset="1" stop-color="#7917DF"/>
</linearGradient>
<linearGradient id="paint4_linear_5_695" x1="586.569" y1="508.883" x2="635.371" y2="509.799" gradientUnits="userSpaceOnUse">
<stop stop-color="#047AFF"/>
<stop offset="1" stop-color="#7917DF"/>
</linearGradient>
<linearGradient id="paint5_linear_5_695" x1="587.871" y1="515.297" x2="587.871" y2="556.731" gradientUnits="userSpaceOnUse">
<stop stop-color="white" stop-opacity="0"/>
<stop offset="0.26" stop-color="white"/>
<stop offset="0.471357" stop-color="white"/>
<stop offset="0.71" stop-color="white"/>
<stop offset="1" stop-color="white" stop-opacity="0"/>
</linearGradient>
<linearGradient id="paint6_linear_5_695" x1="613.766" y1="515.297" x2="613.766" y2="556.731" gradientUnits="userSpaceOnUse">
<stop stop-color="white" stop-opacity="0"/>
<stop offset="0.26" stop-color="white"/>
<stop offset="0.471357" stop-color="white"/>
<stop offset="0.71" stop-color="white"/>
<stop offset="1" stop-color="white" stop-opacity="0"/>
</linearGradient>
<linearGradient id="paint7_linear_5_695" x1="600.816" y1="515.297" x2="600.816" y2="556.731" gradientUnits="userSpaceOnUse">
<stop stop-color="white" stop-opacity="0"/>
<stop offset="0.26" stop-color="white"/>
<stop offset="0.471357" stop-color="white"/>
<stop offset="0.71" stop-color="white"/>
<stop offset="1" stop-color="white" stop-opacity="0"/>
</linearGradient>
<linearGradient id="paint8_linear_5_695" x1="579.594" y1="548.461" x2="621.028" y2="548.461" gradientUnits="userSpaceOnUse">
<stop stop-color="white" stop-opacity="0"/>
<stop offset="0.26" stop-color="white"/>
<stop offset="0.471357" stop-color="white"/>
<stop offset="0.71" stop-color="white"/>
<stop offset="1" stop-color="white" stop-opacity="0"/>
</linearGradient>
<linearGradient id="paint9_linear_5_695" x1="579.594" y1="544.838" x2="621.028" y2="544.838" gradientUnits="userSpaceOnUse">
<stop stop-color="white" stop-opacity="0"/>
<stop offset="0.26" stop-color="white"/>
<stop offset="0.471357" stop-color="white"/>
<stop offset="0.71" stop-color="white"/>
<stop offset="1" stop-color="white" stop-opacity="0"/>
</linearGradient>
<linearGradient id="paint10_linear_5_695" x1="579.594" y1="526.189" x2="621.028" y2="526.189" gradientUnits="userSpaceOnUse">
<stop stop-color="white" stop-opacity="0"/>
<stop offset="0.26" stop-color="white"/>
<stop offset="0.471357" stop-color="white"/>
<stop offset="0.71" stop-color="white"/>
<stop offset="1" stop-color="white" stop-opacity="0"/>
</linearGradient>
<linearGradient id="paint11_linear_5_695" x1="579.594" y1="535.516" x2="621.028" y2="535.516" gradientUnits="userSpaceOnUse">
<stop stop-color="white" stop-opacity="0"/>
<stop offset="0.26" stop-color="white"/>
<stop offset="0.471357" stop-color="white"/>
<stop offset="0.71" stop-color="white"/>
<stop offset="1" stop-color="white" stop-opacity="0"/>
</linearGradient>
<linearGradient id="paint12_linear_5_695" x1="579.594" y1="522.566" x2="621.028" y2="522.566" gradientUnits="userSpaceOnUse">
<stop stop-color="white" stop-opacity="0"/>
<stop offset="0.26" stop-color="white"/>
<stop offset="0.471357" stop-color="white"/>
<stop offset="0.71" stop-color="white"/>
<stop offset="1" stop-color="white" stop-opacity="0"/>
</linearGradient>
<linearGradient id="paint13_linear_5_695" x1="579.947" y1="514.943" x2="621.382" y2="556.378" gradientUnits="userSpaceOnUse">
<stop stop-color="white" stop-opacity="0"/>
<stop offset="0.354789" stop-color="white"/>
<stop offset="0.471357" stop-color="white"/>
<stop offset="0.588196" stop-color="white"/>
<stop offset="1" stop-color="white" stop-opacity="0"/>
</linearGradient>
<linearGradient id="paint14_linear_5_695" x1="620.674" y1="514.943" x2="579.239" y2="556.378" gradientUnits="userSpaceOnUse">
<stop stop-color="white" stop-opacity="0"/>
<stop offset="0.354789" stop-color="white"/>
<stop offset="0.471357" stop-color="white"/>
<stop offset="0.588196" stop-color="white"/>
<stop offset="1" stop-color="white" stop-opacity="0"/>
</linearGradient>
<linearGradient id="paint15_linear_5_695" x1="193.404" y1="649.339" x2="276.577" y2="650.938" gradientUnits="userSpaceOnUse">
<stop stop-color="#047AFF"/>
<stop offset="1" stop-color="#7917DF"/>
</linearGradient>
<linearGradient id="paint16_linear_5_695" x1="212.569" y1="659.883" x2="261.371" y2="660.799" gradientUnits="userSpaceOnUse">
<stop stop-color="#047AFF"/>
<stop offset="1" stop-color="#7917DF"/>
</linearGradient>
<linearGradient id="paint17_linear_5_695" x1="213.871" y1="666.297" x2="213.871" y2="707.731" gradientUnits="userSpaceOnUse">
<stop stop-color="white" stop-opacity="0"/>
<stop offset="0.26" stop-color="white"/>
<stop offset="0.471357" stop-color="white"/>
<stop offset="0.71" stop-color="white"/>
<stop offset="1" stop-color="white" stop-opacity="0"/>
</linearGradient>
<linearGradient id="paint18_linear_5_695" x1="239.766" y1="666.297" x2="239.766" y2="707.731" gradientUnits="userSpaceOnUse">
<stop stop-color="white" stop-opacity="0"/>
<stop offset="0.26" stop-color="white"/>
<stop offset="0.471357" stop-color="white"/>
<stop offset="0.71" stop-color="white"/>
<stop offset="1" stop-color="white" stop-opacity="0"/>
</linearGradient>
<linearGradient id="paint19_linear_5_695" x1="226.816" y1="666.297" x2="226.816" y2="707.731" gradientUnits="userSpaceOnUse">
<stop stop-color="white" stop-opacity="0"/>
<stop offset="0.26" stop-color="white"/>
<stop offset="0.471357" stop-color="white"/>
<stop offset="0.71" stop-color="white"/>
<stop offset="1" stop-color="white" stop-opacity="0"/>
</linearGradient>
<linearGradient id="paint20_linear_5_695" x1="205.594" y1="699.461" x2="247.028" y2="699.461" gradientUnits="userSpaceOnUse">
<stop stop-color="white" stop-opacity="0"/>
<stop offset="0.26" stop-color="white"/>
<stop offset="0.471357" stop-color="white"/>
<stop offset="0.71" stop-color="white"/>
<stop offset="1" stop-color="white" stop-opacity="0"/>
</linearGradient>
<linearGradient id="paint21_linear_5_695" x1="205.594" y1="695.838" x2="247.028" y2="695.838" gradientUnits="userSpaceOnUse">
<stop stop-color="white" stop-opacity="0"/>
<stop offset="0.26" stop-color="white"/>
<stop offset="0.471357" stop-color="white"/>
<stop offset="0.71" stop-color="white"/>
<stop offset="1" stop-color="white" stop-opacity="0"/>
</linearGradient>
<linearGradient id="paint22_linear_5_695" x1="205.594" y1="677.189" x2="247.028" y2="677.189" gradientUnits="userSpaceOnUse">
<stop stop-color="white" stop-opacity="0"/>
<stop offset="0.26" stop-color="white"/>
<stop offset="0.471357" stop-color="white"/>
<stop offset="0.71" stop-color="white"/>
<stop offset="1" stop-color="white" stop-opacity="0"/>
</linearGradient>
<linearGradient id="paint23_linear_5_695" x1="205.594" y1="686.516" x2="247.028" y2="686.516" gradientUnits="userSpaceOnUse">
<stop stop-color="white" stop-opacity="0"/>
<stop offset="0.26" stop-color="white"/>
<stop offset="0.471357" stop-color="white"/>
<stop offset="0.71" stop-color="white"/>
<stop offset="1" stop-color="white" stop-opacity="0"/>
</linearGradient>
<linearGradient id="paint24_linear_5_695" x1="205.594" y1="673.566" x2="247.028" y2="673.566" gradientUnits="userSpaceOnUse">
<stop stop-color="white" stop-opacity="0"/>
<stop offset="0.26" stop-color="white"/>
<stop offset="0.471357" stop-color="white"/>
<stop offset="0.71" stop-color="white"/>
<stop offset="1" stop-color="white" stop-opacity="0"/>
</linearGradient>
<linearGradient id="paint25_linear_5_695" x1="205.947" y1="665.943" x2="247.382" y2="707.378" gradientUnits="userSpaceOnUse">
<stop stop-color="white" stop-opacity="0"/>
<stop offset="0.354789" stop-color="white"/>
<stop offset="0.471357" stop-color="white"/>
<stop offset="0.588196" stop-color="white"/>
<stop offset="1" stop-color="white" stop-opacity="0"/>
</linearGradient>
<linearGradient id="paint26_linear_5_695" x1="246.674" y1="665.943" x2="205.239" y2="707.378" gradientUnits="userSpaceOnUse">
<stop stop-color="white" stop-opacity="0"/>
<stop offset="0.354789" stop-color="white"/>
<stop offset="0.471357" stop-color="white"/>
<stop offset="0.588196" stop-color="white"/>
<stop offset="1" stop-color="white" stop-opacity="0"/>
</linearGradient>
<linearGradient id="paint27_linear_5_695" x1="940.404" y1="348.339" x2="1023.58" y2="349.938" gradientUnits="userSpaceOnUse">
<stop stop-color="#047AFF"/>
<stop offset="1" stop-color="#7917DF"/>
</linearGradient>
<linearGradient id="paint28_linear_5_695" x1="959.569" y1="358.883" x2="1008.37" y2="359.799" gradientUnits="userSpaceOnUse">
<stop stop-color="#047AFF"/>
<stop offset="1" stop-color="#7917DF"/>
</linearGradient>
<linearGradient id="paint29_linear_5_695" x1="960.871" y1="365.297" x2="960.871" y2="406.731" gradientUnits="userSpaceOnUse">
<stop stop-color="white" stop-opacity="0"/>
<stop offset="0.26" stop-color="white"/>
<stop offset="0.471357" stop-color="white"/>
<stop offset="0.71" stop-color="white"/>
<stop offset="1" stop-color="white" stop-opacity="0"/>
</linearGradient>
<linearGradient id="paint30_linear_5_695" x1="986.766" y1="365.297" x2="986.766" y2="406.731" gradientUnits="userSpaceOnUse">
<stop stop-color="white" stop-opacity="0"/>
<stop offset="0.26" stop-color="white"/>
<stop offset="0.471357" stop-color="white"/>
<stop offset="0.71" stop-color="white"/>
<stop offset="1" stop-color="white" stop-opacity="0"/>
</linearGradient>
<linearGradient id="paint31_linear_5_695" x1="973.816" y1="365.297" x2="973.816" y2="406.731" gradientUnits="userSpaceOnUse">
<stop stop-color="white" stop-opacity="0"/>
<stop offset="0.26" stop-color="white"/>
<stop offset="0.471357" stop-color="white"/>
<stop offset="0.71" stop-color="white"/>
<stop offset="1" stop-color="white" stop-opacity="0"/>
</linearGradient>
<linearGradient id="paint32_linear_5_695" x1="952.594" y1="398.461" x2="994.028" y2="398.461" gradientUnits="userSpaceOnUse">
<stop stop-color="white" stop-opacity="0"/>
<stop offset="0.26" stop-color="white"/>
<stop offset="0.471357" stop-color="white"/>
<stop offset="0.71" stop-color="white"/>
<stop offset="1" stop-color="white" stop-opacity="0"/>
</linearGradient>
<linearGradient id="paint33_linear_5_695" x1="952.594" y1="394.838" x2="994.028" y2="394.838" gradientUnits="userSpaceOnUse">
<stop stop-color="white" stop-opacity="0"/>
<stop offset="0.26" stop-color="white"/>
<stop offset="0.471357" stop-color="white"/>
<stop offset="0.71" stop-color="white"/>
<stop offset="1" stop-color="white" stop-opacity="0"/>
</linearGradient>
<linearGradient id="paint34_linear_5_695" x1="952.594" y1="376.189" x2="994.028" y2="376.189" gradientUnits="userSpaceOnUse">
<stop stop-color="white" stop-opacity="0"/>
<stop offset="0.26" stop-color="white"/>
<stop offset="0.471357" stop-color="white"/>
<stop offset="0.71" stop-color="white"/>
<stop offset="1" stop-color="white" stop-opacity="0"/>
</linearGradient>
<linearGradient id="paint35_linear_5_695" x1="952.594" y1="385.516" x2="994.028" y2="385.516" gradientUnits="userSpaceOnUse">
<stop stop-color="white" stop-opacity="0"/>
<stop offset="0.26" stop-color="white"/>
<stop offset="0.471357" stop-color="white"/>
<stop offset="0.71" stop-color="white"/>
<stop offset="1" stop-color="white" stop-opacity="0"/>
</linearGradient>
<linearGradient id="paint36_linear_5_695" x1="952.594" y1="372.566" x2="994.028" y2="372.566" gradientUnits="userSpaceOnUse">
<stop stop-color="white" stop-opacity="0"/>
<stop offset="0.26" stop-color="white"/>
<stop offset="0.471357" stop-color="white"/>
<stop offset="0.71" stop-color="white"/>
<stop offset="1" stop-color="white" stop-opacity="0"/>
</linearGradient>
<linearGradient id="paint37_linear_5_695" x1="952.947" y1="364.943" x2="994.382" y2="406.378" gradientUnits="userSpaceOnUse">
<stop stop-color="white" stop-opacity="0"/>
<stop offset="0.354789" stop-color="white"/>
<stop offset="0.471357" stop-color="white"/>
<stop offset="0.588196" stop-color="white"/>
<stop offset="1" stop-color="white" stop-opacity="0"/>
</linearGradient>
<linearGradient id="paint38_linear_5_695" x1="993.674" y1="364.943" x2="952.239" y2="406.378" gradientUnits="userSpaceOnUse">
<stop stop-color="white" stop-opacity="0"/>
<stop offset="0.354789" stop-color="white"/>
<stop offset="0.471357" stop-color="white"/>
<stop offset="0.588196" stop-color="white"/>
<stop offset="1" stop-color="white" stop-opacity="0"/>
</linearGradient>
<linearGradient id="paint39_linear_5_695" x1="1320.4" y1="213.445" x2="1403.58" y2="215.044" gradientUnits="userSpaceOnUse">
<stop stop-color="#047AFF"/>
<stop offset="1" stop-color="#7917DF"/>
</linearGradient>
<linearGradient id="paint40_linear_5_695" x1="1339.57" y1="223.989" x2="1388.37" y2="224.905" gradientUnits="userSpaceOnUse">
<stop stop-color="#047AFF"/>
<stop offset="1" stop-color="#7917DF"/>
</linearGradient>
<linearGradient id="paint41_linear_5_695" x1="1340.87" y1="230.403" x2="1340.87" y2="271.837" gradientUnits="userSpaceOnUse">
<stop stop-color="white" stop-opacity="0"/>
<stop offset="0.26" stop-color="white"/>
<stop offset="0.471357" stop-color="white"/>
<stop offset="0.71" stop-color="white"/>
<stop offset="1" stop-color="white" stop-opacity="0"/>
</linearGradient>
<linearGradient id="paint42_linear_5_695" x1="1366.77" y1="230.403" x2="1366.77" y2="271.837" gradientUnits="userSpaceOnUse">
<stop stop-color="white" stop-opacity="0"/>
<stop offset="0.26" stop-color="white"/>
<stop offset="0.471357" stop-color="white"/>
<stop offset="0.71" stop-color="white"/>
<stop offset="1" stop-color="white" stop-opacity="0"/>
</linearGradient>
<linearGradient id="paint43_linear_5_695" x1="1353.82" y1="230.403" x2="1353.82" y2="271.837" gradientUnits="userSpaceOnUse">
<stop stop-color="white" stop-opacity="0"/>
<stop offset="0.26" stop-color="white"/>
<stop offset="0.471357" stop-color="white"/>
<stop offset="0.71" stop-color="white"/>
<stop offset="1" stop-color="white" stop-opacity="0"/>
</linearGradient>
<linearGradient id="paint44_linear_5_695" x1="1332.59" y1="263.567" x2="1374.03" y2="263.567" gradientUnits="userSpaceOnUse">
<stop stop-color="white" stop-opacity="0"/>
<stop offset="0.26" stop-color="white"/>
<stop offset="0.471357" stop-color="white"/>
<stop offset="0.71" stop-color="white"/>
<stop offset="1" stop-color="white" stop-opacity="0"/>
</linearGradient>
<linearGradient id="paint45_linear_5_695" x1="1332.59" y1="259.944" x2="1374.03" y2="259.944" gradientUnits="userSpaceOnUse">
<stop stop-color="white" stop-opacity="0"/>
<stop offset="0.26" stop-color="white"/>
<stop offset="0.471357" stop-color="white"/>
<stop offset="0.71" stop-color="white"/>
<stop offset="1" stop-color="white" stop-opacity="0"/>
</linearGradient>
<linearGradient id="paint46_linear_5_695" x1="1332.59" y1="241.295" x2="1374.03" y2="241.295" gradientUnits="userSpaceOnUse">
<stop stop-color="white" stop-opacity="0"/>
<stop offset="0.26" stop-color="white"/>
<stop offset="0.471357" stop-color="white"/>
<stop offset="0.71" stop-color="white"/>
<stop offset="1" stop-color="white" stop-opacity="0"/>
</linearGradient>
<linearGradient id="paint47_linear_5_695" x1="1332.59" y1="250.622" x2="1374.03" y2="250.622" gradientUnits="userSpaceOnUse">
<stop stop-color="white" stop-opacity="0"/>
<stop offset="0.26" stop-color="white"/>
<stop offset="0.471357" stop-color="white"/>
<stop offset="0.71" stop-color="white"/>
<stop offset="1" stop-color="white" stop-opacity="0"/>
</linearGradient>
<linearGradient id="paint48_linear_5_695" x1="1332.59" y1="237.672" x2="1374.03" y2="237.672" gradientUnits="userSpaceOnUse">
<stop stop-color="white" stop-opacity="0"/>
<stop offset="0.26" stop-color="white"/>
<stop offset="0.471357" stop-color="white"/>
<stop offset="0.71" stop-color="white"/>
<stop offset="1" stop-color="white" stop-opacity="0"/>
</linearGradient>
<linearGradient id="paint49_linear_5_695" x1="1332.95" y1="230.049" x2="1374.38" y2="271.484" gradientUnits="userSpaceOnUse">
<stop stop-color="white" stop-opacity="0"/>
<stop offset="0.354789" stop-color="white"/>
<stop offset="0.471357" stop-color="white"/>
<stop offset="0.588196" stop-color="white"/>
<stop offset="1" stop-color="white" stop-opacity="0"/>
</linearGradient>
<linearGradient id="paint50_linear_5_695" x1="1373.67" y1="230.049" x2="1332.24" y2="271.484" gradientUnits="userSpaceOnUse">
<stop stop-color="white" stop-opacity="0"/>
<stop offset="0.354789" stop-color="white"/>
<stop offset="0.471357" stop-color="white"/>
<stop offset="0.588196" stop-color="white"/>
<stop offset="1" stop-color="white" stop-opacity="0"/>
</linearGradient>
<linearGradient id="paint51_linear_5_695" x1="586.176" y1="763.699" x2="100.247" y2="722.951" gradientUnits="userSpaceOnUse">
<stop offset="0.0760103" stop-color="#179CFC"/>
<stop offset="0.228707" stop-color="#A517FC"/>
<stop offset="0.293931" stop-color="#179CFC"/>
<stop offset="0.483821" stop-color="#179CFC"/>
<stop offset="0.719833" stop-color="#A517FC"/>
<stop offset="0.891086" stop-color="#179CFC"/>
</linearGradient>
<linearGradient id="paint52_linear_5_695" x1="961.176" y1="612.699" x2="475.247" y2="571.951" gradientUnits="userSpaceOnUse">
<stop offset="0.0760103" stop-color="#179CFC"/>
<stop offset="0.228707" stop-color="#A517FC"/>
<stop offset="0.293931" stop-color="#179CFC"/>
<stop offset="0.483821" stop-color="#179CFC"/>
<stop offset="0.719833" stop-color="#A517FC"/>
<stop offset="0.891086" stop-color="#179CFC"/>
</linearGradient>
<linearGradient id="paint53_linear_5_695" x1="1335.18" y1="462.699" x2="849.247" y2="421.951" gradientUnits="userSpaceOnUse">
<stop offset="0.0760103" stop-color="#179CFC"/>
<stop offset="0.228707" stop-color="#A517FC"/>
<stop offset="0.293931" stop-color="#179CFC"/>
<stop offset="0.483821" stop-color="#179CFC"/>
<stop offset="0.719833" stop-color="#A517FC"/>
<stop offset="0.891086" stop-color="#179CFC"/>
</linearGradient>
<linearGradient id="paint54_linear_5_695" x1="1714.18" y1="328.699" x2="1228.25" y2="287.951" gradientUnits="userSpaceOnUse">
<stop offset="0.0760103" stop-color="#179CFC"/>
<stop offset="0.228707" stop-color="#A517FC"/>
<stop offset="0.293931" stop-color="#179CFC"/>
<stop offset="0.483821" stop-color="#179CFC"/>
<stop offset="0.719833" stop-color="#A517FC"/>
<stop offset="0.891086" stop-color="#179CFC"/>
</linearGradient>
<clipPath id="clip0_5_695">
<rect x="555" y="482" width="350" height="102" rx="16" fill="white"/>
</clipPath>
<clipPath id="clip1_5_695">
<rect x="579.602" y="515.3" width="41.4345" height="41.4345" rx="9" fill="white"/>
</clipPath>
<clipPath id="clip2_5_695">
<rect x="181" y="633" width="350" height="102" rx="16" fill="white"/>
</clipPath>
<clipPath id="clip3_5_695">
<rect x="205.602" y="666.3" width="41.4345" height="41.4345" rx="9" fill="white"/>
</clipPath>
<clipPath id="clip4_5_695">
<rect x="928" y="332" width="350" height="102" rx="16" fill="white"/>
</clipPath>
<clipPath id="clip5_5_695">
<rect x="952.602" y="365.3" width="41.4345" height="41.4345" rx="9" fill="white"/>
</clipPath>
<clipPath id="clip6_5_695">
<rect x="1308" y="197.106" width="350" height="102" rx="16" fill="white"/>
</clipPath>
<clipPath id="clip7_5_695">
<rect x="1332.6" y="230.406" width="41.4345" height="41.4345" rx="9" fill="white"/>
</clipPath>
</defs>
</svg>
