<svg width="36" height="37" viewBox="0 0 36 37" fill="none" xmlns="http://www.w3.org/2000/svg">
<rect y="0.5" width="36" height="36" rx="12" fill="#1869FA"/>
<path d="M25.6189 17.2834C25.696 17.2173 25.7516 17.1295 25.7783 17.0314C25.805 16.9334 25.8018 16.8296 25.7689 16.7334C25.7399 16.6346 25.6812 16.5472 25.6006 16.4831C25.5201 16.4189 25.4217 16.3812 25.3189 16.3751L20.5439 15.9418C20.5055 15.9372 20.469 15.9224 20.4383 15.899C20.4075 15.8755 20.3835 15.8443 20.3689 15.8084L18.4856 11.4001C18.4454 11.3052 18.3781 11.2242 18.2921 11.1673C18.2062 11.1104 18.1054 11.0801 18.0023 11.0801C17.8992 11.0801 17.7984 11.1104 17.7124 11.1673C17.6265 11.2242 17.5592 11.3052 17.5189 11.4001L15.6356 15.8084C15.6249 15.8393 15.6073 15.8673 15.5842 15.8904C15.5611 15.9135 15.5331 15.931 15.5023 15.9418L10.7273 16.3751C10.6245 16.3812 10.5261 16.4189 10.4456 16.4831C10.365 16.5472 10.3063 16.6346 10.2773 16.7334C10.2444 16.8296 10.2412 16.9334 10.2679 17.0314C10.2946 17.1295 10.3502 17.2173 10.4273 17.2834L14.0356 20.4418C14.0642 20.4675 14.0854 20.5003 14.0972 20.5369C14.1089 20.5735 14.1106 20.6126 14.1023 20.6501L13.0023 25.3251C12.9761 25.4238 12.9813 25.5281 13.0172 25.6237C13.053 25.7193 13.1177 25.8013 13.2023 25.8584C13.2873 25.9154 13.3874 25.9458 13.4898 25.9458C13.5921 25.9458 13.6922 25.9154 13.7773 25.8584L17.8939 23.4084C17.9262 23.3876 17.9638 23.3766 18.0023 23.3766C18.0407 23.3766 18.0783 23.3876 18.1106 23.4084L22.2273 25.8584C22.3077 25.9072 22.3999 25.9332 22.4939 25.9334C22.6047 25.9335 22.7126 25.8985 22.8023 25.8334C22.8868 25.7763 22.9515 25.6943 22.9874 25.5987C23.0232 25.5031 23.0284 25.3988 23.0023 25.3001L21.9439 20.6251C21.9356 20.5876 21.9373 20.5485 21.949 20.5119C21.9608 20.4753 21.982 20.4425 22.0106 20.4168L25.6189 17.2834Z" fill="white"/>
</svg>
