<svg width="36" height="37" viewBox="0 0 36 37" fill="none" xmlns="http://www.w3.org/2000/svg">
<rect y="0.5" width="36" height="36" rx="12" fill="#16BDE9"/>
<path d="M21.493 10.166H14.5096C11.4763 10.166 9.66797 11.9743 9.66797 15.0077V21.9827C9.66797 25.0243 11.4763 26.8327 14.5096 26.8327H21.4846C24.518 26.8327 26.3263 25.0243 26.3263 21.991V15.0077C26.3346 11.9743 24.5263 10.166 21.493 10.166ZM22.068 18.1077C22.068 18.4327 21.8096 18.691 21.4846 18.691C21.1596 18.691 20.9013 18.4327 20.9013 18.1077V17.9577L18.6346 20.2243C18.5096 20.3493 18.343 20.4077 18.168 20.391C18.0819 20.384 17.9986 20.3571 17.9249 20.3122C17.8511 20.2674 17.7888 20.2059 17.743 20.1327L16.893 18.866L14.9096 20.8493C14.793 20.966 14.6513 21.016 14.5013 21.016C14.3513 21.016 14.2013 20.9577 14.093 20.8493C13.9848 20.7393 13.9241 20.5912 13.9241 20.4368C13.9241 20.2825 13.9848 20.1344 14.093 20.0243L16.5763 17.541C16.7013 17.416 16.868 17.3577 17.043 17.3743C17.218 17.391 17.3763 17.4827 17.468 17.6327L18.318 18.8993L20.0763 17.141H19.9263C19.6013 17.141 19.343 16.8827 19.343 16.5577C19.343 16.2327 19.6013 15.9743 19.9263 15.9743H21.4763C21.5513 15.9743 21.6263 15.991 21.7013 16.016C21.843 16.0743 21.9596 16.191 22.018 16.3327C22.0513 16.4077 22.0596 16.4827 22.0596 16.5577V18.1077H22.068Z" fill="white"/>
</svg>
